<?xml version="1.0" ?><svg viewBox="0 0 128 128" xmlns="http://www.w3.org/2000/svg"><defs><style>.cls-1{fill:#6d5c49;}.cls-2{fill:#594e43;}.cls-3{fill:#9c3;}.cls-4{fill:#80ab2b;}.cls-5{fill:#d2423f;}.cls-6{fill:#dd6966;}.cls-7{fill:#ba3b38;}</style></defs><title/><g data-name="21 Apple" id="_21_Apple"><path class="cls-1" d="M61.3,43.07A22.19,22.19,0,0,1,83.46,20.9c3.57,0,3.58,5.41,0,5.41A16.77,16.77,0,0,0,66.7,43.07C66.7,46.64,61.3,46.65,61.3,43.07Z"/><path class="cls-2" d="M62.21,37.47A2.21,2.21,0,0,0,64.67,35a21.59,21.59,0,0,0-.54-2.77A22,22,0,0,0,62,37.44Z"/><path class="cls-2" d="M83.46,26.31H82a16.78,16.78,0,0,0-16.57,14.3,1.39,1.39,0,0,1-.77,1.08c-.84.39-1,0-3.22-.83-.2,2-.38,4.15,1.85,4.79h0c1,.5,3.23-.27,3.52-3.9,0-.33.07-.66.11-1A16.77,16.77,0,0,1,83.46,26.31Z"/><path class="cls-3" d="M42.53,18.48a21.77,21.77,0,0,0,19,19A2.21,2.21,0,0,0,64,35,21.77,21.77,0,0,0,45,16,2.21,2.21,0,0,0,42.53,18.48Z"/><path class="cls-4" d="M64,35A21.76,21.76,0,0,0,53.32,18.82a21.75,21.75,0,0,1,10,15.76A2.21,2.21,0,0,1,60.83,37a21.61,21.61,0,0,1-8.33-2.8,21.61,21.61,0,0,0,9,3.23A2.21,2.21,0,0,0,64,35Z"/><path class="cls-5" d="M61.89,110.62a5.22,5.22,0,0,1,4.21,0c11.6,5.15,39.34-2.86,39.34-40.06,0-30.76-26.25-34.08-39.85-28.37a4.11,4.11,0,0,1-3.19,0c-13.6-5.71-39.85-2.39-39.85,28.37C22.56,107.76,50.29,115.77,61.89,110.62Z"/><path class="cls-6" d="M25,71.32c0-28.09,21.89-33.3,36-29.64-13.9-5-38.53-.92-38.53,28.88,0,25.76,13.3,37.51,25.33,40.6C36.58,107.16,25,95.32,25,71.32Z"/><path class="cls-6" d="M69,111.55a6,6,0,0,0-1.91-.54A16.27,16.27,0,0,0,69,111.55Z"/><path class="cls-7" d="M96,46.23c4.14,4.83,6.86,11.88,6.86,21.77,0,36.39-26.54,44.85-38.56,40.38a8.34,8.34,0,0,0-5.78,0c-6.53,2.42-17.34,1-25.86-6.6,9.1,10.19,22.09,12,29.15,8.85a5.27,5.27,0,0,1,4.24,0c11.59,5.16,39.35-2.84,39.35-40.06C105.44,58.75,101.57,51,96,46.23Z"/><path class="cls-6" d="M52.55,48c-10-.91-27.22,17.64-12,44.86C40.58,92.87,34.48,62.43,52.55,48Z"/></g></svg>