<?xml version="1.0" ?><!DOCTYPE svg  PUBLIC '-//W3C//DTD SVG 1.1//EN'  'http://www.w3.org/Graphics/SVG/1.1/DTD/svg11.dtd'><svg height="512px" style="enable-background:new 0 0 512 512;" version="1.1" viewBox="0 0 512 512" width="512px" xml:space="preserve" xmlns="http://www.w3.org/2000/svg" xmlns:xlink="http://www.w3.org/1999/xlink"><g id="_x36_12_x2C__cake_x2C__cup_cake_x2C__Muffins_x2C__baked__x2C__sweets"><g><path d="M161.426,337.11c5.13,1.6,10.59,2.47,16.26,2.47c18.91,0,35.57-9.66,45.3-24.319    c9.74,14.659,26.4,24.319,45.311,24.319c18.92,0,35.569-9.66,45.31-24.319c9.74,14.659,26.391,24.319,45.3,24.319    c5.67,0,11.13-0.87,16.261-2.47l-25.32,120.27h-27.18h-27.19h-27.18h-27.181h-27.189h-27.181L161.426,337.11z" style="fill:#F78F4B;"/><g><path d="M173.625,348.035c5.13,1.6,10.59,2.47,16.26,2.47c18.307,0,34.484-9.068,44.328-22.946     c-4.339-3.498-8.135-7.643-11.228-12.298c-9.729,14.659-26.39,24.319-45.3,24.319c-5.67,0-11.13-0.87-16.26-2.47l25.319,120.27     h9.899L173.625,348.035z" style="fill:#E2773B;"/><path d="M371.104,350.505c0.418,0,0.831-0.015,1.247-0.023l2.814-13.371     c-5.131,1.6-10.591,2.47-16.261,2.47c-10.972,0-21.172-3.269-29.714-8.863C339.163,342.795,354.227,350.505,371.104,350.505z" style="fill:#E2773B;"/><path d="M280.495,350.505c18.316,0,34.484-9.068,44.336-22.946c-4.338-3.497-8.133-7.643-11.226-12.298     c-9.74,14.659-26.39,24.319-45.31,24.319c-10.976,0-21.182-3.271-29.728-8.868C248.541,342.793,263.613,350.505,280.495,350.505z     " style="fill:#E2773B;"/></g><path d="M150.495,94.93c10.011,0,18.13,8.11,18.13,18.12c0,10.01-8.119,18.12-18.13,18.12    c-10,0-18.12-8.11-18.12-18.12C132.375,103.041,140.495,94.93,150.495,94.93z" style="fill:#EF3E5C;"/><path d="M137.375,124.8c0-10.01,8.12-18.12,18.12-18.12c5.151,0,9.79,2.158,13.092,5.606    c-0.404-9.652-8.339-17.356-18.092-17.356c-10,0-18.12,8.11-18.12,18.12c0,4.86,1.925,9.262,5.039,12.516    C137.403,125.31,137.375,125.059,137.375,124.8z" style="fill:#D63054;"/><path d="M303.046,147.99c-9.471,8.68-19.851,17.9-30.24,28.49c-11.431-11.65-22.86-21.66-33.07-31.1    c-20.92-19.35-36.68-36.33-36.68-60.22c0-19.62,15.62-35.54,34.88-35.54c17.43,0,26.149,8.89,34.87,26.66    c8.72-17.77,17.44-26.66,34.88-26.66c19.29,0,34.91,15.92,34.91,35.54C342.596,110.12,325.376,127.53,303.046,147.99z" style="fill:#EF3E5C;"/><g><path d="M257.386,154.44c-20.92-19.35-36.68-36.33-36.68-60.22c0-19.62,15.62-35.54,34.88-35.54     c2.139,0,4.143,0.138,6.035,0.405c-6.038-6.292-13.315-9.465-23.686-9.465c-19.26,0-34.88,15.92-34.88,35.54     c0,23.89,15.76,40.87,36.68,60.22c10.21,9.44,21.64,19.45,33.07,31.1c1.368-1.395,2.736-2.763,4.103-4.112     C270.137,166.032,263.538,160.129,257.386,154.44z" style="fill:#D63054;"/></g><path d="M239.735,145.38c10.21,9.44,21.64,19.45,33.07,31.1c10.39-10.59,20.77-19.81,30.24-28.49    c27.66,13.05,46.8,41.19,46.8,73.79c0,3.37-0.21,6.68-0.6,9.94c3.14-0.56,6.359-0.87,9.659-0.87c30.03,0,54.37,24.34,54.37,54.36    c0,24.37-16.02,44.98-38.109,51.9c-5.131,1.6-10.591,2.47-16.261,2.47c-18.909,0-35.56-9.66-45.3-24.319    c-9.74,14.659-26.39,24.319-45.31,24.319c-18.91,0-35.57-9.66-45.311-24.319c-9.729,14.659-26.39,24.319-45.3,24.319    c-5.67,0-11.13-0.87-16.26-2.47c-22.08-6.92-38.11-27.53-38.11-51.9c0-30.02,24.34-54.36,54.37-54.36c3.3,0,6.52,0.31,9.66,0.87    c-0.391-3.26-0.601-6.57-0.601-9.94C186.745,186.791,208.785,156.95,239.735,145.38z" style="fill:#FFECB2;"/><g><path d="M132.376,296.55c0-30.02,24.34-54.36,54.37-54.36c3.3,0,6.52,0.31,9.66,0.87     c-0.391-3.26-0.601-6.57-0.601-9.94c0-34.99,22.04-64.83,52.99-76.4c10.21,9.44,21.64,19.45,33.07,31.1     c10.39-10.59,20.77-19.81,30.24-28.49c9.127,4.306,17.318,10.264,24.208,17.475c-8.213-12.393-19.713-22.419-33.269-28.814     c-9.471,8.68-19.851,17.9-30.24,28.49c-11.431-11.65-22.86-21.66-33.07-31.1c-30.95,11.57-52.99,41.41-52.99,76.4     c0,3.37,0.21,6.68,0.601,9.94c-3.141-0.56-6.36-0.87-9.66-0.87c-30.03,0-54.37,24.34-54.37,54.36     c0,15.45,6.449,29.384,16.792,39.281C135.204,316.325,132.376,306.771,132.376,296.55z" style="fill:#E5CF93;"/></g><path d="M358.905,285.21c5.011,0,9.061,4.061,9.061,9.07c0,5-4.05,9.06-9.061,9.06    c-5,0-9.06-4.06-9.06-9.06C349.846,289.271,353.905,285.21,358.905,285.21z" style="fill:#E5CF93;"/><path d="M286.416,230.85c5.01,0,9.06,4.05,9.06,9.06c0,5-4.05,9.06-9.06,9.06c-5,0-9.061-4.06-9.061-9.06    C277.355,234.9,281.416,230.85,286.416,230.85z" style="fill:#E5CF93;"/><path d="M222.985,203.66c5.01,0,9.07,4.06,9.07,9.06c0,5.01-4.061,9.06-9.07,9.06c-5,0-9.06-4.05-9.06-9.06    C213.926,207.72,217.985,203.66,222.985,203.66z" style="fill:#E5CF93;"/><path d="M213.926,258.03c5.01,0,9.06,4.06,9.06,9.06s-4.05,9.061-9.06,9.061c-5,0-9.061-4.061-9.061-9.061    S208.926,258.03,213.926,258.03z" style="fill:#E5CF93;"/><path d="M168.625,276.15c5,0,9.061,4.06,9.061,9.06c0,5.011-4.061,9.07-9.061,9.07    c-5.01,0-9.06-4.06-9.06-9.07C159.565,280.21,163.615,276.15,168.625,276.15z" style="fill:#E5CF93;"/><path d="M322.666,462.38c-2.762,0-5-2.238-5-5v-90.609c0-2.762,2.238-5,5-5s5,2.238,5,5v90.609    C327.666,460.142,325.428,462.38,322.666,462.38z" style="fill:#E2773B;"/><path d="M295.476,462.38c-2.762,0-5-2.238-5-5v-54.369c0-2.762,2.238-5,5-5s5,2.238,5,5v54.369    C300.476,460.142,298.237,462.38,295.476,462.38z" style="fill:#E2773B;"/><path d="M268.296,462.38c-2.762,0-5-2.238-5-5v-90.609c0-2.762,2.238-5,5-5s5,2.238,5,5v90.609    C273.296,460.142,271.058,462.38,268.296,462.38z" style="fill:#E2773B;"/><path d="M241.115,462.38c-2.761,0-5-2.238-5-5v-54.369c0-2.762,2.239-5,5-5c2.762,0,5,2.238,5,5v54.369    C246.115,460.142,243.877,462.38,241.115,462.38z" style="fill:#E2773B;"/><path d="M213.926,462.38c-2.762,0-5-2.238-5-5v-90.609c0-2.762,2.238-5,5-5c2.761,0,5,2.238,5,5v90.609    C218.926,460.142,216.687,462.38,213.926,462.38z" style="fill:#E2773B;"/><path d="M104.245,173.37c10.011,0,18.13,8.11,18.13,18.12c0,10.01-8.119,18.12-18.13,18.12    c-10,0-18.12-8.11-18.12-18.12C86.125,181.48,94.245,173.37,104.245,173.37z" style="fill:#EF3E5C;"/><path d="M91.125,203.24c0-10.01,8.12-18.12,18.12-18.12c5.151,0,9.79,2.158,13.092,5.606    c-0.404-9.652-8.339-17.356-18.092-17.356c-10,0-18.12,8.11-18.12,18.12c0,4.86,1.925,9.262,5.039,12.516    C91.153,203.75,91.125,203.498,91.125,203.24z" style="fill:#D63054;"/><path d="M407.746,163.36c10.01,0,18.129,8.11,18.129,18.12c0,10.01-8.119,18.12-18.129,18.12    c-10,0-18.121-8.11-18.121-18.12C389.625,171.471,397.746,163.36,407.746,163.36z" style="fill:#EF3E5C;"/><path d="M394.625,193.23c0-10.01,8.121-18.12,18.121-18.12c5.15,0,9.789,2.158,13.091,5.606    c-0.403-9.652-8.339-17.356-18.091-17.356c-10,0-18.121,8.11-18.121,18.12c0,4.86,1.926,9.262,5.039,12.516    C394.653,193.74,394.625,193.489,394.625,193.23z" style="fill:#D63054;"/><path d="M413.275,462.38h-289.96c-2.762,0-5-2.238-5-5s2.238-5,5-5h289.96c2.762,0,5,2.238,5,5    S416.037,462.38,413.275,462.38z" style="fill:#FFECB2;"/></g></g><g id="Layer_1"/></svg>