<svg width="174" height="166" viewBox="0 0 174 166" fill="none" xmlns="http://www.w3.org/2000/svg">
<path d="M60.498 27.2884L106.998 25.5744L111.59 78.9334L62.511 77.4034L60.498 27.2884Z" fill="url(#paint0_linear_605_3)"/>
<path d="M128.771 84.7244C125.924 78.2174 119.201 77.5474 118.195 77.4464C114.681 77.1074 100.635 77.5814 99.171 72.8924C97.349 67.0444 97.371 53.1744 97.371 53.1744L75.642 52.3574C78.108 56.4684 78.342 71.6744 74.27 74.9874C71.145 77.5304 63.87 76.8714 58.798 77.4304C56.028 77.7304 47.864 80.0584 45.598 88.3524C43.764 95.0634 43.572 104.317 44.134 113.105H132.591C133.005 102.385 131.76 91.6054 128.771 84.7244Z" fill="#F7D4AB"/>
<path d="M117.868 162.647C116.088 152.854 114.597 137.605 118.253 127.547C119.918 122.614 121.291 117.587 122.364 112.491L131.764 134.343C131.764 134.343 133.355 89.2094 127.688 79.4044C125.088 74.9044 113.653 76.1754 113.653 76.1754C113.653 76.1754 109.496 83.6264 87.343 83.4494C62.732 83.2494 60.663 76.1754 60.663 76.1754C57.723 75.5594 50.923 75.9174 48.092 79.4044C43.303 85.3044 41.211 131.862 41.211 131.862L52.911 113.076C53.6576 118.148 54.7623 123.161 56.217 128.076C58.001 134.105 60.486 147.012 57.508 159.876C57.234 161.07 56.737 163.201 56.16 165.747H118.6C118.242 164.361 117.98 163.268 117.868 162.647Z" fill="white"/>
<path d="M118.466 162.797C112.082 141.661 116.648 132.397 117.738 126.74C118.555 122.471 122.585 118.684 122.981 114.072C121.852 113.825 122.041 109.41 121.367 108.443C119.907 118.943 119.767 120.872 113.901 121.343C107.683 121.843 94.31 121.728 87.992 121.943C81.674 122.158 67.669 122.436 61.992 120.479C58.27 119.192 54.926 117.779 53.192 108.127C52.892 112.018 52.46 111.371 52.63 113.49C53.104 119.369 54.298 120.748 56.198 128.076C56.475 129.147 60.86 138.863 57.72 158.839C83.72 157.729 98.527 159.787 111.395 165.751H119.316C118.97 164.516 118.662 163.502 118.466 162.797Z" fill="white"/>
<path d="M107.316 91.3584C115.904 92.2094 118.816 99.6684 116.085 106.187C113.207 113.056 97.265 110.425 85.718 110.575C76.36 110.698 66.118 110.983 61.936 106.541C57.754 102.099 57.359 96.4594 64.248 93.9664C69.476 92.0664 75.525 96.1434 85.873 96.1814C93.947 96.2124 98.909 90.5454 107.316 91.3584Z" fill="white"/>
<path d="M126.887 95.4504C125.951 88.6504 127.349 80.0744 124.918 77.2234C126.341 77.6561 127.542 78.6239 128.266 79.9234C130.373 83.3484 131.417 86.8584 133.039 94.6324C134.411 101.221 128.821 109.47 126.887 95.4504Z" fill="white"/>
<path d="M46.694 93.4364C47.558 87.6129 49.4486 81.989 52.278 76.8264C49.835 77.0034 46.222 79.6734 44.892 82.3474C44.005 84.1274 44.69 107.443 46.694 93.4364Z" fill="white"/>
<path d="M121.359 102.592C119.132 130 108.788 128.628 104.92 128.732C93.682 129.032 78.83 128.782 70.608 128.532C59.821 128.204 57.856 125.515 57.856 125.515C57.856 125.515 55.544 122.51 53.233 107.762C52.516 120.662 59.32 139.23 58.842 146.512C64.347 143.723 71.86 143.112 91.251 144.123C108.407 145.023 117.603 159.796 117.603 159.796C117.603 159.796 114.193 137.104 117.491 131.383C119.955 126.013 121.539 120.282 122.184 114.408C122.391 113.029 121.359 102.592 121.359 102.592Z" fill="white"/>
<path d="M124.826 117.556C124.826 117.556 119.714 85.0434 118.426 90.9304C117.378 95.7004 114.843 114.47 114.843 114.47L124.826 117.556Z" fill="url(#paint1_linear_605_3)"/>
<path d="M49.021 117.918C49.021 117.918 54.029 86.1344 55.57 91.9364C56.841 96.6564 60.028 117.61 60.028 117.61L49.021 117.918Z" fill="url(#paint2_linear_605_3)"/>
<path d="M129.572 82.3584C129.572 82.3584 120.472 100.947 119.817 102.211C119.162 103.475 104.087 132.947 114.265 142.556C114.265 142.556 131.067 83.0254 129.572 82.3584Z" fill="white"/>
<path d="M44.86 82.1004C44.86 82.1004 53.679 100.808 54.322 102.1C54.965 103.392 69.59 133.064 59.269 142.526C59.269 142.525 43.358 82.7434 44.86 82.1004Z" fill="white"/>
<path d="M120.438 108.868C120.438 108.868 120.611 98.4234 119.606 97.4144C118.601 96.4054 116.562 116.543 116.562 116.543L120.438 108.868Z" fill="url(#paint3_linear_605_3)"/>
<path d="M108.187 77.0264C108.933 76.6945 109.654 76.3082 110.344 75.8704C102.253 74.8224 99.83 73.4474 99.244 73.0464C98.658 72.6454 98.019 70.6074 97.795 68.2574C97.695 67.2324 97.548 64.6574 97.514 63.3184C97.229 63.6654 79.514 63.0184 78.825 62.0124H76.768C77.1 65.7375 76.9798 69.4891 76.41 73.1854C76.21 74.1374 70.469 75.4974 66.701 76.2674C66.971 76.4794 67.938 77.1304 68.153 77.2464C71.378 77.5624 74.153 77.9394 75.473 77.7124C77.083 77.4354 81.773 77.4964 83.864 76.9414C95.037 73.9714 96.543 70.9504 96.543 70.9504C97.043 75.4774 99.543 76.3444 99.363 76.3054C102.26 76.9328 105.227 77.1752 108.187 77.0264V77.0264Z" fill="url(#paint4_linear_605_3)"/>
<path d="M90.745 82.7474C90.745 82.7474 88.819 79.7474 86.43 81.7474C86.43 81.7464 89.739 81.5654 90.745 82.7474Z" fill="url(#paint5_linear_605_3)"/>
<path d="M91.389 81.0064C91.389 81.0064 92.456 78.2404 93.943 77.8704C95.43 77.5004 111.343 77.2304 113.268 76.8534C113.268 76.8534 106.487 78.1744 102.253 78.6684C98.019 79.1624 94.706 78.4214 91.389 81.0064Z" fill="url(#paint6_linear_605_3)"/>
<path d="M86.133 80.9794C85.524 79.7638 84.5121 78.7971 83.27 78.2444C81.44 77.6284 67.451 76.7654 64.935 77.0074C64.936 77.0074 82.586 78.7794 86.133 80.9794Z" fill="url(#paint7_linear_605_3)"/>
<path d="M76.414 73.2094C76.414 73.2094 76.923 62.0794 76.252 59.2244C76.252 59.2244 97.241 56.2154 98.189 56.2964C97.804 58.6354 97.627 65.3234 97.627 65.3234C97.627 65.3234 88.611 77.0984 76.414 73.2094Z" fill="url(#paint8_linear_605_3)"/>
<path d="M98.05 62.0093C96.2746 65.0238 95.1095 68.3581 94.621 71.8223C93.504 78.2643 98.034 83.6113 98.034 83.6113L104.129 83.1723L98.05 62.0093Z" fill="url(#paint9_linear_605_3)"/>
<path d="M77.053 67.7684C77.053 67.7684 84.408 72.3914 85.425 76.6754C86.0111 79.3277 85.698 82.0996 84.535 84.5544L75.847 80.9794L77.053 67.7684Z" fill="url(#paint10_linear_605_3)"/>
<path d="M97.507 82.9093C95.9835 85.0029 94.9359 87.404 94.4374 89.9447C93.9389 92.4854 94.0015 95.1044 94.621 97.6183C96.586 106.618 103.709 109.446 105.905 113.16C108.101 116.874 101.969 117.999 101.969 117.999C101.969 117.999 113.384 116.427 110.013 106.537C106.642 96.6474 104.126 84.6663 103.113 81.2983C101.225 82.5163 97.507 82.9093 97.507 82.9093Z" fill="white"/>
<path d="M75.03 80.9144C78.1425 82.439 81.5413 83.2909 85.005 83.4144C84.6556 84.6831 84.0371 85.8617 83.1916 86.8701C82.3461 87.8785 81.2934 88.6931 80.105 89.2584C82.0418 91.0461 83.4149 93.3601 84.0561 95.9166C84.6973 98.4731 84.5788 101.161 83.715 103.651C81.623 110.536 74.299 115.159 68.258 117.467C68.261 117.464 73.381 85.9964 75.03 80.9144Z" fill="white"/>
<path d="M68.092 78.9294C68.092 78.9294 74.803 83.2754 88.126 83.1674C101.449 83.0594 107.617 79.9814 107.617 79.9814L108.692 82.7434C108.692 82.7434 104.936 86.4304 88.127 86.4574C71.152 86.4884 66.918 81.5294 66.918 81.5294L68.092 78.9294Z" fill="white"/>
<path d="M66.651 35.9534C67.533 42.6534 68.273 47.7534 68.273 47.7534C65.407 47.7534 64.355 44.8794 63.234 42.3594C61.523 38.4874 60.51 34.3384 64.409 34.1144C65.156 34.0614 66.651 35.9534 66.651 35.9534Z" fill="#F0C499"/>
<path d="M66.12 45.5003C65.6505 44.8803 65.321 44.1659 65.1541 43.4064C64.9871 42.6468 64.9868 41.8601 65.153 41.1003C66.178 34.2083 61.505 33.7383 62.568 38.4383C62.568 38.4383 63.211 36.2233 63.805 36.8973C64.529 37.7103 63.034 38.1613 63.805 41.7173C64.2758 43.1394 65.068 44.4339 66.12 45.5003V45.5003Z" fill="url(#paint11_linear_605_3)"/>
<path d="M106.757 35.9534C105.875 42.6534 105.135 47.7534 105.135 47.7534C108.001 47.7534 109.053 44.8794 110.174 42.3594C111.885 38.4874 112.894 34.3384 108.999 34.1144C108.236 34.0614 106.757 35.9534 106.757 35.9534Z" fill="#F0C499"/>
<path d="M107.277 45.5004C107.746 44.8803 108.076 44.166 108.243 43.4064C108.41 42.6468 108.41 41.8601 108.244 41.1004C107.219 34.2044 111.889 33.7344 110.827 38.4344C110.827 38.4344 110.18 36.2194 109.59 36.8934C108.862 37.7064 110.361 38.1574 109.59 41.7134C109.12 43.1367 108.329 44.4326 107.277 45.5004Z" fill="url(#paint12_linear_605_3)"/>
<path d="M106.418 13.8123C103.918 8.09935 98.054 6.06835 89.382 5.51735C89.382 5.51735 69.56 8.10635 67.06 13.8123C64.34 20.0423 65.111 28.7644 65.881 34.4784C66.651 40.1924 68.193 49.4574 69.637 52.0784C71.081 54.6994 78.344 64.4064 79.457 65.9944C80.825 67.9474 83.144 70.5713 86.75 70.5713C90.51 70.5713 92.221 68.5913 94.228 66.5373C95.588 65.1463 102.365 54.4244 103.79 51.8044C105.215 49.1844 106.795 40.1884 107.573 34.4674C108.351 28.7463 109.136 20.0413 106.418 13.8123Z" fill="url(#paint13_linear_605_3)"/>
<path d="M104.249 29.2884C103.354 28.5832 102.329 28.0622 101.232 27.7553C100.135 27.4484 98.9877 27.3618 97.857 27.5004C88.757 28.4254 88.892 37.5174 88.04 42.6684C99.213 47.0994 105.712 39.0314 105.712 39.0314C105.712 39.0314 107.628 31.9354 104.249 29.2884Z" fill="url(#paint14_linear_605_3)"/>
<path d="M74.788 27.8944C73.6992 27.7544 72.5933 27.8327 71.5351 28.1245C70.4768 28.4164 69.4872 28.9161 68.624 29.5944C65.264 32.3374 67.724 40.0544 67.724 40.0544C67.724 40.0544 74.273 47.8404 85.424 43.0594C84.531 37.9574 83.896 28.5184 74.788 27.8944Z" fill="url(#paint15_linear_605_3)"/>
<path d="M78.502 36.9934C75.948 36.2224 66.046 34.1464 66.516 37.4364C67.56 44.7064 68.516 49.7074 69.775 51.9684C71.1 54.3414 74.995 58.0744 76.675 58.3564C79.275 58.7994 82.034 49.2214 82.096 45.9434C82.185 41.3434 81.056 37.7594 78.502 36.9934Z" fill="url(#paint16_radial_605_3)"/>
<path d="M94.987 36.9934C97.541 36.2224 107.443 34.1464 106.973 37.4364C105.948 44.6984 104.973 49.7074 103.714 51.9604C102.389 54.3334 98.494 58.0664 96.814 58.3484C94.214 58.7914 91.455 49.2134 91.393 45.9354C91.308 41.3434 92.429 37.7594 94.987 36.9934Z" fill="url(#paint17_radial_605_3)"/>
<path d="M99.864 31.9124C99.864 31.9124 115.683 7.32835 86.392 7.32835C57.101 7.32835 73.127 31.8284 73.127 31.8284C73.127 31.8284 76.822 11.1824 87.116 11.5014C87.116 11.5004 92.14 11.7864 99.864 31.9124Z" fill="url(#paint18_linear_605_3)"/>
<path d="M101.298 38.4544C101.989 40.2979 102.453 42.2192 102.677 44.1754C102.696 48.7984 97.499 61.9364 97.499 61.9364C97.499 61.9364 105.135 51.6114 105.035 51.1494C104.935 50.6874 106.988 42.4154 106.988 42.4154L103.158 36.0894L101.298 38.4544Z" fill="url(#paint19_linear_605_3)"/>
<path d="M71.382 37.8724C70.693 39.7164 70.2312 41.6376 70.007 43.5934C69.988 48.2164 77.288 63.0074 77.288 63.0074C77.288 63.0074 67.548 51.0334 67.656 50.5714C67.764 50.1094 65.707 41.8334 65.707 41.8334L69.533 35.5074L71.382 37.8724Z" fill="url(#paint20_linear_605_3)"/>
<path d="M98.243 28.7834C98.243 28.7834 100.975 27.0384 105.012 29.6004C107.162 30.9684 105.544 36.1734 105.544 36.1734C105.544 36.1734 106.499 28.2014 98.243 28.7834Z" fill="url(#paint21_linear_605_3)"/>
<path d="M98.096 31.7614C91.974 31.7614 91.408 35.5024 91.281 38.2034C91.743 38.3034 92.233 38.3964 93.142 38.6774C94.6534 39.2777 96.2592 39.6051 97.885 39.6444C99.522 39.6444 103.04 38.8934 103.085 35.3754C103.132 32.5974 99.576 31.8844 98.096 31.7614Z" fill="url(#paint22_linear_605_3)"/>
<path d="M91.558 37.9953C92.633 38.2121 93.6892 38.513 94.717 38.8953C94.3494 38.6262 94.0567 38.2675 93.8666 37.8534C93.6766 37.4394 93.5955 36.9836 93.631 36.5294C93.7795 35.5394 94.2703 34.6329 95.018 33.9673C93.5371 34.9898 92.3453 36.3772 91.558 37.9953Z" fill="url(#paint23_linear_605_3)"/>
<path d="M91.558 37.9953C92.1868 37.3145 92.9018 36.7188 93.685 36.2234C93.82 35.4834 96.585 34.0464 97.185 33.5844C95.9145 33.6767 94.7005 34.1457 93.6978 34.9314C92.6952 35.7171 91.9495 36.7838 91.556 37.9953H91.558Z" fill="#DDDDDD"/>
<path d="M99.755 36.8394C99.7278 37.3345 99.576 37.8148 99.3138 38.2357C99.0516 38.6567 98.6874 39.0046 98.255 39.2474C99.2449 39.1572 100.193 38.8035 101 38.2232C101.807 37.6429 102.443 36.8571 102.844 35.9474C100.636 34.1134 99.049 33.5394 97.544 33.4084C98.2337 33.6647 98.8218 34.1375 99.2204 34.756C99.6189 35.3745 99.8065 36.1054 99.755 36.8394V36.8394Z" fill="url(#paint24_linear_605_3)"/>
<path d="M93.681 36.1454C93.6559 36.2725 93.6392 36.4011 93.631 36.5304C93.5867 36.9855 93.6639 37.4443 93.8547 37.8599C94.0455 38.2755 94.343 38.6332 94.717 38.8964C95.9695 39.2456 97.275 39.3645 98.57 39.2474C99.0112 39.0268 99.3878 38.6959 99.6633 38.2867C99.9387 37.8776 100.104 37.4041 100.142 36.9124C100.175 36.3558 100.065 35.8001 99.822 35.2984C98.8034 34.9497 97.7172 34.8448 96.6507 34.9921C95.5841 35.1394 94.567 35.5347 93.681 36.1464V36.1454Z" fill="url(#paint25_linear_605_3)"/>
<path d="M96.066 33.6344C96.752 34.0194 99.78 35.0794 100.015 35.8154C100.759 36.1211 101.458 36.5247 102.095 37.0154L102.695 35.7984C101.822 34.6824 98.243 33.4104 96.066 33.6344Z" fill="#DDDDDD"/>
<path d="M98.57 34.0844C97.71 33.6669 96.7254 33.5846 95.808 33.8534C95.4273 33.878 95.0649 34.0254 94.775 34.2733C94.1751 34.762 93.7792 35.4571 93.665 36.2223C94.5913 35.6736 95.6286 35.3391 96.701 35.2434C97.8425 35.1624 98.9865 35.3608 100.034 35.8214C99.7949 35.0713 99.2685 34.4464 98.57 34.0833V34.0844Z" fill="url(#paint26_linear_605_3)"/>
<path d="M96.987 34.2994C96.5968 34.2831 96.2104 34.3821 95.8762 34.5841C95.5419 34.7861 95.2745 35.082 95.1074 35.435C94.9403 35.788 94.8809 36.1824 94.9366 36.569C94.9922 36.9555 95.1605 37.3171 95.4204 37.6086C95.6803 37.9001 96.0203 38.1086 96.398 38.2081C96.7757 38.3076 97.1743 38.2936 97.544 38.1679C97.9138 38.0422 98.2384 37.8104 98.4772 37.5014C98.716 37.1924 98.8586 36.8199 98.887 36.4304C98.9176 35.8958 98.7346 35.371 98.3783 34.9714C98.022 34.5718 97.5215 34.33 96.987 34.2994V34.2994Z" fill="url(#paint27_radial_605_3)"/>
<path d="M97.343 35.4564C97.2106 35.3882 97.0572 35.373 96.914 35.4139C96.7708 35.4547 96.6485 35.5486 96.572 35.6764C96.5333 35.7391 96.5074 35.8088 96.4957 35.8816C96.4841 35.9543 96.487 36.0287 96.5042 36.1003C96.5213 36.172 96.5525 36.2395 96.5959 36.2991C96.6393 36.3586 96.6941 36.409 96.757 36.4474C96.8892 36.5165 97.043 36.5322 97.1864 36.4913C97.3299 36.4504 97.4522 36.3559 97.528 36.2274C97.6054 36.1005 97.6293 35.9482 97.5946 35.8037C97.56 35.6592 97.4695 35.5343 97.343 35.4564Z" fill="white"/>
<path d="M99.186 36.2774C99.0553 36.2036 98.9058 36.1701 98.7562 36.1809C98.6066 36.1918 98.4635 36.2466 98.3448 36.3385C98.2262 36.4303 98.1374 36.5552 98.0894 36.6973C98.0414 36.8395 98.0365 36.9926 98.0752 37.1376C98.114 37.2825 98.1946 37.4128 98.307 37.5121C98.4195 37.6114 98.5588 37.6753 98.7074 37.6958C98.856 37.7163 99.0074 37.6924 99.1425 37.6272C99.2776 37.5621 99.3905 37.4584 99.467 37.3294C99.5689 37.1525 99.5966 36.9425 99.544 36.7453C99.4913 36.5481 99.3626 36.3798 99.186 36.2774V36.2774Z" fill="white"/>
<path d="M104.214 33.2303C104.214 33.2303 103.636 33.8394 100.631 32.7564C94.883 30.9034 91.693 34.9023 91.558 37.9963C91.558 37.9963 93.296 33.9964 96.566 33.6274C99.355 33.3114 100.646 34.7373 101.991 35.8273C102.01 37.2063 100.173 38.9094 98.191 39.2944C99.891 39.2944 103.658 37.5604 103.935 36.1274C103.835 36.3044 103.469 36.4273 103.01 36.2623C102.997 36.2623 104.615 35.6143 104.214 33.2303Z" fill="url(#paint28_linear_605_3)"/>
<path d="M95.161 32.0504C94.0015 32.4285 92.9975 33.1755 92.302 34.1774C93.1142 33.2844 94.1716 32.6506 95.342 32.3554C97.0862 31.9878 98.8878 31.9878 100.632 32.3554C98.9086 31.5806 96.9588 31.4737 95.161 32.0554V32.0504Z" fill="url(#paint29_linear_605_3)"/>
<path d="M96.316 33.3293C92.579 33.9723 91.562 37.9953 91.562 37.9953C91.562 37.9953 92.987 34.3584 96.397 33.8304C99.067 33.4184 100.897 34.9864 101.979 35.8304C101.976 35.8374 100.631 32.5823 96.316 33.3293Z" fill="#391B13"/>
<path d="M75.28 31.8083C81.402 31.8083 81.968 35.5494 82.095 38.2504C81.633 38.3504 81.143 38.4433 80.234 38.7243C78.7229 39.3255 77.1169 39.6529 75.491 39.6913C73.857 39.6913 70.336 38.9203 70.291 35.4223C70.248 32.6403 73.805 31.9313 75.28 31.8083Z" fill="url(#paint30_linear_605_3)"/>
<path d="M81.819 38.0374C80.7453 38.2539 79.6904 38.5548 78.664 38.9374C79.0309 38.6668 79.3231 38.3075 79.513 37.8932C79.703 37.4788 79.7845 37.0229 79.75 36.5684C79.6 35.5792 79.1077 34.674 78.359 34.0104C79.8373 35.0352 81.0285 36.4216 81.819 38.0374V38.0374Z" fill="url(#paint31_linear_605_3)"/>
<path d="M81.819 38.0374C81.1909 37.357 80.4757 36.7625 79.692 36.2694C79.561 35.5254 76.792 34.0924 76.192 33.6304C77.4616 33.7228 78.6749 34.1914 79.6771 34.9763C80.6793 35.7612 81.425 36.8269 81.819 38.0374V38.0374Z" fill="#DDDDDD"/>
<path d="M73.624 36.8814C73.6484 37.3792 73.7988 37.8627 74.0612 38.2865C74.3235 38.7103 74.6892 39.0606 75.124 39.3044C74.1343 39.2133 73.187 38.8594 72.3802 38.2792C71.5733 37.699 70.9363 36.9136 70.535 36.0044C72.743 34.1744 74.33 33.6044 75.84 33.4654C75.1514 33.7193 74.5635 34.1892 74.1641 34.805C73.7647 35.4207 73.5752 36.1491 73.624 36.8814Z" fill="url(#paint32_linear_605_3)"/>
<path d="M79.7 36.1884C79.723 36.3274 79.735 36.4233 79.75 36.5733C79.7928 37.0288 79.715 37.4875 79.5244 37.9033C79.3338 38.3192 79.037 38.6775 78.664 38.9423C77.4111 39.2893 76.106 39.4082 74.811 39.2933C74.3688 39.0736 73.9912 38.743 73.7149 38.3338C73.4387 37.9245 73.2734 37.4506 73.235 36.9583C73.2026 36.4015 73.3142 35.8456 73.559 35.3443C74.5772 34.9942 75.6634 34.8881 76.7301 35.0347C77.7967 35.1813 78.8141 35.5765 79.7 36.1884V36.1884Z" fill="url(#paint33_linear_605_3)"/>
<path d="M77.315 33.6763C76.629 34.0613 73.601 35.1253 73.362 35.8573C72.6156 36.1625 71.9134 36.5661 71.274 37.0574L70.685 35.8363C71.556 34.7363 75.127 33.4533 77.315 33.6763Z" fill="#DDDDDD"/>
<path d="M74.807 34.1314C75.6665 33.7127 76.6511 33.6289 77.569 33.8964C77.947 33.9255 78.3059 34.0739 78.594 34.3204C79.1983 34.8064 79.5971 35.5023 79.711 36.2694C78.7821 35.7195 77.7421 35.384 76.667 35.2874C75.5258 35.2108 74.3828 35.409 73.334 35.8654C73.5765 35.1154 74.1061 34.492 74.807 34.1314V34.1314Z" fill="url(#paint34_linear_605_3)"/>
<path d="M76.391 34.3274C76.7801 34.312 77.1651 34.4114 77.4981 34.6133C77.8311 34.8152 78.0973 35.1106 78.2635 35.4628C78.4298 35.8149 78.4887 36.2082 78.433 36.5936C78.3773 36.979 78.2094 37.3395 77.9503 37.6301C77.6912 37.9208 77.3522 38.1288 76.9757 38.2281C76.5992 38.3275 76.2017 38.3139 75.8329 38.1889C75.4641 38.064 75.1402 37.8333 74.9016 37.5255C74.6629 37.2178 74.5202 36.8467 74.491 36.4584C74.4753 36.1936 74.5121 35.9283 74.5992 35.6777C74.6862 35.4272 74.8219 35.1963 74.9985 34.9983C75.175 34.8003 75.3889 34.6391 75.6279 34.524C75.8668 34.4089 76.1262 34.342 76.391 34.3274V34.3274Z" fill="url(#paint35_radial_605_3)"/>
<path d="M76.946 35.4974C76.8113 35.4252 76.654 35.4078 76.5068 35.4488C76.3597 35.4898 76.234 35.586 76.156 35.7174C76.1175 35.7803 76.0918 35.8503 76.0804 35.9232C76.0691 35.9961 76.0723 36.0706 76.0899 36.1422C76.1074 36.2139 76.139 36.2814 76.1828 36.3408C76.2266 36.4002 76.2817 36.4504 76.345 36.4884C76.4775 36.5558 76.6307 36.5706 76.7737 36.5298C76.9167 36.489 77.039 36.3956 77.116 36.2684C77.1955 36.1435 77.2222 35.9922 77.1904 35.8477C77.1585 35.7032 77.0706 35.5772 76.946 35.4974Z" fill="white"/>
<path d="M78.79 36.3194C78.6355 36.2303 78.4549 36.1976 78.279 36.2268C78.1031 36.256 77.9427 36.3453 77.8252 36.4794C77.7077 36.6135 77.6403 36.7843 77.6346 36.9625C77.6288 37.1407 77.685 37.3154 77.7935 37.4569C77.9021 37.5983 78.0564 37.6978 78.23 37.7383C78.4037 37.7788 78.586 37.7578 78.746 37.679C78.9059 37.6002 79.0336 37.4683 79.1073 37.3059C79.1809 37.1435 79.1961 36.9606 79.15 36.7884C79.1238 36.6903 79.0785 36.5985 79.0168 36.518C78.955 36.4375 78.8779 36.37 78.79 36.3194Z" fill="white"/>
<path d="M69.163 33.2753C69.163 33.2753 69.763 33.8753 72.746 32.8053C78.494 30.9483 81.703 34.9474 81.819 38.0374C81.819 38.0374 80.085 34.0373 76.811 33.6723C74.022 33.3523 72.731 34.7783 71.39 35.8723C71.367 37.2473 73.205 38.9543 75.185 39.3393C73.485 39.3393 69.718 37.6053 69.441 36.1723C69.549 36.3493 69.907 36.4723 70.366 36.3033C70.381 36.3033 68.763 35.6603 69.163 33.2753Z" fill="url(#paint36_linear_605_3)"/>
<path d="M78.209 32.0943C79.3693 32.4709 80.3747 33.2164 81.072 34.2173C80.2579 33.3276 79.2011 32.6956 78.032 32.3993C76.2867 32.0297 74.4833 32.0297 72.738 32.3993C74.4608 31.6229 76.4106 31.5142 78.209 32.0943Z" fill="url(#paint37_linear_605_3)"/>
<path d="M77.053 33.3714C80.79 34.0184 81.803 38.0374 81.803 38.0374C81.803 38.0374 80.378 34.4044 76.968 33.8764C74.298 33.4644 72.468 35.0324 71.389 35.8764C71.405 35.8764 72.746 32.6284 77.053 33.3714Z" fill="#391B13"/>
<path d="M82.616 47.3304L86.516 50.0084L90.176 47.2534L89.652 46.8144L86.316 46.8564H82.995L82.616 47.3304Z" fill="url(#paint38_linear_605_3)"/>
<path d="M82.732 47.2604C83.6421 47.0013 84.6104 47.0324 85.502 47.3493H87.089C88.0813 46.9981 89.158 46.9631 90.171 47.2494L90.236 46.5323L88.972 46.2744L86.298 46.9444L83.871 46.2744L82.603 46.4244L82.732 47.2604Z" fill="url(#paint39_linear_605_3)"/>
<path d="M82.224 44.1753C81.9945 44.3375 81.8055 44.5505 81.6718 44.7977C81.5381 45.0448 81.4632 45.3195 81.453 45.6003C81.334 46.7943 82.57 47.4453 82.763 47.3223C82.956 47.1993 82.605 46.2973 83.745 46.4553C84.885 46.6133 84.828 47.1913 85.013 47.3873C85.8416 47.603 86.7103 47.6136 87.544 47.4184C87.883 47.2064 87.791 46.4183 88.869 46.4553C89.947 46.4923 89.979 47.2263 90.133 47.3223C90.287 47.4183 90.927 46.8443 91.112 45.7463C91.1418 45.4146 91.0633 45.0821 90.8882 44.7987C90.7132 44.5153 90.451 44.2962 90.141 44.1743C90.141 44.1743 90.727 45.1453 90.48 45.7743C90.233 46.4033 88.554 45.8593 87.891 46.2833C87.4135 46.6162 86.8455 46.7946 86.2635 46.7946C85.6815 46.7946 85.1135 46.6162 84.636 46.2833C83.819 45.8983 82.671 46.3834 82.213 45.7094C82.0201 45.2168 82.0244 44.6688 82.225 44.1793L82.224 44.1753Z" fill="#F0C499"/>
<path d="M83.741 43.6313C83.673 44.1882 83.8098 44.7509 84.126 45.2143C84.626 45.9853 88.106 46.5933 88.699 44.8523C88.8149 44.3363 88.8332 43.8031 88.753 43.2804C88.691 42.4994 83.764 42.8693 83.741 43.6313Z" fill="url(#paint40_linear_605_3)"/>
<path d="M100.327 26.2864C97.9683 26.3575 95.6323 26.7701 93.392 27.5114C93.0781 27.6671 92.8267 27.9254 92.6796 28.2434C92.5325 28.5615 92.4984 28.9203 92.583 29.2604C92.468 29.0509 92.4155 28.8128 92.4318 28.5744C92.4481 28.3359 92.5325 28.1072 92.675 27.9154C91.7 28.7324 91.824 30.0964 92.933 29.7154C95.3038 28.9362 97.7238 28.3158 100.177 27.8584C101.693 27.8553 103.192 28.173 104.577 28.7904C104.577 28.7904 102.072 26.4684 100.327 26.2864Z" fill="url(#paint41_linear_605_3)"/>
<path d="M72.846 26.2864C75.2047 26.3578 77.5406 26.7704 79.781 27.5114C80.0949 27.6671 80.3463 27.9254 80.4934 28.2434C80.6405 28.5615 80.6746 28.9203 80.59 29.2604C80.7059 29.0511 80.7589 28.8129 80.7426 28.5743C80.7262 28.3357 80.6413 28.1068 80.498 27.9154C81.473 28.7324 81.353 30.0964 80.244 29.7154C77.8729 28.9385 75.4534 28.3182 73.001 27.8584C71.4849 27.8545 69.9853 28.1722 68.601 28.7904C68.601 28.7904 71.104 26.4684 72.846 26.2864Z" fill="url(#paint42_linear_605_3)"/>
<path d="M77.288 63.0063C77.288 63.0063 80.208 67.1824 81.815 68.4464C83.156 69.4984 84.08 69.9254 86.823 70.0184C88.6301 70.1187 90.4192 69.6145 91.908 68.5853C92.702 68.0533 97.108 62.3133 97.498 61.9433C97.498 61.9433 93.853 67.8683 92.717 68.9823C91.1745 70.5471 89.0846 71.4517 86.888 71.5054C85.0377 71.4057 83.2644 70.7326 81.814 69.5793C79.678 67.6953 77.288 63.0063 77.288 63.0063Z" fill="url(#paint43_linear_605_3)"/>
<path d="M86.915 64.2624C85.093 64.3514 83.625 65.0064 83.636 65.7304C83.647 66.4544 85.127 66.9744 86.949 66.8864C88.771 66.7984 90.235 66.1424 90.228 65.4184C90.221 64.6944 88.73 64.1784 86.915 64.2624Z" fill="url(#paint44_linear_605_3)"/>
<path d="M79.114 52.3664C79.114 52.3664 82.886 49.1114 83.957 48.9374C85.507 48.7249 87.0763 48.6913 88.634 48.8374C90.6693 49.611 92.4898 50.8609 93.943 52.4824L86.407 50.9724L79.114 52.3664Z" fill="url(#paint45_linear_605_3)"/>
<path d="M94.555 52.3734C94.555 52.3734 93.784 54.4924 93.561 54.9234C93.338 55.3544 91.095 61.1144 89.993 62.3934C89.1668 63.1035 88.1317 63.5252 87.0445 63.5947C85.9572 63.6641 84.8769 63.3776 83.967 62.7783C82.7485 61.6249 81.7863 60.228 81.143 58.6784C80.962 58.2934 79.602 54.1594 78.481 52.5144C82.015 52.3654 94.555 52.3734 94.555 52.3734Z" fill="url(#paint46_linear_605_3)"/>
<path d="M77.824 52.0854C77.924 51.6234 79.851 52.3743 80.409 53.1953C79.634 52.7633 77.642 52.8864 77.824 52.0854Z" fill="url(#paint47_linear_605_3)"/>
<path d="M95.358 52.2463C95.277 51.7803 93.312 52.4544 92.723 53.2554C93.5 52.8554 95.492 53.0553 95.358 52.2463Z" fill="url(#paint48_linear_605_3)"/>
<path d="M78.999 52.4033C79.276 52.1293 81.457 51.3093 82.289 50.8973C84.0536 50.2596 85.9441 50.0485 87.806 50.2814C89.606 50.5704 92.718 51.3913 94.04 52.5083C93.778 53.2793 91.02 59.6243 89.313 60.0553C87.606 60.4863 83.769 60.2823 83.453 59.8083C83.137 59.3343 79.866 54.0913 78.999 52.4033Z" fill="#951C27"/>
<path d="M81.819 57.4123C81.819 57.4123 81.364 55.7713 83.545 55.0043C85.7907 54.5406 88.1098 54.5655 90.345 55.0773C91.859 55.4623 92.113 57.0923 91.686 57.5313C91.259 57.9703 89.309 60.1243 87.255 60.2313C85.201 60.3383 83.218 60.0403 81.819 57.4123Z" fill="url(#paint49_linear_605_3)"/>
<path d="M81.445 51.5874C81.445 51.5874 81.896 50.4544 86.816 50.6824C91.736 50.9104 92.171 51.7154 92.171 51.7154C92.2289 51.8909 92.2439 52.0777 92.2147 52.2603C92.1855 52.4428 92.1129 52.6156 92.0031 52.7643C91.8933 52.913 91.7495 53.0332 91.5836 53.1148C91.4178 53.1964 91.2348 53.2371 91.05 53.2334C90.45 53.2754 88.419 53.1484 86.743 53.1174C84.817 53.0784 82.482 53.1174 82.297 53.0754C81.291 52.7894 81.445 51.5874 81.445 51.5874Z" fill="url(#paint50_linear_605_3)"/>
<path d="M91.585 55.9483C91.8084 56.3048 91.9453 56.7086 91.985 57.1273C92.035 57.6433 90.059 59.4394 89.546 59.6974C89.033 59.9554 84.757 60.8104 83.817 59.8134C82.877 58.8164 81.86 57.5014 81.86 57.5014C81.7594 57.2493 81.7299 56.9745 81.7747 56.7068C81.8194 56.4392 81.9368 56.1889 82.114 55.9834C82.114 55.9834 83.655 59.5043 86.545 59.5043C89.435 59.5043 90.743 57.2003 91.585 55.9483Z" fill="url(#paint51_linear_605_3)"/>
<path d="M78.868 52.3694C79.1836 52.9561 79.4677 53.5593 79.719 54.1763C80.6273 56.3845 81.6761 58.5323 82.859 60.6064C84.073 62.5324 88.588 63.3493 90.341 60.8293C91.5689 58.8824 92.572 56.8024 93.331 54.6293C93.5954 53.8917 93.9135 53.1744 94.283 52.4834C94.283 52.4644 93.821 52.5414 93.069 53.9664C92.206 55.5924 90.788 58.3543 89.794 59.0363C87.683 60.4883 84.724 59.6874 84.158 59.4874C83.291 59.1794 81.458 56.4933 80.432 54.5063C80.0379 53.7091 79.5088 52.9861 78.868 52.3694V52.3694Z" fill="#F86D78"/>
<path d="M81.253 56.6414C81.8592 57.6701 82.6418 58.5841 83.565 59.3414C84.8442 60.0858 86.3497 60.3415 87.803 60.0614C88.7299 59.88 89.5992 59.4774 90.3371 58.8879C91.0749 58.2983 91.6595 57.5393 92.041 56.6754C92.515 55.7354 90.831 61.0674 88.782 61.6564C88.0141 61.923 87.2005 62.0332 86.3893 61.9803C85.5782 61.9274 84.7858 61.7125 84.059 61.3484C82.594 60.4054 80.906 56.2104 81.253 56.6414Z" fill="url(#paint52_linear_605_3)"/>
<path d="M81.445 50.9984C81.3958 51.3829 81.4049 51.7726 81.472 52.1544C81.584 52.1544 85.472 51.8544 86.985 51.9344C88.7202 52.0183 90.449 52.2022 92.163 52.4854C92.2386 52.2355 92.2544 51.9714 92.209 51.7144C92.209 51.7144 88.649 50.3314 86.815 50.4144C84.981 50.4974 81.445 50.9984 81.445 50.9984Z" fill="url(#paint53_linear_605_3)"/>
<path d="M79.103 52.3154C79.103 52.3154 81.996 50.7394 82.886 50.2964C85.2728 49.3571 87.9229 49.335 90.325 50.2344C91.5925 50.8724 92.8085 51.608 93.962 52.4344C92.462 52.2644 91.123 50.9434 86.453 51.1474C80.737 51.4024 80.71 52.1964 79.103 52.3154Z" fill="#F86D78"/>
<path d="M83.718 50.2043C85.5697 49.6539 87.5402 49.6445 89.397 50.1774C90.426 50.6324 91.709 51.4953 90.892 51.2773C89.4666 50.9178 87.9947 50.7775 86.527 50.8613C85.0145 50.8698 83.5054 51.0063 82.016 51.2693C81.553 51.3633 82.971 50.4463 83.718 50.2043Z" fill="url(#paint54_linear_605_3)"/>
<path d="M78.713 52.6273C79.2348 52.5956 79.7586 52.6265 80.273 52.7194C79.6124 52.4672 78.9356 52.2601 78.247 52.0993C78.147 52.1693 78.295 52.4973 78.713 52.6273Z" fill="#951C27"/>
<path d="M94.482 52.7274C93.9688 52.6693 93.4499 52.6848 92.941 52.7733C93.5913 52.5149 94.2685 52.33 94.96 52.2224C95.037 52.2884 94.901 52.6184 94.482 52.7274Z" fill="#951C27"/>
<path d="M86.931 61.0033C87.798 60.6218 88.6901 60.3001 89.601 60.0403C90.021 59.9673 90.013 60.9073 88.684 61.2923C87.355 61.6773 86.372 61.4263 86.931 61.0033Z" fill="#FF9AA2"/>
<path d="M85.772 10.2374L88.114 0.902357C88.114 0.902357 85.151 -0.0566425 79.914 0.902357C71.465 2.44336 62.314 15.3024 60.423 19.4334C58.532 23.5644 55.677 36.7704 55.842 39.2474C56.007 41.7244 54.686 57.6364 54.02 62.2054C52.5844 69.8437 52.8576 77.7051 54.82 85.2254C54.82 85.2254 48.328 105.683 66.871 112.806C66.871 112.806 66.486 116.574 60.707 117.892C60.707 117.892 85.78 114.571 72.607 88.8854C72.607 88.8854 84.165 86.1854 79.927 74.2064C75.689 62.2274 70.889 58.5684 70.889 58.5684C70.889 58.5684 66.143 41.3894 67.395 39.0434C76.776 21.4404 65.275 7.71336 85.772 10.2374Z" fill="#281612"/>
<path d="M88.114 1.38735C88.114 1.38735 91.196 -0.412645 98.693 2.18735C106.19 4.78735 112.112 19.4174 113.904 24.0064C115.696 28.5954 116.555 48.9984 116.555 48.9984C116.555 48.9984 122.404 61.2304 123.404 66.1114C124.404 70.9924 122.51 77.4924 122.51 77.4924C122.51 77.4924 119.81 83.7534 119.81 88.9504C119.81 94.1474 123.089 102.931 114.751 110.66C108.651 116.316 106.005 116.316 106.005 116.316C106.005 116.316 113.24 111.693 110.628 106.95C108.016 102.207 100.673 100.4 104.428 86.9164C104.428 86.9164 96.958 74.8464 97.794 69.4484C98.63 64.0504 105.141 50.3484 105.719 40.7734C105.719 40.7734 98.599 4.89336 88.119 7.37836L88.114 1.38735Z" fill="#281612"/>
<path d="M71.96 80.2324C71.96 80.2324 82.805 95.9394 78.56 102.874C72.173 113.353 64.193 111.202 64.193 111.202C64.193 111.202 70.615 107.349 69.093 97.6024C67.571 87.8554 64.193 86.0444 64.193 86.0444L71.96 80.2324Z" fill="#2D1510"/>
<path d="M86.442 10.8884C86.442 10.8884 77.196 6.72336 74.114 13.5394C71.032 20.3554 75.197 31.4084 69.194 38.3894C63.191 45.3704 52.03 50.1734 50.47 52.8164C50.47 52.8164 55.382 43.9324 55.864 40.0644C56.346 36.1964 56.864 26.0644 58.472 22.1034C60.08 18.1424 61.672 12.8034 67.942 6.86236C71.983 3.02536 78.887 -1.53264 88.114 0.902361L86.442 10.8884Z" fill="#281612"/>
<path d="M87.644 10.6374L86.981 6.55736L88.114 0.917361C92.8946 -0.210447 97.9259 0.541335 102.168 3.01736C109.103 7.18236 112.882 17.0714 114.268 23.3174C116.791 34.6714 116.549 42.8424 120.717 52.0624C117.44 47.8814 105.154 41.4864 104.111 37.0744C103.068 32.6624 99.103 21.0084 98.617 18.5164C98.131 16.0244 95.784 8.51836 87.644 10.6374Z" fill="#281612"/>
<path d="M65.638 46.1284C65.638 46.1284 75.412 59.9594 75.794 68.4734C76.176 76.9874 65.338 85.7024 63.851 89.7974C57.687 106.749 68.767 113.348 68.767 113.348C68.767 113.348 48.625 109.765 54.828 90.3284C56.072 86.4284 59.863 75.9654 60.703 69.0044C61.543 62.0434 58.653 49.7414 58.653 49.7414L65.638 46.1284Z" fill="#492219"/>
<path d="M55.158 51.0014C53.9812 56.26 52.3373 61.403 50.246 66.3694C47.06 73.6044 43.415 82.3004 54.022 90.8834C54.022 90.8834 51.04 86.1374 54.022 76.0934C55.563 70.9004 65.861 66.4384 64.628 59.4844C63.8617 55.2073 62.8805 50.9716 61.688 46.7934L55.158 51.0014Z" fill="#281612"/>
<path d="M108.413 71.2823C108.413 71.2823 97.525 82.3824 97.857 96.0354C98 101.722 108.409 109.747 107.038 113.335C106.571 114.429 105.877 115.41 105.001 116.215C104.126 117.019 103.089 117.628 101.96 118.001C101.96 118.001 112.497 118.186 112.871 110.816C113.133 106.591 112.681 102.351 111.534 98.2764L117.348 80.5313L108.413 71.2823Z" fill="#281612"/>
<path d="M114.559 68.7554C114.559 68.7554 121.852 79.1154 123.42 84.6434C124.988 90.1714 127.739 95.4734 125.22 99.1434C122.701 102.813 113.173 111.695 123.72 114.912C123.72 114.912 112.382 117.612 109.897 105.223C107.797 94.7514 111.534 82.8784 111.823 81.8954C112.112 80.9124 114.559 68.7554 114.559 68.7554Z" fill="#281612"/>
<path d="M106.988 46.8144C106.988 46.8144 98.225 59.6244 99.668 64.2554C101.691 70.6814 112.868 77.7394 111.677 83.1554C110.486 88.5714 109.304 91.1654 111.292 96.6704C114.792 106.302 128.263 106.533 128.263 106.533C128.263 106.533 115.507 106.225 116.2 92.4714C116.489 86.6924 123.52 81.4794 123.428 76.9714C123.336 72.4634 109.108 59.0914 111.228 50.2884L106.988 46.8144Z" fill="#281612"/>
<path d="M108.529 53.4404C106.749 57.8514 104.422 62.9564 106.441 67.6954C108.541 72.6194 113.9 76.4213 113.503 82.2583C113.36 84.3853 112.698 86.4963 112.459 88.6073C112.026 91.3932 112.216 94.2404 113.014 96.9444C114.301 100.662 119.067 104.965 123.077 105.281C120.952 105.525 118.81 104.995 117.044 103.786C114.906 102.472 112.825 101.228 111.45 99.0403C108.399 94.1823 109.219 88.2533 110.001 82.9093C110.701 78.1013 106.094 74.1024 104.338 69.9644C101.783 63.9624 104.85 58.1834 108.529 53.4404Z" fill="url(#paint55_linear_605_3)"/>
<path d="M73.886 93.6743C76.537 98.7403 79.865 105.039 76.722 110.66C75.0738 113.447 72.5909 115.645 69.6247 116.943C66.6585 118.24 63.3593 118.572 60.194 117.891C65.1384 117.151 69.6053 114.528 72.661 110.571C76.579 105.448 73.84 99.4723 73.886 93.6743Z" fill="url(#paint56_linear_605_3)"/>
<path d="M104.588 47.5574C104.671 51.2044 104.085 54.8359 102.858 58.2714C101.382 62.0354 99.776 65.7264 99.518 69.8294C99.06 77.4294 103.128 84.5154 108.102 89.9554C101.734 86.3874 96.644 79.4144 96.128 72.0364C95.9374 67.7401 96.9782 63.4789 99.128 59.7544C100.168 57.8284 101.39 56.0364 102.337 54.0754C103.284 52.1144 103.84 49.5374 104.588 47.5574Z" fill="url(#paint57_linear_605_3)"/>
<path d="M103.937 91.3164C104.48 93.2694 104.993 95.2234 105.728 97.1164C106.703 99.6164 108.228 101.828 109.261 104.29C110.086 106.254 110.52 108.36 110.54 110.49C110.509 113.164 108.571 114.701 106.487 116.042C107.473 114.251 108.675 112.532 108.028 110.421C107.578 108.891 107.01 107.398 106.328 105.956C105.249 103.71 103.959 101.649 103.435 99.1754C102.866 96.5601 103.04 93.838 103.937 91.3164Z" fill="#281612"/>
<path d="M87.543 3.88035C79.672 -2.16565 70.118 5.96435 65.429 11.7853C62.262 15.7223 59.723 20.8704 56.953 25.0774C55.653 27.0424 53.825 28.9954 53.189 31.3034C52.472 33.9034 53.281 36.6273 54.06 39.1083C53.6204 37.3271 53.426 35.4942 53.482 33.6603C53.663 31.3183 54.865 29.7773 56.298 28.0203C59.38 24.2683 62.077 20.2344 65.055 16.4044C70.284 9.63935 77.889 0.33435 87.543 3.88035Z" fill="url(#paint58_linear_605_3)"/>
<path d="M68.147 28.3174C66.941 29.9934 66.097 31.9503 64.969 33.6843C63.3418 36.2111 61.3999 38.5206 59.19 40.5574C55.661 43.7784 46.13 47.6343 48.83 53.9493C47.536 48.0623 55.445 45.7973 58.997 43.1623C63.747 39.6513 67.421 34.2544 68.147 28.3174Z" fill="url(#paint59_linear_605_3)"/>
<path d="M56.761 51.9654C55.185 54.8014 53.81 57.8214 51.98 60.5024C49.796 63.7024 46.729 66.8784 46.613 70.9814C47.803 67.6104 50.489 65.3484 52.713 62.6674C53.877 61.3024 54.8192 59.763 55.505 58.1054C56.187 56.4154 57.204 53.8184 56.761 51.9654Z" fill="#281612"/>
<path d="M114.809 52.2544C116.385 55.0934 117.76 58.1144 119.59 60.7954C121.744 63.9954 124.826 67.1674 124.945 71.2824C123.751 67.9114 121.065 65.6494 118.839 62.9724C117.679 61.6051 116.738 60.0661 116.05 58.4104C115.367 56.7084 114.35 54.1074 114.809 52.2544Z" fill="#281612"/>
<path d="M62.694 60.0444C59.473 63.2444 58.456 68.6284 58.502 72.9774C58.5651 78.8123 60.6251 84.4495 64.339 88.9503C62.2847 85.0259 61.0019 80.7439 60.56 76.3363C60.074 70.6813 61.192 65.4534 62.694 60.0444Z" fill="#281612"/>
<path d="M110.868 53.4064C109.098 55.212 107.91 57.5068 107.458 59.9944C106.842 63.7434 109.111 66.5434 111.068 69.4724C112.876 72.1588 114.097 75.1969 114.65 78.3877C115.203 81.5785 115.076 84.8501 114.277 87.9884C115.441 85.2734 116.02 82.3441 115.979 79.3905C115.937 76.437 115.274 73.5252 114.034 70.8443C112.778 68.1743 110.567 66.0204 109.496 63.2664C108.225 59.9484 109.751 56.5384 110.868 53.4064Z" fill="url(#paint60_linear_605_3)"/>
<path d="M124.287 92.4914C124.171 95.2424 124.815 97.8854 124.718 100.682C124.624 104.471 123.505 108.164 121.482 111.369C126.594 106.881 129.162 98.0544 124.287 92.4914Z" fill="#281612"/>
<path d="M86.442 10.8884C86.442 10.8884 76.942 9.29736 72.75 22.6044C72.75 22.6044 72.681 11.4624 77.35 9.68236C80.243 8.58036 84.165 7.64436 86.442 10.8884Z" fill="#281612"/>
<path d="M87.644 10.6384C87.644 10.6384 87.498 10.3224 88.114 9.18936C89.154 7.28936 97.784 8.48936 98.223 19.3644C95.711 10.4764 87.644 10.6384 87.644 10.6384Z" fill="#281612"/>
<path d="M52.854 78.2474C50.184 79.8734 48.693 83.9574 48.312 86.8734C47.784 90.9144 49.271 95.4734 52.935 97.6184C47.7 91.9674 50.893 84.5234 52.854 78.2474Z" fill="#281612"/>
<path d="M56.807 96.9254C54.107 98.8514 53.49 103.378 53.775 106.395C53.9856 108.468 54.6176 110.475 55.6322 112.294C56.6468 114.114 58.0225 115.706 59.675 116.974C55.296 110.965 54.981 103.921 56.807 96.9254Z" fill="#281612"/>
<path d="M86.153 6.76935C81.495 6.48835 76.544 7.32435 74.117 16.6284C72.938 21.1434 74.032 25.6974 73.262 30.2394C72.454 34.8883 70.1902 39.1604 66.797 42.4394C63.303 45.7914 58.753 47.1514 54.731 49.6674C49.723 52.8074 47.939 58.2394 49.946 63.8524C48.5397 61.611 47.9227 58.9641 48.1928 56.3319C48.4629 53.6998 49.6048 51.2333 51.437 49.3244C53.722 46.9824 56.665 45.5183 59.447 43.8653C62.3415 42.2224 64.8403 39.9643 66.767 37.2504C68.4496 34.7837 69.5919 31.9893 70.119 29.0504C70.5059 26.0726 70.7272 23.0756 70.782 20.0734C71.339 11.3384 76.845 3.37935 86.153 6.76935Z" fill="#281612"/>
<path d="M86.153 6.76936C77.712 4.28836 70.292 12.7214 68.789 20.3774C67.864 25.0774 65.089 27.9404 61.411 30.7774C59.711 32.0914 57.87 33.4474 56.83 35.3774C55.705 37.4654 55.536 40.1664 55.089 42.4624C54.819 38.5624 54.569 34.8994 57.065 31.6244C58.606 29.5984 60.636 28.0104 62.324 26.1154C64.112 24.1084 65.872 22.1894 66.5 19.6154C69.171 8.65336 78.232 1.34836 86.153 6.76936Z" fill="#281612"/>
<path d="M87.189 7.40136C94.706 3.02136 101.109 15.4184 102.53 21.0324C103.601 25.2704 103.443 29.7044 104.657 33.9004C105.813 37.9004 108.814 42.1144 113.325 42.3764C108.787 41.5214 106.39 36.9484 105.689 32.7674C104.795 27.4894 105.238 22.2304 103.339 17.1144C102.166 13.9936 100.275 11.1929 97.818 8.93936C95.179 6.49136 90.152 3.72936 87.189 7.40136Z" fill="#281612"/>
<path d="M88.045 4.93936C95.997 2.16536 102.808 8.75736 107.845 13.8814C111.305 17.4323 114.111 21.5669 116.132 26.0944C117.958 30.4784 116.432 34.9094 119.599 38.8084C117.357 34.8984 118.624 31.8084 117.869 27.4394C117.227 24.6054 116.069 21.9139 114.452 19.4994C113.337 17.5502 112.047 15.7063 110.599 13.9904C107.44 10.6194 104.234 7.12136 100.151 4.84836C96.505 2.84736 91.693 2.01936 88.045 4.93936Z" fill="#281612"/>
<path d="M101.583 81.1334C97.942 84.8894 96.34 90.8964 96.483 96.0744C96.683 103.394 102.428 107.528 106.689 112.717C103.989 108.117 99.658 104.126 98.656 98.7174C97.507 92.4984 99.741 86.8894 101.583 81.1334Z" fill="url(#paint61_linear_605_3)"/>
<path d="M120.442 68.2924C122.302 71.8807 123.913 75.5932 125.262 79.4034C126.803 84.0614 126.079 88.7654 125.262 93.5274C126.876 89.5274 128.248 85.1594 127.485 80.8134C126.986 78.3463 126.098 75.9743 124.854 73.7863C123.74 71.6943 122.476 69.4824 120.442 68.2924Z" fill="url(#paint62_linear_605_3)"/>
<path d="M117.972 91.7014C115.66 94.4214 116.504 98.8784 118.091 101.718C120.449 105.894 123.739 106.881 128.285 106.549C124.914 105.825 122.337 104.966 120.406 101.883C118.599 98.8074 117.751 95.262 117.972 91.7014V91.7014Z" fill="url(#paint63_linear_605_3)"/>
<path d="M75.03 85.7494C76.294 89.1494 78.93 92.9694 80.139 96.4564C81.765 101.129 80.02 105.471 77.145 109.231C80.445 106.531 82.986 102.701 82.508 98.2864C82.1577 95.8044 81.316 93.4172 80.0319 91.2645C78.7479 89.1119 77.0474 87.2369 75.03 85.7494V85.7494Z" fill="url(#paint64_linear_605_3)"/>
<path d="M67.56 43.9974C66.851 49.7974 67.876 52.3264 69.771 55.4094C72.3221 59.7619 75.4926 63.7204 79.183 67.1604C76.798 63.7394 74.714 60.1524 72.633 56.5344C70.38 52.5854 69.29 52.8174 67.56 43.9974Z" fill="#281612"/>
<path d="M69.694 104.029C69.2019 106.643 68.4093 109.191 67.332 111.623C66.176 114.478 64.512 117.063 61.432 117.741C68.542 118.742 71.074 109.673 69.694 104.029Z" fill="url(#paint65_linear_605_3)"/>
<path d="M112.624 102.461C112.908 105.106 112.886 107.774 112.559 110.413C112.278 113.476 111.43 116.435 108.679 117.972C115.779 116.897 115.579 107.496 112.624 102.461Z" fill="#281612"/>
<path d="M53.76 95.4503C52.712 99.1683 54.392 103.895 56.28 107.05C57.5192 109.208 59.2212 111.065 61.2636 112.486C63.306 113.908 65.638 114.86 68.092 115.272C59.578 111.878 56.372 103.537 53.76 95.4503Z" fill="#281612"/>
<path d="M123.408 84.6433C127.997 95.9203 126.608 97.1063 123.208 102.053C121.517 104.507 119.708 106.041 119.208 108.753C118.608 112.005 120.437 113.738 123.708 114.917C119.582 114.486 117.471 112.783 116.708 109.169C116.247 107.329 116.437 105.386 117.244 103.669C118.065 102.082 119.375 100.795 120.326 99.2813C123.121 94.948 124.218 89.7357 123.408 84.6433Z" fill="#281612"/>
<path d="M61.704 14.7604C61.704 14.7604 71.166 -4.28065 88.114 0.890354C88.114 0.890354 102.473 -4.09065 110.987 13.7354C110.987 13.7354 101.405 -1.39365 87.705 2.52835C87.706 2.53935 77.438 -4.71065 61.704 14.7604Z" fill="url(#paint66_linear_605_3)"/>
<path d="M66.74 108.869C62.0509 106.835 58.0114 103.551 55.063 99.3764C51.642 94.3684 52.782 86.7394 56.242 82.2514C57.96 80.0284 61.031 79.0923 62.93 77.0513C64.3354 75.5357 65.4518 73.7757 66.224 71.8584C68.782 65.5324 66.84 59.5064 63.955 53.6974C67.083 57.5774 69.595 61.9723 69.695 67.0733C69.7037 69.791 69.1277 72.4787 68.0062 74.9542C66.8847 77.4296 65.2439 79.6349 63.195 81.4203C59.365 84.9843 55.312 90.0544 56.384 95.7404C56.873 98.3294 58.846 100.675 60.464 102.675C62.3224 104.964 64.4271 107.041 66.74 108.869V108.869Z" fill="#281612"/>
<path d="M111.275 54.3924C112.187 57.219 113.625 59.8479 115.513 62.1404C117.664 64.7574 119.653 67.5031 121.469 70.3624C123.303 73.2722 124.036 76.7413 123.538 80.1444C122.938 83.9544 119.82 86.9134 116.958 89.2444C118.245 87.0874 119.832 85.1954 120.483 82.7374C121.284 79.7107 121.049 76.5031 119.816 73.6254C118.934 71.7606 117.883 69.9808 116.676 68.3084C115.748 66.8444 114.653 65.6084 113.744 64.2084C111.846 61.3045 110.977 57.8484 111.275 54.3924V54.3924Z" fill="#281612"/>
<path d="M59.327 52.0193C60.036 59.1463 55.713 65.5033 52.778 71.6413C51.3147 74.3913 50.3706 77.3873 49.993 80.4794C49.723 83.8544 51.7 87.6223 53.46 90.3923C50.8584 88.3654 48.9049 85.6233 47.839 82.5023C46.939 79.2163 47.608 75.5943 48.756 72.4543C51.383 65.1993 56.927 59.4283 59.327 52.0193Z" fill="#281612"/>
<path d="M75.512 66.2234C76.56 70.1844 80.066 73.1354 81.364 77.0104C81.8354 78.5007 81.9164 80.0871 81.5993 81.6177C81.2822 83.1483 80.5777 84.5719 79.553 85.7524C77.9976 87.873 75.8545 89.4911 73.389 90.4064C75.7134 90.0426 77.8674 88.9656 79.553 87.3244C81.6336 85.5827 83.0701 83.1937 83.633 80.5394C84.485 75.0074 79.076 69.7944 75.512 66.2234Z" fill="#281612"/>
<path d="M62.859 48.9984C64.531 52.3774 66.565 55.5174 68.059 59.0154C70.1138 63.5832 71.4247 68.4504 71.942 73.4323C72.293 77.9553 70.328 81.6883 67.342 84.9903C64.356 88.2923 59.479 91.1544 58.273 95.7204C59.783 92.1024 63.355 90.0843 66.236 87.6723C69.85 84.6523 73.236 80.8723 73.776 76.0023C74.327 71.0443 72.682 65.6023 70.776 61.0583C68.9268 56.5721 66.2399 52.4791 62.859 48.9984V48.9984Z" fill="#281612"/>
<path d="M71.586 86.8504C69.475 92.1204 67.872 97.2874 64.979 102.045C61.573 107.639 55.679 112.197 49.202 113.16C52.2494 113.1 55.2498 112.398 58.0069 111.098C60.7641 109.799 63.2159 107.932 65.202 105.62C67.2137 103.196 68.6612 100.355 69.44 97.3024C70.5997 93.9246 71.321 90.4119 71.586 86.8504Z" fill="#281612"/>
<path d="M87.189 5.21335C86.3889 4.53726 85.4593 4.03143 84.4571 3.72676C83.4549 3.42208 82.401 3.32497 81.36 3.44135C78.2534 3.98788 75.3676 5.41034 73.042 7.54135C73.042 7.54135 79.399 2.17335 87.189 5.21335Z" fill="#281612"/>
<path d="M88.757 4.72935C100.457 1.74735 106.537 13.5594 109.457 22.0044C110.401 24.7394 111.187 27.5944 112.157 30.3184C113.127 33.0424 115.357 35.0184 117.235 37.1034C119.057 39.1144 120.953 41.2564 121.55 43.9884C122.205 46.9884 120.128 49.5594 120.537 52.4644C119.766 50.5034 120.637 48.2954 120.475 46.2644C120.263 43.6644 118.475 41.6644 116.622 39.9804C114.607 38.3652 112.824 36.4809 111.322 34.3804C109.918 31.8804 108.868 29.1978 108.201 26.4094C105.493 17.0524 100.257 3.37835 88.757 4.72935Z" fill="#281612"/>
<path d="M87.629 7.92535C88.3888 7.44603 89.2434 7.13721 90.1341 7.02015C91.0248 6.9031 91.9302 6.98062 92.788 7.24735C95.577 8.20235 96.363 9.62034 97.951 11.4853C97.95 11.5003 93.003 5.84435 87.629 7.92535Z" fill="#281612"/>
<path d="M75.148 11.9093C75.148 11.9093 78.523 6.13035 84.56 9.20935C84.56 9.20935 77.675 7.54935 74.99 13.8904L75.148 11.9093Z" fill="url(#paint67_linear_605_3)"/>
<path d="M72.568 63.2953C77.442 67.2633 80.52 73.3123 78.016 79.5193C75.316 86.1923 68.669 89.3783 63.376 93.6393C66.076 88.8463 70.65 85.4483 73.528 80.7713C75.1737 78.3335 75.9676 75.4201 75.786 72.4843C75.466 69.2363 73.913 66.2113 72.568 63.2953Z" fill="url(#paint68_linear_605_3)"/>
<path d="M89.312 8.41035C92.941 6.56835 97.657 12.3014 98.944 15.0604C100.997 19.4604 101.302 24.6604 102.608 29.3154C103.914 33.9704 105.759 38.5924 108.992 42.2414C111.978 45.6124 119.14 47.0804 122.16 50.4164C125.893 54.5344 123.94 61.3004 123.37 66.6664C122.985 62.4514 123.15 55.8794 120.534 52.4574C117.625 48.6664 111.457 48.7574 107.893 45.6994C100.338 39.2154 99.032 28.8714 97.793 19.6204C97.5785 17.0588 96.7154 14.5941 95.285 12.4584C94.005 10.6874 91.851 7.82135 89.312 8.41035Z" fill="#281612"/>
<path d="M100.346 40.7654C99.41 41.0154 98.755 41.6744 98.874 42.2374C98.993 42.8004 99.856 43.0584 100.8 42.8074C101.744 42.5564 102.4 41.8984 102.272 41.3354C102.144 40.7724 101.282 40.5154 100.346 40.7654Z" fill="url(#paint69_linear_605_3)"/>
<path d="M72.133 40.7653C71.201 40.5653 70.361 40.8463 70.257 41.4083C70.153 41.9703 70.827 42.5953 71.763 42.8083C72.699 43.0213 73.539 42.7273 73.643 42.1653C73.747 41.6033 73.07 40.9803 72.133 40.7653Z" fill="url(#paint70_linear_605_3)"/>
<path d="M43.839 78.7683C43.839 78.7683 47.039 89.9754 50.712 98.9684C52.727 103.907 54.341 107.875 54.503 108.311C54.958 109.536 65.903 133.295 58.148 143.097C53.224 149.319 42.348 140.288 42.348 140.288C41.2699 138.624 40.6911 136.685 40.68 134.702C40.457 130.923 38.596 109.66 38.368 107.471C38.021 104.142 38.545 90.0883 34.581 81.7823L43.839 78.7683Z" fill="#F7D4AB"/>
<path d="M37.791 103.032L37.579 99.6734C37.579 99.6734 45.939 101.373 50.732 97.9594L51.832 101.114C51.832 101.114 48.359 105.783 37.791 103.032Z" fill="url(#paint71_linear_605_3)"/>
<path d="M28.04 56.8164C28.8498 56.5376 29.6744 56.3039 30.51 56.1164C30.51 56.1164 29.739 55.4034 29.424 55.0954C29.109 54.7874 27.498 55.2144 27.394 55.8314C27.354 56.1224 28.04 56.8164 28.04 56.8164Z" fill="#F54964"/>
<path d="M43.921 80.7593C44.3046 79.3646 44.4068 77.9075 44.2215 76.4729C44.0363 75.0383 43.5673 73.6549 42.842 72.4033C42.222 71.3863 35.907 64.6443 35.522 63.8733C35.137 63.1023 33.06 57.8903 32.517 57.1623C31.974 56.4343 29.77 54.6424 28.194 55.3404C26.965 55.8834 28.464 57.5823 29.103 58.7653C29.488 59.5093 31.553 64.0514 31.553 64.0514C31.553 64.0514 23.774 61.0514 22.989 60.7344C22.204 60.4174 12.329 54.8284 11.342 54.3934C10.355 53.9584 5.178 51.6464 4.453 53.4264C3.401 55.9734 19.659 60.7463 19.659 60.7463L43.921 80.7593Z" fill="url(#paint72_linear_605_3)"/>
<path d="M25.77 64.3474C25.77 64.3474 20.997 61.1723 16.181 58.1833C13.827 56.7113 8.526 53.8994 4.558 53.2484C4.38063 53.5159 4.30932 53.84 4.358 54.1573L25.77 64.3474Z" fill="url(#paint73_linear_605_3)"/>
<path d="M25.786 68.3694L40.773 71.5554C40.773 71.5554 21.317 61.7083 18.625 60.1403C14.8748 58.0375 11.0168 56.1328 7.067 54.4344C5.418 53.8794 1.75 52.4884 1.007 53.4214C-0.149001 54.8894 1.978 55.5594 2.899 55.9064C3.82 56.2534 10.299 59.0544 10.299 59.0544L25.786 68.3694Z" fill="url(#paint74_linear_605_3)"/>
<path d="M25.112 65.6304C22.2131 63.339 19.0588 61.3907 15.712 59.8244C12.457 58.3524 6.581 56.1834 4.058 56.3764L25.112 65.6304Z" fill="url(#paint75_linear_605_3)"/>
<path d="M31.723 68.3664C31.723 68.3664 18.081 60.9004 11.335 58.5664C7.482 57.2254 4.35 56.2544 3.815 57.8264C3.43 58.9824 6.635 59.8764 8.022 60.4734C9.694 61.1934 21.892 65.9514 22.851 66.4604L31.723 68.3664Z" fill="url(#paint76_linear_605_3)"/>
<path d="M11.381 61.8083L9.84 61.1953C10.6959 60.9993 11.5762 60.9319 12.452 60.9953C14.4589 61.3406 16.4327 61.8561 18.352 62.5363C19.157 62.9213 23.029 64.7013 27.571 67.3363L11.381 61.8083Z" fill="url(#paint77_linear_605_3)"/>
<path d="M44.879 82.7794C44.879 82.7794 43.858 75.8134 42.953 74.1264C39.906 68.5634 32.412 67.6654 30.363 67.4694C27.5279 67.0438 24.7834 66.1492 22.242 64.8224C21.256 64.3874 11.297 59.8144 9.442 62.3224C8.799 63.1934 9.419 63.5514 11.723 64.3374C14.027 65.1234 15.244 65.8474 18.003 67.0374C20.0026 67.9912 21.9336 69.0829 23.782 70.3044C25.562 71.2864 33.105 78.8764 34.072 80.5374C35.039 82.1984 35.786 86.6704 35.786 86.6704L44.879 82.7794Z" fill="#F7D4AB"/>
<path d="M44.052 78.0594C44.052 78.0594 44.087 74.1494 41.914 71.8954C39.152 69.0594 35.831 68.1124 31.014 67.4304C27.5735 66.8466 24.2464 65.7245 21.155 64.1054C19.791 63.4194 12.294 60.6114 9.944 61.8944C11.3284 61.7767 12.7227 61.8899 14.07 62.2294C17.1758 63.1961 20.2287 64.3253 23.216 65.6124C25.6986 66.9981 28.4129 67.9198 31.226 68.3324C34.2887 68.7004 37.2375 69.7185 39.875 71.3184C40.9864 72.1059 41.9286 73.1081 42.646 74.266C43.3635 75.4238 43.8415 76.7136 44.052 78.0594V78.0594Z" fill="url(#paint78_linear_605_3)"/>
<path d="M29.026 58.7263C28.803 58.2373 28.02 57.1504 27.905 56.7504C28.475 57.134 28.9929 57.5898 29.446 58.1064C29.708 58.5644 32.528 64.5284 32.528 64.5284L31.528 64.0504C31.528 64.0504 30.051 60.9343 29.026 58.7263Z" fill="url(#paint79_linear_605_3)"/>
<path d="M31.264 63.9623C31.264 63.9623 23.647 61.0073 22.946 60.6723C22.245 60.3373 14.882 56.2034 13.183 55.3864C16.704 57.6404 20.226 60.2563 22.899 61.2923C25.572 62.3283 31.264 63.9623 31.264 63.9623Z" fill="url(#paint80_linear_605_3)"/>
<path d="M42.306 76.2914C41.628 74.6914 38.315 72.6964 36.697 72.1694C34.262 71.3754 26.121 68.8214 30.533 72.6274C30.918 72.9474 38.154 80.6794 40.473 80.1824C42.792 79.6854 43.257 78.5144 42.306 76.2914Z" fill="url(#paint81_linear_605_3)"/>
<path d="M40.68 101.495C40.68 101.495 37.417 81.7854 35.672 80.1514C33.927 78.5174 25.272 71.4444 25.272 71.4444C25.272 71.4444 28.778 75.1964 30.026 76.4524C31.274 77.7084 33.355 79.7314 33.975 81.1414C36.406 86.6624 37.666 101.175 37.666 101.175L40.68 101.495Z" fill="url(#paint82_linear_605_3)"/>
<path d="M39.802 68.8664C39.802 68.8664 35.802 64.1664 35.637 63.8584C35.472 63.5504 33.383 58.2994 32.501 57.1584C32.701 58.2144 34.709 64.1664 34.986 64.8634C35.263 65.5604 39.802 68.8664 39.802 68.8664Z" fill="url(#paint83_linear_605_3)"/>
<path d="M12.463 64.5984C15.0227 65.2094 17.5493 65.9514 20.033 66.8214C21.8786 68.245 23.6278 69.7893 25.269 71.4444C21.219 68.7749 16.9324 66.4833 12.463 64.5984V64.5984Z" fill="url(#paint84_linear_605_3)"/>
<path d="M12.367 64.5624C12.44 64.4544 11.758 63.9884 11.246 63.6914C10.6556 63.3143 10.0038 63.0436 9.32 62.8914C8.72 62.8524 8.75 63.5234 8.75 63.5234L12.367 64.5624Z" fill="#F54964"/>
<path d="M6.888 60.0193C5.87804 59.2527 4.82023 58.5513 3.721 57.9194C3.297 57.8304 3.001 58.5704 3.001 58.5704C4.2445 59.1832 5.5468 59.6686 6.888 60.0193V60.0193Z" fill="#F54964"/>
<path d="M4.011 56.3564C4.311 56.3564 2.982 55.4124 0.671 54.3804C0.243 54.1964 0 54.9964 0 54.9964C1.27014 55.6271 2.61918 56.0845 4.011 56.3564V56.3564Z" fill="#F54964"/>
<path d="M44.24 79.0264C44.24 79.0264 45.612 88.5544 46.32 91.5634C47.028 94.5724 49.02 100.443 49.02 100.443L51.559 99.8434C51.559 99.8434 46.124 85.6264 44.24 79.0264Z" fill="url(#paint85_linear_605_3)"/>
<path d="M51.294 98.9214C51.294 98.9214 44.721 102.421 37.575 100.847C39.075 130.632 39.004 130.455 39.116 132.462C39.0669 134.843 39.7065 137.188 40.9578 139.215C42.2092 141.241 44.0191 142.863 46.17 143.885C53.44 147.715 54.399 147.545 55.944 146.585C58.495 144.635 60.4139 141.975 61.4604 138.939C62.5068 135.904 62.6344 132.626 61.827 129.518C59.127 117.926 51.294 98.9214 51.294 98.9214Z" fill="white"/>
<path d="M48.99 101.113C46.241 102.045 43.3555 102.51 40.453 102.488C42.795 127.696 48.243 147.314 54.269 146.366C64.363 144.764 48.99 101.113 48.99 101.113Z" fill="white"/>
<path d="M130.312 79.7533C128.612 88.8653 126.12 92.2434 123.054 99.5093C120.854 104.709 118.816 109.109 118.623 109.622C118.153 110.843 107.901 132.938 115.541 142.832C120.388 149.116 131.418 140.732 131.418 140.732C132.515 139.081 133.117 137.151 133.152 135.169C133.422 131.393 135.544 110.127 135.799 107.969C135.969 106.524 136.022 103.847 136.489 100.264C137.089 95.6413 137.417 90.2243 140.234 82.1573C140.241 82.1853 131.468 73.5323 130.312 79.7533Z" fill="#F7D4AB"/>
<path d="M123.548 98.1124C127.686 99.8385 132.18 100.542 136.648 100.162L136.263 103.194C136.263 103.194 126.631 104.165 122.374 101.04L123.548 98.1124Z" fill="url(#paint86_linear_605_3)"/>
<path d="M145.673 57.4744C144.858 57.2148 144.028 57.0025 143.188 56.8384C143.188 56.8384 143.959 56.1064 144.247 55.7904C144.535 55.4744 146.173 55.8634 146.297 56.4764C146.351 56.7664 145.673 57.4744 145.673 57.4744Z" fill="#F54964"/>
<path d="M130.401 81.8034C129.984 80.4184 129.846 78.9641 129.996 77.5254C130.146 76.0867 130.581 74.6922 131.276 73.4234C131.869 72.3874 138.026 65.4944 138.388 64.7124C138.75 63.9304 140.7 58.6714 141.22 57.9274C141.74 57.1834 143.92 55.3424 145.5 56.0014C146.744 56.5134 145.288 58.2474 144.676 59.4494C144.291 60.2204 142.364 64.7934 142.364 64.7934C142.364 64.7934 150.069 61.6034 150.84 61.2684C151.611 60.9334 161.335 55.1044 162.313 54.6384C163.291 54.1724 168.4 51.7384 169.175 53.4824C170.288 56.0024 154.15 61.1874 154.15 61.1874L130.401 81.8034Z" fill="url(#paint87_linear_605_3)"/>
<path d="M148.131 64.9604C148.131 64.9604 152.824 61.6514 157.574 58.5384C159.886 56.9974 165.121 54.0654 169.074 53.3184C169.259 53.5795 169.34 53.9005 169.301 54.2184L148.131 64.9604Z" fill="url(#paint88_linear_605_3)"/>
<path d="M148.212 68.9704L133.302 72.5223C133.302 72.5223 152.507 62.1974 155.158 60.5794C158.858 58.3924 162.665 56.3929 166.566 54.5884C168.196 53.9884 171.836 52.5114 172.603 53.4324C173.809 54.8694 171.686 55.5934 170.773 55.9634C169.86 56.3334 163.453 59.2924 163.453 59.2924L148.212 68.9704Z" fill="url(#paint89_linear_605_3)"/>
<path d="M148.816 66.2124C151.655 63.8517 154.758 61.8273 158.062 60.1794C161.279 58.6384 167.096 56.3264 169.62 56.4424L148.816 66.2124Z" fill="url(#paint90_linear_605_3)"/>
<path d="M142.278 69.1143C142.278 69.1143 155.731 61.3144 162.416 58.8004C166.238 57.3674 169.351 56.3113 169.916 57.8723C170.344 59.0283 167.146 59.9954 165.774 60.6234C164.121 61.3944 152.039 66.4443 151.099 66.9763L142.278 69.1143Z" fill="url(#paint91_linear_605_3)"/>
<path d="M162.451 62.0554L163.992 61.4044C163.132 61.2292 162.25 61.1837 161.376 61.2693C159.378 61.6644 157.416 62.2264 155.512 62.9494C154.718 63.3344 150.889 65.2263 146.412 67.9573L162.451 62.0554Z" fill="url(#paint92_linear_605_3)"/>
<path d="M129.48 83.8374C129.48 83.8374 130.328 76.8523 131.21 75.1373C134.119 69.5013 141.585 68.4224 143.631 68.1714C146.456 67.6766 149.178 66.7144 151.687 65.3244C152.666 64.8624 162.505 60.0543 164.401 62.5123C165.064 63.3633 164.455 63.7373 162.17 64.5813C159.885 65.4253 158.703 66.1814 155.96 67.4364C153.98 68.4307 152.077 69.5705 150.266 70.8463C148.521 71.8823 141.154 79.6463 140.238 81.3293C139.322 83.0123 138.674 87.4933 138.674 87.4933L129.48 83.8374Z" fill="#F7D4AB"/>
<path d="M130.188 79.1024C130.188 79.1024 130.057 75.1924 132.176 72.9024C134.876 69.9864 138.159 68.9144 142.963 68.1024C146.386 67.4429 149.685 66.2536 152.741 64.5774C154.086 63.8574 161.502 60.8674 163.914 62.0924C162.526 62.0075 161.134 62.1559 159.796 62.5314C156.715 63.5707 153.692 64.7724 150.738 66.1314C148.29 67.577 145.6 68.5651 142.798 69.0474C139.743 69.4821 136.819 70.5738 134.226 72.2474C133.126 73.0591 132.201 74.0847 131.507 75.2627C130.813 76.4407 130.365 77.7467 130.188 79.1024V79.1024Z" fill="url(#paint93_linear_605_3)"/>
<path d="M144.736 59.4084C144.948 58.9154 145.703 57.8084 145.807 57.4084C145.248 57.804 144.745 58.2732 144.312 58.8034C144.073 59.2694 141.392 65.3034 141.392 65.3034L142.374 64.8034C142.374 64.8034 143.781 61.6514 144.736 59.4084Z" fill="url(#paint94_linear_605_3)"/>
<path d="M142.629 64.6824C142.629 64.6824 150.169 61.5424 150.862 61.1884C151.555 60.8344 158.81 56.5224 160.494 55.6634C157.027 58.0024 153.559 60.7063 150.924 61.8083C148.289 62.9103 142.629 64.6824 142.629 64.6824Z" fill="url(#paint95_linear_605_3)"/>
<path d="M131.891 77.2804C132.531 75.6624 135.791 73.5894 137.396 73.0424C139.815 72.1874 147.891 69.4324 143.56 73.3424C143.175 73.6734 136.14 81.5834 133.809 81.1424C131.478 80.7014 130.99 79.5424 131.891 77.2804Z" fill="url(#paint96_linear_605_3)"/>
<path d="M134.357 101.333C134.357 101.333 136.917 82.6774 138.617 80.9984C140.317 79.3194 148.807 72.0374 148.807 72.0374C148.807 72.0374 145.394 75.8903 144.184 77.1463C142.974 78.4023 140.936 80.5094 140.351 81.9314C138.039 87.5104 136.556 100.955 136.556 100.955L134.357 101.333Z" fill="url(#paint97_linear_605_3)"/>
<path d="M134.211 69.8114C134.211 69.8114 138.094 65.0183 138.252 64.7113C138.41 64.4043 140.371 59.0984 141.219 57.9304C141.042 58.9894 139.189 64.9924 138.931 65.7124C138.673 66.4324 134.211 69.8114 134.211 69.8114Z" fill="url(#paint98_linear_605_3)"/>
<path d="M161.426 64.8674C158.884 65.5424 156.378 66.3461 153.917 67.2754C152.109 68.7422 150.4 70.3267 148.801 72.0184C152.782 69.2536 157.008 66.8599 161.426 64.8674V64.8674Z" fill="url(#paint99_linear_605_3)"/>
<path d="M161.534 64.8333C161.457 64.7333 162.127 64.2443 162.634 63.9333C163.214 63.5438 163.857 63.2569 164.534 63.0853C165.134 63.0353 165.12 63.7053 165.12 63.7053L161.534 64.8333Z" fill="#F54964"/>
<path d="M166.897 60.1553C167.888 59.3645 168.928 58.6361 170.01 57.9743C170.426 57.8743 170.746 58.5903 170.746 58.5903C169.522 59.2463 168.232 59.7709 166.897 60.1553V60.1553Z" fill="#F54964"/>
<path d="M169.682 56.4224C169.382 56.4224 170.553 55.5224 172.837 54.4344C173.261 54.2344 173.484 55.0434 173.484 55.0434C172.286 55.6757 171.007 56.1398 169.682 56.4224Z" fill="#F54964"/>
<path d="M129.834 81.5344C129.834 81.5344 128.624 89.5174 127.819 92.5024C127.014 95.4874 125.272 100.369 125.272 100.369L123.022 99.2694C123.022 99.2694 127.731 88.0684 129.834 81.5344Z" fill="url(#paint100_linear_605_3)"/>
<path d="M123.015 99.2714C127.278 101.132 131.995 101.695 136.576 100.889C136.576 100.889 134.865 131.109 134.758 132.974C134.777 135.356 134.108 137.692 132.833 139.704C131.557 141.715 129.728 143.315 127.565 144.312C120.253 148.049 119.289 147.872 117.756 146.901C116.223 145.93 110.051 139.916 112.081 129.764C114.89 115.857 123.015 99.2714 123.015 99.2714Z" fill="white"/>
<path d="M125.37 101.375C128.159 102.477 131.203 102.768 134.15 102.215C131.496 127.396 125.431 147.676 119.417 146.663C109.339 144.952 125.37 101.375 125.37 101.375Z" fill="white"/>
<defs>
<linearGradient id="paint0_linear_605_3" x1="85.1754" y1="38.2204" x2="86.7911" y2="69.4285" gradientUnits="userSpaceOnUse">
<stop stop-color="#652F23"/>
<stop offset="0.77" stop-color="#492219"/>
</linearGradient>
<linearGradient id="paint1_linear_605_3" x1="276.438" y1="61.1564" x2="219.46" y2="108.245" gradientUnits="userSpaceOnUse">
<stop stop-color="#F54964"/>
<stop offset="0.42" stop-color="#E9465A"/>
<stop offset="1" stop-color="#D23F47"/>
</linearGradient>
<linearGradient id="paint2_linear_605_3" x1="65.6636" y1="48.8456" x2="9.76366" y2="107.726" gradientUnits="userSpaceOnUse">
<stop stop-color="#D23F47"/>
<stop offset="0.58" stop-color="#E9465A"/>
<stop offset="1" stop-color="#F54964"/>
</linearGradient>
<linearGradient id="paint3_linear_605_3" x1="118.51" y1="98.0102" x2="118.51" y2="118.422" gradientUnits="userSpaceOnUse">
<stop stop-color="#D23F47"/>
<stop offset="0.58" stop-color="#E9465A"/>
<stop offset="1" stop-color="#F54964"/>
</linearGradient>
<linearGradient id="paint4_linear_605_3" x1="79.1393" y1="65.8601" x2="81.7144" y2="87.3446" gradientUnits="userSpaceOnUse">
<stop stop-color="#F0C499"/>
<stop offset="0.52" stop-color="#F1C69C"/>
<stop offset="0.85" stop-color="#F4CEA4"/>
<stop offset="1" stop-color="#F7D4AB"/>
</linearGradient>
<linearGradient id="paint5_linear_605_3" x1="1794.63" y1="80.184" x2="1786.33" y2="88.1668" gradientUnits="userSpaceOnUse">
<stop stop-color="#F0C499"/>
<stop offset="0.52" stop-color="#F1C69C"/>
<stop offset="0.85" stop-color="#F4CEA4"/>
<stop offset="1" stop-color="#F7D4AB"/>
</linearGradient>
<linearGradient id="paint6_linear_605_3" x1="88.9604" y1="80.0138" x2="90.8345" y2="71.8888" gradientUnits="userSpaceOnUse">
<stop stop-color="#F0C499"/>
<stop offset="0.52" stop-color="#F1C69C"/>
<stop offset="0.85" stop-color="#F4CEA4"/>
<stop offset="1" stop-color="#F7D4AB"/>
</linearGradient>
<linearGradient id="paint7_linear_605_3" x1="87.6169" y1="81.172" x2="86.5506" y2="73.3659" gradientUnits="userSpaceOnUse">
<stop stop-color="#F0C499"/>
<stop offset="0.52" stop-color="#F1C69C"/>
<stop offset="0.85" stop-color="#F4CEA4"/>
<stop offset="1" stop-color="#F7D4AB"/>
</linearGradient>
<linearGradient id="paint8_linear_605_3" x1="86.2333" y1="60.2601" x2="88.2438" y2="73.2725" gradientUnits="userSpaceOnUse">
<stop stop-color="#DBA379"/>
<stop offset="0.49" stop-color="#E4B186"/>
<stop offset="1" stop-color="#F0C499"/>
</linearGradient>
<linearGradient id="paint9_linear_605_3" x1="91.9741" y1="47.6872" x2="113.511" y2="66.3879" gradientUnits="userSpaceOnUse">
<stop stop-color="#DBA379"/>
<stop offset="0.49" stop-color="#E4B186"/>
<stop offset="1" stop-color="#F0C499"/>
</linearGradient>
<linearGradient id="paint10_linear_605_3" x1="74.594" y1="52.7785" x2="91.39" y2="77.82" gradientUnits="userSpaceOnUse">
<stop stop-color="#DBA379"/>
<stop offset="0.49" stop-color="#E4B186"/>
<stop offset="1" stop-color="#F0C499"/>
</linearGradient>
<linearGradient id="paint11_linear_605_3" x1="-1096.76" y1="98.2087" x2="-1092.88" y2="116.483" gradientUnits="userSpaceOnUse">
<stop stop-color="#DBA379"/>
<stop offset="0.49" stop-color="#E4B186"/>
<stop offset="1" stop-color="#F0C499"/>
</linearGradient>
<linearGradient id="paint12_linear_605_3" x1="-497.99" y1="98.2278" x2="-494.055" y2="116.489" gradientUnits="userSpaceOnUse">
<stop stop-color="#DBA379"/>
<stop offset="0.49" stop-color="#E4B186"/>
<stop offset="1" stop-color="#F0C499"/>
</linearGradient>
<linearGradient id="paint13_linear_605_3" x1="86.7337" y1="13.8443" x2="86.6356" y2="70.1809" gradientUnits="userSpaceOnUse">
<stop stop-color="#FFD9B3"/>
<stop offset="0.32" stop-color="#FAD6AE"/>
<stop offset="1" stop-color="#F7D4AB"/>
</linearGradient>
<linearGradient id="paint14_linear_605_3" x1="98.0754" y1="43.3185" x2="96.0483" y2="29.7098" gradientUnits="userSpaceOnUse">
<stop stop-color="#F7D4AB"/>
<stop offset="0.52" stop-color="#F6D2A8"/>
<stop offset="0.85" stop-color="#F3CAA0"/>
<stop offset="1" stop-color="#F0C499"/>
</linearGradient>
<linearGradient id="paint15_linear_605_3" x1="77.1424" y1="45.6863" x2="75.0102" y2="29.4273" gradientUnits="userSpaceOnUse">
<stop stop-color="#F7D4AB"/>
<stop offset="0.52" stop-color="#F6D2A8"/>
<stop offset="0.85" stop-color="#F3CAA0"/>
<stop offset="1" stop-color="#F0C499"/>
</linearGradient>
<radialGradient id="paint16_radial_605_3" cx="0" cy="0" r="1" gradientUnits="userSpaceOnUse" gradientTransform="translate(158.566 73.4094) scale(8.38764 10.6209)">
<stop stop-color="#F9B38E"/>
<stop offset="0.61" stop-color="#F8C69E"/>
<stop offset="1" stop-color="#F7D4AB"/>
</radialGradient>
<radialGradient id="paint17_radial_605_3" cx="0" cy="0" r="1" gradientUnits="userSpaceOnUse" gradientTransform="translate(-398.834 73.4047) rotate(180) scale(8.41017 10.6459)">
<stop stop-color="#F9B38E"/>
<stop offset="0.61" stop-color="#F8C69E"/>
<stop offset="1" stop-color="#F7D4AB"/>
</radialGradient>
<linearGradient id="paint18_linear_605_3" x1="86.4759" y1="9.07382" x2="86.4417" y2="30.3145" gradientUnits="userSpaceOnUse">
<stop stop-color="#F7D4AB"/>
<stop offset="0.97" stop-color="#F0C59A"/>
<stop offset="1" stop-color="#F0C499"/>
</linearGradient>
<linearGradient id="paint19_linear_605_3" x1="107.87" y1="21.8994" x2="82.6961" y2="38.7789" gradientUnits="userSpaceOnUse">
<stop stop-color="#F9B38E"/>
<stop offset="0.5" stop-color="#F7B690"/>
<stop offset="0.9" stop-color="#F2C096"/>
<stop offset="1" stop-color="#F0C499"/>
</linearGradient>
<linearGradient id="paint20_linear_605_3" x1="1199.89" y1="20.1073" x2="1172.43" y2="44.3638" gradientUnits="userSpaceOnUse">
<stop stop-color="#F9B38E"/>
<stop offset="0.5" stop-color="#F7B690"/>
<stop offset="0.9" stop-color="#F2C096"/>
<stop offset="1" stop-color="#F0C499"/>
</linearGradient>
<linearGradient id="paint21_linear_605_3" x1="98.2272" y1="32.1882" x2="106.112" y2="32.1882" gradientUnits="userSpaceOnUse">
<stop stop-color="#FFD9B3"/>
<stop offset="0.68" stop-color="#FCD7B0"/>
<stop offset="1" stop-color="#F7D4AB"/>
</linearGradient>
<linearGradient id="paint22_linear_605_3" x1="174.432" y1="33.8031" x2="165.856" y2="41.2798" gradientUnits="userSpaceOnUse">
<stop stop-color="#DBA379"/>
<stop offset="0.49" stop-color="#E4B186"/>
<stop offset="1" stop-color="#F0C499"/>
</linearGradient>
<linearGradient id="paint23_linear_605_3" x1="163.45" y1="36.4313" x2="166.917" y2="36.4313" gradientUnits="userSpaceOnUse">
<stop stop-color="#ECE7E7"/>
<stop offset="0.23" stop-color="#F6F4F4"/>
<stop offset="0.53" stop-color="#FDFCFC"/>
<stop offset="1" stop-color="white"/>
</linearGradient>
<linearGradient id="paint24_linear_605_3" x1="171.087" y1="36.3279" x2="173.843" y2="36.3279" gradientUnits="userSpaceOnUse">
<stop stop-color="#ECE7E7"/>
<stop offset="0.23" stop-color="#F6F4F4"/>
<stop offset="0.53" stop-color="#FDFCFC"/>
<stop offset="1" stop-color="white"/>
</linearGradient>
<linearGradient id="paint25_linear_605_3" x1="172.945" y1="39.3958" x2="167.821" y2="32.231" gradientUnits="userSpaceOnUse">
<stop stop-color="#B89C8C"/>
<stop offset="1" stop-color="#715241"/>
</linearGradient>
<linearGradient id="paint26_linear_605_3" x1="179.647" y1="36.4117" x2="172.371" y2="30.9013" gradientUnits="userSpaceOnUse">
<stop stop-color="#B89C8C"/>
<stop offset="1" stop-color="#715241"/>
</linearGradient>
<radialGradient id="paint27_radial_605_3" cx="0" cy="0" r="1" gradientUnits="userSpaceOnUse" gradientTransform="translate(96.2545 36.4964) scale(2.36455 2.36572)">
<stop stop-color="#2A3A3B"/>
<stop offset="1" stop-color="#1C2727"/>
</radialGradient>
<linearGradient id="paint28_linear_605_3" x1="163.451" y1="35.7896" x2="176.171" y2="35.7896" gradientUnits="userSpaceOnUse">
<stop stop-color="#5A2A1F"/>
<stop offset="0.29" stop-color="#4A2319"/>
<stop offset="0.66" stop-color="#3D1D15"/>
<stop offset="1" stop-color="#391B13"/>
</linearGradient>
<linearGradient id="paint29_linear_605_3" x1="168.971" y1="32.5575" x2="168.181" y2="43.7927" gradientUnits="userSpaceOnUse">
<stop stop-color="#DBA379"/>
<stop offset="0.49" stop-color="#E4B186"/>
<stop offset="1" stop-color="#F0C499"/>
</linearGradient>
<linearGradient id="paint30_linear_605_3" x1="211.459" y1="33.85" x2="202.866" y2="41.3209" gradientUnits="userSpaceOnUse">
<stop stop-color="#DBA379"/>
<stop offset="0.49" stop-color="#E4B186"/>
<stop offset="1" stop-color="#F0C499"/>
</linearGradient>
<linearGradient id="paint31_linear_605_3" x1="200.497" y1="36.4739" x2="203.957" y2="36.4739" gradientUnits="userSpaceOnUse">
<stop stop-color="white"/>
<stop offset="0.47" stop-color="#FDFCFC"/>
<stop offset="0.77" stop-color="#F6F4F4"/>
<stop offset="1" stop-color="#ECE7E7"/>
</linearGradient>
<linearGradient id="paint32_linear_605_3" x1="208.141" y1="36.3732" x2="210.895" y2="36.3732" gradientUnits="userSpaceOnUse">
<stop stop-color="white"/>
<stop offset="0.47" stop-color="#FDFCFC"/>
<stop offset="0.77" stop-color="#F6F4F4"/>
<stop offset="1" stop-color="#ECE7E7"/>
</linearGradient>
<linearGradient id="paint33_linear_605_3" x1="210.008" y1="39.4405" x2="204.883" y2="32.2728" gradientUnits="userSpaceOnUse">
<stop stop-color="#715241"/>
<stop offset="1" stop-color="#B89C8C"/>
</linearGradient>
<linearGradient id="paint34_linear_605_3" x1="75.5978" y1="34.7433" x2="77.097" y2="43.398" gradientUnits="userSpaceOnUse">
<stop stop-color="#715241"/>
<stop offset="1" stop-color="#B89C8C"/>
</linearGradient>
<radialGradient id="paint35_radial_605_3" cx="0" cy="0" r="1" gradientUnits="userSpaceOnUse" gradientTransform="translate(-249.047 36.5399) rotate(180) scale(2.36607 2.36493)">
<stop stop-color="#2A3A3B"/>
<stop offset="1" stop-color="#1C2727"/>
</radialGradient>
<linearGradient id="paint36_linear_605_3" x1="200.493" y1="35.8287" x2="213.213" y2="35.8287" gradientUnits="userSpaceOnUse">
<stop stop-color="#5A2A1F"/>
<stop offset="0.29" stop-color="#4A2319"/>
<stop offset="0.66" stop-color="#3D1D15"/>
<stop offset="1" stop-color="#391B13"/>
</linearGradient>
<linearGradient id="paint37_linear_605_3" x1="206.024" y1="32.5982" x2="205.234" y2="43.8404" gradientUnits="userSpaceOnUse">
<stop stop-color="#DBA379"/>
<stop offset="0.49" stop-color="#E4B186"/>
<stop offset="1" stop-color="#F0C499"/>
</linearGradient>
<linearGradient id="paint38_linear_605_3" x1="87.0008" y1="50.3246" x2="86.8705" y2="46.6622" gradientUnits="userSpaceOnUse">
<stop stop-color="#F7D4AB"/>
<stop offset="0.52" stop-color="#F6D2A8"/>
<stop offset="0.85" stop-color="#F3CAA0"/>
<stop offset="1" stop-color="#F0C499"/>
</linearGradient>
<linearGradient id="paint39_linear_605_3" x1="86.4271" y1="46.3905" x2="86.4267" y2="49.2596" gradientUnits="userSpaceOnUse">
<stop stop-color="#DBA379"/>
<stop offset="0.49" stop-color="#E4B186"/>
<stop offset="1" stop-color="#F0C499"/>
</linearGradient>
<linearGradient id="paint40_linear_605_3" x1="86.2528" y1="42.5055" x2="86.2683" y2="45.4392" gradientUnits="userSpaceOnUse">
<stop stop-color="#F7D4AB"/>
<stop offset="1" stop-color="#FFD9B3"/>
</linearGradient>
<linearGradient id="paint41_linear_605_3" x1="92.0159" y1="28.0337" x2="104.577" y2="28.0337" gradientUnits="userSpaceOnUse">
<stop stop-color="#673024"/>
<stop offset="0.34" stop-color="#53271C"/>
<stop offset="0.68" stop-color="#462118"/>
<stop offset="1" stop-color="#421F16"/>
</linearGradient>
<linearGradient id="paint42_linear_605_3" x1="10.4333" y1="28.0337" x2="22.9911" y2="28.0337" gradientUnits="userSpaceOnUse">
<stop stop-color="#673024"/>
<stop offset="0.34" stop-color="#53271C"/>
<stop offset="0.68" stop-color="#462118"/>
<stop offset="1" stop-color="#421F16"/>
</linearGradient>
<linearGradient id="paint43_linear_605_3" x1="87.3728" y1="62.823" x2="87.1464" y2="77.3217" gradientUnits="userSpaceOnUse">
<stop stop-color="#DBA379"/>
<stop offset="0.49" stop-color="#E4B186"/>
<stop offset="1" stop-color="#F0C499"/>
</linearGradient>
<linearGradient id="paint44_linear_605_3" x1="86.899" y1="63.125" x2="86.9117" y2="68.9549" gradientUnits="userSpaceOnUse">
<stop stop-color="#FFD9B3"/>
<stop offset="0.68" stop-color="#FCD7B0"/>
<stop offset="1" stop-color="#F7D4AB"/>
</linearGradient>
<linearGradient id="paint45_linear_605_3" x1="79.114" y1="50.6153" x2="93.943" y2="50.6153" gradientUnits="userSpaceOnUse">
<stop stop-color="#F8D4AC"/>
<stop offset="0.52" stop-color="#FFD9B3"/>
<stop offset="1" stop-color="#F7D4AB"/>
</linearGradient>
<linearGradient id="paint46_linear_605_3" x1="91.6778" y1="50.7784" x2="91.0246" y2="63.5835" gradientUnits="userSpaceOnUse">
<stop stop-color="#DBA379"/>
<stop offset="0.49" stop-color="#E4B186"/>
<stop offset="1" stop-color="#F0C499"/>
</linearGradient>
<linearGradient id="paint47_linear_605_3" x1="72.2424" y1="46.2864" x2="70.109" y2="43.5515" gradientUnits="userSpaceOnUse">
<stop stop-color="#DBA379"/>
<stop offset="0.49" stop-color="#E4B186"/>
<stop offset="1" stop-color="#F0C499"/>
</linearGradient>
<linearGradient id="paint48_linear_605_3" x1="1697.06" y1="-116.241" x2="1695.29" y2="-118.964" gradientUnits="userSpaceOnUse">
<stop stop-color="#DBA379"/>
<stop offset="0.49" stop-color="#E4B186"/>
<stop offset="1" stop-color="#F0C499"/>
</linearGradient>
<linearGradient id="paint49_linear_605_3" x1="107.02" y1="70.8202" x2="106.992" y2="64.9045" gradientUnits="userSpaceOnUse">
<stop stop-color="#E46980"/>
<stop offset="0.37" stop-color="#E2677E"/>
<stop offset="0.55" stop-color="#DB6076"/>
<stop offset="0.69" stop-color="#D05569"/>
<stop offset="0.81" stop-color="#BF4556"/>
<stop offset="0.92" stop-color="#AA303E"/>
<stop offset="1" stop-color="#951C27"/>
</linearGradient>
<linearGradient id="paint50_linear_605_3" x1="106.724" y1="64.1731" x2="106.742" y2="61.0765" gradientUnits="userSpaceOnUse">
<stop stop-color="#E7D7D6"/>
<stop offset="0.14" stop-color="#EFE5E4"/>
<stop offset="0.4" stop-color="#FBF8F8"/>
<stop offset="0.57" stop-color="white"/>
<stop offset="1" stop-color="#E7D1D0"/>
</linearGradient>
<linearGradient id="paint51_linear_605_3" x1="107.078" y1="70.8347" x2="107.065" y2="66.2468" gradientUnits="userSpaceOnUse">
<stop stop-color="#E46980"/>
<stop offset="0.37" stop-color="#E2677E"/>
<stop offset="0.55" stop-color="#DB6076"/>
<stop offset="0.69" stop-color="#D05569"/>
<stop offset="0.81" stop-color="#BF4556"/>
<stop offset="0.92" stop-color="#AA303E"/>
<stop offset="1" stop-color="#951C27"/>
</linearGradient>
<linearGradient id="paint52_linear_605_3" x1="106.834" y1="66.5913" x2="106.756" y2="72.6473" gradientUnits="userSpaceOnUse">
<stop stop-color="#F96E7E"/>
<stop offset="0.03" stop-color="#FA7080"/>
<stop offset="0.25" stop-color="#FE7A86"/>
<stop offset="0.53" stop-color="#FF7D88"/>
<stop offset="0.76" stop-color="#FD7985"/>
<stop offset="1" stop-color="#F86D7D"/>
</linearGradient>
<linearGradient id="paint53_linear_605_3" x1="106.907" y1="64.8209" x2="106.906" y2="60.1551" gradientUnits="userSpaceOnUse">
<stop stop-color="#E7D7D6"/>
<stop offset="0.05" stop-color="#EADBDA"/>
<stop offset="0.31" stop-color="#F6EEEE"/>
<stop offset="0.48" stop-color="#FAF5F5"/>
<stop offset="1" stop-color="#E7D1D0"/>
</linearGradient>
<linearGradient id="paint54_linear_605_3" x1="106.679" y1="60.1732" x2="106.677" y2="62.0965" gradientUnits="userSpaceOnUse">
<stop stop-color="#F96E7E"/>
<stop offset="0.03" stop-color="#FA7080"/>
<stop offset="0.25" stop-color="#FE7A86"/>
<stop offset="0.53" stop-color="#FF7D88"/>
<stop offset="0.76" stop-color="#FD7985"/>
<stop offset="1" stop-color="#F86D7D"/>
</linearGradient>
<linearGradient id="paint55_linear_605_3" x1="111.466" y1="54.7378" x2="151.05" y2="153.631" gradientUnits="userSpaceOnUse">
<stop stop-color="#281612"/>
<stop offset="0.31" stop-color="#6B3329"/>
<stop offset="0.66" stop-color="#5E2C23"/>
<stop offset="1" stop-color="#4A2019"/>
</linearGradient>
<linearGradient id="paint56_linear_605_3" x1="65.9803" y1="57.6417" x2="78.1437" y2="168.352" gradientUnits="userSpaceOnUse">
<stop stop-color="#70362B"/>
<stop offset="0.31" stop-color="#6B3329"/>
<stop offset="0.66" stop-color="#5E2C23"/>
<stop offset="1" stop-color="#4A2019"/>
</linearGradient>
<linearGradient id="paint57_linear_605_3" x1="100.628" y1="54.8074" x2="156.847" y2="133.116" gradientUnits="userSpaceOnUse">
<stop stop-color="#70362B"/>
<stop offset="0.31" stop-color="#6B3329"/>
<stop offset="0.66" stop-color="#5E2C23"/>
<stop offset="1" stop-color="#4A2019"/>
</linearGradient>
<linearGradient id="paint58_linear_605_3" x1="70.989" y1="2.71768" x2="68.1285" y2="53.0963" gradientUnits="userSpaceOnUse">
<stop stop-color="#70362B"/>
<stop offset="0.31" stop-color="#6B3329"/>
<stop offset="0.66" stop-color="#5E2C23"/>
<stop offset="1" stop-color="#4A2019"/>
</linearGradient>
<linearGradient id="paint59_linear_605_3" x1="60.0916" y1="2.27524" x2="56.0194" y2="52.4066" gradientUnits="userSpaceOnUse">
<stop stop-color="#70362B"/>
<stop offset="0.31" stop-color="#6B3329"/>
<stop offset="0.66" stop-color="#5E2C23"/>
<stop offset="1" stop-color="#4A2019"/>
</linearGradient>
<linearGradient id="paint60_linear_605_3" x1="113.255" y1="31.3776" x2="72.2423" y2="94.477" gradientUnits="userSpaceOnUse">
<stop stop-color="#010000"/>
<stop offset="0.0001" stop-color="#4A2019"/>
<stop offset="0.0002" stop-color="#5E2C23"/>
<stop offset="0.0003" stop-color="#010000"/>
</linearGradient>
<linearGradient id="paint61_linear_605_3" x1="98.7828" y1="55.8662" x2="147.39" y2="144.041" gradientUnits="userSpaceOnUse">
<stop stop-color="#70362B"/>
<stop offset="0.31" stop-color="#6B3329"/>
<stop offset="0.66" stop-color="#5E2C23"/>
<stop offset="1" stop-color="#4A2019"/>
</linearGradient>
<linearGradient id="paint62_linear_605_3" x1="-77.6864" y1="249.883" x2="-111.629" y2="339.757" gradientUnits="userSpaceOnUse">
<stop stop-color="#70362B"/>
<stop offset="0.31" stop-color="#6B3329"/>
<stop offset="0.66" stop-color="#5E2C23"/>
<stop offset="1" stop-color="#4A2019"/>
</linearGradient>
<linearGradient id="paint63_linear_605_3" x1="119.681" y1="53.941" x2="130.174" y2="166.779" gradientUnits="userSpaceOnUse">
<stop stop-color="#70362B"/>
<stop offset="0.31" stop-color="#6B3329"/>
<stop offset="0.66" stop-color="#5E2C23"/>
<stop offset="1" stop-color="#4A2019"/>
</linearGradient>
<linearGradient id="paint64_linear_605_3" x1="82.3022" y1="59.5435" x2="47.268" y2="93.7688" gradientUnits="userSpaceOnUse">
<stop offset="0.09375" stop-color="#010000"/>
<stop offset="0.125" stop-color="#2D1510"/>
</linearGradient>
<linearGradient id="paint65_linear_605_3" x1="62.372" y1="53.7845" x2="79.7157" y2="171.483" gradientUnits="userSpaceOnUse">
<stop stop-color="#70362B"/>
<stop offset="0.31" stop-color="#6B3329"/>
<stop offset="0.66" stop-color="#5E2C23"/>
<stop offset="1" stop-color="#4A2019"/>
</linearGradient>
<linearGradient id="paint66_linear_605_3" x1="96.5964" y1="69.477" x2="95.8339" y2="23.577" gradientUnits="userSpaceOnUse">
<stop stop-color="#1A0B07"/>
<stop offset="0.0001" stop-color="#52271D"/>
<stop offset="0.0002" stop-color="#3A1A14"/>
<stop offset="0.0003" stop-color="#1D0E0B"/>
</linearGradient>
<linearGradient id="paint67_linear_605_3" x1="79.5932" y1="9.71321" x2="80.2594" y2="29.269" gradientUnits="userSpaceOnUse">
<stop stop-color="#70362B"/>
<stop offset="0.31" stop-color="#6B3329"/>
<stop offset="0.66" stop-color="#5E2C23"/>
<stop offset="1" stop-color="#4A2019"/>
</linearGradient>
<linearGradient id="paint68_linear_605_3" x1="69.5884" y1="57.1355" x2="93.4128" y2="165.563" gradientUnits="userSpaceOnUse">
<stop stop-color="#70362B"/>
<stop offset="0.31" stop-color="#6B3329"/>
<stop offset="0.66" stop-color="#5E2C23"/>
<stop offset="1" stop-color="#4A2019"/>
</linearGradient>
<linearGradient id="paint69_linear_605_3" x1="-115.364" y1="429.742" x2="-115.097" y2="429.742" gradientUnits="userSpaceOnUse">
<stop stop-color="#F8C39C"/>
<stop offset="0.48" stop-color="#FCD0A9"/>
<stop offset="1" stop-color="#FFD9B3"/>
</linearGradient>
<linearGradient id="paint70_linear_605_3" x1="-116.236" y1="432.554" x2="-115.97" y2="432.554" gradientUnits="userSpaceOnUse">
<stop stop-color="#FFD9B3"/>
<stop offset="0.52" stop-color="#FCD0A9"/>
<stop offset="1" stop-color="#F8C39C"/>
</linearGradient>
<linearGradient id="paint71_linear_605_3" x1="213.233" y1="-251.39" x2="213.543" y2="-227.049" gradientUnits="userSpaceOnUse">
<stop stop-color="#F7D4AB"/>
<stop offset="0.57" stop-color="#F5CEA5"/>
<stop offset="1" stop-color="#F1C69C"/>
</linearGradient>
<linearGradient id="paint72_linear_605_3" x1="348.484" y1="171.527" x2="353.653" y2="124.119" gradientUnits="userSpaceOnUse">
<stop stop-color="#F0C499"/>
<stop offset="0.71" stop-color="#F5CEA5"/>
<stop offset="1" stop-color="#F7D4AB"/>
</linearGradient>
<linearGradient id="paint73_linear_605_3" x1="355.059" y1="133.627" x2="368.77" y2="96.4924" gradientUnits="userSpaceOnUse">
<stop stop-color="#F0C499"/>
<stop offset="0.71" stop-color="#F5CEA5"/>
<stop offset="1" stop-color="#F7D4AB"/>
</linearGradient>
<linearGradient id="paint74_linear_605_3" x1="330.668" y1="125.847" x2="337.941" y2="59.1826" gradientUnits="userSpaceOnUse">
<stop stop-color="#F0C499"/>
<stop offset="0.71" stop-color="#F5CEA5"/>
<stop offset="1" stop-color="#F7D4AB"/>
</linearGradient>
<linearGradient id="paint75_linear_605_3" x1="356.27" y1="135.116" x2="365.451" y2="100.68" gradientUnits="userSpaceOnUse">
<stop stop-color="#F0C499"/>
<stop offset="0.71" stop-color="#F5CEA5"/>
<stop offset="1" stop-color="#F7D4AB"/>
</linearGradient>
<linearGradient id="paint76_linear_605_3" x1="326.936" y1="127.469" x2="333.429" y2="69.5628" gradientUnits="userSpaceOnUse">
<stop stop-color="#F0C499"/>
<stop offset="0.71" stop-color="#F5CEA5"/>
<stop offset="1" stop-color="#F7D4AB"/>
</linearGradient>
<linearGradient id="paint77_linear_605_3" x1="354.655" y1="138.156" x2="359.368" y2="111.604" gradientUnits="userSpaceOnUse">
<stop stop-color="#F0C499"/>
<stop offset="0.71" stop-color="#F5CEA5"/>
<stop offset="1" stop-color="#F7D4AB"/>
</linearGradient>
<linearGradient id="paint78_linear_605_3" x1="340.826" y1="149.852" x2="347.772" y2="127.555" gradientUnits="userSpaceOnUse">
<stop stop-color="#F0C499"/>
<stop offset="0.71" stop-color="#F5CEA5"/>
<stop offset="1" stop-color="#F7D4AB"/>
</linearGradient>
<linearGradient id="paint79_linear_605_3" x1="347.216" y1="134.997" x2="360.037" y2="131.71" gradientUnits="userSpaceOnUse">
<stop stop-color="#F0C499"/>
<stop offset="0.71" stop-color="#F5CEA5"/>
<stop offset="1" stop-color="#F7D4AB"/>
</linearGradient>
<linearGradient id="paint80_linear_605_3" x1="350.195" y1="135.615" x2="359.641" y2="105.126" gradientUnits="userSpaceOnUse">
<stop stop-color="#FFD9B3"/>
<stop offset="0.68" stop-color="#FCD7B0"/>
<stop offset="1" stop-color="#F7D4AB"/>
</linearGradient>
<linearGradient id="paint81_linear_605_3" x1="372.977" y1="313.751" x2="373.929" y2="296.312" gradientUnits="userSpaceOnUse">
<stop stop-color="#FFD9B3"/>
<stop offset="0.68" stop-color="#FCD7B0"/>
<stop offset="1" stop-color="#F7D4AB"/>
</linearGradient>
<linearGradient id="paint82_linear_605_3" x1="344.726" y1="179.989" x2="366.655" y2="165.632" gradientUnits="userSpaceOnUse">
<stop stop-color="#F0C499"/>
<stop offset="0.52" stop-color="#F1C69C"/>
<stop offset="0.85" stop-color="#F4CEA4"/>
<stop offset="1" stop-color="#F7D4AB"/>
</linearGradient>
<linearGradient id="paint83_linear_605_3" x1="356.133" y1="131.984" x2="343.607" y2="134.083" gradientUnits="userSpaceOnUse">
<stop stop-color="#FFD9B3"/>
<stop offset="0.68" stop-color="#FCD7B0"/>
<stop offset="1" stop-color="#F7D4AB"/>
</linearGradient>
<linearGradient id="paint84_linear_605_3" x1="357.316" y1="140.87" x2="360.636" y2="132.153" gradientUnits="userSpaceOnUse">
<stop stop-color="#FFD9B3"/>
<stop offset="0.68" stop-color="#FCD7B0"/>
<stop offset="1" stop-color="#F7D4AB"/>
</linearGradient>
<linearGradient id="paint85_linear_605_3" x1="336.349" y1="104.834" x2="350.605" y2="102.488" gradientUnits="userSpaceOnUse">
<stop stop-color="#F0C499"/>
<stop offset="0.52" stop-color="#F1C69C"/>
<stop offset="0.85" stop-color="#F4CEA4"/>
<stop offset="1" stop-color="#F7D4AB"/>
</linearGradient>
<linearGradient id="paint86_linear_605_3" x1="165.853" y1="391.961" x2="166.098" y2="416.955" gradientUnits="userSpaceOnUse">
<stop stop-color="#F7D4AB"/>
<stop offset="0.57" stop-color="#F5CEA5"/>
<stop offset="1" stop-color="#F1C69C"/>
</linearGradient>
<linearGradient id="paint87_linear_605_3" x1="141.489" y1="223.504" x2="147.185" y2="176.085" gradientUnits="userSpaceOnUse">
<stop stop-color="#F0C499"/>
<stop offset="0.71" stop-color="#F5CEA5"/>
<stop offset="1" stop-color="#F7D4AB"/>
</linearGradient>
<linearGradient id="paint88_linear_605_3" x1="148.131" y1="185.595" x2="163.727" y2="148.092" gradientUnits="userSpaceOnUse">
<stop stop-color="#F0C499"/>
<stop offset="0.71" stop-color="#F5CEA5"/>
<stop offset="1" stop-color="#F7D4AB"/>
</linearGradient>
<linearGradient id="paint89_linear_605_3" x1="119.936" y1="161.344" x2="128.163" y2="94.4391" gradientUnits="userSpaceOnUse">
<stop stop-color="#F0C499"/>
<stop offset="0.71" stop-color="#F5CEA5"/>
<stop offset="1" stop-color="#F7D4AB"/>
</linearGradient>
<linearGradient id="paint90_linear_605_3" x1="149.336" y1="187.08" x2="159.987" y2="152.045" gradientUnits="userSpaceOnUse">
<stop stop-color="#F0C499"/>
<stop offset="0.71" stop-color="#F5CEA5"/>
<stop offset="1" stop-color="#F7D4AB"/>
</linearGradient>
<linearGradient id="paint91_linear_605_3" x1="116.206" y1="163.651" x2="123.671" y2="105.397" gradientUnits="userSpaceOnUse">
<stop stop-color="#F0C499"/>
<stop offset="0.71" stop-color="#F5CEA5"/>
<stop offset="1" stop-color="#F7D4AB"/>
</linearGradient>
<linearGradient id="paint92_linear_605_3" x1="147.713" y1="190.134" x2="153.171" y2="163.1" gradientUnits="userSpaceOnUse">
<stop stop-color="#F0C499"/>
<stop offset="0.71" stop-color="#F5CEA5"/>
<stop offset="1" stop-color="#F7D4AB"/>
</linearGradient>
<linearGradient id="paint93_linear_605_3" x1="133.795" y1="201.82" x2="141.7" y2="179.249" gradientUnits="userSpaceOnUse">
<stop stop-color="#F0C499"/>
<stop offset="0.71" stop-color="#F5CEA5"/>
<stop offset="1" stop-color="#F7D4AB"/>
</linearGradient>
<linearGradient id="paint94_linear_605_3" x1="140.231" y1="187.052" x2="152.992" y2="184.153" gradientUnits="userSpaceOnUse">
<stop stop-color="#F0C499"/>
<stop offset="0.71" stop-color="#F5CEA5"/>
<stop offset="1" stop-color="#F7D4AB"/>
</linearGradient>
<linearGradient id="paint95_linear_605_3" x1="143.183" y1="187.593" x2="154.04" y2="156.643" gradientUnits="userSpaceOnUse">
<stop stop-color="#FFD9B3"/>
<stop offset="0.68" stop-color="#FCD7B0"/>
<stop offset="1" stop-color="#F7D4AB"/>
</linearGradient>
<linearGradient id="paint96_linear_605_3" x1="179.453" y1="404.103" x2="180.483" y2="386.661" gradientUnits="userSpaceOnUse">
<stop stop-color="#FFD9B3"/>
<stop offset="0.68" stop-color="#FCD7B0"/>
<stop offset="1" stop-color="#F7D4AB"/>
</linearGradient>
<linearGradient id="paint97_linear_605_3" x1="137.724" y1="230.587" x2="158.906" y2="217.76" gradientUnits="userSpaceOnUse">
<stop stop-color="#F0C499"/>
<stop offset="0.52" stop-color="#F1C69C"/>
<stop offset="0.85" stop-color="#F4CEA4"/>
<stop offset="1" stop-color="#F7D4AB"/>
</linearGradient>
<linearGradient id="paint98_linear_605_3" x1="149.131" y1="183.976" x2="136.626" y2="185.848" gradientUnits="userSpaceOnUse">
<stop stop-color="#FFD9B3"/>
<stop offset="0.68" stop-color="#FCD7B0"/>
<stop offset="1" stop-color="#F7D4AB"/>
</linearGradient>
<linearGradient id="paint99_linear_605_3" x1="150.329" y1="192.849" x2="154.079" y2="184.066" gradientUnits="userSpaceOnUse">
<stop stop-color="#FFD9B3"/>
<stop offset="0.68" stop-color="#FCD7B0"/>
<stop offset="1" stop-color="#F7D4AB"/>
</linearGradient>
<linearGradient id="paint100_linear_605_3" x1="120.066" y1="101.499" x2="132.523" y2="99.2032" gradientUnits="userSpaceOnUse">
<stop stop-color="#F0C499"/>
<stop offset="0.52" stop-color="#F1C69C"/>
<stop offset="0.85" stop-color="#F4CEA4"/>
<stop offset="1" stop-color="#F7D4AB"/>
</linearGradient>
</defs>
</svg>
