<svg xmlns="http://www.w3.org/2000/svg" xmlns:xlink="http://www.w3.org/1999/xlink" width="224.152" height="214.166" viewBox="0 0 224.152 214.166">
  <defs>
    <linearGradient id="linear-gradient" x1="0.483" y1="0.237" x2="0.512" y2="0.822" gradientUnits="objectBoundingBox">
      <stop offset="0" stop-color="#652f23"/>
      <stop offset="0.77" stop-color="#492219"/>
    </linearGradient>
    <linearGradient id="linear-gradient-2" x1="-0.034" y1="1.302" x2="0.934" y2="-0.212" gradientUnits="objectBoundingBox">
      <stop offset="0" stop-color="#d64053"/>
      <stop offset="0.58" stop-color="#ed4768"/>
      <stop offset="1" stop-color="#f94a72"/>
    </linearGradient>
    <linearGradient id="linear-gradient-3" x1="0.571" y1="1.828" x2="0.483" y2="0.152" gradientUnits="objectBoundingBox">
      <stop offset="0" stop-color="#ff6586"/>
      <stop offset="0.52" stop-color="#fb547a"/>
      <stop offset="1" stop-color="#f94a72"/>
    </linearGradient>
    <linearGradient id="linear-gradient-4" x1="0.164" y1="0.01" x2="0.399" y2="0.376" xlink:href="#linear-gradient-3"/>
    <linearGradient id="linear-gradient-5" x1="12.668" y1="-0.328" x2="12.562" y2="0.925" xlink:href="#linear-gradient-3"/>
    <linearGradient id="linear-gradient-6" x1="0.113" y1="0.925" x2="2.315" y2="-1.436" xlink:href="#linear-gradient-2"/>
    <linearGradient id="linear-gradient-7" x1="16.187" y1="-1.063" x2="14.618" y2="2.488" gradientUnits="objectBoundingBox">
      <stop offset="0" stop-color="#f54964"/>
      <stop offset="0.42" stop-color="#e9465a"/>
      <stop offset="1" stop-color="#d23f47"/>
    </linearGradient>
    <linearGradient id="linear-gradient-8" x1="1.512" y1="-1.588" x2="0.088" y2="2.049" gradientUnits="objectBoundingBox">
      <stop offset="0" stop-color="#d23f47"/>
      <stop offset="0.58" stop-color="#e9465a"/>
      <stop offset="1" stop-color="#f54964"/>
    </linearGradient>
    <linearGradient id="linear-gradient-9" x1="7.793" y1="1.316" x2="8.098" y2="0.847" gradientUnits="objectBoundingBox">
      <stop offset="0" stop-color="#f94a72"/>
      <stop offset="0.42" stop-color="#ed4768"/>
      <stop offset="1" stop-color="#d64053"/>
    </linearGradient>
    <linearGradient id="linear-gradient-10" x1="1.125" y1="-0.735" x2="0.264" y2="0.871" gradientUnits="objectBoundingBox">
      <stop offset="0" stop-color="#f94a72"/>
      <stop offset="0.4" stop-color="#ed4667"/>
      <stop offset="0.83" stop-color="#db4157"/>
      <stop offset="1" stop-color="#d64053"/>
    </linearGradient>
    <linearGradient id="linear-gradient-11" x1="0.501" y1="0.033" x2="0.501" y2="1.098" xlink:href="#linear-gradient-8"/>
    <linearGradient id="linear-gradient-12" x1="0.285" y1="0.244" x2="0.698" y2="1.489" gradientUnits="objectBoundingBox">
      <stop offset="0" stop-color="#f0c499"/>
      <stop offset="0.52" stop-color="#f1c69c"/>
      <stop offset="0.85" stop-color="#f4cea4"/>
      <stop offset="1" stop-color="#f7d4ab"/>
    </linearGradient>
    <linearGradient id="linear-gradient-13" x1="395.875" y1="-0.519" x2="392.631" y2="0.701" xlink:href="#linear-gradient-12"/>
    <linearGradient id="linear-gradient-14" x1="-0.111" y1="0.761" x2="0.9" y2="-0.071" xlink:href="#linear-gradient-12"/>
    <linearGradient id="linear-gradient-15" x1="1.07" y1="1.048" x2="0.13" y2="-0.255" xlink:href="#linear-gradient-12"/>
    <linearGradient id="linear-gradient-16" x1="0.455" y1="0.224" x2="0.594" y2="0.95" gradientUnits="objectBoundingBox">
      <stop offset="0" stop-color="#dba379"/>
      <stop offset="0.49" stop-color="#e4b186"/>
      <stop offset="1" stop-color="#f0c499"/>
    </linearGradient>
    <linearGradient id="linear-gradient-17" x1="-0.255" y1="-0.663" x2="0.566" y2="0.927" xlink:href="#linear-gradient-16"/>
    <linearGradient id="linear-gradient-18" x1="-0.127" y1="-0.893" x2="0.611" y2="0.979" xlink:href="#linear-gradient-16"/>
    <linearGradient id="linear-gradient-19" x1="0.404" y1="-0.236" x2="0.569" y2="1.132" xlink:href="#linear-gradient-2"/>
    <linearGradient id="linear-gradient-20" x1="0.414" y1="-0.188" x2="0.577" y2="1.185" xlink:href="#linear-gradient-2"/>
    <linearGradient id="linear-gradient-21" x1="0.501" y1="0.466" x2="0.537" y2="2.376" xlink:href="#linear-gradient-2"/>
    <linearGradient id="linear-gradient-22" x1="-312.41" y1="6.189" x2="-312.265" y2="8.058" xlink:href="#linear-gradient-16"/>
    <linearGradient id="linear-gradient-23" x1="-163.224" y1="6.189" x2="-163.077" y2="8.058" xlink:href="#linear-gradient-16"/>
    <linearGradient id="linear-gradient-24" x1="0.5" y1="0.128" x2="0.499" y2="0.994" gradientUnits="objectBoundingBox">
      <stop offset="0" stop-color="#ffd9b3"/>
      <stop offset="0.32" stop-color="#fad6ae"/>
      <stop offset="1" stop-color="#f7d4ab"/>
    </linearGradient>
    <linearGradient id="linear-gradient-25" x1="0.551" y1="0.959" x2="0.417" y2="0.141" gradientUnits="objectBoundingBox">
      <stop offset="0" stop-color="#f7d4ab"/>
      <stop offset="0.52" stop-color="#f6d2a8"/>
      <stop offset="0.85" stop-color="#f3caa0"/>
      <stop offset="1" stop-color="#f0c499"/>
    </linearGradient>
    <linearGradient id="linear-gradient-26" x1="0.554" y1="1.064" x2="0.414" y2="0.099" xlink:href="#linear-gradient-25"/>
    <radialGradient id="radial-gradient" cx="0.477" cy="0.462" r="0.369" gradientTransform="translate(2.342 -0.123) scale(1.457 1.266)" gradientUnits="objectBoundingBox">
      <stop offset="0" stop-color="#f9b38e"/>
      <stop offset="0.61" stop-color="#f8c69e"/>
      <stop offset="1" stop-color="#f7d4ab"/>
    </radialGradient>
    <radialGradient id="radial-gradient-2" cx="0.685" cy="0.462" r="0.37" gradientTransform="matrix(-1.457, 0, 0, 1.266, 108.169, -0.123)" xlink:href="#radial-gradient"/>
    <linearGradient id="linear-gradient-27" x1="0.501" y1="0.071" x2="0.499" y2="0.935" gradientUnits="objectBoundingBox">
      <stop offset="0" stop-color="#f7d4ab"/>
      <stop offset="0.97" stop-color="#f0c59a"/>
      <stop offset="1" stop-color="#f0c499"/>
    </linearGradient>
    <linearGradient id="linear-gradient-28" x1="1.093" y1="-0.549" x2="0.206" y2="1.071" gradientUnits="objectBoundingBox">
      <stop offset="0" stop-color="#f9b38e"/>
      <stop offset="0.5" stop-color="#f7b690"/>
      <stop offset="0.9" stop-color="#f2c096"/>
      <stop offset="1" stop-color="#f0c499"/>
    </linearGradient>
    <linearGradient id="linear-gradient-29" x1="97.935" y1="-0.56" x2="97.153" y2="1.08" xlink:href="#linear-gradient-28"/>
    <linearGradient id="linear-gradient-30" x1="-0.002" y1="0.5" x2="0.998" y2="0.5" gradientUnits="objectBoundingBox">
      <stop offset="0" stop-color="#ffd9b3"/>
      <stop offset="0.68" stop-color="#fcd7b0"/>
      <stop offset="1" stop-color="#f7d4ab"/>
    </linearGradient>
    <linearGradient id="linear-gradient-31" x1="7.044" y1="0.259" x2="6.089" y2="0.815" xlink:href="#linear-gradient-16"/>
    <linearGradient id="linear-gradient-32" x1="20.778" y1="0.5" x2="21.78" y2="0.5" gradientUnits="objectBoundingBox">
      <stop offset="0" stop-color="#ece7e7"/>
      <stop offset="0.23" stop-color="#f6f4f4"/>
      <stop offset="0.53" stop-color="#fdfcfc"/>
      <stop offset="1" stop-color="#fff"/>
    </linearGradient>
    <linearGradient id="linear-gradient-33" x1="13.876" y1="0.5" x2="14.396" y2="0.5" xlink:href="#linear-gradient-32"/>
    <linearGradient id="linear-gradient-34" x1="12.15" y1="1.024" x2="10.912" y2="-0.133" gradientUnits="objectBoundingBox">
      <stop offset="0" stop-color="#b89c8c"/>
      <stop offset="1" stop-color="#715241"/>
    </linearGradient>
    <linearGradient id="linear-gradient-35" x1="13.5" y1="1.075" x2="11.851" y2="0.58" xlink:href="#linear-gradient-34"/>
    <radialGradient id="radial-gradient-3" cx="0.339" cy="0.553" r="0.595" gradientTransform="translate(-0.009)" gradientUnits="objectBoundingBox">
      <stop offset="0" stop-color="#2a3a3b"/>
      <stop offset="1" stop-color="#1c2727"/>
    </radialGradient>
    <linearGradient id="linear-gradient-36" x1="5.652" y1="0.5" x2="6.652" y2="0.5" gradientUnits="objectBoundingBox">
      <stop offset="0" stop-color="#5a2a1f"/>
      <stop offset="0.29" stop-color="#4a2319"/>
      <stop offset="0.66" stop-color="#3d1d15"/>
      <stop offset="1" stop-color="#391b13"/>
    </linearGradient>
    <linearGradient id="linear-gradient-37" x1="9.204" y1="0.35" x2="8.194" y2="4.643" xlink:href="#linear-gradient-16"/>
    <linearGradient id="linear-gradient-38" x1="11.959" y1="0.259" x2="11.003" y2="0.814" xlink:href="#linear-gradient-16"/>
    <linearGradient id="linear-gradient-39" x1="35.3" y1="0.5" x2="36.3" y2="0.5" gradientUnits="objectBoundingBox">
      <stop offset="0" stop-color="#fff"/>
      <stop offset="0.47" stop-color="#fdfcfc"/>
      <stop offset="0.77" stop-color="#f6f4f4"/>
      <stop offset="1" stop-color="#ece7e7"/>
    </linearGradient>
    <linearGradient id="linear-gradient-40" x1="25.939" y1="0.498" x2="26.458" y2="0.498" xlink:href="#linear-gradient-39"/>
    <linearGradient id="linear-gradient-41" x1="20.94" y1="1.024" x2="19.702" y2="-0.133" gradientUnits="objectBoundingBox">
      <stop offset="0" stop-color="#715241"/>
      <stop offset="1" stop-color="#b89c8c"/>
    </linearGradient>
    <linearGradient id="linear-gradient-42" x1="0.355" y1="0.396" x2="1.65" y2="3.358" xlink:href="#linear-gradient-41"/>
    <radialGradient id="radial-gradient-4" cx="0.661" cy="0.558" r="0.596" gradientTransform="matrix(-1.001, 0, 0, 1, 65.964, 0)" xlink:href="#radial-gradient-3"/>
    <linearGradient id="linear-gradient-43" x1="10.33" y1="0.499" x2="11.33" y2="0.499" xlink:href="#linear-gradient-36"/>
    <linearGradient id="linear-gradient-44" x1="15.993" y1="0.35" x2="14.983" y2="4.648" xlink:href="#linear-gradient-16"/>
    <linearGradient id="linear-gradient-45" x1="0.58" y1="1.099" x2="0.484" y2="-0.041" xlink:href="#linear-gradient-25"/>
    <linearGradient id="linear-gradient-46" x1="0.501" y1="0.108" x2="0.498" y2="2.777" xlink:href="#linear-gradient-16"/>
    <linearGradient id="linear-gradient-47" x1="0.498" y1="-0.109" x2="0.506" y2="0.828" gradientUnits="objectBoundingBox">
      <stop offset="0" stop-color="#f7d4ab"/>
      <stop offset="1" stop-color="#ffd9b3"/>
    </linearGradient>
    <linearGradient id="linear-gradient-48" y1="0.5" x2="1" y2="0.5" gradientUnits="objectBoundingBox">
      <stop offset="0" stop-color="#673024"/>
      <stop offset="0.34" stop-color="#53271c"/>
      <stop offset="0.68" stop-color="#462118"/>
      <stop offset="1" stop-color="#421f16"/>
    </linearGradient>
    <linearGradient id="linear-gradient-49" x1="-4.632" y1="0.5" x2="-3.632" y2="0.5" xlink:href="#linear-gradient-48"/>
    <linearGradient id="linear-gradient-50" x1="0.499" y1="0.092" x2="0.449" y2="1.607" xlink:href="#linear-gradient-16"/>
    <linearGradient id="linear-gradient-51" x1="0.495" y1="-0.427" x2="0.507" y2="1.779" xlink:href="#linear-gradient-30"/>
    <linearGradient id="linear-gradient-52" y1="0.5" x2="1" y2="0.5" gradientUnits="objectBoundingBox">
      <stop offset="0" stop-color="#f8d4ac"/>
      <stop offset="0.52" stop-color="#ffd9b3"/>
      <stop offset="1" stop-color="#f7d4ab"/>
    </linearGradient>
    <linearGradient id="linear-gradient-53" x1="0.821" y1="-0.142" x2="0.738" y2="0.995" xlink:href="#linear-gradient-16"/>
    <linearGradient id="linear-gradient-54" x1="-2.145" y1="-4.522" x2="-3.717" y2="-5.493" xlink:href="#linear-gradient-16"/>
    <linearGradient id="linear-gradient-55" x1="607.368" y1="-144.87" x2="605.821" y2="-145.918" xlink:href="#linear-gradient-16"/>
    <linearGradient id="linear-gradient-56" x1="2.501" y1="2.896" x2="2.492" y2="1.835" gradientUnits="objectBoundingBox">
      <stop offset="0" stop-color="#e46980"/>
      <stop offset="0.37" stop-color="#e2677e"/>
      <stop offset="0.55" stop-color="#db6076"/>
      <stop offset="0.69" stop-color="#d05569"/>
      <stop offset="0.81" stop-color="#bf4556"/>
      <stop offset="0.92" stop-color="#aa303e"/>
      <stop offset="1" stop-color="#951c27"/>
    </linearGradient>
    <linearGradient id="linear-gradient-57" x1="2.343" y1="5.221" x2="2.373" y2="4.026" gradientUnits="objectBoundingBox">
      <stop offset="0" stop-color="#e7d7d6"/>
      <stop offset="0.14" stop-color="#efe5e4"/>
      <stop offset="0.4" stop-color="#fbf8f8"/>
      <stop offset="0.57" stop-color="#fff"/>
      <stop offset="1" stop-color="#e7d1d0"/>
    </linearGradient>
    <linearGradient id="linear-gradient-58" x1="2.475" y1="3.433" x2="2.468" y2="2.375" xlink:href="#linear-gradient-56"/>
    <linearGradient id="linear-gradient-59" x1="2.348" y1="1.847" x2="2.319" y2="2.962" gradientUnits="objectBoundingBox">
      <stop offset="0" stop-color="#f96e7e"/>
      <stop offset="0.03" stop-color="#fa7080"/>
      <stop offset="0.25" stop-color="#fe7a86"/>
      <stop offset="0.53" stop-color="#ff7d88"/>
      <stop offset="0.76" stop-color="#fd7985"/>
      <stop offset="1" stop-color="#f86d7d"/>
    </linearGradient>
    <linearGradient id="linear-gradient-60" x1="2.356" y1="6.946" x2="2.354" y2="4.697" gradientUnits="objectBoundingBox">
      <stop offset="0" stop-color="#e7d7d6"/>
      <stop offset="0.05" stop-color="#eadbda"/>
      <stop offset="0.31" stop-color="#f6eeee"/>
      <stop offset="0.48" stop-color="#faf5f5"/>
      <stop offset="1" stop-color="#e7d1d0"/>
    </linearGradient>
    <linearGradient id="linear-gradient-61" x1="2.683" y1="6.801" x2="2.673" y2="8.06" xlink:href="#linear-gradient-59"/>
    <linearGradient id="linear-gradient-62" x1="0.53" y1="0.032" x2="0.419" y2="1.042" gradientUnits="objectBoundingBox">
      <stop offset="0.23" stop-color="#492219"/>
      <stop offset="1" stop-color="#652f23"/>
    </linearGradient>
    <linearGradient id="linear-gradient-63" x1="0.522" y1="0.078" x2="0.433" y2="0.957" xlink:href="#linear-gradient-62"/>
    <linearGradient id="linear-gradient-64" x1="0.734" y1="-0.69" x2="0.298" y2="1.344" xlink:href="#linear-gradient-62"/>
    <linearGradient id="linear-gradient-65" x1="0.595" y1="1.559" x2="0.433" y2="-0.231" xlink:href="#linear-gradient-62"/>
    <linearGradient id="linear-gradient-66" x1="0.588" y1="1.444" x2="0.418" y2="-0.265" xlink:href="#linear-gradient-62"/>
    <linearGradient id="linear-gradient-67" x1="0.496" y1="1.055" x2="0.507" y2="-0.328" xlink:href="#linear-gradient-62"/>
    <linearGradient id="linear-gradient-68" x1="0" y1="0.5" x2="1" y2="0.5" xlink:href="#linear-gradient-62"/>
    <linearGradient id="linear-gradient-69" x1="-2.043" y1="1.031" x2="-2.655" y2="2.25" xlink:href="#linear-gradient-62"/>
    <linearGradient id="linear-gradient-70" x1="-3.197" y1="0.725" x2="-2.681" y2="2.457" xlink:href="#linear-gradient-62"/>
    <linearGradient id="linear-gradient-71" x1="0.933" y1="1.548" x2="0.203" y2="-0.086" xlink:href="#linear-gradient-62"/>
    <linearGradient id="linear-gradient-72" x1="0.41" y1="0.025" x2="0.738" y2="2.186" gradientUnits="objectBoundingBox">
      <stop offset="0" stop-color="#70362b"/>
      <stop offset="0.31" stop-color="#6b3329"/>
      <stop offset="0.66" stop-color="#5e2c23"/>
      <stop offset="1" stop-color="#4a2019"/>
    </linearGradient>
    <linearGradient id="linear-gradient-73" x1="0.325" y1="-1.467" x2="0.686" y2="3.066" xlink:href="#linear-gradient-72"/>
    <linearGradient id="linear-gradient-74" x1="0.377" y1="0.171" x2="0.923" y2="2.859" xlink:href="#linear-gradient-72"/>
    <linearGradient id="linear-gradient-75" x1="0.127" y1="-1.462" x2="0.997" y2="3.077" xlink:href="#linear-gradient-72"/>
    <linearGradient id="linear-gradient-76" x1="0.522" y1="0.026" x2="0.451" y2="1.375" xlink:href="#linear-gradient-72"/>
    <linearGradient id="linear-gradient-77" x1="0.593" y1="-1.016" x2="0.47" y2="0.945" xlink:href="#linear-gradient-72"/>
    <linearGradient id="linear-gradient-78" x1="0.479" y1="0.327" x2="1.11" y2="6.229" xlink:href="#linear-gradient-72"/>
    <linearGradient id="linear-gradient-79" x1="85.062" y1="0.327" x2="85.693" y2="6.225" xlink:href="#linear-gradient-72"/>
    <linearGradient id="linear-gradient-80" x1="0.248" y1="-0.877" x2="0.561" y2="1.102" xlink:href="#linear-gradient-72"/>
    <linearGradient id="linear-gradient-81" x1="0.684" y1="-0.637" x2="0.274" y2="1.892" xlink:href="#linear-gradient-72"/>
    <linearGradient id="linear-gradient-82" x1="-0.045" y1="-2.027" x2="1.143" y2="3.877" xlink:href="#linear-gradient-72"/>
    <linearGradient id="linear-gradient-83" x1="0" y1="0.5" x2="1" y2="0.5" xlink:href="#linear-gradient-62"/>
    <linearGradient id="linear-gradient-84" x1="0" y1="0.5" x2="1" y2="0.5" xlink:href="#linear-gradient"/>
    <linearGradient id="linear-gradient-85" x1="2.014" y1="-0.771" x2="1.231" y2="0.001" xlink:href="#linear-gradient-72"/>
    <linearGradient id="linear-gradient-86" x1="1.086" y1="-0.608" x2="0.323" y2="1.063" xlink:href="#linear-gradient-72"/>
    <linearGradient id="linear-gradient-87" x1="0.46" y1="0.099" x2="0.666" y2="1.933" xlink:href="#linear-gradient-72"/>
    <linearGradient id="linear-gradient-88" x1="0.531" y1="-0.055" x2="0.453" y2="1.283" xlink:href="#linear-gradient-72"/>
    <linearGradient id="linear-gradient-89" x1="0.538" y1="-0.037" x2="0.445" y2="1.331" xlink:href="#linear-gradient-72"/>
    <linearGradient id="linear-gradient-90" x1="0.526" y1="0.055" x2="0.442" y2="1.57" xlink:href="#linear-gradient-72"/>
    <linearGradient id="linear-gradient-91" x1="0.226" y1="-0.8" x2="0.855" y2="2.728" xlink:href="#linear-gradient-72"/>
    <linearGradient id="linear-gradient-92" x1="-27.291" y1="7.196" x2="-27.728" y2="11.218" xlink:href="#linear-gradient-72"/>
    <linearGradient id="linear-gradient-93" x1="0.267" y1="-2.533" x2="0.823" y2="5.061" xlink:href="#linear-gradient-72"/>
    <linearGradient id="linear-gradient-94" x1="0.965" y1="-1.116" x2="0.08" y2="1.578" xlink:href="#linear-gradient-62"/>
    <linearGradient id="linear-gradient-95" x1="0.498" y1="0.568" x2="1.033" y2="5.317" xlink:href="#linear-gradient-72"/>
    <linearGradient id="linear-gradient-96" x1="0.109" y1="-3.644" x2="0.906" y2="5.004" xlink:href="#linear-gradient-72"/>
    <linearGradient id="linear-gradient-97" x1="32.192" y1="-11.606" x2="33.361" y2="-3.918" xlink:href="#linear-gradient-72"/>
    <linearGradient id="linear-gradient-98" x1="3.222" y1="-1.58" x2="3.864" y2="2.044" xlink:href="#linear-gradient-72"/>
    <linearGradient id="linear-gradient-99" x1="0.708" y1="4.707" x2="0.536" y2="1.606" gradientUnits="objectBoundingBox">
      <stop offset="0" stop-color="#421f16"/>
      <stop offset="0.45" stop-color="#52271d"/>
      <stop offset="1" stop-color="#6b3329"/>
    </linearGradient>
    <linearGradient id="linear-gradient-100" x1="0.424" y1="0.072" x2="0.811" y2="2.107" xlink:href="#linear-gradient-72"/>
    <linearGradient id="linear-gradient-101" x1="0.442" y1="-0.004" x2="0.958" y2="3.207" xlink:href="#linear-gradient-72"/>
    <linearGradient id="linear-gradient-102" x1="0.459" y1="0.162" x2="1.01" y2="3.148" xlink:href="#linear-gradient-72"/>
    <linearGradient id="linear-gradient-103" x1="0.344" y1="-0.386" x2="0.967" y2="4.233" xlink:href="#linear-gradient-72"/>
    <linearGradient id="linear-gradient-104" x1="0.449" y1="-0.238" x2="0.522" y2="1.202" xlink:href="#linear-gradient-72"/>
    <linearGradient id="linear-gradient-105" x1="5.106" y1="-2.115" x2="6.966" y2="-3.496" xlink:href="#linear-gradient-72"/>
    <linearGradient id="linear-gradient-106" x1="-0.5" y1="0.66" x2="1.995" y2="0.169" xlink:href="#linear-gradient"/>
    <linearGradient id="linear-gradient-107" x1="0.53" y1="0.004" x2="0.456" y2="1.048" xlink:href="#linear-gradient-72"/>
    <linearGradient id="linear-gradient-108" x1="-1.385" y1="0.68" x2="2.835" y2="0.312" xlink:href="#linear-gradient-62"/>
    <linearGradient id="linear-gradient-109" x1="0.481" y1="0.252" x2="0.685" y2="3.746" xlink:href="#linear-gradient-72"/>
    <linearGradient id="linear-gradient-110" x1="0.4" y1="-0.203" x2="0.816" y2="3.496" xlink:href="#linear-gradient-72"/>
    <linearGradient id="linear-gradient-111" x1="0.455" y1="0.05" x2="0.668" y2="1.782" xlink:href="#linear-gradient-72"/>
    <linearGradient id="linear-gradient-112" x1="-62.494" y1="174.171" x2="-62.416" y2="174.171" gradientUnits="objectBoundingBox">
      <stop offset="0" stop-color="#f8c39c"/>
      <stop offset="0.48" stop-color="#fcd0a9"/>
      <stop offset="1" stop-color="#ffd9b3"/>
    </linearGradient>
    <linearGradient id="linear-gradient-113" x1="-54.733" y1="180.013" x2="-54.655" y2="180.013" gradientUnits="objectBoundingBox">
      <stop offset="0" stop-color="#ffd9b3"/>
      <stop offset="0.52" stop-color="#fcd0a9"/>
      <stop offset="1" stop-color="#f8c39c"/>
    </linearGradient>
    <linearGradient id="linear-gradient-114" x1="12.324" y1="-58.805" x2="12.449" y2="-54.711" gradientUnits="objectBoundingBox">
      <stop offset="0" stop-color="#f7d4ab"/>
      <stop offset="0.57" stop-color="#f5cea5"/>
      <stop offset="1" stop-color="#f1c69c"/>
    </linearGradient>
    <linearGradient id="linear-gradient-115" x1="8.622" y1="4.242" x2="8.882" y2="2.569" gradientUnits="objectBoundingBox">
      <stop offset="0" stop-color="#f0c499"/>
      <stop offset="0.71" stop-color="#f5cea5"/>
      <stop offset="1" stop-color="#f7d4ab"/>
    </linearGradient>
    <linearGradient id="linear-gradient-116" x1="16.368" y1="7.242" x2="18.165" y2="4.721" xlink:href="#linear-gradient-115"/>
    <linearGradient id="linear-gradient-117" x1="8.229" y1="3.943" x2="9.05" y2="0.481" xlink:href="#linear-gradient-115"/>
    <linearGradient id="linear-gradient-118" x1="16.729" y1="8.499" x2="18.493" y2="5.587" xlink:href="#linear-gradient-115"/>
    <linearGradient id="linear-gradient-119" x1="11.566" y1="6.207" x2="12.891" y2="1.407" xlink:href="#linear-gradient-115"/>
    <linearGradient id="linear-gradient-120" x1="19.447" y1="12.128" x2="21.157" y2="8.67" xlink:href="#linear-gradient-115"/>
    <linearGradient id="linear-gradient-121" x1="9.701" y1="5.352" x2="10.376" y2="4.304" xlink:href="#linear-gradient-115"/>
    <linearGradient id="linear-gradient-122" x1="69.07" y1="10.06" x2="71.562" y2="8.985" xlink:href="#linear-gradient-115"/>
    <linearGradient id="linear-gradient-123" x1="18.639" y1="9.355" x2="20.423" y2="6.624" xlink:href="#linear-gradient-30"/>
    <linearGradient id="linear-gradient-124" x1="25.415" y1="25.297" x2="25.554" y2="23.488" xlink:href="#linear-gradient-30"/>
    <linearGradient id="linear-gradient-125" x1="20.733" y1="3.612" x2="21.506" y2="2.625" xlink:href="#linear-gradient-12"/>
    <linearGradient id="linear-gradient-126" x1="44.327" y1="6.391" x2="42.682" y2="6.833" xlink:href="#linear-gradient-30"/>
    <linearGradient id="linear-gradient-127" x1="26.929" y1="11.141" x2="27.618" y2="10.174" xlink:href="#linear-gradient-30"/>
    <linearGradient id="linear-gradient-128" x1="39.911" y1="1.205" x2="41.535" y2="0.423" xlink:href="#linear-gradient-12"/>
    <linearGradient id="linear-gradient-129" x1="-1.332" y1="-7.042" x2="-0.711" y2="-6.041" xlink:href="#linear-gradient-3"/>
    <linearGradient id="linear-gradient-130" x1="3.046" y1="56.243" x2="3.174" y2="61.024" xlink:href="#linear-gradient-114"/>
    <linearGradient id="linear-gradient-131" x1="0.294" y1="5.896" x2="0.558" y2="4.277" xlink:href="#linear-gradient-115"/>
    <linearGradient id="linear-gradient-132" x1="0" y1="11.362" x2="1.818" y2="8.959" xlink:href="#linear-gradient-115"/>
    <linearGradient id="linear-gradient-133" x1="-0.337" y1="5.582" x2="0.492" y2="2.287" xlink:href="#linear-gradient-115"/>
    <linearGradient id="linear-gradient-134" x1="0.025" y1="13.366" x2="1.811" y2="10.606" xlink:href="#linear-gradient-115"/>
    <linearGradient id="linear-gradient-135" x1="-0.942" y1="8.868" x2="0.396" y2="4.335" xlink:href="#linear-gradient-115"/>
    <linearGradient id="linear-gradient-136" x1="0.074" y1="19.154" x2="1.799" y2="15.883" xlink:href="#linear-gradient-115"/>
    <linearGradient id="linear-gradient-137" x1="0.107" y1="8.093" x2="0.789" y2="7.094" xlink:href="#linear-gradient-115"/>
    <linearGradient id="linear-gradient-138" x1="-0.263" y1="16.421" x2="2.346" y2="15.361" xlink:href="#linear-gradient-115"/>
    <linearGradient id="linear-gradient-139" x1="0.031" y1="14.628" x2="1.837" y2="12.029" xlink:href="#linear-gradient-30"/>
    <linearGradient id="linear-gradient-140" x1="3.595" y1="33.755" x2="3.736" y2="31.991" xlink:href="#linear-gradient-30"/>
    <linearGradient id="linear-gradient-141" x1="0.233" y1="5.412" x2="1.032" y2="4.431" xlink:href="#linear-gradient-12"/>
    <linearGradient id="linear-gradient-142" x1="2.129" y1="10.609" x2="0.415" y2="11.044" xlink:href="#linear-gradient-30"/>
    <linearGradient id="linear-gradient-143" x1="0.121" y1="17.897" x2="0.819" y2="16.971" xlink:href="#linear-gradient-30"/>
    <linearGradient id="linear-gradient-144" x1="-0.434" y1="1.06" x2="1.067" y2="0.295" xlink:href="#linear-gradient-12"/>
    <linearGradient id="linear-gradient-145" x1="3.063" y1="7.342" x2="3.667" y2="8.36" xlink:href="#linear-gradient-3"/>
  </defs>
  <g id="Layer_2" data-name="Layer 2" transform="translate(0 0.018)">
    <g id="Stress_woman" data-name="Stress woman" transform="translate(0 -0.018)">
      <path id="Path_7" data-name="Path 7" d="M157.03,68.575l60.078-2.215,5.934,68.943-63.413-1.976Z" transform="translate(-78.863 -33.318)" fill="url(#linear-gradient)"/>
      <path id="Path_8" data-name="Path 8" d="M223.549,177.7c-3.679-8.408-12.365-9.274-13.664-9.4-4.54-.438-22.689.174-24.581-5.884-2.355-7.556-2.33-25.477-2.33-25.477L154.9,135.88c3.186,5.311,3.484,24.959-1.772,29.24-4.037,3.285-13.44,2.434-19.991,3.156-3.579.393-14.127,3.395-17.049,14.112-2.369,8.671-2.618,20.628-1.892,31.983H228.487C229.02,200.517,227.412,186.589,223.549,177.7Z" transform="translate(-57.17 -68.232)" fill="#f7d4ab"/>
      <path id="Path_9" data-name="Path 9" d="M206.009,309.112c-2.3-12.654-4.226-32.356.5-45.348a170.9,170.9,0,0,0,5.311-19.453l12.141,28.234s2.056-58.315-5.267-70.984c-3.36-5.819-18.134-4.171-18.134-4.171s-5.371,9.627-33.994,9.4c-31.8-.254-34.472-9.4-34.472-9.4-3.8-.8-12.584-.334-16.243,4.171-6.187,7.621-8.89,67.778-8.89,67.778l15.113-24.272a140.307,140.307,0,0,0,4.271,19.384c2.3,7.79,5.515,24.466,1.668,41.092-.353,1.543-1,4.3-1.742,7.586h80.676C206.492,311.332,206.153,309.914,206.009,309.112Z" transform="translate(-53.717 -98.964)" fill="#f94a72"/>
      <path id="Path_10" data-name="Path 10" d="M221.616,351.281c-8.248-27.308-2.35-39.275-.941-46.588,1.055-5.515,6.262-10.409,6.775-16.367-1.459-.319-1.215-6.023-2.086-7.273-1.887,13.57-2.071,16.059-9.647,16.666-8.034.642-25.312.5-33.476.782s-26.258.637-33.6-1.892c-4.809-1.663-9.129-3.484-11.369-15.959-.393,5.028-.946,4.191-.727,6.929.612,7.6,2.155,9.378,4.609,18.846.358,1.384,6.023,13.938,1.966,39.748,33.6-1.434,52.725,1.225,69.351,8.93h10.234C222.268,353.5,221.87,352.192,221.616,351.281Z" transform="translate(-68.553 -140.938)" fill="url(#linear-gradient-2)"/>
      <path id="Path_11" data-name="Path 11" d="M215.449,237.006c11.1,1.1,14.854,10.737,11.33,19.16-3.718,8.875-24.317,5.476-39.235,5.67-12.091.159-25.327.528-30.728-5.212S150.9,243.6,159.8,240.376c6.755-2.449,14.57,2.812,27.941,2.862C198.176,243.278,204.587,235.956,215.449,237.006Z" transform="translate(-76.791 -118.968)" fill="url(#linear-gradient-3)"/>
      <path id="Path_12" data-name="Path 12" d="M326.784,223.97c-1.21-8.781.6-19.867-2.544-23.55a7.425,7.425,0,0,1,4.326,3.485c2.723,4.425,4.072,8.96,6.168,19.005C336.505,231.427,329.283,242.085,326.784,223.97Z" transform="translate(-162.839 -100.645)" fill="url(#linear-gradient-4)"/>
      <path id="Path_13" data-name="Path 13" d="M118.354,220.849a64.284,64.284,0,0,1,7.213-21.459c-3.156.229-7.825,3.679-9.543,7.133C114.879,208.823,115.765,238.949,118.354,220.849Z" transform="translate(-58.022 -100.128)" fill="url(#linear-gradient-5)"/>
      <path id="Path_14" data-name="Path 14" d="M226.124,266.27c-2.877,35.412-16.243,33.64-21.24,33.775-14.52.393-33.71.065-44.333-.264-13.938-.423-16.477-3.9-16.477-3.9S141.088,292,138.1,272.945c-.926,16.671,7.865,40.659,7.248,50.067,7.113-3.6,16.82-4.39,41.874-3.086,22.166,1.16,34.048,20.25,34.048,20.25s-4.405-29.32-.144-36.712c1.235-2.135,4.978-11.773,6.063-21.932C227.458,279.755,226.124,266.27,226.124,266.27Z" transform="translate(-69.322 -133.716)" fill="url(#linear-gradient-6)"/>
      <path id="Path_15" data-name="Path 15" d="M310.983,269.473s-6.606-42.008-8.273-34.4c-1.354,6.163-4.629,30.415-4.629,30.415Z" transform="translate(-149.701 -117.585)" fill="url(#linear-gradient-7)"/>
      <path id="Path_16" data-name="Path 16" d="M127.24,271.258s6.471-41.067,8.462-33.571c1.643,6.1,5.759,33.172,5.759,33.172Z" transform="translate(-63.902 -118.902)" fill="url(#linear-gradient-8)"/>
      <path id="Path_17" data-name="Path 17" d="M311.779,213.75s-11.753,24.018-12.6,25.651S278.851,279.114,292,291.529C292,291.529,313.711,214.611,311.779,213.75Z" transform="translate(-144.364 -107.34)" fill="url(#linear-gradient-9)"/>
      <path id="Path_18" data-name="Path 18" d="M116.31,213.08s11.394,24.172,12.226,25.845,19.727,40.007,6.392,52.233C134.927,291.152,114.368,213.911,116.31,213.08Z" transform="translate(-58.348 -107.003)" fill="url(#linear-gradient-10)"/>
      <path id="Path_19" data-name="Path 19" d="M307.558,267.581s.224-13.495-1.075-14.8-3.932,24.71-3.932,24.71Z" transform="translate(-151.945 -126.919)" fill="url(#linear-gradient-11)"/>
      <path id="Path_20" data-name="Path 20" d="M226.736,180.339a21.483,21.483,0,0,0,2.788-1.493c-10.453-1.354-13.585-3.131-14.336-3.649s-1.583-3.151-1.872-6.187c-.124-1.324-.319-4.649-.363-6.382-.368.448-23.261-.383-24.148-1.687h-2.658s.782,8.423-.463,14.436c-.254,1.23-7.676,2.987-12.544,3.982.348.274,1.6,1.115,1.877,1.264,4.166.408,7.755.9,9.458.6,2.081-.358,8.144-.279,10.842-1,14.436-3.838,16.382-7.741,16.382-7.741.647,5.849,3.878,6.969,3.644,6.919A43.526,43.526,0,0,0,226.736,180.339Z" transform="translate(-86.954 -80.818)" fill="url(#linear-gradient-12)"/>
      <path id="Path_21" data-name="Path 21" d="M229.915,212.559s-2.489-3.878-5.575-1.294C224.34,211.264,228.616,211.03,229.915,212.559Z" transform="translate(-112.667 -105.646)" fill="url(#linear-gradient-13)"/>
      <path id="Path_22" data-name="Path 22" d="M237.21,204.826s1.379-3.574,3.3-4.052,22.48-.826,24.969-1.314c0,0-8.761,1.707-14.232,2.345S241.5,201.486,237.21,204.826Z" transform="translate(-119.131 -100.163)" fill="url(#linear-gradient-14)"/>
      <path id="Path_23" data-name="Path 23" d="M195.938,204.937s-1.334-2.738-3.7-3.534-20.439-1.911-23.69-1.6C168.55,199.805,191.354,202.1,195.938,204.937Z" transform="translate(-84.649 -100.309)" fill="url(#linear-gradient-15)"/>
      <path id="Path_24" data-name="Path 24" d="M198.129,167.951s.657-14.381-.209-18.07c0,0,27.119-3.888,28.344-3.783-.5,3.022-.727,11.663-.727,11.663S213.889,172.973,198.129,167.951Z" transform="translate(-99.399 -73.363)" fill="url(#linear-gradient-16)"/>
      <path id="Path_25" data-name="Path 25" d="M249.8,160.93s-2.987,4.356-4.43,12.679,4.41,15.232,4.41,15.232l7.875-.567Z" transform="translate(-123.113 -80.813)" fill="url(#linear-gradient-17)"/>
      <path id="Path_26" data-name="Path 26" d="M198.428,175.88s9.5,5.973,10.817,11.509a15.81,15.81,0,0,1-1.15,10.18l-11.225-4.619Z" transform="translate(-98.871 -88.321)" fill="url(#linear-gradient-18)"/>
      <path id="Path_27" data-name="Path 27" d="M248.718,213.081s-6.267,7.377-3.728,19.005,11.743,15.282,14.58,20.081-5.082,6.252-5.082,6.252,14.749-2.031,10.394-14.809-7.606-28.259-8.92-32.61C253.521,212.573,248.718,213.081,248.718,213.081Z" transform="translate(-122.733 -105.959)" fill="url(#linear-gradient-19)"/>
      <path id="Path_28" data-name="Path 28" d="M185.926,210a31.881,31.881,0,0,0,12.888,3.231,11.844,11.844,0,0,1-6.327,7.551s8.273,6.71,4.664,18.6c-2.7,8.9-12.166,14.869-19.971,17.851C177.18,257.225,183.8,216.566,185.926,210Z" transform="translate(-88.983 -105.457)" fill="url(#linear-gradient-20)"/>
      <path id="Path_29" data-name="Path 29" d="M175.208,204.85s8.671,5.615,25.885,5.476,25.183-4.117,25.183-4.117l1.389,3.569s-4.853,4.764-26.572,4.8c-21.932.04-27.4-6.367-27.4-6.367Z" transform="translate(-87.23 -102.87)" fill="url(#linear-gradient-21)"/>
      <path id="Path_30" data-name="Path 30" d="M166.569,90.9c1.14,8.661,2.1,15.247,2.1,15.247-3.7,0-5.062-3.713-6.511-6.969-2.21-5-3.519-10.364,1.518-10.653C164.637,88.459,166.569,90.9,166.569,90.9Z" transform="translate(-80.452 -44.451)" fill="#f0c499"/>
      <path id="Path_31" data-name="Path 31" d="M166.783,104.834s-1.812-1.916-1.249-5.69c1.324-8.905-4.714-9.513-3.34-3.44,0,0,.831-2.862,1.6-1.991.936,1.05-1,1.633,0,6.227C164.294,102.3,166.783,104.834,166.783,104.834Z" transform="translate(-81.353 -46.047)" fill="url(#linear-gradient-22)"/>
      <path id="Path_32" data-name="Path 32" d="M274.986,90.9c-1.14,8.661-2.1,15.247-2.1,15.247,3.7,0,5.062-3.713,6.511-6.969,2.21-5,3.514-10.364-1.518-10.653C276.9,88.459,274.986,90.9,274.986,90.9Z" transform="translate(-137.05 -44.451)" fill="#f0c499"/>
      <path id="Path_33" data-name="Path 33" d="M278.45,104.834s1.812-1.916,1.249-5.69c-1.324-8.905,4.709-9.513,3.34-3.44,0,0-.836-2.862-1.6-1.991-.941,1.05,1,1.633,0,6.227C280.939,102.3,278.45,104.834,278.45,104.834Z" transform="translate(-139.842 -46.047)" fill="url(#linear-gradient-23)"/>
      <path id="Path_34" data-name="Path 34" d="M222.433,25.017C219.2,17.635,211.626,15.012,200.421,14.3c0,0-25.611,3.345-28.842,10.717-3.514,8.049-2.519,19.319-1.523,26.7s2.987,19.354,4.853,22.744,11.25,15.929,12.689,17.98c1.767,2.524,4.764,5.914,9.423,5.914,4.858,0,7.069-2.559,9.662-5.212,1.757-1.8,10.513-15.65,12.355-19.035s3.883-15.008,4.888-22.4S225.947,33.066,222.433,25.017Z" transform="translate(-84.935 -7.173)" fill="url(#linear-gradient-24)"/>
      <path id="Path_35" data-name="Path 35" d="M249.462,73.586a11.15,11.15,0,0,0-8.258-2.31c-11.763,1.195-11.583,12.942-12.684,19.6,14.436,5.725,22.833-4.7,22.833-4.7S253.827,77.006,249.462,73.586Z" transform="translate(-114.766 -35.746)" fill="url(#linear-gradient-25)"/>
      <path id="Path_36" data-name="Path 36" d="M183.78,72.341c-3.674-.244-6.108.672-7.965,2.2-4.341,3.544-1.16,13.515-1.16,13.515s8.462,10.06,22.863,3.883C196.369,85.343,195.548,73.147,183.78,72.341Z" transform="translate(-87.151 -36.302)" fill="url(#linear-gradient-26)"/>
      <path id="Path_37" data-name="Path 37" d="M188.115,94.231c-3.3-1-16.093-3.679-15.486.572,1.349,9.393,2.579,15.854,4.211,18.776,1.712,3.066,6.745,7.89,8.915,8.253,3.36.572,6.924-11.8,7-16.039C192.874,99.851,191.415,95.226,188.115,94.231Z" transform="translate(-86.686 -46.435)" fill="url(#radial-gradient)"/>
      <path id="Path_38" data-name="Path 38" d="M241.859,94.231c3.3-1,16.093-3.679,15.486.572-1.324,9.383-2.578,15.854-4.211,18.766-1.712,3.066-6.745,7.89-8.915,8.253-3.36.572-6.924-11.8-7-16.039C237.1,99.851,238.553,95.226,241.859,94.231Z" transform="translate(-119.13 -46.435)" fill="url(#radial-gradient-2)"/>
      <path id="Path_39" data-name="Path 39" d="M218.652,50.764S239.091,19,201.245,19s-17.139,31.654-17.139,31.654,4.774-26.676,18.075-26.263C202.181,24.391,208.672,24.759,218.652,50.764Z" transform="translate(-89.622 -9.533)" fill="url(#linear-gradient-27)"/>
      <path id="Path_40" data-name="Path 40" d="M257.978,96.706s1.772,4.858,1.782,7.392c.025,5.973-6.69,22.948-6.69,22.948s9.866-13.341,9.737-13.938,2.524-11.285,2.524-11.285l-4.948-8.174Z" transform="translate(-127.096 -47.024)" fill="url(#linear-gradient-28)"/>
      <path id="Path_41" data-name="Path 41" d="M177.882,95.2s-1.767,4.863-1.777,7.392c-.025,5.973,9.408,25.083,9.408,25.083S172.929,112.2,173.069,111.6s-2.519-11.29-2.519-11.29l4.943-8.174Z" transform="translate(-85.653 -46.265)" fill="url(#linear-gradient-29)"/>
      <path id="Path_42" data-name="Path 42" d="M255,73.933s3.529-2.255,8.746,1.055c2.778,1.767.687,8.492.687,8.492S265.668,73.182,255,73.933Z" transform="translate(-128.065 -36.745)" fill="url(#linear-gradient-30)"/>
      <path id="Path_43" data-name="Path 43" d="M245.736,82.42c-7.91,0-8.642,4.833-8.806,8.323.6.134,1.23.249,2.4.612a17.762,17.762,0,0,0,6.128,1.249c2.116,0,6.66-.971,6.725-5.515C252.242,83.5,247.647,82.579,245.736,82.42Z" transform="translate(-118.99 -41.384)" fill="url(#linear-gradient-31)"/>
      <path id="Path_44" data-name="Path 44" d="M237.65,93.347a27.022,27.022,0,0,1,4.082,1.16,3.455,3.455,0,0,1-1.4-3.056,5.53,5.53,0,0,1,1.792-3.31A13.5,13.5,0,0,0,237.65,93.347Z" transform="translate(-119.352 -44.256)" fill="url(#linear-gradient-32)"/>
      <path id="Path_45" data-name="Path 45" d="M237.65,92.85a13.743,13.743,0,0,1,2.748-2.29c.174-.956,3.748-2.812,4.525-3.41a8.278,8.278,0,0,0-7.273,5.7Z" transform="translate(-119.352 -43.759)" fill="#ddd"/>
      <path id="Path_46" data-name="Path 46" d="M256.047,91.13a3.808,3.808,0,0,1-1.936,3.111,7.192,7.192,0,0,0,5.929-4.261c-2.852-2.369-4.9-3.111-6.85-3.28A4.4,4.4,0,0,1,256.047,91.13Z" transform="translate(-127.156 -43.533)" fill="url(#linear-gradient-33)"/>
      <path id="Path_47" data-name="Path 47" d="M243.082,92.211a3.8,3.8,0,0,0-.065.5,3.342,3.342,0,0,0,1.4,3.056,13.878,13.878,0,0,0,4.978.453,3.694,3.694,0,0,0,2.031-3.017,4.207,4.207,0,0,0-.413-2.086,8.9,8.9,0,0,0-7.935,1.1Z" transform="translate(-122.04 -45.51)" fill="url(#linear-gradient-34)"/>
      <path id="Path_48" data-name="Path 48" d="M249.35,87.246c.886.5,4.8,1.867,5.1,2.817a11.687,11.687,0,0,1,2.688,1.548l.777-1.573C256.787,88.6,252.162,86.958,249.35,87.246Z" transform="translate(-125.228 -43.791)" fill="#ddd"/>
      <path id="Path_49" data-name="Path 49" d="M249.457,87.964a4.972,4.972,0,0,0-3.569-.3,2.28,2.28,0,0,0-1.334.543,4.012,4.012,0,0,0-1.434,2.519,9.323,9.323,0,0,1,3.923-1.264,9.1,9.1,0,0,1,4.306.747A3.848,3.848,0,0,0,249.457,87.964Z" transform="translate(-122.099 -43.926)" fill="url(#linear-gradient-35)"/>
      <path id="Path_50" data-name="Path 50" d="M249.045,89a2.569,2.569,0,1,0,2.459,2.753A2.608,2.608,0,0,0,249.045,89Z" transform="translate(-123.733 -44.686)" fill="url(#radial-gradient-3)"/>
      <path id="Path_51" data-name="Path 51" d="M251.547,91.915a.757.757,0,0,0-1,.284.722.722,0,0,0,.239,1,.752.752,0,0,0,1-.284A.727.727,0,0,0,251.547,91.915Z" transform="translate(-125.777 -46.11)" fill="#fff"/>
      <path id="Path_52" data-name="Path 52" d="M255.949,94a.985.985,0,1,0,.363,1.359A1,1,0,0,0,255.949,94Z" transform="translate(-127.795 -47.132)" fill="#fff"/>
      <path id="Path_53" data-name="Path 53" d="M254,85s-.747.786-4.629-.612c-7.427-2.394-11.549,2.773-11.723,6.77,0,0,2.245-5.162,6.471-5.645,3.6-.408,5.272,1.434,7.009,2.847.025,1.782-2.35,3.982-4.908,4.48,2.19,0,7.064-2.24,7.422-4.092-.134.229-.6.393-1.195.174C252.429,88.915,254.52,88.079,254,85Z" transform="translate(-119.352 -42.065)" fill="url(#linear-gradient-36)"/>
      <path id="Path_54" data-name="Path 54" d="M243.274,82.69a7.223,7.223,0,0,0-3.694,2.748,7.932,7.932,0,0,1,3.928-2.355c2.872-.856,6.835,0,6.835,0a9.846,9.846,0,0,0-7.069-.393Z" transform="translate(-120.321 -41.28)" fill="url(#linear-gradient-37)"/>
      <path id="Path_55" data-name="Path 55" d="M243.8,86.345c-4.829.831-6.143,6.028-6.143,6.028s1.842-4.7,6.247-5.381c3.45-.533,5.809,1.493,7.213,2.584C251.115,89.585,249.378,85.379,243.8,86.345Z" transform="translate(-119.357 -43.282)" fill="#391b13"/>
      <path id="Path_56" data-name="Path 56" d="M188.891,82.54c7.91,0,8.642,4.833,8.806,8.323-.6.134-1.23.249-2.4.612a17.71,17.71,0,0,1-6.128,1.249c-2.111,0-6.66-1-6.725-5.515C182.385,83.615,186.984,82.7,188.891,82.54Z" transform="translate(-91.624 -41.444)" fill="url(#linear-gradient-38)"/>
      <path id="Path_57" data-name="Path 57" d="M207.86,93.462a26.892,26.892,0,0,0-4.077,1.165,3.476,3.476,0,0,0,1.4-3.061,5.524,5.524,0,0,0-1.8-3.305A13.607,13.607,0,0,1,207.86,93.462Z" transform="translate(-102.146 -44.317)" fill="url(#linear-gradient-39)"/>
      <path id="Path_58" data-name="Path 58" d="M205.033,92.965a13.6,13.6,0,0,0-2.748-2.285c-.169-.961-3.748-2.812-4.525-3.41A8.278,8.278,0,0,1,205.033,92.965Z" transform="translate(-99.318 -43.82)" fill="#ddd"/>
      <path id="Path_59" data-name="Path 59" d="M187.077,91.255a3.8,3.8,0,0,0,1.941,3.131,7.2,7.2,0,0,1-5.929-4.266c2.852-2.364,4.9-3.106,6.854-3.28A4.4,4.4,0,0,0,187.077,91.255Z" transform="translate(-91.951 -43.604)" fill="url(#linear-gradient-40)"/>
      <path id="Path_60" data-name="Path 60" d="M198.436,92.323c.03.179.045.3.065.5a3.367,3.367,0,0,1-1.4,3.061,14.013,14.013,0,0,1-4.978.453,3.689,3.689,0,0,1-2.036-3.017,4.2,4.2,0,0,1,.418-2.086A8.88,8.88,0,0,1,198.436,92.323Z" transform="translate(-95.459 -45.567)" fill="url(#linear-gradient-41)"/>
      <path id="Path_61" data-name="Path 61" d="M192.037,87.357c-.886.5-4.8,1.872-5.107,2.817a11.689,11.689,0,0,0-2.7,1.553l-.762-1.578C184.6,88.726,189.209,87.068,192.037,87.357Z" transform="translate(-92.142 -43.846)" fill="#ddd"/>
      <path id="Path_62" data-name="Path 62" d="M192.252,88.081a4.973,4.973,0,0,1,3.569-.3,2.31,2.31,0,0,1,1.324.548,3.982,3.982,0,0,1,1.444,2.519,9.368,9.368,0,0,0-3.933-1.269,9.243,9.243,0,0,0-4.306.747A3.853,3.853,0,0,1,192.252,88.081Z" transform="translate(-95.597 -43.984)" fill="url(#linear-gradient-42)"/>
      <path id="Path_63" data-name="Path 63" d="M195.8,89.078a2.564,2.564,0,1,1-2.454,2.753,2.6,2.6,0,0,1,2.454-2.753Z" transform="translate(-97.099 -44.726)" fill="url(#radial-gradient-4)"/>
      <path id="Path_64" data-name="Path 64" d="M198.583,92.018a.767.767,0,0,0-1.02.284.722.722,0,0,0,.244,1,.762.762,0,0,0,1-.284A.722.722,0,0,0,198.583,92.018Z" transform="translate(-99.166 -46.159)" fill="#fff"/>
      <path id="Path_65" data-name="Path 65" d="M203.009,94.112a1,1,0,1,0,.465.606A1,1,0,0,0,203.009,94.112Z" transform="translate(-101.208 -47.188)" fill="#fff"/>
      <path id="Path_66" data-name="Path 66" d="M179.437,85.12s.772.782,4.629-.607c7.427-2.4,11.573,2.768,11.723,6.76,0,0-2.24-5.162-6.471-5.64-3.6-.413-5.272,1.429-7,2.847-.03,1.777,2.345,3.982,4.9,4.48-2.19,0-7.064-2.24-7.422-4.092.139.229.6.388,1.195.169C181.01,89.033,178.919,88.2,179.437,85.12Z" transform="translate(-90.075 -42.128)" fill="url(#linear-gradient-43)"/>
      <path id="Path_67" data-name="Path 67" d="M195.869,82.81a7.228,7.228,0,0,1,3.7,2.743,7.982,7.982,0,0,0-3.928-2.35c-2.872-.861-6.84,0-6.84,0A9.846,9.846,0,0,1,195.869,82.81Z" transform="translate(-94.818 -41.341)" fill="url(#linear-gradient-44)"/>
      <path id="Path_68" data-name="Path 68" d="M192.617,86.456c4.828.836,6.138,6.028,6.138,6.028s-1.842-4.694-6.247-5.376c-3.45-.533-5.809,1.493-7.208,2.583C185.32,89.691,187.052,85.5,192.617,86.456Z" transform="translate(-93.061 -43.339)" fill="#391b13"/>
      <path id="Path_69" data-name="Path 69" d="M214.44,122.157l5.033,3.46,4.729-3.559-.677-.567-4.311.055h-4.291Z" transform="translate(-107.695 -61.005)" fill="url(#linear-gradient-45)"/>
      <path id="Path_70" data-name="Path 70" d="M214.574,121.369a5.879,5.879,0,0,1,3.579.114H220.2a6.576,6.576,0,0,1,3.982-.124l.085-.926-1.633-.334-3.455.866-3.136-.866-1.638.194Z" transform="translate(-107.68 -60.307)" fill="url(#linear-gradient-46)"/>
      <path id="Path_71" data-name="Path 71" d="M212.4,114.64a2.36,2.36,0,0,0-1,1.842c-.154,1.543,1.444,2.384,1.692,2.225s-.2-1.324,1.269-1.12,1.4.951,1.638,1.2a6.814,6.814,0,0,0,3.27.04c.438-.274.319-1.289,1.712-1.244s1.434,1,1.633,1.12,1.025-.617,1.264-2.036a1.99,1.99,0,0,0-1.254-2.031s.757,1.254.438,2.061-2.489.11-3.345.657c-1.618,1-2.6.767-4.206,0-1.055-.5-2.539.129-3.131-.742A2.658,2.658,0,0,1,212.4,114.64Z" transform="translate(-106.168 -57.565)" fill="#f0c499"/>
      <path id="Path_72" data-name="Path 72" d="M217.338,112.207a2.987,2.987,0,0,0,.5,2.046c.642,1,5.142,1.782,5.909-.468a5.475,5.475,0,0,0,.07-2.031C223.734,110.743,217.368,111.221,217.338,112.207Z" transform="translate(-109.139 -55.834)" fill="url(#linear-gradient-47)"/>
      <path id="Path_73" data-name="Path 73" d="M249.577,68.183c-2.066-.224-7.352,1-8.96,1.583a1.988,1.988,0,0,0-1.045,2.26,1.613,1.613,0,0,1,.119-1.737c-1.259,1.055-1.1,2.817.334,2.325a72.616,72.616,0,0,1,9.358-2.4,13.89,13.89,0,0,1,5.69,1.2S251.832,68.417,249.577,68.183Z" transform="translate(-119.949 -34.22)" fill="url(#linear-gradient-48)"/>
      <path id="Path_74" data-name="Path 74" d="M183.551,68.183c2.066-.224,7.347,1,8.96,1.583a1.988,1.988,0,0,1,1.045,2.26,1.6,1.6,0,0,0-.119-1.737c1.259,1.055,1.105,2.817-.329,2.325a73.655,73.655,0,0,0-9.358-2.4,13.857,13.857,0,0,0-5.68,1.2S181.3,68.417,183.551,68.183Z" transform="translate(-89.43 -34.22)" fill="url(#linear-gradient-49)"/>
      <path id="Path_75" data-name="Path 75" d="M200.61,162.134s3.773,5.4,5.849,7.029c1.732,1.359,2.927,1.911,6.471,2.031a10.528,10.528,0,0,0,6.571-1.852c1.025-.687,6.725-8.1,7.223-8.582,0,0-4.709,7.656-6.178,9.095a10.951,10.951,0,0,1-7.531,3.26,11.53,11.53,0,0,1-6.556-2.489C203.7,168.192,200.61,162.134,200.61,162.134Z" transform="translate(-100.75 -80.727)" fill="url(#linear-gradient-50)"/>
      <path id="Path_76" data-name="Path 76" d="M221.326,166.768c-2.354.114-4.251.961-4.236,1.9s1.926,1.608,4.281,1.493,4.246-.961,4.236-1.9S223.671,166.659,221.326,166.768Z" transform="translate(-109.026 -83.739)" fill="url(#linear-gradient-51)"/>
      <path id="Path_77" data-name="Path 77" d="M205.35,131.174s4.873-4.206,6.257-4.43a26.372,26.372,0,0,1,6.043-.124,17.617,17.617,0,0,1,6.859,4.709l-9.737-1.951Z" transform="translate(-103.13 -63.517)" fill="url(#linear-gradient-52)"/>
      <path id="Path_78" data-name="Path 78" d="M224.478,135.92s-1,2.738-1.284,3.3-3.186,8-4.609,9.652-5.575,2.275-7.785.5a15.451,15.451,0,0,1-3.649-5.3c-.234-.5-1.991-5.839-3.44-7.965C208.275,135.91,224.478,135.92,224.478,135.92Z" transform="translate(-102.306 -68.252)" fill="url(#linear-gradient-53)"/>
      <path id="Path_79" data-name="Path 79" d="M201.985,134.986c.124-.6,2.618.373,3.34,1.434C204.325,135.862,201.751,136.021,201.985,134.986Z" transform="translate(-101.433 -67.691)" fill="url(#linear-gradient-54)"/>
      <path id="Path_80" data-name="Path 80" d="M244.065,135.391c-.1-.6-2.643.269-3.4,1.3C241.671,136.177,244.244,136.436,244.065,135.391Z" transform="translate(-120.863 -67.887)" fill="url(#linear-gradient-55)"/>
      <path id="Path_81" data-name="Path 81" d="M205.05,133.107c.358-.353,3.176-1.414,4.251-1.946a15.364,15.364,0,0,1,7.128-.8c2.32.373,6.347,1.434,8.054,2.877-.339,1-3.9,9.194-6.108,9.752s-7.163.294-7.571-.319S206.17,135.288,205.05,133.107Z" transform="translate(-102.979 -65.4)" fill="#951c27"/>
      <path id="Path_82" data-name="Path 82" d="M212.319,145.425s-.587-2.121,2.23-3.111c1.907-.672,6.581-.5,8.791.095,1.956.5,2.285,2.6,1.732,3.171s-3.071,3.35-5.724,3.484S214.126,148.82,212.319,145.425Z" transform="translate(-106.604 -71.246)" fill="url(#linear-gradient-56)"/>
      <path id="Path_83" data-name="Path 83" d="M211.389,132.66s.582-1.463,6.939-1.17,6.919,1.334,6.919,1.334a1.493,1.493,0,0,1-1.449,1.961c-.772.055-3.4-.11-5.565-.149-2.489-.05-5.505,0-5.744-.055C211.19,134.214,211.389,132.66,211.389,132.66Z" transform="translate(-106.157 -66.008)" fill="url(#linear-gradient-57)"/>
      <path id="Path_84" data-name="Path 84" d="M224.911,145.2a3.485,3.485,0,0,1,.523,1.523c.065.667-2.489,2.987-3.151,3.32s-6.187,1.439-7.4.149-2.529-2.987-2.529-2.987a1.916,1.916,0,0,1,.329-1.961s1.991,4.55,5.725,4.55S223.826,146.818,224.911,145.2Z" transform="translate(-106.578 -72.913)" fill="url(#linear-gradient-58)"/>
      <path id="Path_85" data-name="Path 85" d="M204.71,135.91a24.194,24.194,0,0,1,1.1,2.335,72.232,72.232,0,0,0,4.057,8.308c1.568,2.489,7.4,3.544,9.667.289a39.325,39.325,0,0,0,3.863-8,20.671,20.671,0,0,1,1.23-2.773c0-.025-.6.075-1.568,1.917-1.115,2.1-2.947,5.67-4.231,6.551-2.728,1.877-6.551.841-7.283.582-1.12-.4-3.484-3.868-4.814-6.436A9.956,9.956,0,0,0,204.71,135.91Z" transform="translate(-102.809 -68.247)" fill="#f86d78"/>
      <path id="Path_86" data-name="Path 86" d="M210.84,146.9a13.141,13.141,0,0,0,2.987,3.484,7.91,7.91,0,0,0,5.476.931,7.577,7.577,0,0,0,5.476-4.376c.612-1.215-1.563,5.675-4.211,6.436-2.175.627-4.595.577-6.1-.4C212.573,151.759,210.392,146.338,210.84,146.9Z" transform="translate(-105.858 -73.713)" fill="url(#linear-gradient-59)"/>
      <path id="Path_87" data-name="Path 87" d="M211.359,131.587a4.979,4.979,0,0,0,.035,1.493c.144,0,5.167-.383,7.123-.284a58.341,58.341,0,0,1,6.69.712,2.15,2.15,0,0,0,.06-1s-4.6-1.787-6.969-1.678S211.359,131.587,211.359,131.587Z" transform="translate(-106.128 -65.696)" fill="url(#linear-gradient-60)"/>
      <path id="Path_88" data-name="Path 88" d="M205.32,132.205s3.738-2.036,4.888-2.608c2.14-1.06,7.009-1.389,9.612-.08a35.4,35.4,0,0,1,4.7,2.842c-1.941-.219-3.669-1.926-9.7-1.663C207.431,131.02,207.4,132.046,205.32,132.205Z" transform="translate(-103.115 -64.607)" fill="#f86d78"/>
      <path id="Path_89" data-name="Path 89" d="M214.962,129.742c2.1-.677,5.685-.757,7.337-.035,1.329.587,2.987,1.7,1.931,1.424a18.7,18.7,0,0,0-5.64-.538,34.627,34.627,0,0,0-5.829.528C212.164,131.241,214,130.056,214.962,129.742Z" transform="translate(-106.793 -64.877)" fill="url(#linear-gradient-61)"/>
      <path id="Path_90" data-name="Path 90" d="M203.663,135.886a8.45,8.45,0,0,1,2.016.119,20.24,20.24,0,0,0-2.618-.8C202.932,135.293,203.126,135.721,203.663,135.886Z" transform="translate(-101.961 -67.889)" fill="#951c27"/>
      <path id="Path_91" data-name="Path 91" d="M243.231,136.161a7.011,7.011,0,0,0-1.991.06,12.1,12.1,0,0,1,2.608-.712C243.948,135.594,243.779,136.022,243.231,136.161Z" transform="translate(-121.155 -68.036)" fill="#951c27"/>
      <path id="Path_92" data-name="Path 92" d="M225.432,157.059a26.826,26.826,0,0,1,3.45-1.244c.543-.095.533,1.12-1.185,1.618S224.71,157.6,225.432,157.059Z" transform="translate(-113.112 -78.241)" fill="#ff9aa2"/>
      <path id="Path_93" data-name="Path 93" d="M180.056,13.826l3.027-12.061s-3.828-1.239-10.593,0c-10.916,1.991-22.739,18.607-25.183,23.943s-6.133,22.4-5.919,25.6-1.493,23.759-2.355,29.663-2.593,15.755,1.035,29.743c0,0-8.388,26.432,15.571,35.636,0,0-.5,4.868-7.965,6.571,0,0,32.4-4.291,15.372-37.478,0,0,14.934-3.484,9.458-18.966s-11.678-20.205-11.678-20.205-6.133-22.2-4.515-25.228C168.433,28.3,153.574,10.565,180.056,13.826Z" transform="translate(-69.234 -0.601)" fill="url(#linear-gradient-62)"/>
      <path id="Path_94" data-name="Path 94" d="M228.71,2.79s3.982-2.325,13.669,1.035,17.338,22.261,19.648,28.19,3.425,32.291,3.425,32.291,7.566,15.8,8.861,22.112-1.155,14.7-1.155,14.7-3.484,8.089-3.484,14.8,4.236,18.065-6.536,28.05c-7.885,7.307-11.3,7.307-11.3,7.307s9.348-5.973,5.973-12.1S244.948,130.72,249.8,113.3c0,0-9.652-15.6-8.572-22.57s9.493-24.675,10.239-37.05c0,0-9.2-46.359-22.739-43.148Z" transform="translate(-114.862 -0.999)" fill="url(#linear-gradient-63)"/>
      <path id="Path_95" data-name="Path 95" d="M176.655,208.23s14.013,20.295,8.527,29.255c-8.253,13.54-18.562,10.762-18.562,10.762s8.3-4.978,6.337-17.567-6.337-14.934-6.337-14.934Z" transform="translate(-83.679 -104.568)" fill="url(#linear-gradient-64)"/>
      <path id="Path_96" data-name="Path 96" d="M177.478,14.331s-11.947-5.381-15.929,3.425,1.4,23.087-6.357,32.107S133.016,65.085,131,68.5c0,0,6.347-11.479,6.969-16.477s1.294-18.084,3.37-23.207S145.471,16.8,153.574,9.129c5.222-4.958,14.142-10.847,26.064-7.7Z" transform="translate(-65.79 -0.265)" fill="url(#linear-gradient-65)"/>
      <path id="Path_97" data-name="Path 97" d="M226.626,14.252,225.77,8.98l1.463-7.288a24.749,24.749,0,0,1,18.159,2.713c8.96,5.381,13.843,18.159,15.635,26.233,3.26,14.67,2.947,25.228,8.333,37.14-4.236-5.406-20.11-13.669-21.464-19.364s-6.471-20.758-7.1-23.978S237.144,11.514,226.626,14.252Z" transform="translate(-113.385 -0.509)" fill="url(#linear-gradient-66)"/>
      <path id="Path_98" data-name="Path 98" d="M154.731,119.71s12.629,17.87,13.122,28.871-13.51,22.261-15.431,27.552c-7.965,21.9,6.352,30.43,6.352,30.43s-26.024-4.629-18.01-29.743c1.608-5.043,6.506-18.557,7.591-27.552s-2.648-24.889-2.648-24.889Z" transform="translate(-69.924 -60.111)" fill="url(#linear-gradient-67)"/>
      <path id="Path_99" data-name="Path 99" d="M132.485,126.876a117.008,117.008,0,0,1-6.347,19.857c-4.117,9.348-8.826,20.583,4.878,31.674,0,0-3.853-6.133,0-19.11,1.991-6.71,15.3-12.474,13.7-21.459a167.164,167.164,0,0,0-3.8-16.4Z" transform="translate(-61.217 -60.98)" fill="url(#linear-gradient-68)"/>
      <path id="Path_100" data-name="Path 100" d="M267.63,185s-14.067,14.346-13.639,31.983c.184,7.347,13.634,17.716,11.862,22.351a10.828,10.828,0,0,1-6.561,6.028s13.614.239,14.1-9.284a48.661,48.661,0,0,0-1.727-16.2l7.512-22.928Z" transform="translate(-127.553 -92.901)" fill="url(#linear-gradient-69)"/>
      <path id="Path_101" data-name="Path 101" d="M290.443,178.44s9.423,13.385,11.449,20.529,5.58,13.993,2.33,18.732-15.566,16.218-1.941,20.374c0,0-14.65,3.484-17.86-12.519-2.713-13.53,2.116-28.871,2.489-30.141S290.443,178.44,290.443,178.44Z" transform="translate(-142.426 -89.607)" fill="url(#linear-gradient-70)"/>
      <path id="Path_102" data-name="Path 102" d="M267.948,121.49s-11.325,16.556-9.458,22.535c2.613,8.3,17.059,17.422,15.516,24.426s-3.066,10.349-.5,17.462c4.525,12.445,21.927,12.743,21.927,12.743s-16.482-.4-15.586-18.169c.373-7.467,9.458-14.2,9.338-20.026s-18.5-23.1-15.76-34.477Z" transform="translate(-129.714 -61.005)" fill="url(#linear-gradient-71)"/>
      <path id="Path_103" data-name="Path 103" d="M275.01,138.69c-2.3,5.7-5.306,12.3-2.7,18.418,2.713,6.362,9.637,11.275,9.124,18.816-.184,2.748-1.04,5.476-1.349,8.2A24.681,24.681,0,0,0,280.8,194.9c1.663,4.8,7.82,10.364,13,10.772a11.484,11.484,0,0,1-7.8-1.931c-2.763-1.7-5.451-3.305-7.228-6.133-3.943-6.277-2.882-13.938-1.872-20.842.906-6.212-5.048-11.379-7.317-16.726C266.294,152.284,270.256,144.818,275.01,138.69Z" transform="translate(-134.784 -69.643)" fill="url(#linear-gradient-72)"/>
      <path id="Path_104" data-name="Path 104" d="M173.931,243.12c3.425,6.546,7.726,14.685,3.664,21.947a19.939,19.939,0,0,1-21.355,9.343,25.035,25.035,0,0,0,16.108-9.458C177.411,258.332,173.872,250.612,173.931,243.12Z" transform="translate(-78.466 -122.09)" fill="url(#linear-gradient-73)"/>
      <path id="Path_105" data-name="Path 105" d="M260.384,123.42a38.539,38.539,0,0,1-2.235,13.843c-1.906,4.863-3.982,9.632-4.316,14.934-.592,9.816,4.664,18.976,11.091,26-8.228-4.609-14.8-13.619-15.471-23.152a29.159,29.159,0,0,1,3.873-15.869c1.344-2.489,2.922-4.8,4.147-7.337S259.418,125.979,260.384,123.42Z" transform="translate(-125.25 -61.975)" fill="url(#linear-gradient-74)"/>
      <path id="Path_106" data-name="Path 106" d="M268.7,237c.7,2.524,1.364,5.048,2.315,7.492,1.259,3.236,3.226,6.088,4.565,9.269a21.2,21.2,0,0,1,1.653,8.014c-.04,3.455-2.544,5.441-5.237,7.173,1.274-2.315,2.827-4.535,1.991-7.263a39.587,39.587,0,0,0-2.19-5.769c-1.394-2.9-3.061-5.565-3.738-8.761A18.548,18.548,0,0,1,268.7,237Z" transform="translate(-134.41 -119.016)" fill="url(#linear-gradient-75)"/>
      <path id="Path_107" data-name="Path 107" d="M182.086,7.269c-10.165-7.81-22.515,2.693-28.573,10.215-4.092,5.087-7.372,11.738-10.951,17.174-1.682,2.539-4.042,5.062-4.863,8.044-.926,3.355.119,6.879,1.125,10.085a26.06,26.06,0,0,1-.747-7.039c.234-3.027,1.787-5.018,3.639-7.288,3.982-4.848,7.467-10.06,11.315-15.008C159.785,14.711,169.611,2.689,182.086,7.269Z" transform="translate(-68.974 -2.257)" fill="url(#linear-gradient-76)"/>
      <path id="Path_108" data-name="Path 108" d="M151.079,73.48c-1.558,2.165-2.648,4.694-4.107,6.934a45.8,45.8,0,0,1-7.467,8.88c-4.56,4.161-16.875,9.144-13.385,17.3-1.673-7.606,8.547-10.533,13.137-13.938C145.395,88.125,150.143,81.151,151.079,73.48Z" transform="translate(-63.031 -36.894)" fill="url(#linear-gradient-77)"/>
      <path id="Path_109" data-name="Path 109" d="M134.1,134.86c-2.036,3.664-3.813,7.566-6.178,11.031-2.822,4.137-6.785,8.238-6.934,13.54,1.538-4.356,5.008-7.278,7.885-10.742a22.111,22.111,0,0,0,3.6-5.894C133.36,140.609,134.674,137.254,134.1,134.86Z" transform="translate(-60.763 -67.72)" fill="url(#linear-gradient-78)"/>
      <path id="Path_110" data-name="Path 110" d="M297.85,135.61c2.036,3.669,3.813,7.571,6.177,11.036,2.783,4.132,6.765,8.233,6.919,13.55-1.543-4.356-5.013-7.278-7.89-10.737a22.4,22.4,0,0,1-3.6-5.894C298.572,141.364,297.258,138,297.85,135.61Z" transform="translate(-149.511 -68.097)" fill="url(#linear-gradient-79)"/>
      <path id="Path_111" data-name="Path 111" d="M157.264,155.83c-4.161,4.137-5.476,11.091-5.416,16.711a32.988,32.988,0,0,0,7.541,20.638,44.775,44.775,0,0,1-4.883-16.3C153.879,169.574,155.323,162.819,157.264,155.83Z" transform="translate(-76.26 -78.251)" fill="url(#linear-gradient-80)"/>
      <path id="Path_112" data-name="Path 112" d="M283.191,138.6a16.337,16.337,0,0,0-4.405,8.512c-.8,4.843,2.135,8.462,4.664,12.245a29.713,29.713,0,0,1,4.147,23.924,27.219,27.219,0,0,0-.314-22.151c-1.623-3.45-4.48-6.232-5.864-9.791C279.776,147.052,281.747,142.647,283.191,138.6Z" transform="translate(-139.944 -69.598)" fill="url(#linear-gradient-81)"/>
      <path id="Path_113" data-name="Path 113" d="M318.944,240.05c-.149,3.554.682,6.969.557,10.583a27.128,27.128,0,0,1-4.181,13.809C321.926,258.642,325.241,247.238,318.944,240.05Z" transform="translate(-158.359 -120.548)" fill="url(#linear-gradient-82)"/>
      <path id="Path_114" data-name="Path 114" d="M206.521,25.328s-12.275-2.056-17.691,15.138c0,0-.09-14.4,5.939-16.7C198.512,22.346,203.579,21.136,206.521,25.328Z" transform="translate(-94.833 -11.261)" fill="url(#linear-gradient-83)"/>
      <path id="Path_115" data-name="Path 115" d="M227.47,24.734s-.189-.408.607-1.872c1.344-2.459,12.494-.9,13.062,13.146C237.894,24.525,227.47,24.734,227.47,24.734Z" transform="translate(-114.229 -10.991)" fill="url(#linear-gradient-84)"/>
      <path id="Path_116" data-name="Path 116" d="M131.134,203.08c-3.45,2.1-5.376,7.377-5.869,11.145-.682,5.222,1.239,11.111,5.973,13.883C124.474,220.806,128.6,211.189,131.134,203.08Z" transform="translate(-62.843 -101.981)" fill="url(#linear-gradient-85)"/>
      <path id="Path_117" data-name="Path 117" d="M143.415,251.56c-3.484,2.489-4.286,8.338-3.918,12.236a19.747,19.747,0,0,0,7.626,13.669C141.464,269.7,141.056,260.6,143.415,251.56Z" transform="translate(-70.017 -126.329)" fill="url(#linear-gradient-86)"/>
      <path id="Path_118" data-name="Path 118" d="M174.068,16.508c-6.018-.363-12.415.717-15.551,12.738-1.523,5.834-.109,11.718-1.105,17.587a28.772,28.772,0,0,1-8.353,15.76c-4.515,4.331-10.394,6.088-15.591,9.338-6.471,4.057-8.776,11.076-6.182,18.328a15.337,15.337,0,0,1,1.926-18.771c2.952-3.027,6.755-4.918,10.349-7.054a29.392,29.392,0,0,0,9.458-8.547,27.379,27.379,0,0,0,4.331-10.6,104.864,104.864,0,0,0,.856-11.6C154.928,22.412,162.041,12.128,174.068,16.508Z" transform="translate(-62.753 -7.763)" fill="url(#linear-gradient-87)"/>
      <path id="Path_119" data-name="Path 119" d="M182.913,15.163c-10.906-3.206-20.494,7.691-22.435,17.582-1.195,6.068-4.784,9.772-9.533,13.44-2.2,1.7-4.575,3.45-5.919,5.939-1.454,2.7-1.673,6.187-2.25,9.154-.348-5.033-.672-9.771,2.554-14,1.991-2.618,4.614-4.669,6.795-7.118,2.31-2.593,4.585-5.072,5.4-8.4C160.97,17.6,172.678,8.159,182.913,15.163Z" transform="translate(-71.598 -6.418)" fill="url(#linear-gradient-88)"/>
      <path id="Path_120" data-name="Path 120" d="M226.31,16.87c9.712-5.66,17.985,10.359,19.822,17.612,1.384,5.476,1.18,11.205,2.748,16.626,1.493,5.167,5.371,10.613,11.2,10.951-5.864-1.105-8.96-7.014-9.866-12.415-1.155-6.82-.582-13.614-3.036-20.225a27.423,27.423,0,0,0-7.133-10.563C236.639,15.695,230.138,12.126,226.31,16.87Z" transform="translate(-113.656 -7.308)" fill="url(#linear-gradient-89)"/>
      <path id="Path_121" data-name="Path 121" d="M228.53,10.321c10.274-3.584,19.075,4.933,25.586,11.554a54.361,54.361,0,0,1,10.707,15.78c2.359,5.665.388,11.389,4.48,16.427-2.9-5.053-1.259-9.04-2.235-14.69a30.591,30.591,0,0,0-4.415-10.259,47.948,47.948,0,0,0-4.978-7.118c-4.082-4.356-8.223-8.875-13.5-11.812C239.461,7.619,233.244,6.548,228.53,10.321Z" transform="translate(-114.771 -3.941)" fill="url(#linear-gradient-90)"/>
      <path id="Path_122" data-name="Path 122" d="M257.009,210.57c-4.7,4.853-6.775,12.614-6.591,19.3.259,9.458,7.681,14.8,13.186,21.5-3.484-5.939-9.085-11.1-10.379-18.094C251.743,225.255,254.63,218.007,257.009,210.57Z" transform="translate(-125.759 -105.743)" fill="url(#linear-gradient-91)"/>
      <path id="Path_123" data-name="Path 123" d="M312.62,177.24a113.438,113.438,0,0,1,6.227,14.356c1.991,6.018,1.055,12.1,0,18.249,2.086-5.172,3.858-10.812,2.872-16.427a30.663,30.663,0,0,0-3.4-9.08C316.881,181.635,315.248,178.778,312.62,177.24Z" transform="translate(-157.003 -89.004)" fill="url(#linear-gradient-92)"/>
      <path id="Path_124" data-name="Path 124" d="M304.354,238c-2.987,3.514-1.9,9.274.154,12.942,3.046,5.4,7.3,6.67,13.171,6.242-4.356-.936-7.686-2.046-10.18-6.028S304.249,242.7,304.354,238Z" transform="translate(-151.927 -119.519)" fill="url(#linear-gradient-93)"/>
      <path id="Path_125" data-name="Path 125" d="M194.75,222.55c1.633,4.39,5.033,9.328,6.6,13.833,2.1,6.038-.154,11.648-3.868,16.507,4.266-3.484,7.546-8.437,6.929-14.142A24.354,24.354,0,0,0,194.75,222.55Z" transform="translate(-97.807 -111.759)" fill="url(#linear-gradient-94)"/>
      <path id="Path_126" data-name="Path 126" d="M175.066,114.18c-.916,7.5.408,10.762,2.857,14.744a67.231,67.231,0,0,0,12.161,15.182c-3.081-4.42-5.774-9.055-8.462-13.729C178.71,125.276,177.3,125.574,175.066,114.18Z" transform="translate(-87.775 -57.334)" fill="url(#linear-gradient-95)"/>
      <path id="Path_127" data-name="Path 127" d="M170.132,270a44.6,44.6,0,0,1-3.051,9.811c-1.493,3.689-3.644,7.029-7.621,7.9C168.644,289.01,171.92,277.293,170.132,270Z" transform="translate(-80.083 -135.589)" fill="url(#linear-gradient-96)"/>
      <path id="Path_128" data-name="Path 128" d="M287.187,265.93A44.771,44.771,0,0,1,287.1,276.2c-.363,3.957-1.459,7.78-5.013,9.767C291.264,284.582,291.005,272.436,287.187,265.93Z" transform="translate(-141.67 -133.545)" fill="url(#linear-gradient-97)"/>
      <path id="Path_129" data-name="Path 129" d="M139.119,247.73c-1.354,4.8.816,10.911,3.256,14.988,3.28,5.476,8.831,9.732,15.262,10.623C146.636,268.956,142.494,258.178,139.119,247.73Z" transform="translate(-69.659 -124.405)" fill="#673024"/>
      <path id="Path_130" data-name="Path 130" d="M311.285,219.68c5.929,14.57,4.137,16.1-.259,22.495-2.185,3.171-4.525,5.152-5.162,8.661-.772,4.2,1.588,6.441,5.809,7.965-5.331-.557-8.059-2.758-9.045-7.427a10.634,10.634,0,0,1,.692-7.1c1.06-2.051,2.753-3.713,3.982-5.67A27.053,27.053,0,0,0,311.285,219.68Z" transform="translate(-151.834 -110.318)" fill="url(#linear-gradient-98)"/>
      <path id="Path_131" data-name="Path 131" d="M160.16,19.051s12.226-24.6,34.123-17.92c0,0,18.552-6.436,29.553,16.6,0,0-12.38-19.548-30.081-14.481C193.755,3.262,180.49-6.107,160.16,19.051Z" transform="translate(-80.435 0.018)" fill="url(#linear-gradient-99)"/>
      <path id="Path_132" data-name="Path 132" d="M155.309,210.638a36.015,36.015,0,0,1-15.088-12.265c-4.42-6.471-2.947-16.327,1.523-22.127,2.22-2.872,6.187-4.082,8.642-6.72a21.9,21.9,0,0,0,4.256-6.71c3.305-8.174.8-15.959-2.932-23.466,4.042,5.013,7.288,10.692,7.417,17.283.144,7.293-3.156,13.659-8.4,18.537-4.948,4.6-10.185,11.155-8.8,18.5.632,3.345,3.181,6.377,5.272,8.96A51.907,51.907,0,0,0,155.309,210.638Z" transform="translate(-69.083 -69.975)" fill="url(#linear-gradient-100)"/>
      <path id="Path_133" data-name="Path 133" d="M288.72,141.16a30.444,30.444,0,0,0,5.476,10.01,107.612,107.612,0,0,1,7.7,10.623,18.642,18.642,0,0,1,2.673,12.639c-.772,4.923-4.8,8.746-8.5,11.763,1.663-2.788,3.713-5.232,4.555-8.408,1.155-4.371.6-7.726-.861-11.773-.762-2.111-2.857-4.978-4.057-6.869s-2.613-3.484-3.788-5.3A20.04,20.04,0,0,1,288.72,141.16Z" transform="translate(-144.95 -70.884)" fill="url(#linear-gradient-101)"/>
      <path id="Path_134" data-name="Path 134" d="M138.481,135c.916,9.209-4.669,17.422-8.462,25.352a32.764,32.764,0,0,0-3.6,11.419c-.348,4.361,2.205,9.229,4.48,12.808-3.032-2.389-6.222-6.4-7.263-10.195-1.16-4.246-.3-8.925,1.185-12.982C128.211,152.029,135.374,144.572,138.481,135Z" transform="translate(-61.822 -67.79)" fill="url(#linear-gradient-102)"/>
      <path id="Path_135" data-name="Path 135" d="M193.233,171.87c1.354,5.117,5.884,8.93,7.561,13.938a11.8,11.8,0,0,1-2.34,11.295,17.377,17.377,0,0,1-7.965,6.013,14.667,14.667,0,0,0,7.965-3.982c2.489-2.275,4.734-5.3,5.272-8.766C204.826,183.219,197.837,176.484,193.233,171.87Z" transform="translate(-95.667 -86.307)" fill="url(#linear-gradient-103)"/>
      <path id="Path_136" data-name="Path 136" d="M157.174,127.16c2.16,4.366,4.789,8.423,6.715,12.942a60.684,60.684,0,0,1,5.018,18.627c.453,5.844-2.086,10.668-5.949,14.934s-10.16,7.965-11.718,13.863c1.951-4.674,6.566-7.283,10.289-10.4,4.669-3.9,9.045-8.781,9.742-15.078.712-6.406-1.414-13.44-3.873-19.309A49.365,49.365,0,0,0,157.174,127.16Z" transform="translate(-75.955 -63.853)" fill="url(#linear-gradient-104)"/>
      <path id="Path_137" data-name="Path 137" d="M156.631,225.41c-2.728,6.81-4.8,13.485-8.537,19.633-4.4,7.228-12.012,13.117-20.384,14.361a27.98,27.98,0,0,0,20.673-9.742,27.461,27.461,0,0,0,5.476-10.747A53.9,53.9,0,0,0,156.631,225.41Z" transform="translate(-64.138 -113.196)" fill="url(#linear-gradient-105)"/>
      <path id="Path_138" data-name="Path 138" d="M207.869,11.138a9.956,9.956,0,0,0-7.531-2.29,21.4,21.4,0,0,0-10.747,5.291S197.8,7.21,207.869,11.138Z" transform="translate(-95.215 -4.404)" fill="url(#linear-gradient-106)"/>
      <path id="Path_139" data-name="Path 139" d="M230.38,11.636c15.123-3.853,22.973,11.409,26.746,22.321,1.22,3.534,2.235,7.223,3.484,10.742s4.132,6.078,6.561,8.766c2.355,2.6,4.8,5.366,5.575,8.9.846,3.873-1.837,7.2-1.309,10.951-1-2.534.129-5.386-.08-8-.274-3.365-2.589-5.939-4.978-8.119-2.489-2.275-5.048-4.361-6.85-7.238-1.991-3.156-2.987-6.755-4.032-10.3C252,27.56,245.239,9.893,230.38,11.636Z" transform="translate(-115.7 -5.529)" fill="url(#linear-gradient-107)"/>
      <path id="Path_140" data-name="Path 140" d="M227.45,19.275a8.026,8.026,0,0,1,6.665-.876c3.6,1.235,4.619,3.066,6.67,5.476C240.786,23.895,234.394,16.587,227.45,19.275Z" transform="translate(-114.229 -9.037)" fill="url(#linear-gradient-108)"/>
      <path id="Path_141" data-name="Path 141" d="M194.844,26.195S199.2,18.728,207,22.71c0,0-8.9-2.145-12.365,6.048Z" transform="translate(-97.751 -10.809)" fill="url(#linear-gradient-109)"/>
      <path id="Path_142" data-name="Path 142" d="M176.377,164.27c6.3,5.127,10.274,12.942,7.039,20.962-3.485,8.622-12.076,12.738-18.916,18.244,3.484-6.192,9.4-10.583,13.117-16.626a17.235,17.235,0,0,0,2.917-10.707C180.12,171.946,178.114,168.038,176.377,164.27Z" transform="translate(-82.615 -82.49)" fill="url(#linear-gradient-110)"/>
      <path id="Path_143" data-name="Path 143" d="M231.82,21.344c4.689-2.379,10.782,5.028,12.445,8.592,2.653,5.69,3.046,12.41,4.734,18.418s4.072,11.987,8.248,16.7c3.858,4.356,13.112,6.252,17.014,10.563,4.824,5.321,2.3,14.062,1.563,21-.5-5.446-.284-13.938-3.664-18.358-3.758-4.9-11.728-4.779-16.332-8.731-9.762-8.378-11.449-21.743-13.047-33.7a19.562,19.562,0,0,0-3.241-9.254C237.883,24.286,235.1,20.582,231.82,21.344Z" transform="translate(-116.424 -10.478)" fill="url(#linear-gradient-111)"/>
      <path id="Path_144" data-name="Path 144" d="M258.523,105.665c-1.21.324-2.056,1.175-1.9,1.9s1.269,1.06,2.489.737,2.061-1.175,1.9-1.9S259.733,105.342,258.523,105.665Z" transform="translate(-128.87 -52.996)" fill="url(#linear-gradient-112)"/>
      <path id="Path_145" data-name="Path 145" d="M184.77,105.7c-1.2-.264-2.29.1-2.424.831s.737,1.533,1.946,1.807,2.295-.1,2.429-.831S185.98,105.978,184.77,105.7Z" transform="translate(-91.57 -53.035)" fill="url(#linear-gradient-113)"/>
      <path id="Path_146" data-name="Path 146" d="M101.727,204.43s4.137,14.481,8.88,26.094c2.6,6.382,4.689,11.509,4.9,12.071.587,1.583,14.724,32.281,4.709,44.945-6.362,8.039-20.409-3.629-20.409-3.629s-1.867-2.335-2.155-7.218-2.693-32.356-2.987-35.183c-.448-4.3.229-22.46-4.893-33.192Z" transform="translate(-45.084 -102.659)" fill="#f7d4ab"/>
      <path id="Path_147" data-name="Path 147" d="M97.814,260.8l-.274-4.341s10.8,2.19,16.994-2.215l1.419,4.077S111.468,264.35,97.814,260.8Z" transform="translate(-48.986 -127.675)" fill="url(#linear-gradient-114)"/>
      <path id="Path_148" data-name="Path 148" d="M71.934,145.076a29.944,29.944,0,0,1,3.191-.9s-1-.921-1.4-1.319-2.489.154-2.623.951C71.048,144.18,71.934,145.076,71.934,145.076Z" transform="translate(-35.706 -71.669)" fill="#f54964"/>
      <path id="Path_149" data-name="Path 149" d="M62.489,173.1A14.078,14.078,0,0,0,61.1,162.3c-.8-1.314-8.96-10.025-9.458-11.021s-3.181-7.731-3.883-8.671-3.549-3.256-5.585-2.355c-1.588.7.348,2.9,1.175,4.425.5.961,3.166,6.83,3.166,6.83s-10.05-3.878-11.066-4.286S21.671,139.6,20.4,139.033s-7.965-3.549-8.9-1.249c-1.359,3.29,19.648,9.458,19.648,9.458Z" transform="translate(-5.742 -68.757)" fill="url(#linear-gradient-115)"/>
      <path id="Path_150" data-name="Path 150" d="M38.953,152.531s-6.168-4.1-12.39-7.965c-3.041-1.9-9.891-5.535-15.018-6.377a1.668,1.668,0,0,0-.264,1.175Z" transform="translate(-5.657 -69.392)" fill="url(#linear-gradient-116)"/>
      <path id="Path_151" data-name="Path 151" d="M34.195,157.545l19.364,4.117s-25.138-12.723-28.613-14.749a158.771,158.771,0,0,0-14.934-7.372c-2.131-.717-6.869-2.514-7.83-1.309-1.493,1.9,1.254,2.763,2.444,3.211s9.557,4.067,9.557,4.067Z" transform="translate(-0.878 -69.21)" fill="url(#linear-gradient-117)"/>
      <path id="Path_152" data-name="Path 152" d="M37.729,158.251a61.9,61.9,0,0,0-12.151-7.5c-4.206-1.9-11.8-4.7-15.058-4.455Z" transform="translate(-5.283 -73.455)" fill="url(#linear-gradient-118)"/>
      <path id="Path_153" data-name="Path 153" d="M45.918,162.638s-17.627-9.647-26.343-12.659c-4.978-1.732-9.025-2.987-9.717-.956-.5,1.493,3.644,2.648,5.436,3.42,2.16.931,17.92,7.078,19.16,7.736Z" transform="translate(-4.93 -74.307)" fill="url(#linear-gradient-119)"/>
      <path id="Path_154" data-name="Path 154" d="M27.531,159.32l-1.991-.791a11.42,11.42,0,0,1,3.375-.259,46.333,46.333,0,0,1,7.626,1.991c1.04.5,6.043,2.8,11.912,6.2Z" transform="translate(-12.827 -79.462)" fill="url(#linear-gradient-120)"/>
      <path id="Path_155" data-name="Path 155" d="M69.984,187.188s-1.319-9-2.489-11.18c-3.937-7.188-13.619-8.348-16.268-8.6-4.689-.448-9.219-2.857-10.493-3.42s-14.142-6.471-16.536-3.231c-.831,1.125-.03,1.588,2.947,2.6s4.55,1.951,8.114,3.484,5.167,2.952,7.467,4.221,12.046,11.076,13.3,13.221,2.215,7.925,2.215,7.925Z" transform="translate(-11.998 -80.24)" fill="#f7d4ab"/>
      <path id="Path_156" data-name="Path 156" d="M69.884,181.085s.045-5.053-2.763-7.965c-3.569-3.664-7.86-4.888-14.077-5.769a42.936,42.936,0,0,1-12.738-4.3c-1.762-.886-11.449-4.515-14.486-2.857a16.2,16.2,0,0,1,5.331.433A120.011,120.011,0,0,1,42.969,165a30.239,30.239,0,0,0,10.349,3.514,27.987,27.987,0,0,1,11.175,3.858A13.169,13.169,0,0,1,69.884,181.085Z" transform="translate(-12.967 -80.23)" fill="url(#linear-gradient-121)"/>
      <path id="Path_157" data-name="Path 157" d="M73.879,149.834c-.289-.632-1.3-2.036-1.449-2.554a10.3,10.3,0,0,1,1.991,1.752c.338.592,3.982,8.3,3.982,8.3l-1.289-.617S75.2,152.686,73.879,149.834Z" transform="translate(-36.375 -73.958)" fill="url(#linear-gradient-122)"/>
      <path id="Path_158" data-name="Path 158" d="M57.581,154.821S47.74,151,46.834,150.57,36.415,144.8,34.22,143.74c4.55,2.912,9.1,6.292,12.554,7.631S57.581,154.821,57.581,154.821Z" transform="translate(-17.186 -72.18)" fill="url(#linear-gradient-123)"/>
      <path id="Path_159" data-name="Path 159" d="M92.784,190.572c-.876-2.066-5.157-4.644-7.248-5.326-3.146-1.025-13.664-4.326-7.965.592.5.413,9.846,10.4,12.843,9.762S94.013,193.444,92.784,190.572Z" transform="translate(-38.122 -92.002)" fill="url(#linear-gradient-124)"/>
      <path id="Path_160" data-name="Path 160" d="M85.5,224.247s-4.216-25.467-6.471-27.577-13.44-11.25-13.44-11.25,4.53,4.848,6.143,6.471,4.3,4.236,5.1,6.058c3.141,7.133,4.769,25.885,4.769,25.885Z" transform="translate(-32.94 -93.112)" fill="url(#linear-gradient-125)"/>
      <path id="Path_161" data-name="Path 161" d="M93.793,163.463s-5.167-6.068-5.381-6.471-2.912-7.183-4.052-8.661c.264,1.364,2.852,9.055,3.211,9.956S93.793,163.463,93.793,163.463Z" transform="translate(-42.367 -74.485)" fill="url(#linear-gradient-126)"/>
      <path id="Path_162" data-name="Path 162" d="M32.35,167.65s8.288,2.076,9.781,2.872S48.9,176.5,48.9,176.5A102.3,102.3,0,0,0,32.35,167.65Z" transform="translate(-16.247 -84.188)" fill="url(#linear-gradient-127)"/>
      <path id="Path_163" data-name="Path 163" d="M27.384,165.378c.095-.139-.786-.742-1.449-1.125a7.746,7.746,0,0,0-2.489-1.035c-.777-.05-.737.816-.737.816Z" transform="translate(-11.405 -81.961)" fill="#f54964"/>
      <path id="Path_164" data-name="Path 164" d="M12.813,153.018A38.54,38.54,0,0,0,8.721,150.3c-.548-.114-.931.841-.931.841S11.683,152.973,12.813,153.018Z" transform="translate(-3.912 -75.47)" fill="#f54964"/>
      <path id="Path_165" data-name="Path 165" d="M5.182,143.646c.383,0-1.329-1.22-4.316-2.554-.553-.244-.866.791-.866.791S3.554,143.586,5.182,143.646Z" transform="translate(0 -70.831)" fill="#f54964"/>
      <path id="Path_166" data-name="Path 166" d="M114.83,205.1s1.772,12.31,2.688,16.2S121,232.772,121,232.772l3.28-.782S117.264,213.622,114.83,205.1Z" transform="translate(-57.669 -102.996)" fill="url(#linear-gradient-128)"/>
      <path id="Path_167" data-name="Path 167" d="M115.256,256.74s-8.492,4.525-17.726,2.489c1.936,38.484,1.847,38.255,1.991,40.848.065,1.424-.279,9.811,9.114,14.759s10.633,4.729,12.629,3.484a21.085,21.085,0,0,0,7.6-22.052C125.376,281.3,115.256,256.74,115.256,256.74Z" transform="translate(-48.981 -128.93)" fill="#f94a72"/>
      <path id="Path_168" data-name="Path 168" d="M116.031,262.43A33.588,33.588,0,0,1,105,264.207c3.027,32.57,10.065,57.917,17.851,56.693C135.892,318.829,116.031,262.43,116.031,262.43Z" transform="translate(-52.733 -131.788)" fill="url(#linear-gradient-129)"/>
      <path id="Path_169" data-name="Path 169" d="M315.309,204.063c-2.19,11.773-5.416,16.138-9.378,25.526-2.837,6.72-5.476,12.41-5.724,13.067-.607,1.578-13.853,30.126-3.982,42.909,6.262,8.119,20.514-2.713,20.514-2.713s1.892-2.31,2.24-7.188,3.091-32.356,3.42-35.148c.219-1.867.289-5.326.891-9.956.781-5.973,1.2-12.972,4.838-23.4C328.132,207.2,316.8,196.018,315.309,204.063Z" transform="translate(-146.938 -101.012)" fill="#f7d4ab"/>
      <path id="Path_170" data-name="Path 170" d="M319.138,254.64a36.041,36.041,0,0,0,16.925,2.648l-.5,3.918s-12.445,1.254-17.945-2.783Z" transform="translate(-159.514 -127.875)" fill="url(#linear-gradient-130)"/>
      <path id="Path_171" data-name="Path 171" d="M374.871,146.819A28.776,28.776,0,0,0,371.66,146s1-.946,1.369-1.354,2.489.095,2.648.886C375.747,145.9,374.871,146.819,374.871,146.819Z" transform="translate(-186.654 -72.561)" fill="#f54964"/>
      <path id="Path_172" data-name="Path 172" d="M337.862,174.584a14.079,14.079,0,0,1,1.13-10.827c.767-1.339,8.721-10.244,9.189-11.255s2.987-7.805,3.659-8.766,3.484-3.34,5.53-2.489c1.608.662-.274,2.9-1.065,4.455-.5,1-2.987,6.9-2.987,6.9s9.956-4.122,10.951-4.555,13.56-7.965,14.824-8.567,7.865-3.743,8.865-1.493c1.439,3.256-19.414,9.956-19.414,9.956Z" transform="translate(-169.376 -68.89)" fill="url(#linear-gradient-131)"/>
      <path id="Path_173" data-name="Path 173" d="M384.49,153.413s6.063-4.276,12.2-8.3c2.987-1.991,9.752-5.779,14.859-6.745a1.658,1.658,0,0,1,.294,1.165Z" transform="translate(-193.097 -69.483)" fill="url(#linear-gradient-132)"/>
      <path id="Path_174" data-name="Path 174" d="M365.264,158.362,346,162.951s24.814-13.341,28.239-15.431a165.642,165.642,0,0,1,14.739-7.741c2.106-.772,6.81-2.683,7.8-1.493,1.558,1.857-1.185,2.793-2.365,3.27s-9.458,4.3-9.458,4.3Z" transform="translate(-173.767 -69.25)" fill="url(#linear-gradient-133)"/>
      <path id="Path_175" data-name="Path 175" d="M386.27,159.1a61.885,61.885,0,0,1,11.947-7.8c4.156-1.991,11.673-4.978,14.934-4.829Z" transform="translate(-193.991 -73.55)" fill="url(#linear-gradient-134)"/>
      <path id="Path_176" data-name="Path 176" d="M369.3,163.708s17.383-10.08,26.019-13.326c4.938-1.852,8.96-3.216,9.692-1.2.552,1.493-3.579,2.743-5.351,3.554-2.135,1-17.746,7.522-18.961,8.208Z" transform="translate(-185.468 -74.411)" fill="url(#linear-gradient-135)"/>
      <path id="Path_177" data-name="Path 177" d="M400.758,159.971l1.991-.841a11.38,11.38,0,0,0-3.38-.174,47.07,47.07,0,0,0-7.576,2.17c-1.025.5-5.973,2.942-11.753,6.471Z" transform="translate(-190.862 -79.794)" fill="url(#linear-gradient-136)"/>
      <path id="Path_178" data-name="Path 178" d="M336.08,188.89s1.1-9.025,2.235-11.235c3.758-7.283,13.405-8.676,16.049-9,4.674-.563,9.144-3.081,10.409-3.679s13.978-6.81,16.427-3.634c.856,1.1.07,1.583-2.882,2.673s-4.48,2.066-8.024,3.689-5.1,3.066-7.357,4.405-11.773,11.364-12.957,13.545-2.021,7.965-2.021,7.965Z" transform="translate(-168.785 -80.569)" fill="#f7d4ab"/>
      <path id="Path_179" data-name="Path 179" d="M337.918,182.757s-.169-5.053,2.569-8.014c3.484-3.768,7.731-5.152,13.938-6.2a43.311,43.311,0,0,0,12.634-4.555c1.737-.931,11.32-4.794,14.436-3.211a16.069,16.069,0,0,0-5.321.567A119.067,119.067,0,0,0,364.47,166a30.274,30.274,0,0,1-10.259,3.768,27.587,27.587,0,0,0-11.076,4.137A13.113,13.113,0,0,0,337.918,182.757Z" transform="translate(-169.707 -80.548)" fill="url(#linear-gradient-137)"/>
      <path id="Path_180" data-name="Path 180" d="M371.321,151.568c.274-.637,1.249-2.071,1.384-2.588a9.833,9.833,0,0,0-1.931,1.8c-.309.6-3.773,8.393-3.773,8.393l1.269-.647S370.086,154.466,371.321,151.568Z" transform="translate(-184.313 -74.811)" fill="url(#linear-gradient-138)"/>
      <path id="Path_181" data-name="Path 181" d="M370.21,156.113s9.742-4.057,10.638-4.515,10.269-6.028,12.445-7.138c-4.48,3.022-8.96,6.516-12.365,7.94S370.21,156.113,370.21,156.113Z" transform="translate(-185.925 -72.541)" fill="url(#linear-gradient-139)"/>
      <path id="Path_182" data-name="Path 182" d="M341.787,192.775c.826-2.091,5.043-4.769,7.113-5.476,3.126-1.105,13.56-4.664,7.965.388-.5.428-9.587,10.648-12.6,10.08S340.622,195.7,341.787,192.775Z" transform="translate(-171.376 -92.926)" fill="url(#linear-gradient-140)"/>
      <path id="Path_183" data-name="Path 183" d="M348.74,224.811s3.305-24.108,5.505-26.273,13.166-11.578,13.166-11.578-4.41,4.978-5.973,6.6-4.2,4.346-4.953,6.182c-2.987,7.208-4.9,24.581-4.9,24.581Z" transform="translate(-175.143 -93.885)" fill="url(#linear-gradient-141)"/>
      <path id="Path_184" data-name="Path 184" d="M348.36,165.692s5.018-6.192,5.222-6.591,2.738-7.253,3.833-8.761c-.229,1.369-2.623,9.124-2.957,10.055S348.36,165.692,348.36,165.692Z" transform="translate(-174.952 -75.494)" fill="url(#linear-gradient-142)"/>
      <path id="Path_185" data-name="Path 185" d="M402.542,168.35s-8.238,2.285-9.7,3.111-6.611,6.128-6.611,6.128A102.384,102.384,0,0,1,402.542,168.35Z" transform="translate(-193.971 -84.539)" fill="url(#linear-gradient-143)"/>
      <path id="Path_186" data-name="Path 186" d="M419.272,165.976c-.1-.134.767-.762,1.419-1.165a7.871,7.871,0,0,1,2.449-1.1c.772-.065.757.8.757.8Z" transform="translate(-210.561 -82.21)" fill="#f54964"/>
      <path id="Path_187" data-name="Path 187" d="M433.2,153.265a39.5,39.5,0,0,1,4.022-2.817c.538-.129.951.8.951.8S434.33,153.205,433.2,153.265Z" transform="translate(-217.56 -75.542)" fill="#f54964"/>
      <path id="Path_188" data-name="Path 188" d="M440.371,143.8c-.383,0,1.125-1.165,4.077-2.569.548-.264.836.786.836.786S442,143.691,440.371,143.8Z" transform="translate(-221.132 -70.896)" fill="#f54964"/>
      <path id="Path_189" data-name="Path 189" d="M328.121,211.61s-1.563,10.314-2.6,14.172-3.29,10.165-3.29,10.165l-2.907-1.419S325.4,220.052,328.121,211.61Z" transform="translate(-160.368 -106.265)" fill="url(#linear-gradient-144)"/>
      <path id="Path_190" data-name="Path 190" d="M304.518,257.65a30.561,30.561,0,0,0,17.522,2.091s-2.21,39.046-2.35,41.455c-.085,1.424.154,9.821-9.294,14.65s-10.692,4.6-12.674,3.345-9.956-9.025-7.332-22.141C294.02,279.08,304.518,257.65,304.518,257.65Z" transform="translate(-145.576 -129.387)" fill="#f94a72"/>
      <path id="Path_191" data-name="Path 191" d="M313.305,263.11A20.565,20.565,0,0,0,324.65,264.2c-3.43,32.535-11.265,58.738-19.035,57.429C292.6,319.414,313.305,263.11,313.305,263.11Z" transform="translate(-151.326 -132.129)" fill="url(#linear-gradient-145)"/>
    </g>
  </g>
</svg>
