<svg xmlns="http://www.w3.org/2000/svg" xmlns:xlink="http://www.w3.org/1999/xlink" viewBox="0 0 254.41 428.22"><defs><style>.cls-1{fill:url(#Áåçûìÿííûé_ãðàäèåíò_2);}.cls-2{fill:#f7d4ab;}.cls-3{fill:url(#linear-gradient);}.cls-4{fill:url(#linear-gradient-2);}.cls-5{fill:url(#linear-gradient-3);}.cls-6{fill:url(#linear-gradient-4);}.cls-7{fill:url(#linear-gradient-5);}.cls-8{fill:url(#linear-gradient-6);}.cls-9{fill:url(#linear-gradient-7);}.cls-10{fill:url(#linear-gradient-8);}.cls-11{fill:url(#linear-gradient-9);}.cls-12{fill:url(#Áåçûìÿííûé_ãðàäèåíò_101);}.cls-13{fill:#f94a72;}.cls-14{fill:url(#linear-gradient-10);}.cls-15{fill:url(#linear-gradient-11);}.cls-16{fill:url(#linear-gradient-12);}.cls-17{fill:url(#linear-gradient-13);}.cls-18{fill:url(#linear-gradient-14);}.cls-19{fill:url(#linear-gradient-15);}.cls-20{fill:url(#linear-gradient-16);}.cls-21{fill:url(#linear-gradient-17);}.cls-22{fill:url(#linear-gradient-18);}.cls-23{fill:url(#linear-gradient-19);}.cls-24{fill:#f0c499;}.cls-25{fill:url(#linear-gradient-20);}.cls-26{fill:url(#linear-gradient-21);}.cls-27{fill:url(#Áåçûìÿííûé_ãðàäèåíò_384);}.cls-28{fill:url(#linear-gradient-22);}.cls-29{fill:url(#linear-gradient-23);}.cls-30{fill:url(#radial-gradient);}.cls-31{fill:url(#radial-gradient-2);}.cls-32{fill:url(#linear-gradient-24);}.cls-33{fill:url(#Áåçûìÿííûé_ãðàäèåíò_462);}.cls-34{fill:url(#Áåçûìÿííûé_ãðàäèåíò_72);}.cls-35{fill:url(#Áåçûìÿííûé_ãðàäèåíò_72-2);}.cls-36{fill:url(#Áåçûìÿííûé_ãðàäèåíò_7);}.cls-37{fill:url(#linear-gradient-25);}.cls-38{fill:#ddd;}.cls-39{fill:url(#linear-gradient-26);}.cls-40{fill:url(#Áåçûìÿííûé_ãðàäèåíò_16);}.cls-41{fill:url(#linear-gradient-27);}.cls-42{fill:url(#radial-gradient-3);}.cls-43{fill:#fff;}.cls-44{fill:url(#Áåçûìÿííûé_ãðàäèåíò_331);}.cls-45{fill:url(#Áåçûìÿííûé_ãðàäèåíò_7-2);}.cls-46{fill:#391b13;}.cls-47{fill:url(#linear-gradient-28);}.cls-48{fill:url(#linear-gradient-29);}.cls-49{fill:url(#Áåçûìÿííûé_ãðàäèåíò_23);}.cls-50{fill:url(#Áåçûìÿííûé_ãðàäèåíò_103);}.cls-51{fill:url(#Áåçûìÿííûé_ãðàäèåíò_103-2);}.cls-52{fill:url(#linear-gradient-30);}.cls-53{fill:#961b27;}.cls-54{fill:url(#linear-gradient-31);}.cls-55{fill:#f86d78;}.cls-56{fill:url(#linear-gradient-32);}.cls-57{fill:url(#linear-gradient-33);}.cls-58{fill:#ff9aa2;}.cls-59{fill:url(#linear-gradient-34);}.cls-60{fill:url(#linear-gradient-35);}.cls-61{fill:url(#linear-gradient-36);}.cls-62{fill:url(#Áåçûìÿííûé_ãðàäèåíò_7-3);}.cls-63{fill:url(#linear-gradient-37);}.cls-64{fill:url(#Áåçûìÿííûé_ãðàäèåíò_7-4);}.cls-65{fill:url(#linear-gradient-38);}.cls-66{fill:url(#Áåçûìÿííûé_ãðàäèåíò_7-5);}.cls-67{fill:url(#linear-gradient-39);}.cls-68{fill:url(#linear-gradient-40);}.cls-69{fill:url(#Áåçûìÿííûé_ãðàäèåíò_77);}.cls-70{fill:url(#linear-gradient-41);}.cls-71{fill:url(#linear-gradient-42);}.cls-72{fill:url(#Áåçûìÿííûé_ãðàäèåíò_77-2);}.cls-73{fill:url(#linear-gradient-43);}.cls-74{fill:url(#linear-gradient-44);}.cls-75{fill:url(#linear-gradient-45);}.cls-76{fill:url(#linear-gradient-46);}.cls-77{fill:url(#linear-gradient-47);}.cls-78{fill:url(#Áåçûìÿííûé_ãðàäèåíò_298);}.cls-79{fill:url(#Áåçûìÿííûé_ãðàäèåíò_298-2);}.cls-80{fill:url(#Áåçûìÿííûé_ãðàäèåíò_298-3);}.cls-81{fill:url(#Áåçûìÿííûé_ãðàäèåíò_298-4);}.cls-82{fill:url(#Áåçûìÿííûé_ãðàäèåíò_298-5);}.cls-83{fill:url(#Áåçûìÿííûé_ãðàäèåíò_298-6);}.cls-84{fill:url(#Áåçûìÿííûé_ãðàäèåíò_298-7);}.cls-85{fill:url(#Áåçûìÿííûé_ãðàäèåíò_298-8);}.cls-86{fill:url(#Áåçûìÿííûé_ãðàäèåíò_298-9);}.cls-87{fill:url(#Áåçûìÿííûé_ãðàäèåíò_298-10);}.cls-88{fill:url(#Áåçûìÿííûé_ãðàäèåíò_298-11);}.cls-89{fill:url(#linear-gradient-48);}.cls-90{fill:url(#Áåçûìÿííûé_ãðàäèåíò_2-2);}.cls-91{fill:url(#Áåçûìÿííûé_ãðàäèåíò_298-12);}.cls-92{fill:url(#Áåçûìÿííûé_ãðàäèåíò_298-13);}.cls-93{fill:url(#Áåçûìÿííûé_ãðàäèåíò_298-14);}.cls-94{fill:url(#Áåçûìÿííûé_ãðàäèåíò_298-15);}.cls-95{fill:url(#Áåçûìÿííûé_ãðàäèåíò_298-16);}.cls-96{fill:url(#Áåçûìÿííûé_ãðàäèåíò_298-17);}.cls-97{fill:url(#Áåçûìÿííûé_ãðàäèåíò_298-18);}.cls-98{fill:url(#Áåçûìÿííûé_ãðàäèåíò_298-19);}.cls-99{fill:url(#Áåçûìÿííûé_ãðàäèåíò_298-20);}.cls-100{fill:url(#Áåçûìÿííûé_ãðàäèåíò_77-3);}.cls-101{fill:url(#Áåçûìÿííûé_ãðàäèåíò_298-21);}.cls-102{fill:url(#Áåçûìÿííûé_ãðàäèåíò_298-22);}.cls-103{fill:url(#Áåçûìÿííûé_ãðàäèåíò_298-23);}.cls-104{fill:#673024;}.cls-105{fill:url(#Áåçûìÿííûé_ãðàäèåíò_298-24);}.cls-106{fill:url(#Áåçûìÿííûé_ãðàäèåíò_6);}.cls-107{fill:url(#Áåçûìÿííûé_ãðàäèåíò_298-25);}.cls-108{fill:url(#Áåçûìÿííûé_ãðàäèåíò_298-26);}.cls-109{fill:url(#Áåçûìÿííûé_ãðàäèåíò_298-27);}.cls-110{fill:url(#Áåçûìÿííûé_ãðàäèåíò_298-28);}.cls-111{fill:url(#Áåçûìÿííûé_ãðàäèåíò_298-29);}.cls-112{fill:url(#Áåçûìÿííûé_ãðàäèåíò_298-30);}.cls-113{fill:url(#Áåçûìÿííûé_ãðàäèåíò_2-3);}.cls-114{fill:url(#Áåçûìÿííûé_ãðàäèåíò_298-31);}.cls-115{fill:url(#Áåçûìÿííûé_ãðàäèåíò_77-4);}.cls-116{fill:url(#Áåçûìÿííûé_ãðàäèåíò_298-32);}.cls-117{fill:url(#Áåçûìÿííûé_ãðàäèåíò_298-33);}.cls-118{fill:url(#Áåçûìÿííûé_ãðàäèåíò_298-34);}.cls-119{fill:url(#Áåçûìÿííûé_ãðàäèåíò_361);}.cls-120{fill:url(#Áåçûìÿííûé_ãðàäèåíò_126);}.cls-121{fill:url(#linear-gradient-49);}.cls-122{fill:url(#linear-gradient-50);}.cls-123{fill:url(#linear-gradient-51);}.cls-124{fill:url(#linear-gradient-52);}.cls-125{fill:url(#linear-gradient-53);}.cls-126{fill:url(#linear-gradient-54);}.cls-127{fill:url(#linear-gradient-55);}.cls-128{fill:url(#linear-gradient-56);}.cls-129{fill:#ffdebd;}.cls-130{fill:url(#linear-gradient-57);}.cls-131{fill:url(#linear-gradient-58);}.cls-132{fill:url(#linear-gradient-59);}.cls-133{fill:url(#linear-gradient-60);}.cls-134{fill:url(#linear-gradient-61);}.cls-135{fill:url(#linear-gradient-62);}.cls-136{fill:url(#linear-gradient-63);}.cls-137{fill:url(#linear-gradient-64);}.cls-138{fill:url(#linear-gradient-65);}.cls-139{fill:url(#linear-gradient-66);}.cls-140{fill:url(#linear-gradient-67);}.cls-141{fill:url(#linear-gradient-68);}.cls-142{fill:url(#linear-gradient-69);}.cls-143{fill:url(#linear-gradient-70);}.cls-144{fill:url(#linear-gradient-71);}.cls-145{fill:url(#linear-gradient-72);}</style><linearGradient id="Áåçûìÿííûé_ãðàäèåíò_2" x1="123.91" y1="97.19" x2="127.68" y2="178.26" gradientUnits="userSpaceOnUse"><stop offset="0" stop-color="#652f23"/><stop offset="0.77" stop-color="#492219"/></linearGradient><linearGradient id="linear-gradient" x1="104.03" y1="171.41" x2="151.07" y2="222.61" gradientUnits="userSpaceOnUse"><stop offset="0" stop-color="#f0c499"/><stop offset="0.52" stop-color="#f1c69c"/><stop offset="0.85" stop-color="#f4cea4"/><stop offset="1" stop-color="#f7d4ab"/></linearGradient><linearGradient id="linear-gradient-2" x1="5395.78" y1="209.79" x2="5354.04" y2="215.94" gradientTransform="matrix(-1, 0, 0, 1, 5492.88, 0)" xlink:href="#linear-gradient"/><linearGradient id="linear-gradient-3" x1="129.66" y1="208.32" x2="187.33" y2="199.32" xlink:href="#linear-gradient"/><linearGradient id="linear-gradient-4" x1="126.14" y1="211.34" x2="74.2" y2="197.7" xlink:href="#linear-gradient"/><linearGradient id="linear-gradient-5" x1="123.67" y1="155.3" x2="130.47" y2="184.13" gradientUnits="userSpaceOnUse"><stop offset="0" stop-color="#dba379"/><stop offset="0.49" stop-color="#e4b186"/><stop offset="1" stop-color="#f0c499"/></linearGradient><linearGradient id="linear-gradient-6" x1="83.83" y1="211.38" x2="126.07" y2="208.15" xlink:href="#linear-gradient"/><linearGradient id="linear-gradient-7" x1="62.3" y1="197.15" x2="132.36" y2="209.56" xlink:href="#linear-gradient"/><linearGradient id="linear-gradient-8" x1="203.18" y1="202.51" x2="123.04" y2="207.68" xlink:href="#linear-gradient"/><linearGradient id="linear-gradient-9" x1="47.58" y1="279.94" x2="135.23" y2="350.44" gradientUnits="userSpaceOnUse"><stop offset="0" stop-color="#d23f47"/><stop offset="0.58" stop-color="#e9465a"/><stop offset="1" stop-color="#f54964"/></linearGradient><linearGradient id="Áåçûìÿííûé_ãðàäèåíò_101" x1="48.9" y1="288.15" x2="45.26" y2="263.34" gradientUnits="userSpaceOnUse"><stop offset="0" stop-color="#f54964"/><stop offset="0.42" stop-color="#e9465a"/><stop offset="1" stop-color="#d23f47"/></linearGradient><linearGradient id="linear-gradient-10" x1="33.01" y1="473.35" x2="209.84" y2="246.92" gradientUnits="userSpaceOnUse"><stop offset="0" stop-color="#d64053"/><stop offset="0.58" stop-color="#ed4768"/><stop offset="1" stop-color="#f94a72"/></linearGradient><linearGradient id="linear-gradient-11" x1="141.96" y1="328.23" x2="128.62" y2="242.66" gradientUnits="userSpaceOnUse"><stop offset="0" stop-color="#ff6586"/><stop offset="0.52" stop-color="#fb547a"/><stop offset="1" stop-color="#f94a72"/></linearGradient><linearGradient id="linear-gradient-12" x1="61.01" y1="401.61" x2="455.68" y2="51.08" xlink:href="#linear-gradient-10"/><linearGradient id="linear-gradient-13" x1="4163.32" y1="356.48" x2="4189.66" y2="124.74" gradientTransform="matrix(-1, 0, 0, 1, 4232.22, 0)" xlink:href="#linear-gradient-10"/><linearGradient id="linear-gradient-14" x1="186.5" y1="355.82" x2="212.92" y2="123.39" xlink:href="#linear-gradient-10"/><linearGradient id="linear-gradient-15" x1="136.78" y1="130.94" x2="154.64" y2="208.09" xlink:href="#linear-gradient-5"/><linearGradient id="linear-gradient-16" x1="91.41" y1="137.3" x2="110.38" y2="219.23" xlink:href="#linear-gradient-5"/><linearGradient id="linear-gradient-17" x1="150.21" y1="131.62" x2="171.89" y2="343.69" xlink:href="#linear-gradient-10"/><linearGradient id="linear-gradient-18" x1="84.01" y1="138.39" x2="105.69" y2="350.46" xlink:href="#linear-gradient-10"/><linearGradient id="linear-gradient-19" x1="130.74" y1="211.96" x2="134.68" y2="249.28" xlink:href="#linear-gradient-10"/><linearGradient id="linear-gradient-20" x1="-2948.36" y1="255.74" x2="-2946.94" y2="305.2" gradientTransform="translate(3017.97)" xlink:href="#linear-gradient-5"/><linearGradient id="linear-gradient-21" x1="-559.35" y1="255.74" x2="-557.94" y2="305.2" gradientTransform="matrix(-1, 0, 0, 1, -381.37, 0)" xlink:href="#linear-gradient-5"/><linearGradient id="Áåçûìÿííûé_ãðàäèåíò_384" x1="123.94" y1="34.39" x2="123.74" y2="170.03" gradientUnits="userSpaceOnUse"><stop offset="0" stop-color="#ffd9b3"/><stop offset="0.32" stop-color="#fad6ae"/><stop offset="1" stop-color="#f7d4ab"/></linearGradient><linearGradient id="linear-gradient-22" x1="153.07" y1="113.04" x2="147.61" y2="82.78" gradientUnits="userSpaceOnUse"><stop offset="0" stop-color="#f7d4ab"/><stop offset="0.52" stop-color="#f6d2a8"/><stop offset="0.85" stop-color="#f3caa0"/><stop offset="1" stop-color="#f0c499"/></linearGradient><linearGradient id="linear-gradient-23" x1="98.93" y1="118.93" x2="92.13" y2="76.85" xlink:href="#linear-gradient-22"/><radialGradient id="radial-gradient" cx="-245.01" cy="120.11" r="27.68" gradientTransform="translate(284.83) scale(0.79 1)" gradientUnits="userSpaceOnUse"><stop offset="0" stop-color="#f9b38e"/><stop offset="0.61" stop-color="#f8c69e"/><stop offset="1" stop-color="#f7d4ab"/></radialGradient><radialGradient id="radial-gradient-2" cx="2862.83" cy="120.11" r="27.68" gradientTransform="matrix(-0.79, 0, 0, 1, 2428.16, 0)" xlink:href="#radial-gradient"/><linearGradient id="linear-gradient-24" x1="111.19" y1="157.35" x2="133.73" y2="157.35" gradientUnits="userSpaceOnUse"><stop offset="0" stop-color="#ffd9b3"/><stop offset="0.68" stop-color="#fcd7b0"/><stop offset="1" stop-color="#f7d4ab"/></linearGradient><linearGradient id="Áåçûìÿííûé_ãðàäèåíò_462" x1="123.2" y1="23.59" x2="123.05" y2="78.91" gradientUnits="userSpaceOnUse"><stop offset="0" stop-color="#f7d4ab"/><stop offset="0.97" stop-color="#f0c59a"/><stop offset="1" stop-color="#f0c499"/></linearGradient><linearGradient id="Áåçûìÿííûé_ãðàäèåíò_72" x1="178.09" y1="59.25" x2="157.55" y2="161.53" gradientUnits="userSpaceOnUse"><stop offset="0" stop-color="#f9b38e"/><stop offset="0.5" stop-color="#f7b690"/><stop offset="0.9" stop-color="#f2c096"/><stop offset="1" stop-color="#f0c499"/></linearGradient><linearGradient id="Áåçûìÿííûé_ãðàäèåíò_72-2" x1="3848.05" y1="57.44" x2="3827.37" y2="160.4" gradientTransform="matrix(-1, 0, 0, 1, 3915.98, 0)" xlink:href="#Áåçûìÿííûé_ãðàäèåíò_72"/><linearGradient id="Áåçûìÿííûé_ãðàäèåíò_7" x1="973.5" y1="88.37" x2="944.15" y2="99.77" gradientTransform="matrix(-1, 0, 0, 1, 1055.94, 0)" xlink:href="#linear-gradient-5"/><linearGradient id="linear-gradient-25" x1="944.84" y1="95.21" x2="953.84" y2="95.21" gradientTransform="matrix(-1, 0, 0, 1, 1055.94, 0)" gradientUnits="userSpaceOnUse"><stop offset="0" stop-color="#fff"/><stop offset="0.47" stop-color="#fdfcfc"/><stop offset="0.77" stop-color="#f6f4f4"/><stop offset="1" stop-color="#ece7e7"/></linearGradient><linearGradient id="linear-gradient-26" x1="964.76" y1="94.95" x2="971.93" y2="94.95" xlink:href="#linear-gradient-25"/><linearGradient id="Áåçûìÿííûé_ãðàäèåíò_16" x1="969.48" y1="102.93" x2="948.46" y2="89.79" gradientTransform="matrix(-1, 0, 0, 1, 1055.94, 0)" gradientUnits="userSpaceOnUse"><stop offset="0" stop-color="#715241"/><stop offset="1" stop-color="#b89c8c"/></linearGradient><linearGradient id="linear-gradient-27" x1="986.92" y1="95.43" x2="959.6" y2="92.19" gradientTransform="matrix(-1, 0, 0, 1, 1055.94, 0)" gradientUnits="userSpaceOnUse"><stop offset="0" stop-color="#b89c8c"/><stop offset="1" stop-color="#715241"/></linearGradient><radialGradient id="radial-gradient-3" cx="957.28" cy="95.37" r="6.15" gradientTransform="matrix(-1, 0, 0, 1, 1055.94, 0)" gradientUnits="userSpaceOnUse"><stop offset="0" stop-color="#2a3a3b"/><stop offset="1" stop-color="#1c2727"/></radialGradient><linearGradient id="Áåçûìÿííûé_ãðàäèåíò_331" x1="944.85" y1="94.31" x2="977.93" y2="94.31" gradientTransform="matrix(-1, 0, 0, 1, 1055.94, 0)" gradientUnits="userSpaceOnUse"><stop offset="0" stop-color="#5a2a1f"/><stop offset="0.29" stop-color="#4a2319"/><stop offset="0.66" stop-color="#3d1d15"/><stop offset="1" stop-color="#391b13"/></linearGradient><linearGradient id="Áåçûìÿííûé_ãðàäèåíò_7-2" x1="959.21" y1="85.13" x2="937.32" y2="112.99" gradientTransform="matrix(-1, 0, 0, 1, 1055.94, 0)" xlink:href="#linear-gradient-5"/><linearGradient id="linear-gradient-28" x1="124.58" y1="131" x2="122.69" y2="121.53" xlink:href="#linear-gradient-22"/><linearGradient id="linear-gradient-29" x1="123.09" y1="120.78" x2="123.04" y2="128.22" xlink:href="#linear-gradient-5"/><linearGradient id="Áåçûìÿííûé_ãðàäèåíò_23" x1="122.64" y1="110.66" x2="122.74" y2="118.29" gradientUnits="userSpaceOnUse"><stop offset="0" stop-color="#f7d4ab"/><stop offset="1" stop-color="#ffd9b3"/></linearGradient><linearGradient id="Áåçûìÿííûé_ãðàäèåíò_103" x1="713.94" y1="154.17" x2="739.54" y2="176.52" gradientTransform="matrix(0.99, -0.11, 0.11, 0.99, -621.68, 51.67)" gradientUnits="userSpaceOnUse"><stop offset="0" stop-color="#f0c499"/><stop offset="0.51" stop-color="#e4b186"/><stop offset="1" stop-color="#dba379"/></linearGradient><linearGradient id="Áåçûìÿííûé_ãðàäèåíò_103-2" x1="814.77" y1="202.1" x2="825.65" y2="211.6" gradientTransform="translate(-744.87 89.57) rotate(-11.1)" xlink:href="#Áåçûìÿííûé_ãðàäèåíò_103"/><linearGradient id="linear-gradient-30" x1="576.17" y1="107.96" x2="569.99" y2="115.58" gradientTransform="matrix(1, 0.02, -0.02, 1, -422.61, 6.07)" xlink:href="#linear-gradient-5"/><linearGradient id="linear-gradient-31" x1="719.05" y1="170.23" x2="747.42" y2="170.23" gradientTransform="matrix(0.99, -0.11, 0.11, 0.99, -621.68, 51.67)" gradientUnits="userSpaceOnUse"><stop offset="0" stop-color="#e8d8d7"/><stop offset="0.04" stop-color="#ebdedd"/><stop offset="0.21" stop-color="#f6f0f0"/><stop offset="0.38" stop-color="#fdfbfb"/><stop offset="0.57" stop-color="#fff"/><stop offset="0.69" stop-color="#fbf8f8"/><stop offset="0.87" stop-color="#f1e4e3"/><stop offset="1" stop-color="#e8d2d1"/></linearGradient><linearGradient id="linear-gradient-32" x1="712.72" y1="165.96" x2="752.99" y2="165.59" xlink:href="#linear-gradient-31"/><linearGradient id="linear-gradient-33" x1="724.19" y1="175.27" x2="742.84" y2="175.08" gradientTransform="matrix(0.99, -0.11, 0.11, 0.99, -621.68, 51.67)" gradientUnits="userSpaceOnUse"><stop offset="0" stop-color="#f96e7e"/><stop offset="0.03" stop-color="#fa7080"/><stop offset="0.25" stop-color="#fe7a86"/><stop offset="0.53" stop-color="#ff7d88"/><stop offset="0.76" stop-color="#fd7985"/><stop offset="1" stop-color="#f86d7d"/><stop offset="1" stop-color="#f86d7d"/></linearGradient><linearGradient id="linear-gradient-34" x1="732.74" y1="162.1" x2="732.64" y2="155.64" gradientTransform="matrix(0.99, -0.11, 0.11, 0.99, -621.68, 51.67)" gradientUnits="userSpaceOnUse"><stop offset="0" stop-color="#ffd9b3"/><stop offset="1" stop-color="#f7d4ab"/></linearGradient><linearGradient id="linear-gradient-35" x1="712.69" y1="164.24" x2="752.98" y2="163.87" gradientTransform="matrix(0.99, -0.11, 0.11, 0.99, -621.68, 51.67)" gradientUnits="userSpaceOnUse"><stop offset="0" stop-color="#e8d8d7"/><stop offset="0.05" stop-color="#ebdcdb"/><stop offset="0.31" stop-color="#f7efef"/><stop offset="0.48" stop-color="#fbf6f6"/><stop offset="1" stop-color="#e8d2d1"/></linearGradient><linearGradient id="linear-gradient-36" x1="717.54" y1="162.68" x2="752.61" y2="162.32" xlink:href="#linear-gradient-33"/><linearGradient id="Áåçûìÿííûé_ãðàäèåíò_7-3" x1="-74.16" y1="1068.67" x2="-73.37" y2="1068.67" gradientTransform="matrix(-36.6, 9.6, 9.6, 36.6, -12807.21, -38316.93)" xlink:href="#linear-gradient-5"/><linearGradient id="linear-gradient-37" x1="-25.4" y1="1060.05" x2="-24.63" y2="1060.05" gradientTransform="matrix(43.26, -4.1, -4.1, -43.26, 5581.83, 45851.44)" xlink:href="#Áåçûìÿííûé_ãðàäèåíò_331"/><linearGradient id="Áåçûìÿííûé_ãðàäèåíò_7-4" x1="151.14" y1="89.07" x2="150.25" y2="108.25" xlink:href="#linear-gradient-5"/><linearGradient id="linear-gradient-38" x1="198.75" y1="76.95" x2="232.14" y2="76.95" gradientTransform="translate(-64 11.15) rotate(-2.5)" gradientUnits="userSpaceOnUse"><stop offset="0" stop-color="#673024"/><stop offset="0.34" stop-color="#53271c"/><stop offset="0.68" stop-color="#462118"/><stop offset="1" stop-color="#421f16"/></linearGradient><linearGradient id="Áåçûìÿííûé_ãðàäèåíò_7-5" x1="123.03" y1="164.53" x2="121.01" y2="193.87" xlink:href="#linear-gradient-5"/><linearGradient id="linear-gradient-39" x1="761.61" y1="75.02" x2="794.24" y2="75.02" gradientTransform="matrix(-1, 0, 0, 1, 870.57, 0)" xlink:href="#linear-gradient-38"/><linearGradient id="linear-gradient-40" x1="84.66" y1="11.01" x2="74.49" y2="319.74" gradientUnits="userSpaceOnUse"><stop offset="0.23" stop-color="#492219"/><stop offset="1" stop-color="#652f23"/></linearGradient><linearGradient id="Áåçûìÿííûé_ãðàäèåíò_77" x1="175.9" y1="25.6" x2="167.64" y2="289.87" xlink:href="#linear-gradient-40"/><linearGradient id="linear-gradient-41" x1="94.52" y1="152.91" x2="77.13" y2="317.9" xlink:href="#linear-gradient-40"/><linearGradient id="linear-gradient-42" x1="87.81" y1="214.11" x2="71.93" y2="-31.1" xlink:href="#linear-gradient-40"/><linearGradient id="Áåçûìÿííûé_ãðàäèåíò_77-2" x1="176.17" y1="195.25" x2="161.28" y2="-34.62" xlink:href="#linear-gradient-40"/><linearGradient id="linear-gradient-43" x1="66.35" y1="304.75" x2="66.98" y2="62.71" xlink:href="#linear-gradient-40"/><linearGradient id="linear-gradient-44" x1="20.34" y1="179.22" x2="66.6" y2="179.22" xlink:href="#linear-gradient-40"/><linearGradient id="linear-gradient-45" x1="52.23" y1="354.6" x2="21.15" y2="502.83" gradientTransform="translate(192.98 -202.64) rotate(6.07)" xlink:href="#linear-gradient-40"/><linearGradient id="linear-gradient-46" x1="44.32" y1="310.21" x2="67.1" y2="519.46" gradientTransform="translate(192.98 -202.64) rotate(6.07)" xlink:href="#linear-gradient-40"/><linearGradient id="linear-gradient-47" x1="227.02" y1="362.57" x2="172.39" y2="108.47" xlink:href="#linear-gradient-40"/><linearGradient id="Áåçûìÿííûé_ãðàäèåíò_298" x1="188.29" y1="142.48" x2="205.12" y2="434.7" gradientUnits="userSpaceOnUse"><stop offset="0" stop-color="#70362b"/><stop offset="0.31" stop-color="#6b3329"/><stop offset="0.66" stop-color="#5e2c23"/><stop offset="1" stop-color="#4a2019"/></linearGradient><linearGradient id="Áåçûìÿííûé_ãðàäèåíò_298-2" x1="69.87" y1="149.99" x2="86.59" y2="440.13" xlink:href="#Áåçûìÿííûé_ãðàäèåíò_298"/><linearGradient id="Áåçûìÿííûé_ãðàäèåíò_298-3" x1="160.02" y1="142.72" x2="177.11" y2="439.41" xlink:href="#Áåçûìÿííûé_ãðàäèåíò_298"/><linearGradient id="Áåçûìÿííûé_ãðàäèåíò_298-4" x1="169" y1="143.6" x2="185.83" y2="435.82" xlink:href="#Áåçûìÿííûé_ãðàäèåíò_298"/><linearGradient id="Áåçûìÿííûé_ãðàäèåíò_298-5" x1="82.9" y1="7.02" x2="76.53" y2="138.25" xlink:href="#Áåçûìÿííûé_ãðàäèåíò_298"/><linearGradient id="Áåçûìÿííûé_ãðàäèåíò_298-6" x1="54.52" y1="5.91" x2="48.16" y2="136.78" xlink:href="#Áåçûìÿííûé_ãðàäèåíò_298"/><linearGradient id="Áåçûìÿííûé_ãðàäèåíò_298-7" x1="32.23" y1="151.48" x2="49.06" y2="443.7" xlink:href="#Áåçûìÿííûé_ãðàäèåíò_298"/><linearGradient id="Áåçûìÿííûé_ãðàäèåíò_298-8" x1="3294.8" y1="152.23" x2="3311.64" y2="444.45" gradientTransform="matrix(-1, 0, 0, 1, 3505.39, 0)" xlink:href="#Áåçûìÿííûé_ãðàäèåíò_298"/><linearGradient id="Áåçûìÿííûé_ãðàäèåíò_298-9" x1="54.15" y1="90.3" x2="58.91" y2="239.27" xlink:href="#Áåçûìÿííûé_ãðàäèåíò_298"/><linearGradient id="Áåçûìÿííûé_ãðàäèåíò_298-10" x1="192.94" y1="81.64" x2="183.73" y2="309.39" xlink:href="#Áåçûìÿííûé_ãðàäèåíò_298"/><linearGradient id="Áåçûìÿííûé_ãðàäèåíò_298-11" x1="213.74" y1="141.15" x2="230.46" y2="431.37" xlink:href="#Áåçûìÿííûé_ãðàäèåíò_298"/><linearGradient id="linear-gradient-48" x1="87.48" y1="40.67" x2="123.13" y2="40.67" xlink:href="#linear-gradient-40"/><linearGradient id="Áåçûìÿííûé_ãðàäèåíò_2-2" x1="126.23" y1="36.18" x2="153.82" y2="36.18" xlink:href="#Áåçûìÿííûé_ãðàäèåíò_2"/><linearGradient id="Áåçûìÿííûé_ãðàäèåíò_298-12" x1="48.37" y1="164.8" x2="38.74" y2="203.76" xlink:href="#Áåçûìÿííûé_ãðàäèåíò_298"/><linearGradient id="Áåçûìÿííûé_ãðàäèåíò_298-13" x1="54.78" y1="220.61" x2="42.92" y2="307.85" xlink:href="#Áåçûìÿííûé_ãðàäèåíò_298"/><linearGradient id="Áåçûìÿííûé_ãðàäèåíò_298-14" x1="68.93" y1="30.39" x2="89.3" y2="306.78" xlink:href="#Áåçûìÿííûé_ãðàäèåíò_298"/><linearGradient id="Áåçûìÿííûé_ãðàäèåíò_298-15" x1="84.22" y1="7.42" x2="77.87" y2="138.2" xlink:href="#Áåçûìÿííûé_ãðàäèåíò_298"/><linearGradient id="Áåçûìÿííûé_ãðàäèåíò_298-16" x1="161.71" y1="11.12" x2="155.36" y2="141.98" xlink:href="#Áåçûìÿííûé_ãðàäèåíò_298"/><linearGradient id="Áåçûìÿííûé_ãðàäèåíò_298-17" x1="170.51" y1="13.05" x2="163.66" y2="154.14" xlink:href="#Áåçûìÿííûé_ãðàäèåíò_298"/><linearGradient id="Áåçûìÿííûé_ãðàäèåíò_298-18" x1="155.27" y1="145.45" x2="171.99" y2="435.6" xlink:href="#Áåçûìÿííûé_ãðàäèåíò_298"/><linearGradient id="Áåçûìÿííûé_ãðàäèåíò_298-19" x1="-321.61" y1="699.1" x2="-329.86" y2="963.36" gradientTransform="matrix(0.94, 0.11, -0.12, 0.99, 635.36, -635.15)" xlink:href="#Áåçûìÿííûé_ãðàäèåíò_298"/><linearGradient id="Áåçûìÿííûé_ãðàäèåíò_298-20" x1="209.68" y1="140.4" x2="226.66" y2="435.17" xlink:href="#Áåçûìÿííûé_ãðàäèåíò_298"/><linearGradient id="Áåçûìÿííûé_ãðàäèåíò_77-3" x1="112.37" y1="155" x2="95" y2="319.74" xlink:href="#linear-gradient-40"/><linearGradient id="Áåçûìÿííûé_ãðàäèåíò_298-21" x1="88.75" y1="148.77" x2="105.25" y2="435.16" xlink:href="#Áåçûìÿííûé_ãðàäèåíò_298"/><linearGradient id="Áåçûìÿííûé_ãðàäèåíò_298-22" x1="60.48" y1="140" x2="78.37" y2="450.49" xlink:href="#Áåçûìÿííûé_ãðàäèåíò_298"/><linearGradient id="Áåçûìÿííûé_ãðàäèåíò_298-23" x1="689.17" y1="-321.7" x2="707.06" y2="-11.22" gradientTransform="translate(-431.48 654.27) rotate(-16.8)" xlink:href="#Áåçûìÿííûé_ãðàäèåíò_298"/><linearGradient id="Áåçûìÿííûé_ãðàäèåíò_298-24" x1="284.19" y1="74.96" x2="300.65" y2="360.65" gradientTransform="matrix(1, -0.05, 0.05, 1.01, -86.87, 78.08)" xlink:href="#Áåçûìÿííûé_ãðàäèåíò_298"/><linearGradient id="Áåçûìÿííûé_ãðàäèåíò_6" x1="149.52" y1="180.85" x2="127.45" y2="61.71" gradientUnits="userSpaceOnUse"><stop offset="0" stop-color="#421f16"/><stop offset="0.45" stop-color="#52271d"/><stop offset="1" stop-color="#6b3329"/></linearGradient><linearGradient id="Áåçûìÿííûé_ãðàäèåíò_298-25" x1="54.48" y1="150.19" x2="71.31" y2="442.41" xlink:href="#Áåçûìÿííûé_ãðàäèåíò_298"/><linearGradient id="Áåçûìÿííûé_ãðàäèåíò_298-26" x1="201.95" y1="141.2" x2="218.74" y2="432.62" xlink:href="#Áåçûìÿííûé_ãðàäèåíò_298"/><linearGradient id="Áåçûìÿííûé_ãðàäèåíò_298-27" x1="35.88" y1="151.58" x2="53.06" y2="449.92" xlink:href="#Áåçûìÿííûé_ãðàäèåíò_298"/><linearGradient id="Áåçûìÿííûé_ãðàäèåíò_298-28" x1="98.4" y1="148.07" x2="115.16" y2="438.93" xlink:href="#Áåçûìÿííûé_ãðàäèåíò_298"/><linearGradient id="Áåçûìÿííûé_ãðàäèåíò_298-29" x1="68.04" y1="98.66" x2="71" y2="273.78" xlink:href="#Áåçûìÿííûé_ãðàäèåíò_298"/><linearGradient id="Áåçûìÿííûé_ãðàäèåíò_298-30" x1="329.87" y1="2.48" x2="438.29" y2="-92.18" gradientTransform="translate(-298 371.68) rotate(-10.96)" xlink:href="#Áåçûìÿííûé_ãðàäèåíò_298"/><linearGradient id="Áåçûìÿííûé_ãðàäèåíò_2-3" x1="69.84" y1="15.93" x2="161.74" y2="10.63" xlink:href="#Áåçûìÿííûé_ãðàäèåíò_2"/><linearGradient id="Áåçûìÿííûé_ãðàäèåíò_298-31" x1="174.62" y1="11.57" x2="168.26" y2="142.62" xlink:href="#Áåçûìÿííûé_ãðàäèåíò_298"/><linearGradient id="Áåçûìÿííûé_ãðàäèåíò_77-4" x1="89.01" y1="26.1" x2="202.4" y2="21.76" xlink:href="#linear-gradient-40"/><linearGradient id="Áåçûìÿííûé_ãðàäèåíò_298-32" x1="105.29" y1="25.27" x2="110.37" y2="76.09" xlink:href="#Áåçûìÿííûé_ãðàäèåíò_298"/><linearGradient id="Áåçûìÿííûé_ãðàäèåíò_298-33" x1="79.24" y1="148.77" x2="96.08" y2="440.99" xlink:href="#Áåçûìÿííûé_ãðàäèåíò_298"/><linearGradient id="Áåçûìÿííûé_ãðàäèåíò_298-34" x1="172.13" y1="28.61" x2="191.62" y2="292.88" xlink:href="#Áåçûìÿííûé_ãðàäèåíò_298"/><linearGradient id="Áåçûìÿííûé_ãðàäèåíò_361" x1="-14.94" y1="1116.08" x2="-14.25" y2="1116.08" gradientTransform="matrix(12.92, -1.21, -1.21, -12.92, 1702.92, 14515.98)" gradientUnits="userSpaceOnUse"><stop offset="0" stop-color="#f8c39c"/><stop offset="0.48" stop-color="#fcd0a9"/><stop offset="1" stop-color="#ffd9b3"/></linearGradient><linearGradient id="Áåçûìÿííûé_ãðàäèåíò_126" x1="-18.03" y1="1120.2" x2="-17.33" y2="1120.2" gradientTransform="matrix(12.79, 0.16, 0.16, -12.79, 130.43, 14440.06)" gradientUnits="userSpaceOnUse"><stop offset="0" stop-color="#ffd9b3"/><stop offset="0.52" stop-color="#fcd0a9"/><stop offset="1" stop-color="#f8c39c"/></linearGradient><linearGradient id="linear-gradient-49" x1="4184.42" y1="-290.28" x2="4194.96" y2="-290.28" gradientTransform="matrix(-0.94, 0.34, 0.34, 0.94, 4072.61, -1006.77)" xlink:href="#linear-gradient"/><linearGradient id="linear-gradient-50" x1="4160.23" y1="-261.27" x2="4169.12" y2="-261.27" gradientTransform="matrix(-0.94, 0.34, 0.34, 0.94, 4072.61, -1006.77)" xlink:href="#linear-gradient"/><linearGradient id="linear-gradient-51" x1="4160.21" y1="-250.38" x2="4169.34" y2="-250.38" gradientTransform="matrix(-0.94, 0.34, 0.34, 0.94, 4072.61, -1006.77)" xlink:href="#linear-gradient"/><linearGradient id="linear-gradient-52" x1="4160.09" y1="-237" x2="4169.02" y2="-237" gradientTransform="matrix(-0.94, 0.34, 0.34, 0.94, 4072.61, -1006.77)" xlink:href="#linear-gradient"/><linearGradient id="linear-gradient-53" x1="4138.62" y1="207.23" x2="4174.03" y2="236.85" gradientTransform="matrix(-1, 0, 0, 1, 4207.61, 0)" xlink:href="#linear-gradient"/><linearGradient id="linear-gradient-54" x1="4168.95" y1="-247.65" x2="4211.72" y2="-247.65" gradientTransform="matrix(-0.94, 0.34, 0.34, 0.94, 4072.61, -1006.77)" xlink:href="#linear-gradient-34"/><linearGradient id="linear-gradient-55" x1="4193.94" y1="-275.09" x2="4217.88" y2="-275.09" gradientTransform="matrix(-0.94, 0.34, 0.34, 0.94, 4072.61, -1006.77)" xlink:href="#linear-gradient-34"/><linearGradient id="linear-gradient-56" x1="4160.85" y1="-272.59" x2="4185.93" y2="-272.59" gradientTransform="matrix(-0.94, 0.34, 0.34, 0.94, 4072.61, -1006.77)" xlink:href="#linear-gradient-34"/><linearGradient id="linear-gradient-57" x1="4147.64" y1="224.8" x2="4179.58" y2="224.8" gradientTransform="matrix(-1, 0, 0, 1, 4207.61, 0)" xlink:href="#linear-gradient"/><linearGradient id="linear-gradient-58" x1="4206.25" y1="409.88" x2="4173.26" y2="320.77" gradientTransform="matrix(-1, 0, 0, 1, 4207.61, 0)" xlink:href="#linear-gradient-10"/><linearGradient id="linear-gradient-59" x1="4180.41" y1="255.18" x2="4204.9" y2="275.65" gradientTransform="matrix(-1, 0, 0, 1, 4207.61, 0)" xlink:href="#linear-gradient"/><linearGradient id="linear-gradient-60" x1="4192.51" y1="437.11" x2="4169.26" y2="287.91" gradientTransform="matrix(-1, 0, 0, 1, 4207.61, 0)" xlink:href="#linear-gradient-11"/><linearGradient id="linear-gradient-61" x1="4533.63" y1="-416.79" x2="4544.17" y2="-416.79" gradientTransform="matrix(0.94, 0.34, -0.34, 0.94, -4189.61, -1006.77)" xlink:href="#linear-gradient"/><linearGradient id="linear-gradient-62" x1="4509.43" y1="-387.77" x2="4518.32" y2="-387.77" gradientTransform="matrix(0.94, 0.34, -0.34, 0.94, -4189.61, -1006.77)" xlink:href="#linear-gradient"/><linearGradient id="linear-gradient-63" x1="4509.41" y1="-376.88" x2="4518.54" y2="-376.88" gradientTransform="matrix(0.94, 0.34, -0.34, 0.94, -4189.61, -1006.77)" xlink:href="#linear-gradient"/><linearGradient id="linear-gradient-64" x1="4509.3" y1="-363.5" x2="4518.23" y2="-363.5" gradientTransform="matrix(0.94, 0.34, -0.34, 0.94, -4189.61, -1006.77)" xlink:href="#linear-gradient"/><linearGradient id="linear-gradient-65" x1="4510.03" y1="207.23" x2="4545.44" y2="236.85" gradientTransform="translate(-4324.6)" xlink:href="#linear-gradient"/><linearGradient id="linear-gradient-66" x1="4518.15" y1="-374.16" x2="4560.93" y2="-374.16" gradientTransform="matrix(0.94, 0.34, -0.34, 0.94, -4189.61, -1006.77)" xlink:href="#linear-gradient-34"/><linearGradient id="linear-gradient-67" x1="4543.14" y1="-401.6" x2="4567.08" y2="-401.6" gradientTransform="matrix(0.94, 0.34, -0.34, 0.94, -4189.61, -1006.77)" xlink:href="#linear-gradient-34"/><linearGradient id="linear-gradient-68" x1="4510.05" y1="-399.1" x2="4535.14" y2="-399.1" gradientTransform="matrix(0.94, 0.34, -0.34, 0.94, -4189.61, -1006.77)" xlink:href="#linear-gradient-34"/><linearGradient id="linear-gradient-69" x1="4519.05" y1="224.8" x2="4550.99" y2="224.8" gradientTransform="translate(-4324.6)" xlink:href="#linear-gradient"/><linearGradient id="linear-gradient-70" x1="4577.66" y1="409.88" x2="4544.67" y2="320.77" gradientTransform="translate(-4324.6)" xlink:href="#linear-gradient-10"/><linearGradient id="linear-gradient-71" x1="4551.82" y1="255.18" x2="4576.31" y2="275.65" gradientTransform="translate(-4324.6)" xlink:href="#linear-gradient"/><linearGradient id="linear-gradient-72" x1="4563.92" y1="437.11" x2="4540.67" y2="287.91" gradientTransform="translate(-4324.6)" xlink:href="#linear-gradient-11"/></defs><g id="Layer_2" data-name="Layer 2"><g id="Stress_woman" data-name="Stress woman"><polygon class="cls-1" points="59.81 68.82 180.5 64.36 192.42 202.87 65.04 198.9 59.81 68.82"/><path class="cls-2" d="M221.41,220.16c-7.38-16.87-10-20.78-12.58-21-9.09-.88-51,.35-54.76-11.8-4.72-15.1-4.66-51-4.66-51l-50.74-2.1c3.7,9.64,2,50.31-3.55,58.57-5.82,8.65-26.93,4.88-40,6.33-7.17.79-24.37,45.05-16.49,56.53l174.15,5.26C227.67,243.88,229.19,238,221.41,220.16Z"/><path class="cls-3" d="M179.8,200.53a42.38,42.38,0,0,0,5.62-3c-21.06-2.73-27.41-6.32-28.94-7.36s-3.19-6.35-3.77-12.49c-.25-2.67-.64-9.38-.73-12.87-.74.9-46.95-.78-48.74-3.42l-5.37,0s1.59,17-.93,29.18c-.51,2.48-15.49,6-25.32,8,.71.55,3.23,2.25,3.79,2.55,8.41.83,15.65,1.81,19.09,1.22,4.2-.73,11.26-3.94,16.38-6.28,27.71-12.7,36.36-16.9,36.36-16.9,1.3,11.81,10,19.62,9.56,19.51C163.77,200.42,172.26,200.74,179.8,200.53Z"/><path class="cls-4" d="M135.66,217.69s-2.89-7.94-12.6-4.85C123.06,212.84,133,214.61,135.66,217.69Z"/><path class="cls-5" d="M136,210.9s2.79-7.21,6.67-8.17,45.38-1.67,50.41-2.65c0,0-17.69,3.44-28.73,4.72S144.65,204.16,136,210.9Z"/><path class="cls-6" d="M122.29,210.84s-2.69-5.53-7.46-7.14S73.57,199.84,67,200.48C67,200.48,113,205.1,122.29,210.84Z"/><path class="cls-7" d="M98,182.75s.26-21.18-1.49-28.63c0,0,54.74-7.85,57.2-7.63-1,6.1-1.46,23.53-1.46,23.53S129.84,192.87,98,182.75Z"/><path class="cls-8" d="M85.14,232.56l9.58,3.15s31.16-18.58,24.66-48.07l-13.61-3.1Z"/><path class="cls-9" d="M122.44,210.89s-2.81-5.78-7.81-7.46-43.17-4.05-50-3.37C64.59,200.06,112.76,204.88,122.44,210.89Z"/><path class="cls-10" d="M136.78,211s2.92-7.55,7-8.55,49-2.52,54.23-3.54c0,0-20,4.36-31.54,5.71S145.84,203.91,136.78,211Z"/><path class="cls-11" d="M39,257.75l13.63-8.37s-10.19,31.42-4,66C48.59,315.38,37.76,294.39,39,257.75Z"/><path class="cls-12" d="M35.28,258a11.91,11.91,0,0,1,1.22.93c9.72-4.84,16.08-8.34,16.08-8.34S45.91,253.71,35.28,258Z"/><path class="cls-13" d="M208.72,420.15c-4.62-25.42-8.48-65,1-91.1,6-16.56,10.66-39.08,10.66-39.08l17,55.69s11.54-116.12-3.16-141.56c-6.76-11.7-36.44-8.39-36.44-8.39s-10.79,19.34-68.28,18.88c-63.89-.51-69.25-18.88-69.25-18.88-7.64-1.6-25.29-.67-32.64,8.39C15.14,219.41,9.7,340.25,9.7,340.25l30.36-48.76a282.88,282.88,0,0,0,8.59,38.94C53.27,346.08,59.73,379.58,52,413c-.72,3.1-2,8.63-3.51,15.24H210.61C209.69,424.61,209,421.76,208.72,420.15Z"/><path class="cls-14" d="M210.28,420.54c-16.57-54.86-4.72-78.9-1.9-93.59C210.51,315.87,221,306,222,294.07c-2.92-.63-2.44-12.1-4.18-14.61-3.79,27.26-4.16,32.26-19.38,33.48-16.14,1.29-50.86,1-67.26,1.57s-52.75,1.28-67.49-3.8c-9.66-3.34-18.34-7-22.84-32.06-.79,10.1-1.9,8.42-1.45,13.92,1.23,15.27,4.33,18.85,9.26,37.86.72,2.78,12.09,28,4,79.85,67.48-2.87,105.91,2.46,139.31,17.94h20.57C211.59,425,210.83,422.37,210.28,420.54Z"/><path class="cls-15" d="M181.33,235.11c22.29,2.21,29.85,21.57,22.76,38.49-7.46,17.83-48.85,11-78.82,11.39-24.28.32-50.88,1.06-61.73-10.47s-11.87-26.17,6-32.64c13.58-4.92,29.28,5.65,56.13,5.75C146.63,247.71,159.52,233,181.33,235.11Z"/><path class="cls-16" d="M217.79,264.27c-5.78,71.14-32.63,67.58-42.67,67.85-29.17.79-67.72.13-89.05-.52-28-.86-33.1-7.84-33.1-7.84s-6-7.8-12-46.07c-1.86,33.48,15.8,81.67,14.55,100.57,14.3-7.24,33.8-8.82,84.13-6.19,44.53,2.32,68.39,40.67,68.39,40.67s-8.84-58.9-.29-73.74c2.48-4.3,10-23.66,12.18-44.06C220.46,291.36,217.79,264.27,217.79,264.27Z"/><path class="cls-17" d="M76.55,220.06S56.8,235,55.77,236.4s-.3,50.3,0,54.68c.8,11.52,12,46.05,10.24,54.67S54.79,392.1,54.79,392.1s3.88-32.27-8.19-51.29C37.55,326.54,36.37,222.7,36.37,222.7l30.92-16.36S73.15,215.78,76.55,220.06Z"/><path class="cls-18" d="M177.47,220s19.34,14.64,20.36,16,.3,50.3,0,54.67c-.79,11.52-12.75,42.11-11,50.73.92,4.52,3.77,17.56,8.19,27.67.6,1.37,10.57,23,10.57,23S202,351.82,211,337.5s6.29-115.16,6.29-115.16l-27.7-16.94S184.67,214.23,177.47,220Z"/><path class="cls-19" d="M153.48,162.41s-6.93,7.75-9.85,24.55,4.83,27.29,4.83,27.29l16.18-4.39Z"/><path class="cls-20" d="M97.79,176.39s19.19,12,21.84,23.22a31.85,31.85,0,0,1-2.32,20.55l-22.66-9.32Z"/><path class="cls-21" d="M150.23,216.45s-11.72,14.33-6.6,37.78,23.7,30.84,29.43,40.53-10.26,12.61-10.26,12.61,29.76-4.1,21-29.89-18-65.85-18-65.85Z"/><path class="cls-22" d="M92.55,210.65l25.82,7s-6.05,11.28-12.59,14.73c0,0,16.7,13.54,9.42,37.53-5.46,17.95-24.56,30-40.31,36Z"/><path class="cls-23" d="M79.52,202.85s17.42,11.28,52,11,50.59-8.27,50.59-8.27l2.78,7.17s-9.75,9.57-53.37,9.65c-44.06.07-55.06-12.8-55.06-12.8Z"/><path class="cls-24" d="M71.57,93.59c2.3,17.45,4.22,30.73,4.22,30.73-7.46,0-10.2-7.48-13.11-14.08-4.46-10.08-7.09-20.88,3.06-21.46C67.71,88.66,71.57,93.59,71.57,93.59Z"/><path class="cls-25" d="M70.22,118.45S66.56,114.59,67.7,107C70.37,89,58.21,87.81,61,100.06c0,0,1.68-5.78,3.22-4,1.89,2.12-2,3.29,0,12.55C65.2,113.37,70.22,118.45,70.22,118.45Z"/><path class="cls-24" d="M176,93.59c-2.3,17.45-4.22,30.73-4.22,30.73,7.46,0,10.2-7.48,13.11-14.08,4.46-10.08,7.09-20.88-3.06-21.46C179.89,88.66,176,93.59,176,93.59Z"/><path class="cls-26" d="M177.38,118.45S181,114.59,179.9,107c-2.67-17.94,9.49-19.17,6.73-6.92,0,0-1.68-5.78-3.22-4-1.89,2.12,2,3.29,0,12.55C182.4,113.37,177.38,118.45,177.38,118.45Z"/><path class="cls-27" d="M175.14,36c-6.5-14.87-21.77-20.17-44.37-21.6,0,0-51.61,6.73-58.12,21.6-7.08,16.19-5.05,38.93-3,53.8s6.07,39,9.78,45.83,22.48,24.77,26.53,27.8c3.79,2.84,8.64,7.65,18,7.65,8.34,0,14.93-5.07,18.62-8,4-3.12,22-21.38,25.74-28.2s7.83-30.24,9.85-45.12S182.23,52.14,175.14,36Z"/><path class="cls-28" d="M169.5,81.74a25.1,25.1,0,0,0-16.63-4c-23.7,2.06-23.34,22.31-25.56,33.82,29.09,9.88,46-8.11,46-8.11S178.3,87.64,169.5,81.74Z"/><path class="cls-29" d="M92.79,72.61C85.39,72.11,80.48,74,76.73,77c-8.74,7.14-2.34,27.24-2.34,27.24s17.08,20.27,46.08,7.81C118.16,98.81,116.51,74.18,92.79,72.61Z"/><path class="cls-30" d="M102.46,96.28c-6.65-2-32.43-7.41-31.2,1.15,2.71,18.93,5.19,31.95,8.48,37.84,3.45,6.18,13.59,15.9,18,16.64,6.78,1.15,14-23.79,14.12-32.33C112.05,107.62,109.12,98.27,102.46,96.28Z"/><path class="cls-31" d="M145.38,96.28c6.65-2,32.44-7.41,31.21,1.15-2.72,18.93-5.2,31.95-8.49,37.84-3.44,6.18-13.59,15.9-18,16.64-6.77,1.15-14-23.79-14.12-32.33C135.8,107.62,138.73,98.27,145.38,96.28Z"/><path class="cls-32" d="M125.13,153.94c-4.76.22-8.57,1.93-8.55,3.81s3.89,3.24,8.63,3,8.55-1.93,8.54-3.82S129.85,153.71,125.13,153.94Z"/><path class="cls-24" d="M69.88,91.64s4.75,34.45,9.17,44c1.43,3.12,14,16.26,22,23.76,0,0-16-16.22-20.28-27.2C77.14,122.79,69.88,91.64,69.88,91.64Z"/><path class="cls-24" d="M178,91.64s-4.75,34.45-9.16,44c-1.44,3.12-14.1,16.26-22.17,23.76,0,0,16.12-16.22,20.4-27.2C170.71,122.79,178,91.64,178,91.64Z"/><path class="cls-33" d="M158.09,83.07s41.18-64-35.08-64S88.47,82.84,88.47,82.84s9.61-53.76,36.42-52.91C124.89,29.93,138,30.67,158.09,83.07Z"/><path class="cls-34" d="M161.49,98.34s3.9,11.56,3.92,16.65c0,12-15.65,41.46-15.65,41.46s22.05-22.09,21.79-23.29,5.08-22.75,5.08-22.75l-10-16.47Z"/><path class="cls-35" d="M83.93,98.59s-3.57,9.8-3.59,14.89c0,12,16.38,41.75,16.38,41.75S73.94,132.85,74.2,131.65s-5.09-22.75-5.09-22.75l10-16.47Z"/><path class="cls-36" d="M93.91,83.07c15.92,0,17.39,9.73,17.72,16.75-1.2.27-2.47.5-4.84,1.23-3.19,1-6.94,2.57-12.34,2.52-4.25,0-13.41-2-13.54-11.1C80.81,85.24,90.06,83.39,93.91,83.07Z"/><path class="cls-37" d="M110.91,99.28c-3.48.49-5.8,1.68-8.21,2.34,1.88-1.74,3-3.3,2.82-6.16-.12-2.47-2-5.17-3.61-6.66C107.54,92.13,110.91,99.28,110.91,99.28Z"/><path class="cls-38" d="M110.91,99.28a27.71,27.71,0,0,0-5.53-4.61,7.86,7.86,0,0,0-3-4.83C107.53,92.34,110.91,99.28,110.91,99.28Z"/><path class="cls-39" d="M89.59,96.27a7.66,7.66,0,0,0,3.89,6.27C84.18,101.33,81.54,94,81.54,94c5.75-4.77,9.88-6.26,13.8-6.61A8.85,8.85,0,0,0,89.59,96.27Z"/><path class="cls-40" d="M105.4,94.47a9.93,9.93,0,0,1,.12,1c.21,2.76-.86,4.49-2.82,6.16-.66.31-6.49,1.5-10,.91-2.28-1.4-3.93-3.2-4.1-6.07a8.45,8.45,0,0,1,.84-4.2A17.9,17.9,0,0,1,105.4,94.47Z"/><path class="cls-38" d="M92.67,89.11a8,8,0,0,0-3.76,4.5,23,23,0,0,0-5.39,3.12L82,93.56C84.21,90.69,88.54,89.88,92.67,89.11Z"/><path class="cls-41" d="M92.67,89.11a20.51,20.51,0,0,1,7.49,0,8.63,8.63,0,0,1,2.21.76,7.67,7.67,0,0,1,3.06,4.83,18.77,18.77,0,0,0-7.9-2.55,18.39,18.39,0,0,0-8.67,1.51A7.77,7.77,0,0,1,92.67,89.11Z"/><path class="cls-42" d="M96.79,89.62a5.17,5.17,0,1,1-5,5.54A5.24,5.24,0,0,1,96.79,89.62Z"/><path class="cls-43" d="M98,92.66a1.54,1.54,0,0,0-2,.57,1.45,1.45,0,0,0,.49,2,1.52,1.52,0,0,0,2-.57A1.44,1.44,0,0,0,98,92.66Z"/><path class="cls-43" d="M102.76,94.81a2,2,0,0,0-2.73.69,2,2,0,0,0,.74,2.74,2,2,0,0,0,2.72-.69A2,2,0,0,0,102.76,94.81Z"/><path class="cls-44" d="M78,86.89s1.55,3.26,9.32.46c15-4.83,23.3,3.88,23.6,11.93,0,0-4.5-8.84-13-9.68-5.17-.51-9.65,1.62-14.11,4.05-.06,3.58,4.72,8,9.87,9-4.41,0-14.22-4.51-14.94-8.24a2,2,0,0,0,2.41.35S77,93.09,78,86.89Z"/><path class="cls-45" d="M101.54,83.82A14.55,14.55,0,0,1,109,89.35s-2.34-3.08-7.91-4.74c-5.78-1.73-13.76,0-13.76,0A19.81,19.81,0,0,1,101.54,83.82Z"/><path class="cls-46" d="M98.55,88.82a15.94,15.94,0,0,1,12.36,10.46,18.43,18.43,0,0,0-12.57-9.15c-5-.89-10.7,1.58-14.52,3.52C83.82,93.65,89.79,87.35,98.55,88.82Z"/><polygon class="cls-47" points="113.17 123.21 123.32 130.19 132.84 123.01 131.48 121.87 122.8 121.98 114.14 121.98 113.17 123.21"/><path class="cls-48" d="M113.47,123a11.91,11.91,0,0,1,7.22.23h4.13a13.27,13.27,0,0,1,8-.25l.17-1.87-3.29-.66-6.92,1.74-6.33-1.74-3.3.38Z"/><path class="cls-24" d="M112.15,115a4.75,4.75,0,0,0-2.05,3.72c-.31,3.11,2.91,4.81,3.4,4.48s-.41-2.67,2.56-2.25,2.82,1.91,3.3,2.42,5.71.64,6.59.08.64-2.59,3.45-2.5,2.89,2,3.29,2.25,2.07-1.25,2.55-4.1-2.52-4.1-2.52-4.1,1.52,2.54.87,4.16-5,.22-6.73,1.33c-3.26,2-5.24,1.53-8.48,0-2.13-1-5.12.25-6.31-1.5A5.39,5.39,0,0,1,112.15,115Z"/><path class="cls-49" d="M116.1,113.59a6,6,0,0,0,1,4.12c1.29,2,10.36,3.59,11.91-.94a11.06,11.06,0,0,0,.14-4.1C129,110.63,116.16,111.6,116.1,113.59Z"/><path class="cls-50" d="M109.88,142.16s5.87,6.68,7.79,7.58c5,2.35,16.5.36,18.58-1.74,3.06-3.09,5.76-9.38,5.76-9.38Z"/><path class="cls-51" d="M100.11,136.25c-1.34-.17-1.79-2-1.45-3.09s6.75,2.65,9.36,5.19A26.36,26.36,0,0,0,100.11,136.25Z"/><path class="cls-52" d="M148.94,131.36c1.79-1.05,1.88-2.59,1.3-3.54s-6,3.9-7.89,7A20.65,20.65,0,0,1,148.94,131.36Z"/><path class="cls-53" d="M102,134.59s20.85-1.74,21.87-1.92,24-3.12,24-3.12-8.28,10.21-9.24,11.55-11.68,5.21-13.51,5.07-11.69-3-13.38-3.95S102,134.59,102,134.59Z"/><path class="cls-54" d="M112.39,137.55l-.8,3.81s9.75,4.38,14.74,3.84,13.55-6.09,13.55-6.09l-2.35-4.33Z"/><path class="cls-55" d="M102,134.59s10.09,10.12,14.32,12.83,16.87,1.54,20.89-2.3c2.65-2.52,10.64-15.57,10.64-15.57s-10.08,10.9-13,12-13.81,1.83-16.62,1.77S102,134.59,102,134.59Z"/><path class="cls-56" d="M110.61,134.89a4.75,4.75,0,0,0,4.33,5c4.63.61,19.53-1.67,21.52-2.15,4.85-1.16,3.87-6.49,3.87-6.49Z"/><path class="cls-57" d="M117.5,145.3c.49-.82,6.11-2,9.22-2.12s7.2-.72,8.66.15-.72,3.78-8.14,4.53S116.29,147.32,117.5,145.3Z"/><path class="cls-58" d="M128.51,144.28c1.24-.58,6.12-1.51,7.42-2.43s2.85-1.82,2.85-1.82-1.56,3-3,3.84S127.27,144.87,128.51,144.28Z"/><path class="cls-59" d="M103.65,134.3s16.21-2.73,21.87-3.24S145,129.69,145,129.69s-12.51-1.41-19.79-.47S103.65,134.3,103.65,134.3Z"/><path class="cls-60" d="M110.61,134.89a4.88,4.88,0,0,0,.17,1.47s2.38.53,15-.63,14.62-2.53,14.62-2.53,0-1.35,0-1.65Z"/><path class="cls-55" d="M102,134.59s13.64-2.43,23.56-3.53c7.38-.81,22.29-1.51,22.29-1.51s-5.24,3.72-22.62,5.29C109.76,136.24,102,134.59,102,134.59Z"/><path class="cls-61" d="M109.29,134.34a118.34,118.34,0,0,1,15.84-2.78c8.47-.87,19.06-.72,19.06-.72a92.52,92.52,0,0,1-17.86,3.36A125.27,125.27,0,0,1,109.29,134.34Z"/><path class="cls-53" d="M100.86,135.09c.75.25,1.23-.35,4.15.36,0,0-5.06-2-5.35-1.79S99.76,134.73,100.86,135.09Z"/><path class="cls-53" d="M148.61,130.12c-.67.42-1.51,0-3.84,1.36,0,0,4.25-3.25,4.67-3C149.66,128.56,149.59,129.51,148.61,130.12Z"/><path class="cls-62" d="M155.51,85.15C137.42,84.66,136.36,101,136.36,101s7.95-4.57,16.93-3.9c4.1.31,10.88,2.88,12.75-.46C169.64,90.16,162.48,85.34,155.51,85.15Z"/><path class="cls-63" d="M166.21,95.05c4-1.39,3.36-6.91,3.4-7.12-.08,0-3.49,4.87-8.58,2.82-11.36-4.57-20.52,2.6-24,9.23,0,0,9.87-8.55,22.49-3.57,7.1,2.81,9.32-1.23,9.29-1.22A3.21,3.21,0,0,1,166.21,95.05Z"/><path class="cls-64" d="M139.08,93a16.27,16.27,0,0,1,7.7-6.69c4.56-1.82,11-2.65,16.32,1,0,0-6.75-3.65-15.82-.43C143.6,88.18,139.08,93,139.08,93Z"/><path class="cls-65" d="M159.79,73.75c-4.27-.27-15,2.73-18.28,4.06-1.5.83-2.32,2.21-1.95,4.75a3.31,3.31,0,0,1,.09-3.59c-2.49,2.28-2,5.88.89,4.75,3.3-1.29,16.32-5.58,19-5.77,4.2-.28,10.12,1,11.8,2C171.36,79.91,164.44,74,159.79,73.75Z"/><path class="cls-66" d="M96.72,155.23S109.6,166.17,111,167a22.81,22.81,0,0,0,12.79,3.85,21.13,21.13,0,0,0,13.25-4c2.06-1.38,12.58-10.21,13.58-11.17,0,0-8.35,9.82-11.54,12.45-5.21,4.29-11.33,6.56-15.16,6.56-4.83,0-8.78-3-12.92-5.29C106.48,166.81,96.72,155.23,96.72,155.23Z"/><path class="cls-67" d="M87.36,70.5c4.16-.44,14.79,2,18,3.2,1.5.74,2.35,2.06,2.1,4.55a3.25,3.25,0,0,0-.24-3.5c2.53,2.12,2.22,5.66-.67,4.68-3.27-1.13-16.17-4.76-18.81-4.83C83.66,74.51,77.93,76,76.33,77,76.33,77,82.84,71,87.36,70.5Z"/><path class="cls-68" d="M121.39,26.63l6.1-24.31s-7.72-2.49-21.35,0c-22,4-45.82,37.5-50.74,48.25S43,95.71,43.46,102.17s-3,47.88-4.74,59.77-5.22,31.75,2.09,59.94c0,0-16.9,53.26,31.38,71.81,0,0-1,9.81-16.08,13.24,0,0,65.28-8.64,31-75.52,0,0,30.06-7,19-38.22S82.6,152.46,82.6,152.46s-12.36-44.73-9.1-50.84C98,55.8,68,20.08,121.39,26.63Z"/><path class="cls-69" d="M127.49,3.59s8-4.69,27.54,2.09,34.94,44.86,39.6,56.8,6.9,65.07,6.9,65.07,15.25,31.86,17.85,44.56S217,201.75,217,201.75s-7,16.3-7,29.83,8.54,36.41-13.17,56.52C181,302.83,174.1,302.83,174.1,302.83s18.84-12.08,12-24.38-25.92-17-16.14-52.2c0,0-19.46-31.43-17.29-45.49S171.81,131,173.31,106.1c0,0-18.54-93.42-45.82-86.95Z"/><path class="cls-70" d="M85.43,208.88s28.23,40.85,17.18,59C86,295.15,65.2,289.55,65.2,289.55s16.73-10,12.77-35.4S65.2,224,65.2,224Z"/><path class="cls-71" d="M123.13,28.33S99.07,17.48,91,35.23s2.81,46.52-12.82,64.7S33.53,130.61,29.46,137.5c0,0,12.8-23.13,14-33.2s2.6-36.45,6.79-46.77S58.62,33.31,75,17.84c10.54-10,28.52-21.9,52.54-15.52Z"/><path class="cls-72" d="M126.27,27.68,124.54,17l2.95-14.69S146-3,164.08,7.84,192,44.43,195.59,60.7c6.57,29.56,5.94,50.84,16.8,74.85-8.54-10.91-40.54-27.55-43.26-39S156.07,54.69,154.82,48.2,147.46,22.16,126.27,27.68Z"/><path class="cls-73" d="M69,120.08s25.44,36,26.44,58.23S68.19,223.16,64.3,233.83c-16,44.13,12.8,61.32,12.8,61.32s-52.44-9.33-36.29-59.94c3.24-10.16,13.11-37.39,15.3-55.52s-5.34-50.19-5.34-50.19Z"/><path class="cls-74" d="M41.68,132.77s-4.49,21.18-12.79,40-17.78,41.47,9.83,63.83c0,0-7.76-12.36,0-38.52,4-13.52,30.83-25.13,27.61-43.24a334.49,334.49,0,0,0-7.65-33Z"/><path class="cls-75" d="M180.34,185.6S152,214.49,152.89,250c.36,14.81,27.47,35.7,23.9,45s-13.22,12.16-13.22,12.16S191,307.7,192,288.5s-3.48-32.64-3.48-32.64l15.11-46.22Z"/><path class="cls-76" d="M196.34,179s19,27,23,41.38,11.25,28.19,4.7,37.74-31.37,32.69-3.91,41.06c0,0-29.53,7-36-25.23-5.47-27.26,4.26-58.17,5-60.73S196.34,179,196.34,179Z"/><path class="cls-77" d="M176.63,121.87s-22.81,33.36-19,45.41c5.27,16.74,34.38,35.14,31.27,49.23s-6.18,20.85-1,35.18c9.11,25.09,44.18,25.68,44.18,25.68s-33.21-.8-31.4-36.61c.75-15,19.1-28.62,18.82-40.36s-37.29-46.55-31.77-69.47Z"/><path class="cls-78" d="M180.65,139.12c-4.64,11.49-10.7,24.78-5.44,37.1,5.47,12.81,19.42,22.72,18.39,37.91-.38,5.54-2.11,11-2.73,16.53-.8,7.19-.94,14.8,1.45,21.72,3.35,9.67,15.76,20.88,26.2,21.71-5.53.91-11.05-1-15.71-3.9-5.56-3.42-11-6.66-14.56-12.35-7.95-12.66-5.81-28.07-3.77-42,1.83-12.51-10.18-22.93-14.75-33.7C163.08,166.48,171.07,151.5,180.65,139.12Z"/><path class="cls-79" d="M90.44,243.88c6.9,13.19,15.57,29.59,7.38,44.22s-26.68,22.69-43,18.83c13.05-2.2,24.41-8.52,32.46-19.06C97.45,274.53,90.32,259,90.44,243.88Z"/><path class="cls-80" d="M170.39,123.8c.08,9-1.2,19.49-4.51,27.9-3.85,9.81-8.06,19.41-8.7,30.09-1.19,19.78,9.4,38.23,22.35,52.4-16.58-9.29-29.83-27.45-31.17-46.66-.79-11.24,2.47-22.16,7.8-32,2.7-5,5.89-9.68,8.36-14.79S168.44,129,170.39,123.8Z"/><path class="cls-81" d="M168.69,237.74a155.84,155.84,0,0,0,4.66,15.1c2.54,6.52,6.5,12.26,9.2,18.68a42.8,42.8,0,0,1,3.33,16.15c-.08,7-5.13,11-10.56,14.45,2.57-4.67,5.7-9.14,4.06-14.64a79.49,79.49,0,0,0-4.45-11.6c-2.81-5.85-6.17-11.22-7.54-17.66A37.39,37.39,0,0,1,168.69,237.74Z"/><path class="cls-82" d="M126,10.08c-20.49-15.74-45.4,5.43-57.59,20.59-8.24,10.25-14.86,23.65-22.11,34.6-3.39,5.11-8.14,10.2-9.8,16.22-1.86,6.76.24,13.86,2.28,20.32-.93-4.64-1.88-9.44-1.51-14.19.47-6.09,3.6-10.11,7.34-14.68,8-9.77,15.05-20.28,22.79-30.25C81.06,25.1,100.87.86,126,10.08Z"/><path class="cls-83" d="M75.5,73.71c-3.14,4.37-5.34,9.46-8.27,14a92.56,92.56,0,0,1-15,17.9c-9.19,8.39-34,18.43-27,34.87-3.37-15.33,17.22-21.23,26.47-28.08C64,103.22,73.61,89.17,75.5,73.71Z"/><path class="cls-84" d="M45.86,135.28c-4.11,7.38-7.69,15.25-12.45,22.23-5.69,8.33-13.67,16.6-14,27.28,3.1-8.78,10.1-14.66,15.9-21.64a44.83,44.83,0,0,0,7.25-11.88C44.36,146.87,47,140.1,45.86,135.28Z"/><path class="cls-85" d="M197,136c4.1,7.38,7.68,15.25,12.44,22.23,5.69,8.33,13.68,16.6,14,27.28-3.1-8.78-10.1-14.67-15.89-21.64A44.86,44.86,0,0,1,200.23,152C198.45,147.63,195.8,140.86,197,136Z"/><path class="cls-86" d="M61.3,156.32c-8.38,8.34-11,22.35-10.91,33.67a66.48,66.48,0,0,0,15.24,41.59c-5.24-10.42-8.81-21.14-9.84-32.84C54.48,184,57.39,170.4,61.3,156.32Z"/><path class="cls-87" d="M186.73,139a33,33,0,0,0-8.88,17.15c-1.6,9.76,4.31,17.07,9.41,24.67a59.91,59.91,0,0,1,8.35,48.22,54.81,54.81,0,0,0-.64-44.64c-3.26-7-9.06-12.56-11.81-19.73C179.85,156.07,183.82,147.18,186.73,139Z"/><path class="cls-88" d="M221.67,240.8c-.3,7.16,1.37,14.06,1.12,21.33A54.52,54.52,0,0,1,214.37,290C227.68,278.27,234.36,255.29,221.67,240.8Z"/><path class="cls-89" d="M123.13,28.33S98.4,24.19,87.48,58.83c0,0-.17-29,12-33.64C107,22.32,117.2,19.88,123.13,28.33Z"/><path class="cls-90" d="M126.27,27.68s-.39-.82,1.22-3.77c2.71-5,25.17-1.82,26.33,26.48C147.27,27.25,126.27,27.68,126.27,27.68Z"/><path class="cls-91" d="M35.69,203.71c-7,4.23-10.84,14.87-11.84,22.46-1.37,10.53,2.5,22.39,12,28C22.26,239.44,30.58,220.05,35.69,203.71Z"/><path class="cls-92" d="M46,252.35c-7,5-8.64,16.79-7.9,24.65a39.79,39.79,0,0,0,15.37,27.55C42,288.94,41.22,270.56,46,252.35Z"/><path class="cls-93" d="M122.38,17.61c-12.13-.74-25,1.44-31.33,25.67C88,55,90.82,66.89,88.82,78.71A57.84,57.84,0,0,1,72,110.47C62.89,119.2,51,122.74,40.57,129.29c-13,8.17-17.68,22.32-12.46,36.94C20.75,154.08,22,138.61,32,128.4c5.95-6.1,13.62-9.91,20.86-14.22,7.51-4.46,14.09-9.94,19-17.22A55,55,0,0,0,80.65,75.6c1.36-7.73,1.24-15.54,1.73-23.37C83.82,29.5,98.14,8.78,122.38,17.61Z"/><path class="cls-94" d="M122.38,17.61C100.4,11.14,81.09,33.09,77.17,53,74.77,65.26,67.53,72.73,58,80.14c-4.42,3.41-9.21,7-11.92,12-2.93,5.43-3.37,12.46-4.54,18.44-.7-10.14-1.35-19.69,5.15-28.21,4-5.28,9.29-9.41,13.69-14.35C65,62.76,69.58,57.77,71.21,51.06,78.17,22.51,101.76,3.49,122.38,17.61Z"/><path class="cls-95" d="M125.08,19.25C144.66,7.85,161.32,40.16,165,54.74c2.8,11,2.38,22.58,5.54,33.51,3,10.4,10.82,21.39,22.58,22.1-11.82-2.22-18-14.13-19.88-25-2.34-13.75-1.18-27.44-6.13-40.76a55.16,55.16,0,0,0-14.38-21.33C145.9,16.88,132.8,9.69,125.08,19.25Z"/><path class="cls-96" d="M127.31,12.84c20.7-7.23,38.44,9.94,51.56,23.28,7.93,8.07,16.82,20.38,21.58,31.81s.78,22.95,9,33.12c-5.84-10.17-2.54-18.21-4.51-29.6-1.07-6.13-4.65-14.12-8.9-20.67C192.66,45.57,190.22,41,186,36.43c-8.23-8.78-16.57-17.89-27.2-23.8C149.34,7.39,136.76,5.24,127.31,12.84Z"/><path class="cls-97" d="M162.55,211.23c-9.47,9.78-13.65,25.42-13.28,38.9.53,19.06,15.48,29.82,26.58,43.33-7-12-18.3-22.37-20.91-36.46C152,240.82,157.76,226.21,162.55,211.23Z"/><path class="cls-98" d="M211.66,177.79c4.59,9.38,9.26,18.91,12.55,28.94,4,12.12,2.13,24.37,0,36.76,4.2-10.42,7.77-21.78,5.79-33.14-1.13-6.51-3.81-12.57-6.85-18.3C220.25,186.65,217,180.89,211.66,177.79Z"/><path class="cls-99" d="M205.23,238.76c-6,7.08-3.82,18.69.32,26,6.13,10.88,14.69,13.44,26.53,12.58-8.77-1.89-15.48-4.12-20.51-12.14S205,248.21,205.23,238.76Z"/><path class="cls-100" d="M93.43,223.25c3.28,8.84,10.14,18.79,13.3,27.87,4.22,12.16-.31,23.47-7.8,33.27,8.6-7,15.21-17,14-28.5C111.55,243.42,103.34,230.14,93.43,223.25Z"/><path class="cls-101" d="M74,114.54c-1.84,15.1.83,21.68,5.76,29.71,6.84,11.16,14.72,21.82,24.5,30.6-6.2-8.92-11.63-18.25-17-27.67C81.32,136.9,78.48,137.5,74,114.54Z"/><path class="cls-102" d="M79.53,270.8c-1.23,7.51-3.8,14-6.15,19.76C70.38,298,66,304.73,58,306.49,76.53,309.15,83.13,285.54,79.53,270.8Z"/><path class="cls-103" d="M191.31,266.76c1,7.55.4,14.46-.17,20.7-.73,8-2.94,15.69-10.11,19.69C199.52,304.35,199,279.83,191.31,266.76Z"/><path class="cls-104" d="M38,248.51c-2.72,9.67,1.65,22,6.56,30.2,6.61,11.07,17.8,19.61,30.75,21.4C53.19,291.27,44.85,269.56,38,248.51Z"/><path class="cls-105" d="M219.38,220.37c12,29.35,8.34,32.44-.52,45.33-4.4,6.39-9.11,10.38-10.4,17.45-1.55,8.47,3.2,13,11.71,16-10.75-1.13-16.24-5.56-18.23-15-1-4.83-.9-9.88,1.4-14.31,2.14-4.14,5.54-7.48,8-11.42C218.63,246.74,221.49,234.13,219.38,220.37Z"/><path class="cls-106" d="M58.73,38.41S83.37-11.15,127.49,2.32c0,0,37.39-13,59.55,33.45,0,0-24.94-39.39-60.62-29.18C126.42,6.59,99.66-12.29,58.73,38.41Z"/><path class="cls-107" d="M71.82,283.44a72.64,72.64,0,0,1-30.4-24.72c-8.91-13-5.94-32.9,3.07-44.58,4.47-5.8,12.47-8.23,17.42-13.55a43.92,43.92,0,0,0,8.57-13.52c6.67-16.47,1.6-32.16-5.91-47.28,8.14,10.1,14.69,21.54,15,34.83.29,14.69-6.36,27.52-16.93,37.35-10,9.28-20.53,22.48-17.74,37.28,1.27,6.75,6.41,12.85,10.62,18A104.49,104.49,0,0,0,71.82,283.44Z"/><path class="cls-108" d="M187.78,141.6a61.51,61.51,0,0,0,11,20.18,214.81,214.81,0,0,1,15.51,21.4,37.56,37.56,0,0,1,5.41,25.49c-1.56,9.92-9.69,17.63-17.14,23.7,3.35-5.62,7.49-10.54,9.18-16.94,2.33-8.8,1.22-15.57-1.73-23.73-1.54-4.25-5.76-10-8.18-13.83s-5.27-7-7.64-10.69C189.46,159.79,186.81,150.37,187.78,141.6Z"/><path class="cls-109" d="M52.52,135.45c1.85,18.56-9.4,35.14-17.08,51.09-3.48,7.23-6.61,14.93-7.25,23-.7,8.79,4.45,18.6,9,25.81-6.11-4.81-12.54-12.9-14.63-20.54-2.34-8.56-.61-18,2.38-26.16C31.86,169.74,46.29,154.71,52.52,135.45Z"/><path class="cls-110" d="M94.66,172.41c2.73,10.31,11.85,18,15.23,28.07,2.74,8.19.46,16.29-4.71,22.77-4.26,5.32-9.34,9.86-16.05,12.11,6.18-.73,11.62-4,16.05-8,5-4.59,9.53-10.68,10.62-17.67C118,195.28,104,181.7,94.66,172.41Z"/><path class="cls-111" d="M61.74,127.55c4.34,8.8,9.64,17,13.52,26,5,11.78,9.12,24.7,10.11,37.54.92,11.77-4.2,21.5-12,30.05s-20.49,16-23.62,27.93c3.93-9.42,13.23-14.67,20.73-21,9.41-7.86,18.23-17.69,19.63-30.38,1.44-12.91-2.84-27.14-7.8-38.92A99.9,99.9,0,0,0,61.74,127.55Z"/><path class="cls-112" d="M84.45,226.12c-5.49,13.72-9.66,27.16-17.2,39.55-8.87,14.57-24.2,26.44-41.07,28.95C42.25,294.55,57.23,287,67.84,275c5.58-6.3,8.64-13.68,11.07-21.65C81.61,244.49,84,235.4,84.45,226.12Z"/><path class="cls-113" d="M125.08,13.55A20.07,20.07,0,0,0,109.9,8.94C101,10.13,92.81,15.43,88.24,19.6,88.24,19.6,104.8,5.64,125.08,13.55Z"/><path class="cls-114" d="M129.16,12.29c30.48-7.77,46.29,23,53.9,45,2.46,7.12,4.51,14.55,7,21.65,2.46,7,8.32,12.25,13.22,17.66,4.74,5.23,9.68,10.81,11.23,17.92,1.71,7.81-3.7,14.52-2.64,22.08-2-5.11.26-10.86-.16-16.13-.55-6.79-5.21-12-10-16.37-5-4.58-10.17-8.78-13.8-14.58-4-6.36-6.06-13.62-8.13-20.75C172.74,44.38,159.11,8.78,129.16,12.29Z"/><path class="cls-115" d="M126.23,20.61s6.16-4.25,13.43-1.76S149,25,153.09,29.92C153.09,29.92,140.22,15.2,126.23,20.61Z"/><path class="cls-116" d="M93.73,31s8.78-15,24.5-7c0,0-17.92-4.33-24.92,12.18Z"/><path class="cls-117" d="M87,164.78C99.7,175.11,107.72,190.89,101.2,207c-7,17.37-24.34,25.66-38.13,36.76,7-12.49,18.95-21.33,26.44-33.51,4-6.54,6.64-13.8,5.87-21.57C94.55,180.25,90.52,172.38,87,164.78Z"/><path class="cls-118" d="M130.61,21.88c9.45-4.8,21.72,10.13,25.08,17.32,5.35,11.46,6.14,25,9.53,37.12s8.21,24.15,16.63,33.66c7.77,8.77,26.42,12.59,34.29,21.27,9.71,10.73,4.63,28.34,3.15,42.32-1-11-.57-28.12-7.39-37-7.58-9.88-23.63-9.64-32.91-17.6-19.67-16.88-23.07-43.81-26.29-67.9-.91-6.8-2.49-13-6.53-18.65C142.86,27.8,137.22,20.34,130.61,21.88Z"/><path class="cls-119" d="M159.34,106.12c-2.44.65-4.15,2.37-3.83,3.83s2.55,2.13,5,1.48,4.15-2.36,3.83-3.83S161.77,105.47,159.34,106.12Z"/><path class="cls-120" d="M85.88,106.12c-2.43-.53-4.62.21-4.88,1.68s1.48,3.09,3.91,3.63,4.63-.21,4.9-1.67S88.32,106.67,85.88,106.12Z"/><path class="cls-13" d="M27.61,253.89c4.3,2.58,8.72,6.5,14.84,6.29.7,13.87,3.12,29.12,4.53,34.76,2.77,11,15.16,38.91,12.92,50.72-2.69,14.19-10.18,42.13-23.07,41.51-21.2-1-34.1-52.41-35-59.7-.72-5.76,7.43-36.17,9.59-73.58C15.93,256.21,22.89,251.53,27.61,253.89Z"/><path class="cls-2" d="M21.21,189.46c.22-.82,4.15-18.08,4.26-23s3.2-25.25,3.31-25.69-2.66-6.92-1.92-8.14,3.05-3.43,6.15,0,5.61,9.56,6.22,15.91-.35,9.13,1.35,11,14.76-2.35,16-2.83,9.78-2.22,12.1,0a7.59,7.59,0,0,1,2.52,5.62c-.19,1.48-.39,3.11-.39,3.11s1.69,1,2.17,1.32,1.84,5.22,2.1,6.06a5.57,5.57,0,0,1-.43,2.58,5.79,5.79,0,0,1,1.81.93c.8.63,3.4,6.23,2.73,7.83s-1.4,3.22-1.4,3.22,1.47.91,1.6,1.27,1.31,3.4,1.56,4.51S73.81,206,72.65,207.09s-20,10.44-24,11.78c-8.91,3-10.32,3.07-10.32,3.07l-22-12.7c.5-3.51,1-7,1.52-10.47C19.3,195.1,20.74,191.3,21.21,189.46Z"/><path class="cls-121" d="M32.33,132s4.25,3.53,6.23,11.24.79,10.36,1.36,13.48c.31,1.66.66,2.9,2.06,3.38,0,0-5.74,3.71-7.13,2.69s-2.4-9.5-2.23-10.5S37,145.38,32.33,132Z"/><path class="cls-122" d="M73,166.8a22.74,22.74,0,0,0-3.92.68c-2.25.58-4.95,1.33-5.08.58s6.15-4.41,7.22-5.69a29,29,0,0,1-.39,3.11A8.62,8.62,0,0,1,73,166.8Z"/><path class="cls-123" d="M74.77,171.77s-5.77,8.5-6.33,9.11,8-4.52,8-4.52a3.93,3.93,0,0,0-1.81-.92A3.69,3.69,0,0,0,74.77,171.77Z"/><path class="cls-124" d="M79.29,183.8a9.38,9.38,0,0,1-1.48,3.65s1.29.38,1.59,1.24c0,0-5,5.56-6,5.11S79.29,183.8,79.29,183.8Z"/><path class="cls-125" d="M79.63,196.25s-3.22,7.33-7.53,11.45c-1.74,1.66-13.6,7.35-17.16,8.21,8.75-4.8,15.35-10.08,16.65-11.51S79.63,196.25,79.63,196.25Z"/><path class="cls-126" d="M57.85,164.47c-1.5-2-7-3.65-12.7.64S28,193.87,28,193.87l7.88,16.76s33.85-5.43,36.12-7.2,3.39-5.45.25-8.16c-1.29-1.12-3.64-.48-3.64-.48s3.68-4.74,2.73-6.83c-2.18-4.81-7.72-2.72-7.72-2.72S66,180,66.37,179c.94-2.78-1-5.41-1.88-6.14s-7.4.92-7.4.92S60.23,167.6,57.85,164.47Z"/><path class="cls-127" d="M28.44,142.82S26,160,25.48,163.27c-.29,1.91-2.61,19.52-4.89,28.16,0,0,8.71-10.93,9.54-17.83S28.44,142.82,28.44,142.82Z"/><path class="cls-128" d="M68.69,156.75s-1.37-1.76-6.23-1.59c-2.06.07-19.26,4.89-19.26,4.89S66,156.42,68.69,156.75Z"/><path class="cls-129" d="M28.78,140.81,26.05,133h2.19S31.81,139.53,28.78,140.81Z"/><path class="cls-2" d="M11.37,219.1c.47-4.44,3.46-14.92,6.46-20.33,9.72-3.82,35.33,17.17,35.33,17.17C49.35,218.7,42,222.16,42,225.85c0,11.75-.15,20.73.48,34-15.1,2.13-26.74-3.66-31.09-6C11.37,244.93,10.28,229.33,11.37,219.1Z"/><polygon class="cls-2" points="25.47 166.5 13.25 210.63 30.29 188.81 25.47 166.5"/><path class="cls-130" d="M60,214s-20.59,6.37-25.55,7.23c-5.34.91-6.38.86-6.38,4S42,235.57,42,235.57s0-10.36,1.42-11.44C46,222.14,60,214,60,214Z"/><path class="cls-131" d="M6.38,297.33S-.6,327,0,332.42c1.3,11.05,11,41.58,24.72,51.71,3.66,2.69,14.38,5.57,19.77,2,2.06-1.37,5.26-9.27,6.84-12.35-1.72,1.71-4.91,8.56-10.32,9.41-2.45.39-12.57-1.7-14.66-3.74C17.05,370.29,7.24,341,5.59,329,3.87,316.4,6.38,297.33,6.38,297.33Z"/><path class="cls-132" d="M42.33,256.87l.12,3.31S29.94,264,11.39,253.89v-3.25S27.42,260.34,42.33,256.87Z"/><path class="cls-133" d="M43.82,373.17c-2.87,7.28-11.18,1.61-13.38-2.1S22.71,360.71,21,349s-1-80.2-1-80.2,13.29,2.28,18.24,1.05c0,0,.77,23,2.78,36.17s8.73,28.91,9.2,35.71S48.84,360.45,43.82,373.17Z"/><path class="cls-13" d="M226.81,253.89c-4.31,2.58-8.73,6.5-14.85,6.29-.69,13.87-3.11,29.12-4.53,34.76-2.77,11-15.15,38.91-12.92,50.72,2.7,14.19,10.18,42.13,23.07,41.51,21.2-1,34.11-52.41,35-59.7.73-5.76-7.42-36.17-9.59-73.58C238.48,256.21,231.52,251.53,226.81,253.89Z"/><path class="cls-2" d="M233.2,189.46c-.22-.82-4.15-18.08-4.26-23s-3.2-25.25-3.3-25.69,2.65-6.92,1.92-8.14-3.05-3.43-6.16,0-5.61,9.56-6.22,15.91.35,9.13-1.34,11-14.76-2.35-16-2.83-9.79-2.22-12.1,0a7.61,7.61,0,0,0-2.53,5.62c.19,1.48.39,3.11.39,3.11s-1.69,1-2.17,1.32-1.84,5.22-2.1,6.06a5.57,5.57,0,0,0,.43,2.58,5.79,5.79,0,0,0-1.81.93c-.8.63-3.4,6.23-2.72,7.83s1.4,3.22,1.4,3.22-1.48.91-1.6,1.27-1.31,3.4-1.57,4.51,7.15,12.78,8.31,13.89,20,10.44,24,11.78c8.91,3,10.32,3.07,10.32,3.07l22-12.7c-.5-3.51-1-7-1.53-10.47C235.12,195.1,233.68,191.3,233.2,189.46Z"/><path class="cls-134" d="M222.08,132s-4.24,3.53-6.23,11.24-.79,10.36-1.36,13.48c-.31,1.66-.65,2.9-2.06,3.38,0,0,5.75,3.71,7.13,2.69s2.4-9.5,2.23-10.5S217.42,145.38,222.08,132Z"/><path class="cls-135" d="M181.42,166.8a22.74,22.74,0,0,1,3.92.68c2.25.58,4.95,1.33,5.08.58s-6.14-4.41-7.22-5.69a29,29,0,0,0,.39,3.11A8.62,8.62,0,0,0,181.42,166.8Z"/><path class="cls-136" d="M179.64,171.77s5.78,8.5,6.33,9.11-8-4.52-8-4.52a3.93,3.93,0,0,1,1.81-.92A3.71,3.71,0,0,1,179.64,171.77Z"/><path class="cls-137" d="M175.12,183.8a9.58,9.58,0,0,0,1.48,3.65s-1.28.38-1.58,1.24c0,0,5,5.56,5.94,5.11S175.12,183.8,175.12,183.8Z"/><path class="cls-138" d="M174.78,196.25s3.22,7.33,7.54,11.45c1.73,1.66,13.59,7.35,17.16,8.21-8.75-4.8-15.36-10.08-16.66-11.51S174.78,196.25,174.78,196.25Z"/><path class="cls-139" d="M196.56,164.47c1.51-2,7-3.65,12.71.64s17.12,28.76,17.12,28.76l-7.88,16.76s-33.86-5.43-36.13-7.2-3.38-5.45-.25-8.16c1.29-1.12,3.64-.48,3.64-.48s-3.68-4.74-2.73-6.83c2.19-4.81,7.72-2.72,7.72-2.72s-2.37-5.24-2.71-6.26c-1-2.78,1-5.41,1.87-6.14s7.41.92,7.41.92S194.19,167.6,196.56,164.47Z"/><path class="cls-140" d="M226,142.82s2.49,17.22,3,20.45c.28,1.91,2.6,19.52,4.88,28.16,0,0-8.71-10.93-9.53-17.83S226,142.82,226,142.82Z"/><path class="cls-141" d="M185.73,156.75s1.36-1.76,6.22-1.59c2.06.07,19.26,4.89,19.26,4.89S188.41,156.42,185.73,156.75Z"/><path class="cls-129" d="M225.64,140.81l2.72-7.84h-2.18S222.61,139.53,225.64,140.81Z"/><path class="cls-2" d="M243,219.1c-.47-4.44-3.45-14.92-6.46-20.33-9.72-3.82-35.32,17.17-35.32,17.17,3.8,2.76,11.17,6.22,11.17,9.91,0,11.75.16,20.73-.48,34,15.11,2.13,26.74-3.66,31.09-6C243,244.93,244.14,229.33,243,219.1Z"/><polygon class="cls-2" points="228.94 166.5 241.16 210.63 224.12 188.81 228.94 166.5"/><path class="cls-142" d="M194.45,214S215,220.41,220,221.27c5.34.91,6.39.86,6.39,4s-13.94,10.29-13.94,10.29,0-10.36-1.42-11.44C208.45,222.14,194.45,214,194.45,214Z"/><path class="cls-143" d="M248,297.33s7,29.67,6.34,35.09c-1.3,11.05-11,41.58-24.72,51.71-3.66,2.69-14.38,5.57-19.77,2-2-1.37-5.26-9.27-6.84-12.35,1.72,1.71,4.91,8.56,10.32,9.41,2.45.39,12.58-1.7,14.67-3.74,9.33-9.13,19.15-38.38,20.79-50.42C250.54,316.4,248,297.33,248,297.33Z"/><path class="cls-144" d="M212.08,256.87l-.12,3.31S224.47,264,243,253.89v-3.25S227,260.34,212.08,256.87Z"/><path class="cls-145" d="M210.59,373.17c2.87,7.28,11.18,1.61,13.38-2.1s7.73-10.36,9.43-22.11,1-80.2,1-80.2-13.3,2.28-18.25,1.05c0,0-.77,23-2.78,36.17s-8.73,28.91-9.19,35.71S205.57,360.45,210.59,373.17Z"/></g></g></svg>