<svg width="172" height="165" viewBox="0 0 172 165" fill="none" xmlns="http://www.w3.org/2000/svg">
<path d="M111.953 27.0999L65.878 25.3977L61.328 78.3881L109.958 76.8687L111.953 27.0999Z" fill="url(#paint0_linear_620_1190)"/>
<path d="M44.3042 84.139C47.1251 77.677 53.7866 77.0116 54.7834 76.9113C58.2653 76.5746 72.1828 77.0454 73.6334 72.3888C75.4388 66.5811 75.417 52.807 75.417 52.807L96.9472 51.9956C94.5038 56.0782 94.2719 71.1792 98.3067 74.4693C101.403 76.9947 108.612 76.3403 113.637 76.8954C116.382 77.1933 124.471 79.5052 126.716 87.7419C128.534 94.4066 128.724 103.597 128.167 112.324H40.5191C40.1089 101.678 41.3425 90.9725 44.3042 84.139Z" fill="#F7D4AB"/>
<path d="M55.1074 161.524C56.8711 151.798 58.3484 136.655 54.7259 126.666C53.0756 121.767 51.7155 116.774 50.6525 111.714L41.3385 133.415C41.3385 133.415 39.762 88.593 45.3772 78.8557C47.9534 74.3868 59.2838 75.6491 59.2838 75.6491C59.2838 75.6491 63.4028 83.0486 85.3532 82.8728C109.739 82.6742 111.789 75.6491 111.789 75.6491C114.702 75.0373 121.44 75.3928 124.245 78.8557C128.99 84.715 131.063 130.951 131.063 130.951L119.47 112.295C118.731 117.332 117.636 122.31 116.194 127.191C114.427 133.179 111.965 145.997 114.915 158.772C115.187 159.958 115.679 162.074 116.251 164.602H54.3821C54.7368 163.226 54.9964 162.14 55.1074 161.524Z" fill="#F94A72"/>
<path d="M54.5147 161.673C60.8403 140.683 56.3161 131.483 55.2361 125.865C54.4266 121.625 50.4334 117.864 50.041 113.284C51.1597 113.039 50.9724 108.655 51.6403 107.694C53.0869 118.122 53.2256 120.037 59.038 120.505C65.1991 121.002 78.4498 120.887 84.71 121.101C90.9702 121.314 104.847 121.591 110.472 119.647C114.16 118.369 117.474 116.966 119.192 107.38C119.489 111.244 119.917 110.602 119.749 112.706C119.279 118.545 118.096 119.914 116.213 127.192C115.939 128.255 111.594 137.904 114.705 157.742C88.9429 156.64 74.2714 158.683 61.5211 164.606H53.6725C54.0153 163.38 54.3205 162.373 54.5147 161.673Z" fill="url(#paint1_linear_620_1190)"/>
<path d="M65.5628 90.7272C57.0534 91.5723 54.168 98.9798 56.874 105.454C59.7257 112.275 75.5219 109.662 86.9633 109.811C96.2357 109.934 106.384 110.217 110.528 105.805C114.672 101.394 115.063 95.793 108.237 93.3172C103.057 91.4303 97.063 95.4791 86.8097 95.5169C78.8095 95.5477 73.8929 89.9198 65.5628 90.7272Z" fill="url(#paint2_linear_620_1190)"/>
<path d="M46.1708 94.791C47.0982 88.038 45.713 79.5212 48.1218 76.6899C46.7114 77.1197 45.5222 78.0808 44.8044 79.3713C42.7167 82.7726 41.6822 86.2584 40.075 93.9787C38.7156 100.522 44.2545 108.714 46.1708 94.791Z" fill="url(#paint3_linear_620_1190)"/>
<path d="M125.63 92.7909C124.774 87.0077 122.901 81.4227 120.097 76.2957C122.518 76.4714 126.098 79.123 127.416 81.7785C128.295 83.5462 127.616 106.701 125.63 92.7909Z" fill="url(#paint4_linear_620_1190)"/>
<path d="M51.6484 101.884C53.8551 129.102 64.1045 127.74 67.9371 127.843C79.0723 128.141 93.7885 127.893 101.935 127.645C112.624 127.319 114.571 124.648 114.571 124.648C114.571 124.648 116.861 121.664 119.151 107.018C119.862 119.829 113.12 138.269 113.594 145.5C108.139 142.731 100.695 142.124 81.4811 143.128C64.482 144.022 55.3701 158.693 55.3701 158.693C55.3701 158.693 58.7489 136.157 55.4811 130.476C53.04 125.143 51.47 119.451 50.831 113.618C50.6259 112.249 51.6484 101.884 51.6484 101.884Z" fill="url(#paint5_linear_620_1190)"/>
<path d="M48.2131 116.744C48.2131 116.744 53.2783 84.456 54.5545 90.3024C55.5929 95.0394 58.1047 113.68 58.1047 113.68L48.2131 116.744Z" fill="url(#paint6_linear_620_1190)"/>
<path d="M123.325 117.104C123.325 117.104 118.363 85.5394 116.836 91.3014C115.576 95.9888 112.418 116.798 112.418 116.798L123.325 117.104Z" fill="url(#paint7_linear_620_1190)"/>
<path d="M43.5103 81.7893C43.5103 81.7893 52.527 100.25 53.176 101.505C53.825 102.76 68.7622 132.029 58.6773 141.571C58.6773 141.571 42.0289 82.4517 43.5103 81.7893Z" fill="url(#paint8_linear_620_1190)"/>
<path d="M127.448 81.5332C127.448 81.5332 118.709 100.112 118.072 101.395C117.435 102.678 102.944 132.145 113.17 141.542C113.17 141.541 128.936 82.1718 127.448 81.5332Z" fill="url(#paint9_linear_620_1190)"/>
<path d="M52.5611 108.116C52.5611 108.116 52.3896 97.7435 53.3854 96.7415C54.3813 95.7395 56.4016 115.738 56.4016 115.738L52.5611 108.116Z" fill="url(#paint10_linear_620_1190)"/>
<path d="M64.6998 76.4943C63.9602 76.1647 63.2459 75.781 62.5626 75.3463C70.5796 74.3055 72.9804 72.94 73.561 72.5418C74.1417 72.1435 74.7748 70.1196 74.9968 67.7858C75.0959 66.7679 75.2415 64.2107 75.2752 62.881C75.5576 63.2256 93.1106 62.583 93.7933 61.584H95.8315C95.5025 65.2834 95.6216 69.0091 96.1862 72.6798C96.3844 73.6252 102.073 74.9758 105.806 75.7405C105.539 75.9511 104.581 76.5976 104.368 76.7127C101.172 77.0266 98.4226 77.401 97.1146 77.1755C95.5193 76.9004 90.8723 76.961 88.8004 76.4099C77.7296 73.4604 76.2373 70.4602 76.2373 70.4602C75.7419 74.956 73.2648 75.817 73.4431 75.7783C70.5728 76.4014 67.633 76.6421 64.6998 76.4943V76.4943Z" fill="url(#paint11_linear_620_1190)"/>
<path d="M81.9822 82.1758C81.9822 82.1758 83.8906 79.1966 86.2578 81.1827C86.2578 81.1818 82.9791 81.002 81.9822 82.1758Z" fill="url(#paint12_linear_620_1190)"/>
<path d="M81.344 80.4468C81.344 80.4468 80.2868 77.6999 78.8134 77.3325C77.34 76.965 61.5725 76.6969 59.6651 76.3225C59.6651 76.3225 66.3841 77.6344 70.5794 78.125C74.7746 78.6156 78.0573 77.8797 81.344 80.4468Z" fill="url(#paint13_linear_620_1190)"/>
<path d="M86.552 80.4198C87.1555 79.2127 88.1581 78.2527 89.3888 77.7037C91.2021 77.092 105.063 76.235 107.556 76.4753C107.555 76.4753 90.0666 78.235 86.552 80.4198Z" fill="url(#paint14_linear_620_1190)"/>
<path d="M96.1823 72.7037C96.1823 72.7037 95.6779 61.6506 96.3428 58.8154C96.3428 58.8154 75.5458 55.8272 74.6064 55.9076C74.9879 58.2304 75.1633 64.8722 75.1633 64.8722C75.1633 64.8722 84.0968 76.5659 96.1823 72.7037Z" fill="url(#paint15_linear_620_1190)"/>
<path d="M74.7442 61.5811C76.5034 64.5747 77.6578 67.886 78.1418 71.3263C79.2486 77.7238 74.7601 83.0338 74.7601 83.0338L68.7208 82.5979L74.7442 61.5811Z" fill="url(#paint16_linear_620_1190)"/>
<path d="M95.5489 67.3003C95.5489 67.3003 88.2612 71.8914 87.2535 76.1458C86.6728 78.7798 86.983 81.5326 88.1354 83.9703L96.7439 80.42L95.5489 67.3003Z" fill="url(#paint17_linear_620_1190)"/>
<path d="M75.2821 82.3365C76.7916 84.4155 77.8297 86.8 78.3236 89.3232C78.8175 91.8464 78.7555 94.4472 78.1417 96.9438C76.1946 105.882 69.1368 108.69 66.9609 112.378C64.785 116.067 70.8609 117.184 70.8609 117.184C70.8609 117.184 59.5503 115.623 62.8905 105.801C66.2307 95.9796 68.7236 84.0813 69.7274 80.7366C71.5981 81.9462 75.2821 82.3365 75.2821 82.3365Z" fill="url(#paint18_linear_620_1190)"/>
<path d="M97.5536 80.3552C94.4696 81.8694 91.1019 82.7153 87.6699 82.838C88.0161 84.0979 88.6289 85.2684 89.4667 86.2698C90.3045 87.2713 91.3475 88.0802 92.525 88.6416C90.606 90.417 89.2454 92.7149 88.6101 95.2538C87.9747 97.7927 88.0922 100.462 88.948 102.935C91.0209 109.773 98.2779 114.364 104.264 116.656C104.261 116.653 99.1875 85.4021 97.5536 80.3552Z" fill="url(#paint19_linear_620_1190)"/>
<path d="M104.428 78.3843C104.428 78.3843 97.7784 82.7003 84.5773 82.593C71.3761 82.4857 65.2646 79.429 65.2646 79.429L64.1994 82.1719C64.1994 82.1719 67.921 85.8335 84.5763 85.8603C101.396 85.8911 105.591 80.9663 105.591 80.9663L104.428 78.3843Z" fill="url(#paint20_linear_620_1190)"/>
<path d="M105.856 35.7051C104.982 42.3588 104.249 47.4236 104.249 47.4236C107.088 47.4236 108.131 44.5694 109.242 42.0668C110.937 38.2216 111.941 34.1012 108.077 33.8788C107.337 33.8261 105.856 35.7051 105.856 35.7051Z" fill="#F0C499"/>
<path d="M106.382 45.1859C106.847 44.5702 107.174 43.8608 107.339 43.1064C107.504 42.3521 107.505 41.5708 107.34 40.8163C106.324 33.9719 110.955 33.5052 109.901 38.1727C109.901 38.1727 109.264 35.973 108.676 36.6424C107.958 37.4498 109.44 37.8976 108.676 41.4291C108.209 42.8413 107.424 44.1269 106.382 45.1859V45.1859Z" fill="url(#paint21_linear_620_1190)"/>
<path d="M66.1167 35.7051C66.9907 42.3588 67.7239 47.4236 67.7239 47.4236C64.8841 47.4236 63.8417 44.5694 62.731 42.0668C61.0356 38.2216 60.0358 34.1012 63.8952 33.8788C64.6512 33.8261 66.1167 35.7051 66.1167 35.7051Z" fill="#F0C499"/>
<path d="M65.6013 45.1859C65.1362 44.5702 64.8096 43.8607 64.6442 43.1064C64.4788 42.3521 64.4785 41.5708 64.6432 40.8163C65.6588 33.968 61.0315 33.5012 62.0838 38.1687C62.0838 38.1687 62.7249 35.969 63.3095 36.6384C64.0308 37.4458 62.5455 37.8937 63.3095 41.4251C63.7749 42.8386 64.5591 44.1255 65.6013 45.1859Z" fill="url(#paint22_linear_620_1190)"/>
<path d="M66.4528 13.7169C68.9299 8.04341 74.7403 6.02644 83.333 5.47925C83.333 5.47925 102.974 8.05036 105.451 13.7169C108.146 19.9039 107.382 28.5657 106.619 34.2402C105.856 39.9147 104.328 49.1157 102.897 51.7186C101.467 54.3215 94.27 63.9614 93.1672 65.5385C91.8117 67.478 89.5139 70.0838 85.9409 70.0838C82.2153 70.0838 80.5199 68.1175 78.5313 66.0777C77.1837 64.6963 70.4687 54.0484 69.0567 51.4465C67.6448 48.8446 66.0792 39.9107 65.3083 34.2293C64.5374 28.5478 63.7596 19.9029 66.4528 13.7169Z" fill="url(#paint23_linear_620_1190)"/>
<path d="M68.6016 29.0859C69.4881 28.3856 70.5042 27.8682 71.5912 27.5634C72.6783 27.2586 73.8148 27.1726 74.9351 27.3103C83.9519 28.2289 83.8181 37.258 84.6624 42.3735C73.5915 46.7739 67.152 38.7616 67.152 38.7616C67.152 38.7616 65.2535 31.7146 68.6016 29.0859Z" fill="url(#paint24_linear_620_1190)"/>
<path d="M97.7933 27.7015C98.8722 27.5625 99.9679 27.6403 101.016 27.9301C102.065 28.22 103.046 28.7162 103.901 29.3898C107.23 32.1138 104.793 39.7775 104.793 39.7775C104.793 39.7775 98.3036 47.5097 87.2546 42.7617C88.1394 37.695 88.7686 28.3212 97.7933 27.7015Z" fill="url(#paint25_linear_620_1190)"/>
<path d="M94.1134 36.7377C96.6441 35.972 106.456 33.9104 105.99 37.1776C104.955 44.3974 104.008 49.3639 102.761 51.6093C101.448 53.9659 97.5884 57.6731 95.9237 57.9531C93.3475 58.3931 90.6138 48.8812 90.5523 45.6259C90.4641 41.0577 91.5828 37.4984 94.1134 36.7377Z" fill="url(#paint26_radial_620_1190)"/>
<path d="M77.7789 36.7377C75.2483 35.972 65.4368 33.9104 65.9025 37.1776C66.9182 44.3895 67.8842 49.3639 69.1317 51.6013C70.4446 53.9579 74.304 57.6651 75.9686 57.9452C78.5448 58.3851 81.2786 48.8733 81.34 45.6179C81.4243 41.0577 80.3135 37.4984 77.7789 36.7377Z" fill="url(#paint27_radial_620_1190)"/>
<path d="M72.9467 31.692C72.9467 31.692 57.2724 7.27783 86.2955 7.27783C115.319 7.27783 99.4392 31.6086 99.4392 31.6086C99.4392 31.6086 95.778 11.1052 85.5781 11.422C85.5781 11.421 80.6001 11.705 72.9467 31.692Z" fill="url(#paint28_linear_620_1190)"/>
<path d="M71.5258 38.1887C70.8407 40.0196 70.3818 41.9276 70.1594 43.8702C70.1406 48.4613 75.29 61.5085 75.29 61.5085C75.29 61.5085 67.7239 51.2548 67.823 50.796C67.9221 50.3372 65.8878 42.1224 65.8878 42.1224L69.6828 35.8401L71.5258 38.1887Z" fill="url(#paint29_linear_620_1190)"/>
<path d="M101.168 37.6106C101.851 39.4419 102.308 41.3498 102.531 43.2921C102.549 47.8832 95.3162 62.572 95.3162 62.572C95.3162 62.572 104.967 50.6807 104.86 50.2219C104.753 49.7631 106.791 41.5443 106.791 41.5443L103 35.262L101.168 37.6106Z" fill="url(#paint30_linear_620_1190)"/>
<path d="M74.553 28.5843C74.553 28.5843 71.846 26.8514 67.8459 29.3957C65.7156 30.7542 67.3188 35.9233 67.3188 35.9233C67.3188 35.9233 66.3725 28.0064 74.553 28.5843Z" fill="url(#paint31_linear_620_1190)"/>
<path d="M74.6985 31.542C80.7645 31.542 81.3253 35.2572 81.4512 37.9395C80.9934 38.0388 80.5079 38.1312 79.6072 38.4102C78.1097 39.0064 76.5185 39.3316 74.9076 39.3705C73.2856 39.3705 69.7997 38.6247 69.7551 35.131C69.7086 32.3722 73.232 31.6641 74.6985 31.542Z" fill="url(#paint32_linear_620_1190)"/>
<path d="M81.1765 37.7328C80.1114 37.948 79.0648 38.2469 78.0464 38.6266C78.4106 38.3593 78.7007 38.0031 78.889 37.5919C79.0773 37.1807 79.1577 36.7281 79.1225 36.277C78.9753 35.2939 78.489 34.3936 77.7482 33.7327C79.2155 34.748 80.3964 36.1259 81.1765 37.7328Z" fill="url(#paint33_linear_620_1190)"/>
<path d="M81.1767 37.7328C80.5537 37.0567 79.8452 36.4651 79.0692 35.9731C78.9354 35.2382 76.1957 33.8111 75.6012 33.3523C76.86 33.444 78.063 33.9098 79.0565 34.69C80.05 35.4703 80.7888 36.5297 81.1787 37.7328H81.1767Z" fill="#DDDDDD"/>
<path d="M73.0548 36.585C73.0818 37.0768 73.2321 37.5537 73.492 37.9718C73.7518 38.3898 74.1126 38.7353 74.5411 38.9764C73.5603 38.8868 72.6213 38.5356 71.8216 37.9593C71.022 37.383 70.391 36.6026 69.9941 35.6992C72.1819 33.8779 73.7544 33.3078 75.2456 33.1777C74.5622 33.4323 73.9795 33.9018 73.5846 34.516C73.1896 35.1303 73.0038 35.8561 73.0548 36.585V36.585Z" fill="url(#paint34_linear_620_1190)"/>
<path d="M79.0732 35.8959C79.0981 36.0221 79.1146 36.1498 79.1227 36.2782C79.1666 36.7302 79.0901 37.1858 78.9011 37.5986C78.7121 38.0113 78.4172 38.3665 78.0467 38.6279C76.8056 38.9747 75.5121 39.0928 74.2289 38.9764C73.7918 38.7574 73.4186 38.4288 73.1456 38.0224C72.8727 37.6161 72.7093 37.1459 72.6713 36.6576C72.6383 36.1049 72.7475 35.553 72.9884 35.0547C73.9977 34.7085 75.0739 34.6043 76.1307 34.7506C77.1875 34.8968 78.1953 35.2894 79.0732 35.8969V35.8959Z" fill="url(#paint35_linear_620_1190)"/>
<path d="M76.71 33.4022C76.0302 33.7845 73.03 34.8372 72.7971 35.5681C72.0603 35.8718 71.3672 36.2726 70.7361 36.7598L70.1416 35.5512C71.0066 34.4429 74.5529 33.1797 76.71 33.4022Z" fill="#DDDDDD"/>
<path d="M74.2287 33.8489C75.0809 33.4343 76.0565 33.3526 76.9655 33.6195C77.3427 33.644 77.7018 33.7903 77.989 34.0366C78.5835 34.5219 78.9757 35.2121 79.0889 35.9721C78.171 35.4272 77.1432 35.095 76.0806 34.9999C74.9496 34.9195 73.8161 35.1165 72.7781 35.5739C73.015 34.829 73.5366 34.2084 74.2287 33.8479V33.8489Z" fill="url(#paint36_linear_620_1190)"/>
<path d="M75.7976 34.0625C76.1842 34.0464 76.567 34.1447 76.8982 34.3453C77.2294 34.5459 77.4944 34.8398 77.6599 35.1903C77.8255 35.5409 77.8844 35.9325 77.8293 36.3164C77.7741 36.7003 77.6074 37.0594 77.3498 37.3489C77.0923 37.6384 76.7554 37.8455 76.3812 37.9442C76.007 38.043 75.612 38.0291 75.2456 37.9043C74.8792 37.7795 74.5576 37.5493 74.321 37.2424C74.0843 36.9355 73.9431 36.5656 73.9149 36.1788C73.8846 35.6479 74.066 35.1268 74.419 34.7299C74.7721 34.333 75.2679 34.093 75.7976 34.0625V34.0625Z" fill="url(#paint37_radial_620_1190)"/>
<path d="M75.4445 35.2113C75.5757 35.1436 75.7277 35.1285 75.8696 35.1691C76.0115 35.2096 76.1327 35.3029 76.2085 35.4297C76.2468 35.492 76.2725 35.5613 76.2841 35.6335C76.2956 35.7058 76.2928 35.7796 76.2757 35.8508C76.2587 35.922 76.2278 35.989 76.1848 36.0482C76.1418 36.1073 76.0875 36.1574 76.0252 36.1954C75.8942 36.2641 75.7419 36.2797 75.5997 36.2391C75.4575 36.1984 75.3364 36.1046 75.2612 35.9769C75.1846 35.8509 75.1609 35.6997 75.1952 35.5562C75.2296 35.4127 75.3192 35.2887 75.4445 35.2113Z" fill="white"/>
<path d="M73.6185 36.0267C73.7479 35.9535 73.8961 35.9201 74.0443 35.9309C74.1926 35.9417 74.3344 35.9962 74.4519 36.0874C74.5694 36.1786 74.6575 36.3026 74.705 36.4438C74.7525 36.5849 74.7574 36.737 74.7191 36.881C74.6807 37.0249 74.6008 37.1543 74.4894 37.2529C74.3779 37.3516 74.2399 37.415 74.0927 37.4353C73.9454 37.4557 73.7954 37.432 73.6616 37.3673C73.5277 37.3025 73.4158 37.1996 73.3401 37.0714C73.239 36.8958 73.2116 36.6872 73.2638 36.4914C73.316 36.2955 73.4435 36.1284 73.6185 36.0267V36.0267Z" fill="white"/>
<path d="M68.6363 33.0006C68.6363 33.0006 69.209 33.6054 72.1865 32.5299C77.8819 30.6897 81.0427 34.6611 81.1765 37.7337C81.1765 37.7337 79.4544 33.7614 76.2143 33.3949C73.4508 33.0811 72.1716 34.4972 70.8389 35.5797C70.8201 36.9492 72.6403 38.6404 74.6042 39.0228C72.9197 39.0228 69.1872 37.3007 68.9127 35.8776C69.0118 36.0534 69.3744 36.1756 69.8292 36.0117C69.8421 36.0117 68.2389 35.3682 68.6363 33.0006Z" fill="url(#paint38_linear_620_1190)"/>
<path d="M77.6069 31.8289C78.7558 32.2044 79.7506 32.9462 80.4397 33.9412C79.635 33.0544 78.5872 32.425 77.4275 32.1318C75.6993 31.7668 73.9141 31.7668 72.1859 32.1318C73.8935 31.3624 75.8255 31.2562 77.6069 31.8339V31.8289Z" fill="url(#paint39_linear_620_1190)"/>
<path d="M76.4621 33.0989C80.1649 33.7375 81.1726 37.7327 81.1726 37.7327C81.1726 37.7327 79.7607 34.1208 76.3818 33.5964C73.7363 33.1873 71.923 34.7445 70.8509 35.5826C70.8539 35.5896 72.1866 32.3571 76.4621 33.0989Z" fill="#391B13"/>
<path d="M97.3057 31.5886C91.2397 31.5886 90.6789 35.3038 90.5531 37.9861C91.0109 38.0854 91.4964 38.1778 92.3971 38.4568C93.8944 39.0538 95.4857 39.379 97.0967 39.4172C98.7157 39.4172 102.205 38.6515 102.249 35.1777C102.292 32.4149 98.7673 31.7108 97.3057 31.5886Z" fill="url(#paint40_linear_620_1190)"/>
<path d="M90.8267 37.7746C91.8906 37.9896 92.9359 38.2885 93.9529 38.6684C93.5893 38.3997 93.2999 38.0429 93.1116 37.6314C92.9234 37.2198 92.8426 36.7671 92.8768 36.3157C93.0255 35.3334 93.5133 34.4344 94.2551 33.7754C92.7903 34.7931 91.61 36.1699 90.8267 37.7746V37.7746Z" fill="url(#paint41_linear_620_1190)"/>
<path d="M90.8265 37.7745C91.4489 37.0989 92.1576 36.5085 92.9341 36.0187C93.0639 35.2799 95.8076 33.8568 96.4021 33.3979C95.1441 33.4898 93.9419 33.9551 92.9489 34.7346C91.9558 35.5141 91.217 36.5724 90.8265 37.7745V37.7745Z" fill="#DDDDDD"/>
<path d="M98.9466 36.6265C98.9224 37.1209 98.7734 37.6011 98.5134 38.022C98.2534 38.4429 97.8911 38.7907 97.4603 39.0328C98.4409 38.9424 99.3795 38.5909 100.179 38.0147C100.978 37.4385 101.61 36.6585 102.007 35.7556C99.8195 33.9382 98.247 33.3722 96.7509 33.2341C97.4331 33.4863 98.0157 33.953 98.4114 34.5645C98.8072 35.1759 98.9949 35.8993 98.9466 36.6265Z" fill="url(#paint42_linear_620_1190)"/>
<path d="M92.9261 35.9382C92.9033 36.0763 92.8914 36.1716 92.8766 36.3206C92.8341 36.7729 92.9112 37.2284 93.1001 37.6414C93.289 38.0543 93.583 38.4102 93.9526 38.6732C95.1941 39.0178 96.4872 39.1359 97.7704 39.0218C98.2085 38.8036 98.5827 38.4752 98.8564 38.0688C99.1301 37.6624 99.294 37.1918 99.332 36.7029C99.3641 36.1499 99.2535 35.5978 99.0109 35.1001C98.0021 34.7523 96.9258 34.647 95.8689 34.7926C94.812 34.9382 93.804 35.3306 92.9261 35.9382V35.9382Z" fill="#3F563B"/>
<path d="M95.2895 33.4435C95.9693 33.8259 98.9696 34.8825 99.2064 35.6095C99.9459 35.9125 100.642 36.3133 101.275 36.8012L101.859 35.5886C100.996 34.4962 97.4575 33.2221 95.2895 33.4435Z" fill="#DDDDDD"/>
<path d="M97.7744 33.8955C96.9227 33.4797 95.9471 33.3965 95.0376 33.6621C94.6631 33.691 94.3074 33.8384 94.022 34.0832C93.4233 34.5658 93.028 35.2569 92.9152 36.0187C93.8356 35.4727 94.8661 35.1395 95.9314 35.0435C97.0622 34.9675 98.1947 35.1643 99.2339 35.6175C98.9936 34.8727 98.4688 34.2536 97.7744 33.8955V33.8955Z" fill="url(#paint43_linear_620_1190)"/>
<path d="M96.2049 34.0902C95.8194 34.0749 95.4379 34.1736 95.108 34.3741C94.778 34.5747 94.5143 34.868 94.3495 35.2177C94.1848 35.5674 94.1264 35.958 94.1816 36.3407C94.2368 36.7235 94.4031 37.0815 94.6599 37.3701C94.9167 37.6588 95.2525 37.8653 95.6256 37.964C95.9987 38.0627 96.3925 38.0491 96.7579 37.9251C97.1234 37.801 97.4443 37.5719 97.6808 37.2663C97.9172 36.9607 98.0587 36.5921 98.0876 36.2064C98.1031 35.9435 98.0667 35.68 97.9804 35.4312C97.8941 35.1824 97.7596 34.9531 97.5847 34.7565C97.4098 34.5599 97.1979 34.3998 96.9611 34.2854C96.7243 34.1711 96.4674 34.1047 96.2049 34.0902V34.0902Z" fill="url(#paint44_radial_620_1190)"/>
<path d="M95.6548 35.2522C95.7883 35.1805 95.9441 35.1633 96.09 35.204C96.2358 35.2447 96.3603 35.3402 96.4376 35.4707C96.4758 35.5332 96.5012 35.6027 96.5125 35.6751C96.5237 35.7475 96.5205 35.8214 96.5031 35.8926C96.4857 35.9638 96.4544 36.0308 96.411 36.0898C96.3676 36.1488 96.313 36.1986 96.2503 36.2363C96.119 36.3033 95.9673 36.318 95.8256 36.2775C95.6839 36.237 95.5627 36.1442 95.4864 36.0179C95.4076 35.8939 95.3811 35.7437 95.4127 35.6001C95.4443 35.4566 95.5314 35.3315 95.6548 35.2522Z" fill="white"/>
<path d="M93.8278 36.0685C93.9809 35.9801 94.1599 35.9477 94.3342 35.9766C94.5085 36.0056 94.6674 36.0943 94.7838 36.2275C94.9003 36.3607 94.967 36.5302 94.9727 36.7072C94.9785 36.8842 94.9228 37.0577 94.8152 37.1982C94.7076 37.3387 94.5548 37.4374 94.3827 37.4776C94.2106 37.5179 94.0299 37.4971 93.8715 37.4188C93.713 37.3405 93.5865 37.2096 93.5135 37.0483C93.4405 36.887 93.4255 36.7054 93.4711 36.5343C93.4971 36.4369 93.542 36.3457 93.6032 36.2658C93.6644 36.1858 93.7407 36.1188 93.8278 36.0685Z" fill="white"/>
<path d="M103.367 33.0453C103.367 33.0453 102.772 33.6412 99.8167 32.5786C94.1212 30.7344 90.9416 34.7058 90.8266 37.7744C90.8266 37.7744 92.5448 33.8021 95.7889 33.4396C98.5523 33.1218 99.8315 34.5379 101.16 35.6244C101.183 36.9899 99.3619 38.6851 97.4 39.0674C99.0844 39.0674 102.817 37.3454 103.091 35.9223C102.984 36.0981 102.63 36.2202 102.175 36.0524C102.16 36.0524 103.763 35.4139 103.367 33.0453Z" fill="url(#paint45_linear_620_1190)"/>
<path d="M94.4035 31.8726C93.2538 32.2465 92.2576 32.9869 91.5667 33.9809C92.3734 33.0973 93.4205 32.4696 94.5789 32.1755C96.3082 31.8084 98.0951 31.8084 99.8245 32.1755C98.1174 31.4044 96.1855 31.2964 94.4035 31.8726Z" fill="url(#paint46_linear_620_1190)"/>
<path d="M95.5489 33.1407C91.8461 33.7832 90.8424 37.7745 90.8424 37.7745C90.8424 37.7745 92.2543 34.1666 95.6331 33.6422C98.2787 33.2331 100.092 34.7902 101.161 35.6284C101.145 35.6284 99.8165 32.4029 95.5489 33.1407Z" fill="#391B13"/>
<path d="M90.0369 47.0034L86.1725 49.6629L82.546 46.9269L83.0652 46.491L86.3707 46.5327H89.6613L90.0369 47.0034Z" fill="url(#paint47_linear_620_1190)"/>
<path d="M89.922 46.9338C89.0202 46.6765 88.0608 46.7074 87.1773 47.0222H85.6048C84.6216 46.6733 83.5547 46.6386 82.551 46.9229L82.4866 46.2108L83.7391 45.9546L86.3886 46.62L88.7934 45.9546L90.0498 46.1036L89.922 46.9338Z" fill="url(#paint48_linear_620_1190)"/>
<path d="M90.4253 43.8701C90.6527 44.0312 90.84 44.2427 90.9725 44.4881C91.105 44.7336 91.1792 45.0064 91.1893 45.2853C91.3072 46.471 90.0825 47.1175 89.8913 46.9954C89.7 46.8732 90.0478 45.9775 88.9182 46.1344C87.7887 46.2913 87.8452 46.8653 87.6618 47.0599C86.8408 47.2741 85.98 47.2847 85.154 47.0907C84.8181 46.8802 84.9093 46.0976 83.8411 46.1344C82.773 46.1711 82.7413 46.9001 82.5887 46.9954C82.4361 47.0907 81.8019 46.5207 81.6186 45.4303C81.5891 45.1008 81.6669 44.7706 81.8403 44.4892C82.0138 44.2077 82.2736 43.9902 82.5807 43.8691C82.5807 43.8691 82.0001 44.8334 82.2448 45.4581C82.4896 46.0827 84.1532 45.5425 84.8102 45.9636C85.2833 46.2941 85.8461 46.4713 86.4228 46.4713C86.9995 46.4713 87.5623 46.2941 88.0354 45.9636C88.8449 45.5812 89.9824 46.0629 90.4362 45.3935C90.6273 44.9044 90.6231 44.3602 90.4243 43.8741L90.4253 43.8701Z" fill="#F0C499"/>
<path d="M88.9221 43.33C88.9894 43.883 88.8538 44.4417 88.5406 44.902C88.0452 45.6677 84.597 46.2715 84.0094 44.5425C83.8945 44.03 83.8764 43.5005 83.9559 42.9814C84.0173 42.2058 88.8993 42.5732 88.9221 43.33Z" fill="url(#paint49_linear_620_1190)"/>
<path d="M72.4879 26.1047C74.825 26.1753 77.1396 26.5851 79.3594 27.3213C79.6705 27.4759 79.9195 27.7324 80.0653 28.0483C80.2111 28.3642 80.2448 28.7205 80.161 29.0582C80.275 28.8502 80.327 28.6137 80.3109 28.3769C80.2947 28.1402 80.2111 27.913 80.0699 27.7225C81.036 28.5338 80.9131 29.8884 79.8142 29.5101C77.4652 28.7363 75.0673 28.1202 72.6365 27.6659C71.1344 27.6629 69.6486 27.9783 68.2767 28.5914C68.2767 28.5914 70.7588 26.2855 72.4879 26.1047Z" fill="url(#paint50_linear_620_1190)"/>
<path d="M99.7177 26.1047C97.3806 26.1757 95.066 26.5854 92.8461 27.3213C92.535 27.4759 92.286 27.7324 92.1402 28.0483C91.9944 28.3642 91.9607 28.7205 92.0445 29.0582C91.9296 28.8504 91.8771 28.6138 91.8933 28.3769C91.9095 28.1399 91.9936 27.9126 92.1356 27.7225C91.1696 28.5338 91.2885 29.8884 92.3873 29.5101C94.7367 28.7386 97.1341 28.1225 99.5641 27.6659C101.066 27.6621 102.552 27.9775 103.924 28.5914C103.924 28.5914 101.444 26.2855 99.7177 26.1047Z" fill="url(#paint51_linear_620_1190)"/>
<path d="M95.3162 62.5713C95.3162 62.5713 92.4229 66.7184 90.8306 67.9737C89.5018 69.0184 88.5863 69.4425 85.8684 69.5349C84.0778 69.6345 82.3051 69.1338 80.8299 68.1117C80.0431 67.5834 75.6774 61.8831 75.291 61.5156C75.291 61.5156 78.9027 67.3997 80.0283 68.506C81.5567 70.0599 83.6275 70.9583 85.804 71.0116C87.6373 70.9126 89.3945 70.2441 90.8316 69.0989C92.948 67.2279 95.3162 62.5713 95.3162 62.5713Z" fill="url(#paint52_linear_620_1190)"/>
<path d="M85.7771 63.8182C87.5824 63.9066 89.037 64.5571 89.0261 65.2761C89.0152 65.9951 87.5487 66.5115 85.7434 66.4241C83.938 66.3367 82.4874 65.6852 82.4944 64.9662C82.5013 64.2472 83.9787 63.7348 85.7771 63.8182Z" fill="url(#paint53_linear_620_1190)"/>
<path d="M93.5068 52.0047C93.5068 52.0047 89.7693 48.7722 88.7081 48.5994C87.1723 48.3884 85.6174 48.3551 84.0739 48.5001C82.0572 49.2684 80.2534 50.5097 78.8135 52.1199L86.2805 50.6204L93.5068 52.0047Z" fill="url(#paint54_linear_620_1190)"/>
<path d="M78.2073 52.0115C78.2073 52.0115 78.9713 54.1159 79.1922 54.5439C79.4132 54.972 81.6357 60.6922 82.7276 61.9623C83.5463 62.6676 84.5718 63.0864 85.6492 63.1554C86.7265 63.2243 87.7969 62.9398 88.6985 62.3447C89.9059 61.1992 90.8592 59.8119 91.4966 58.273C91.676 57.8907 93.0235 53.7852 94.1343 52.1516C90.6326 52.0036 78.2073 52.0115 78.2073 52.0115Z" fill="url(#paint55_linear_620_1190)"/>
<path d="M94.785 51.7256C94.686 51.2668 92.7766 52.0126 92.2237 52.828C92.9916 52.3989 94.9654 52.5211 94.785 51.7256Z" fill="url(#paint56_linear_620_1190)"/>
<path d="M77.4115 51.8853C77.4918 51.4225 79.4388 52.0919 80.0225 52.8873C79.2526 52.4901 77.2788 52.6887 77.4115 51.8853Z" fill="url(#paint57_linear_620_1190)"/>
<path d="M93.6208 52.0414C93.3464 51.7693 91.1853 50.9549 90.361 50.5458C88.6124 49.9124 86.7392 49.7028 84.8944 49.934C83.1109 50.221 80.0273 51.0364 78.7174 52.1456C78.977 52.9113 81.7098 59.2125 83.4012 59.6405C85.0926 60.0685 88.8945 59.8659 89.2076 59.3952C89.5207 58.9245 92.7618 53.7177 93.6208 52.0414Z" fill="#951C27"/>
<path d="M90.8266 57.0157C90.8266 57.0157 91.2775 55.386 89.1164 54.6243C86.8913 54.1638 84.5934 54.1886 82.3787 54.6968C80.8785 55.0792 80.6268 56.6979 81.0499 57.1339C81.473 57.5698 83.4052 59.709 85.4404 59.8152C87.4756 59.9215 89.4404 59.6255 90.8266 57.0157Z" fill="url(#paint58_linear_620_1190)"/>
<path d="M91.1972 51.2309C91.1972 51.2309 90.7503 50.1057 85.8753 50.3321C81.0003 50.5585 80.5693 51.358 80.5693 51.358C80.5119 51.5323 80.497 51.7179 80.526 51.8991C80.5549 52.0804 80.6268 52.252 80.7356 52.3997C80.8444 52.5473 80.9869 52.6667 81.1513 52.7478C81.3156 52.8288 81.4969 52.8692 81.68 52.8655C82.2745 52.9072 84.287 52.7811 85.9476 52.7503C87.856 52.7116 90.1697 52.7503 90.353 52.7086C91.3498 52.4246 91.1972 51.2309 91.1972 51.2309Z" fill="url(#paint59_linear_620_1190)"/>
<path d="M81.1499 55.5618C80.9285 55.9158 80.7928 56.3167 80.7535 56.7326C80.704 57.2451 82.6619 59.0287 83.1702 59.2849C83.6785 59.5411 87.9154 60.3902 88.8468 59.4001C89.7782 58.41 90.7859 57.1041 90.7859 57.1041C90.8856 56.8537 90.9149 56.5808 90.8705 56.315C90.8261 56.0492 90.7098 55.8007 90.5342 55.5965C90.5342 55.5965 89.0073 59.0932 86.1438 59.0932C83.2802 59.0932 81.9842 56.8051 81.1499 55.5618Z" fill="url(#paint60_linear_620_1190)"/>
<path d="M93.7507 52.0076C93.438 52.5903 93.1565 53.1893 92.9075 53.8021C92.0075 55.995 90.9683 58.1279 89.7962 60.1877C88.5933 62.1004 84.1196 62.9117 82.3827 60.4091C81.166 58.4756 80.1721 56.41 79.42 54.252C79.1581 53.5194 78.8428 52.8071 78.4767 52.1208C78.4767 52.1019 78.9345 52.1784 79.6796 53.5935C80.5347 55.2083 81.9397 57.9512 82.9247 58.6285C85.0164 60.0705 87.9483 59.275 88.5091 59.0764C89.3682 58.7705 91.1844 56.1031 92.201 54.1298C92.5915 53.338 93.1158 52.62 93.7507 52.0076V52.0076Z" fill="#F86D78"/>
<path d="M91.3876 56.2501C90.787 57.2717 90.0115 58.1794 89.0968 58.9315C87.8293 59.6707 86.3375 59.9247 84.8975 59.6465C83.9792 59.4664 83.1178 59.0665 82.3867 58.4811C81.6556 57.8956 81.0763 57.1419 80.6983 56.2839C80.2286 55.3504 81.8972 60.6455 83.9275 61.2305C84.6884 61.4953 85.4945 61.6047 86.2983 61.5522C87.102 61.4996 87.8872 61.2862 88.6073 60.9246C90.0589 59.9881 91.7315 55.8221 91.3876 56.2501Z" fill="url(#paint61_linear_620_1190)"/>
<path d="M91.1971 50.646C91.2459 51.0279 91.2369 51.4149 91.1704 51.7941C91.0594 51.7941 87.207 51.4961 85.7078 51.5756C83.9885 51.6589 82.2755 51.8416 80.5772 52.1228C80.5023 51.8747 80.4867 51.6124 80.5316 51.3571C80.5316 51.3571 84.059 49.9836 85.8763 50.0661C87.6935 50.1485 91.1971 50.646 91.1971 50.646Z" fill="url(#paint62_linear_620_1190)"/>
<path d="M93.5178 51.954C93.5178 51.954 90.6513 50.3889 89.7694 49.949C87.4045 49.0162 84.7786 48.9943 82.3985 49.8874C81.1426 50.5211 79.9377 51.2515 78.7947 52.0722C80.281 51.9034 81.6078 50.5915 86.2351 50.7941C91.8988 51.0474 91.9255 51.8359 93.5178 51.954Z" fill="#F86D78"/>
<path d="M88.9449 49.8574C87.1101 49.3107 85.1577 49.3014 83.3178 49.8306C82.2982 50.2824 81.027 51.1395 81.8365 50.923C83.2489 50.5659 84.7073 50.4265 86.1616 50.5098C87.6602 50.5182 89.1555 50.6538 90.6313 50.915C91.0901 51.0084 89.685 50.0977 88.9449 49.8574Z" fill="url(#paint63_linear_620_1190)"/>
<path d="M93.9042 52.2639C93.3872 52.2323 92.8682 52.263 92.3585 52.3552C93.013 52.1048 93.6837 51.8991 94.366 51.7395C94.465 51.809 94.3184 52.1348 93.9042 52.2639Z" fill="#951C27"/>
<path d="M78.2793 52.3631C78.7878 52.3054 79.3019 52.3208 79.8062 52.4088C79.1618 52.1521 78.4908 51.9685 77.8056 51.8616C77.7293 51.9271 77.8641 52.2548 78.2793 52.3631Z" fill="#951C27"/>
<path d="M85.7614 60.5819C84.9023 60.203 84.0184 59.8835 83.1158 59.6256C82.6997 59.5531 82.7076 60.4866 84.0244 60.8689C85.3413 61.2513 86.3153 61.002 85.7614 60.5819Z" fill="#FF9AA2"/>
<path d="M86.9099 10.1667L84.5894 0.896178C84.5894 0.896178 87.5252 -0.0561968 92.7143 0.896178C101.086 2.42653 110.153 15.1967 112.027 19.2992C113.901 23.4016 116.73 36.5164 116.566 38.9763C116.403 41.4362 117.712 57.2382 118.372 61.7757C119.794 69.3612 119.523 77.1684 117.579 84.6366C117.579 84.6366 124.011 104.953 105.638 112.027C105.638 112.027 106.02 115.769 111.746 117.078C111.746 117.078 86.902 113.78 99.9545 88.2714C99.9545 88.2714 88.5022 85.59 92.7015 73.6938C96.9007 61.7975 101.657 58.1638 101.657 58.1638C101.657 58.1638 106.359 41.1035 105.119 38.7737C95.8236 21.2923 107.219 7.66013 86.9099 10.1667Z" fill="#281612"/>
<path d="M84.5894 1.37758C84.5894 1.37758 81.5356 -0.409987 74.1071 2.17205C66.6787 4.75409 60.8109 19.283 59.0353 23.8403C57.2596 28.3976 56.4085 48.6597 56.4085 48.6597C56.4085 48.6597 50.613 60.8072 49.6222 65.6544C48.6313 70.5017 50.508 76.9568 50.508 76.9568C50.508 76.9568 53.1833 83.1746 53.1833 88.3357C53.1833 93.4968 49.9343 102.22 58.196 109.896C64.2402 115.513 66.862 115.513 66.862 115.513C66.862 115.513 59.6932 110.922 62.2813 106.211C64.8694 101.501 72.1452 99.7066 68.4246 86.3157C68.4246 86.3157 75.8263 74.3291 74.9979 68.9684C74.1695 63.6077 67.7181 50.0003 67.1454 40.4915C67.1454 40.4915 74.2003 4.85936 84.5844 7.32719L84.5894 1.37758Z" fill="#281612"/>
<path d="M100.596 79.6782C100.596 79.6782 89.8497 95.2767 94.0559 102.164C100.384 112.57 108.292 110.434 108.292 110.434C108.292 110.434 101.928 106.608 103.436 96.9282C104.944 87.2486 108.292 85.4501 108.292 85.4501L100.596 79.6782Z" fill="#281612"/>
<path d="M86.2459 10.813C86.2459 10.813 95.4074 6.67681 98.4612 13.4457C101.515 20.2146 97.3881 31.1913 103.336 38.124C109.284 45.0568 120.343 49.8266 121.889 52.4514C121.889 52.4514 117.022 43.6288 116.544 39.7875C116.067 35.9462 115.553 25.8842 113.96 21.9506C112.367 18.0169 110.789 12.7148 104.577 6.81484C100.573 3.00435 93.7318 -1.52216 84.5892 0.896019L86.2459 10.813Z" fill="#281612"/>
<path d="M85.055 10.5637L85.7119 6.5119L84.5893 0.910865C79.8524 -0.209152 74.8672 0.537436 70.6638 2.99636C63.7922 7.13259 60.0478 16.9533 58.6745 23.1561C56.1746 34.4317 56.4143 42.5462 52.2845 51.7025C55.5315 47.5504 67.7051 41.1996 68.7386 36.8181C69.7721 32.4366 73.7008 20.8631 74.1823 18.3883C74.6639 15.9135 76.9894 8.45936 85.055 10.5637Z" fill="#281612"/>
<path d="M106.86 45.8098C106.86 45.8098 97.1751 59.5453 96.7966 68.0004C96.4181 76.4556 107.157 85.1104 108.63 89.1771C114.738 106.012 103.759 112.565 103.759 112.565C103.759 112.565 123.717 109.007 117.571 89.7045C116.338 85.8314 112.582 75.4407 111.75 68.5278C110.917 61.6149 113.781 49.3979 113.781 49.3979L106.86 45.8098Z" fill="#391C15"/>
<path d="M117.244 50.6491C118.41 55.8714 120.039 60.979 122.111 65.911C125.268 73.096 128.879 81.7319 118.369 90.2556C118.369 90.2556 121.324 85.5424 118.369 75.5678C116.842 70.4107 106.639 65.9795 107.86 59.0735C108.62 54.8261 109.592 50.6196 110.773 46.4702L117.244 50.6491Z" fill="#281612"/>
<path d="M64.4758 70.7898C64.4758 70.7898 75.2642 81.8131 74.9353 95.3718C74.7936 101.02 64.4798 108.989 65.8382 112.552C66.3009 113.638 66.9889 114.613 67.8564 115.412C68.7239 116.211 69.7511 116.816 70.8698 117.186C70.8698 117.186 60.4292 117.37 60.0586 110.051C59.7986 105.854 60.2465 101.644 61.3834 97.5973L55.6225 79.9749L64.4758 70.7898Z" fill="#281612"/>
<path d="M58.386 68.2803C58.386 68.2803 51.1597 78.5687 49.6061 84.0585C48.0524 89.5483 45.3266 94.8137 47.8225 98.4583C50.3185 102.103 59.7594 110.924 49.3088 114.118C49.3088 114.118 60.5431 116.8 63.0054 104.496C65.0862 94.0967 61.3834 82.3057 61.097 81.3295C60.8107 80.3533 58.386 68.2803 58.386 68.2803Z" fill="#281612"/>
<path d="M65.888 46.491C65.888 46.491 74.5708 59.2125 73.141 63.8115C71.1365 70.1931 60.0618 77.2023 61.2419 82.5809C62.422 87.9595 63.5932 90.5356 61.6234 96.0025C58.1554 105.568 44.8076 105.797 44.8076 105.797C44.8076 105.797 57.4469 105.492 56.7602 91.8326C56.4739 86.0935 49.5072 80.9165 49.5983 76.4396C49.6895 71.9628 63.7874 58.6832 61.6868 49.941L65.888 46.491Z" fill="#281612"/>
<path d="M64.361 53.0713C66.1248 57.4518 68.4305 62.5216 66.4299 67.2278C64.3491 72.1178 59.0392 75.8935 59.4325 81.6902C59.5742 83.8025 60.2301 85.8989 60.467 87.9953C60.8956 90.762 60.7078 93.5894 59.917 96.2747C58.6418 99.9671 53.9194 104.24 49.9461 104.554C52.0521 104.796 54.1745 104.269 55.9239 103.069C58.0424 101.765 60.1043 100.529 61.4667 98.3563C64.4898 93.5318 63.6773 87.6438 62.9025 82.3367C62.2089 77.5619 66.7737 73.5905 68.5137 69.4811C71.0453 63.5206 68.0064 57.7815 64.361 53.0713Z" fill="#3F1F18"/>
<path d="M98.6871 93.0271C96.0604 98.0581 92.7628 104.314 95.8771 109.896C97.5102 112.663 99.9704 114.846 102.909 116.135C105.849 117.423 109.118 117.753 112.254 117.077C107.355 116.342 102.929 113.737 99.9009 109.807C96.0188 104.72 98.7327 98.785 98.6871 93.0271Z" fill="#281612"/>
<path d="M68.2658 47.2288C68.1832 50.8506 68.7642 54.457 69.98 57.8688C71.4425 61.6068 73.0338 65.2723 73.2894 69.3469C73.7432 76.8944 69.7124 83.9315 64.7839 89.3339C71.0937 85.7905 76.1371 78.8657 76.6484 71.5387C76.8373 67.2721 75.806 63.0403 73.6759 59.3415C72.6454 57.4288 71.4346 55.6492 70.4962 53.7017C69.5579 51.7543 69.007 49.1951 68.2658 47.2288Z" fill="url(#paint64_linear_620_1190)"/>
<path d="M68.9109 90.6855C68.3728 92.6251 67.8645 94.5656 67.1362 96.4455C66.1701 98.9282 64.6591 101.125 63.6356 103.57C62.8181 105.52 62.3877 107.612 62.3683 109.727C62.399 112.383 64.3193 113.909 66.3842 115.241C65.4072 113.462 64.2162 111.755 64.8573 109.659C65.3027 108.139 65.866 106.656 66.5417 105.224C67.6109 102.994 68.889 100.947 69.4082 98.4902C69.9716 95.8931 69.7993 93.1898 68.9109 90.6855Z" fill="#281612"/>
<path d="M85.1551 3.85348C92.9541 -2.15076 102.421 5.92308 107.067 11.7039C110.205 15.6137 112.721 20.7261 115.465 24.904C116.753 26.8555 118.565 28.795 119.195 31.087C119.905 33.6691 119.104 36.3742 118.332 38.8381C118.767 37.0691 118.96 35.2489 118.905 33.4277C118.725 31.1019 117.534 29.5716 116.114 27.8267C113.06 24.1006 110.388 20.0945 107.437 16.291C102.256 9.57269 94.7208 0.331973 85.1551 3.85348Z" fill="#3F1F18"/>
<path d="M104.374 28.1218C105.569 29.7862 106.405 31.7297 107.523 33.4517C109.135 35.961 111.059 38.2546 113.249 40.2773C116.746 43.476 126.189 47.3054 123.514 53.5768C124.796 47.7304 116.96 45.4811 113.44 42.8643C108.733 39.3775 105.093 34.0178 104.374 28.1218Z" fill="#3F1F18"/>
<path d="M115.656 51.6064C117.217 54.4229 118.58 57.422 120.393 60.0845C122.557 63.2624 125.596 66.4164 125.711 70.4911C124.532 67.1434 121.87 64.897 119.666 62.2345C118.513 60.879 117.58 59.3502 116.9 57.704C116.224 56.0257 115.217 53.4466 115.656 51.6064Z" fill="#3F1F18"/>
<g filter="url(#filter0_d_620_1190)">
<path d="M58.1384 51.8936C56.5768 54.7129 55.2144 57.7131 53.4012 60.3755C51.2669 63.5534 48.213 66.7035 48.0951 70.7901C49.2782 67.4424 51.9397 65.196 54.1453 62.5375C55.2947 61.1797 56.2269 59.6513 56.9088 58.007C57.5855 56.3168 58.5932 53.7338 58.1384 51.8936Z" fill="#281612"/>
</g>
<path d="M109.777 59.6294C112.968 62.8073 113.976 68.1541 113.93 72.4731C113.868 78.2677 111.827 83.866 108.147 88.3357C110.182 84.4383 111.453 80.1859 111.891 75.8088C112.373 70.1929 111.265 65.001 109.777 59.6294Z" fill="#281612"/>
<path d="M62.0434 53.0376C63.797 54.8308 64.9739 57.1097 65.4222 59.5801C66.0325 63.3032 63.7843 66.0838 61.8452 68.9926C60.0535 71.6605 58.8441 74.6776 58.2962 77.8463C57.7482 81.0151 57.8741 84.2641 58.6656 87.3807C57.5125 84.6845 56.9381 81.7754 56.9795 78.8422C57.021 75.9091 57.6775 73.0175 58.9064 70.3551C60.1509 67.7036 62.3416 65.5645 63.4028 62.8295C64.6622 59.5344 63.1502 56.148 62.0434 53.0376Z" fill="#391C15"/>
<path d="M48.747 91.8523C48.862 94.5843 48.2239 97.209 48.32 99.9867C48.4136 103.75 49.5215 107.417 51.5264 110.6C46.4611 106.143 43.9166 97.3769 48.747 91.8523Z" fill="url(#paint65_linear_620_1190)"/>
<path d="M86.2459 10.8131C86.2459 10.8131 95.659 9.23313 99.8127 22.4482C99.8127 22.4482 99.8811 11.3832 95.2548 9.61547C92.3882 8.52109 88.5021 7.59155 86.2459 10.8131Z" fill="#281612"/>
<path d="M85.0549 10.5649C85.0549 10.5649 85.1995 10.2511 84.5892 9.12589C83.5587 7.23901 75.0076 8.43072 74.5726 19.2306C77.0617 10.404 85.0549 10.5649 85.0549 10.5649Z" fill="#281612"/>
<path d="M119.527 77.7068C122.172 79.3216 123.65 83.3773 124.027 86.2732C124.55 90.2863 123.077 94.8138 119.446 96.944C124.634 91.332 121.47 83.9394 119.527 77.7068Z" fill="url(#paint66_linear_620_1190)"/>
<path d="M115.61 96.2559C118.285 98.1686 118.896 102.664 118.614 105.66C118.405 107.718 117.779 109.712 116.774 111.519C115.769 113.325 114.405 114.907 112.768 116.166C117.107 110.199 117.419 103.204 115.61 96.2559Z" fill="#281612"/>
<path d="M86.5323 6.72265C91.1477 6.44359 96.0534 7.27382 98.4582 16.5135C99.6265 20.9973 98.5425 25.5199 99.3054 30.0305C100.106 34.6473 102.349 38.8899 105.711 42.1462C109.173 45.4751 113.682 46.8257 117.667 49.3243C122.629 52.4426 124.397 57.8371 122.408 63.4113C123.802 61.1854 124.413 58.5568 124.145 55.9428C123.878 53.3288 122.746 50.8795 120.931 48.9837C118.667 46.6578 115.751 45.204 112.994 43.5624C110.126 41.9308 107.65 39.6883 105.741 36.9931C104.074 34.5435 102.942 31.7684 102.42 28.8497C102.036 25.8925 101.817 22.9163 101.763 19.9347C101.211 11.2601 95.7552 3.35607 86.5323 6.72265Z" fill="#281612"/>
<path d="M86.5321 6.72253C94.8959 4.25867 102.248 12.6334 103.737 20.2365C104.654 24.904 107.403 27.7473 111.048 30.5647C112.732 31.8696 114.556 33.2162 115.587 35.1329C116.702 37.2065 116.869 39.8888 117.312 42.1689C117.58 38.2959 117.827 34.6582 115.354 31.4058C113.827 29.3938 111.816 27.8168 110.143 25.9349C108.371 23.9417 106.628 22.036 106.005 19.4798C103.359 8.59351 94.3806 1.33898 86.5321 6.72253Z" fill="#281612"/>
<path d="M85.5056 7.35016C78.0574 3.00042 71.7129 15.3118 70.3049 20.887C69.2437 25.0957 69.4003 29.4991 68.1974 33.6661C67.052 37.6385 64.0784 41.8234 59.6087 42.0835C64.1052 41.2345 66.4802 36.693 67.1748 32.5409C68.0606 27.2994 67.6217 22.0767 69.5033 16.9961C70.6653 13.8968 72.5395 11.1155 74.9738 8.87754C77.5887 6.44645 82.5697 3.70353 85.5056 7.35016Z" fill="#281612"/>
<path d="M84.6575 4.90529C76.7782 2.15046 70.0295 8.69692 65.0386 13.7855C61.6098 17.3119 58.83 21.4179 56.8274 25.9141C55.0181 30.2679 56.5301 34.6682 53.3921 38.5403C55.6136 34.6573 54.3582 31.5887 55.1062 27.2499C55.7425 24.4355 56.8902 21.7626 58.492 19.3647C59.5968 17.429 60.8746 15.5979 62.3098 13.8938C65.4399 10.5461 68.6165 7.07222 72.6622 4.81492C76.2748 2.82774 81.0428 2.00546 84.6575 4.90529Z" fill="#281612"/>
<path d="M71.2432 80.573C74.8508 84.3031 76.4382 90.2685 76.2965 95.4108C76.0983 102.68 70.4059 106.786 66.1839 111.939C68.8592 107.371 73.1505 103.407 74.1434 98.0355C75.2819 91.8595 73.0683 86.2892 71.2432 80.573Z" fill="#3F1F18"/>
<path d="M52.5569 67.8206C50.7134 71.3841 49.1176 75.0709 47.781 78.8548C46.2541 83.4806 46.9714 88.1521 47.781 92.8812C46.1817 88.9088 44.8223 84.571 45.5783 80.255C46.0726 77.8051 46.9525 75.4495 48.1852 73.2766C49.289 71.199 50.5415 69.0023 52.5569 67.8206Z" fill="#3F1F18"/>
<path d="M55.0042 91.0679C57.295 93.7691 56.4587 98.1953 54.8862 101.016C52.5498 105.163 49.2899 106.143 44.7855 105.813C48.1256 105.094 50.6791 104.241 52.5924 101.18C54.3829 98.1248 55.2227 94.6039 55.0042 91.0679V91.0679Z" fill="#3F1F18"/>
<path d="M97.5535 85.157C96.301 88.5335 93.6891 92.3271 92.4912 95.79C90.8801 100.431 92.6091 104.743 95.4578 108.477C92.188 105.795 89.6702 101.992 90.1439 97.6074C90.4909 95.1426 91.325 92.7719 92.5973 90.6341C93.8696 88.4962 95.5545 86.6342 97.5535 85.157V85.157Z" fill="#281612"/>
<path d="M104.955 43.6934C105.658 49.4533 104.642 51.9648 102.765 55.0265C100.237 59.349 97.0953 63.2801 93.4387 66.6964C95.8018 63.299 97.8668 59.7368 99.9287 56.1438C102.161 52.222 103.241 52.4524 104.955 43.6934Z" fill="#281612"/>
<path d="M102.841 103.311C103.328 105.906 104.114 108.437 105.181 110.852C106.326 113.687 107.975 116.254 111.027 116.928C103.982 117.922 101.473 108.916 102.841 103.311Z" fill="#281612"/>
<path d="M60.3032 101.753C60.0222 104.38 60.0438 107.029 60.3676 109.65C60.6461 112.692 61.4863 115.631 64.2122 117.157C57.1771 116.09 57.3752 106.754 60.3032 101.753Z" fill="#281612"/>
<path d="M118.629 94.791C119.667 98.4833 118.003 103.178 116.132 106.311C114.904 108.454 113.218 110.298 111.194 111.709C109.17 113.121 106.86 114.066 104.428 114.476C112.864 111.106 116.041 102.822 118.629 94.791Z" fill="#281612"/>
<g filter="url(#filter1_d_620_1190)">
<path d="M49.618 84.0588C45.071 95.2579 46.4473 96.4357 49.8162 101.349C51.4917 103.786 53.2842 105.309 53.7796 108.002C54.3741 111.232 52.5619 112.953 49.3208 114.124C53.409 113.696 55.5007 112.004 56.2568 108.415C56.7131 106.588 56.5255 104.658 55.7256 102.953C54.9122 101.377 53.6141 100.099 52.6718 98.5957C49.9027 94.2923 48.8153 89.116 49.618 84.0588Z" fill="#281612"/>
</g>
<path d="M110.758 14.6584C110.758 14.6584 101.382 -4.25107 84.5891 0.884203C84.5891 0.884203 70.3615 -4.06239 61.9253 13.6405C61.9253 13.6405 71.4197 -1.38402 84.9944 2.51089C84.9934 2.52181 95.1675 -4.6781 110.758 14.6584Z" fill="#281612"/>
<path d="M105.768 108.117C110.414 106.097 114.416 102.836 117.338 98.6898C120.728 93.7164 119.598 86.1401 116.17 81.6832C114.467 79.4755 111.424 78.546 109.543 76.5191C108.15 75.0138 107.044 73.2661 106.279 71.3619C103.744 65.0796 105.669 59.0953 108.527 53.3264C105.428 57.1796 102.939 61.5442 102.84 66.61C102.831 69.3089 103.402 71.978 104.513 74.4364C105.624 76.8947 107.25 79.0848 109.28 80.8579C113.075 84.3973 117.091 89.4322 116.029 95.079C115.544 97.6501 113.589 99.9799 111.986 101.966C110.145 104.239 108.059 106.302 105.768 108.117V108.117Z" fill="#281612"/>
<g filter="url(#filter2_d_620_1190)">
<path d="M61.64 54.0166C60.7366 56.8238 59.3119 59.4344 57.4408 61.7111C55.3098 64.31 53.3389 67.0368 51.5393 69.8763C49.7225 72.766 48.9955 76.2112 49.4892 79.5907C50.0837 83.3744 53.1732 86.3129 56.009 88.6278C54.7338 86.4857 53.1613 84.6068 52.5163 82.1658C51.7226 79.1601 51.9552 75.9746 53.1772 73.1167C54.0507 71.2649 55.0922 69.4973 56.2884 67.8365C57.2079 66.3826 58.2929 65.1551 59.1936 63.7648C61.0738 60.881 61.9351 57.4488 61.64 54.0166V54.0166Z" fill="#281612"/>
</g>
<path d="M113.113 51.6599C112.411 58.7377 116.694 65.0508 119.602 71.1464C121.052 73.8773 121.988 76.8526 122.362 79.9233C122.629 83.275 120.67 87.017 118.926 89.7678C121.504 87.7549 123.44 85.0317 124.496 81.9323C125.388 78.669 124.725 75.0721 123.587 71.9537C120.984 64.7489 115.491 59.0177 113.113 51.6599Z" fill="#281612"/>
<path d="M97.0759 65.7659C96.0374 69.6995 92.5635 72.6301 91.2774 76.4783C90.8103 77.9584 90.73 79.5338 91.0442 81.0538C91.3584 82.5739 92.0565 83.9877 93.0718 85.16C94.613 87.266 96.7365 88.8728 99.1794 89.7818C96.8763 89.4205 94.7421 88.351 93.0718 86.7211C91.0103 84.9914 89.5869 82.619 89.0292 79.983C88.1849 74.4892 93.5445 69.3122 97.0759 65.7659Z" fill="#281612"/>
<path d="M109.613 48.6599C107.956 52.0156 105.941 55.1339 104.461 58.6077C102.425 63.144 101.126 67.9776 100.613 72.9251C100.265 77.4169 102.212 81.1241 105.171 84.4033C108.13 87.6825 112.962 90.5247 114.157 95.0592C112.661 91.4661 109.122 89.4621 106.267 87.0667C102.686 84.0676 99.3311 80.3137 98.796 75.4774C98.2501 70.5536 99.88 65.1492 101.769 60.6366C103.601 56.1813 106.263 52.1166 109.613 48.6599V48.6599Z" fill="#281612"/>
<path d="M100.966 86.2505C103.058 91.4841 104.646 96.6154 107.513 101.341C110.887 106.896 116.728 111.422 123.145 112.379C120.126 112.319 117.153 111.621 114.421 110.331C111.689 109.041 109.26 107.187 107.292 104.891C105.298 102.483 103.864 99.6617 103.092 96.6303C101.943 93.2758 101.229 89.7874 100.966 86.2505Z" fill="#3F1F18"/>
<path d="M85.5056 5.17749C86.2984 4.50608 87.2195 4.00374 88.2125 3.70117C89.2056 3.3986 90.2498 3.30216 91.2813 3.41773C94.3594 3.96049 97.2189 5.37312 99.5232 7.48941C99.5232 7.48941 93.2243 2.15849 85.5056 5.17749Z" fill="#3F1F18"/>
<path d="M83.9519 4.69663C72.3589 1.73523 66.3345 13.4656 63.4412 21.8523C62.5059 24.5684 61.7271 27.4037 60.7659 30.1089C59.8048 32.814 57.5952 34.7764 55.7344 36.847C53.9291 38.8441 52.0504 40.9713 51.4589 43.6844C50.8098 46.6637 52.8678 49.2169 52.4626 52.1019C53.2265 50.1544 52.3635 47.9617 52.524 45.9447C52.7341 43.3627 54.5057 41.3765 56.3418 39.7041C58.3381 38.1001 60.1052 36.2289 61.5933 34.1428C62.9842 31.6601 64.0249 28.9961 64.6858 26.2269C67.369 16.9345 72.5571 3.35497 83.9519 4.69663Z" fill="#3F1F18"/>
<path d="M85.0698 7.87072C84.317 7.39472 83.4702 7.08803 82.5876 6.97178C81.7051 6.85554 80.808 6.93252 79.958 7.19741C77.1945 8.14581 76.4157 9.55401 74.8422 11.4061C74.8432 11.421 79.745 5.8041 85.0698 7.87072Z" fill="#3F1F18"/>
<path d="M97.4367 11.8271C97.4367 11.8271 94.0926 6.08798 88.1108 9.14571C88.1108 9.14571 94.9328 7.49717 97.5933 13.7944L97.4367 11.8271Z" fill="#391C15"/>
<path d="M99.9929 62.8582C95.1635 66.7987 92.1136 72.806 94.5947 78.9701C97.27 85.597 103.856 88.761 109.101 92.9925C106.426 88.2326 101.893 84.8581 99.0417 80.2134C97.411 77.7924 96.6244 74.8991 96.8043 71.9837C97.1214 68.7581 98.6602 65.754 99.9929 62.8582Z" fill="#391C15"/>
<path d="M83.4021 8.35241C79.8063 6.52314 75.1334 12.2165 73.8582 14.9565C71.824 19.3261 71.5218 24.4902 70.2277 29.113C68.9337 33.7358 67.1055 38.3259 63.9021 41.9497C60.9434 45.2974 53.8469 46.7553 50.8545 50.0682C47.1557 54.1578 49.0908 60.877 49.6556 66.206C50.0371 62.0201 49.8736 55.4935 52.4657 52.0951C55.3481 48.3303 61.4596 48.4207 64.9911 45.3838C72.477 38.9446 73.771 28.6721 74.9987 19.485C75.2112 16.9411 76.0664 14.4934 77.4837 12.3724C78.752 10.6137 80.8863 7.76748 83.4021 8.35241Z" fill="#3F1F18"/>
<path d="M72.469 40.4837C73.3965 40.732 74.0455 41.3864 73.9276 41.9455C73.8097 42.5047 72.9546 42.7609 72.0192 42.5116C71.0838 42.2623 70.4338 41.6089 70.5606 41.0498C70.6875 40.4907 71.5416 40.2355 72.469 40.4837Z" fill="url(#paint67_linear_620_1190)"/>
<path d="M100.424 40.4835C101.348 40.2849 102.18 40.564 102.283 41.1221C102.386 41.6802 101.718 42.3009 100.791 42.5124C99.8633 42.724 99.031 42.432 98.928 41.8739C98.8249 41.3157 99.4957 40.697 100.424 40.4835Z" fill="url(#paint68_linear_620_1190)"/>
<path d="M128.459 78.2241C128.459 78.2241 125.289 89.3537 121.649 98.2846C119.653 103.189 118.053 107.13 117.893 107.563C117.442 108.78 106.597 132.374 114.281 142.109C119.16 148.288 129.937 139.319 129.937 139.319C131.005 137.666 131.578 135.741 131.589 133.772C131.81 130.019 133.654 108.903 133.88 106.729C134.224 103.423 133.705 89.4659 137.633 81.2173L128.459 78.2241Z" fill="#F7D4AB"/>
<path d="M134.452 102.32L134.662 98.9846C134.662 98.9846 126.378 100.673 121.629 97.2825L120.539 100.416C120.539 100.416 123.98 105.052 134.452 102.32Z" fill="url(#paint69_linear_620_1190)"/>
<path d="M144.114 56.4239C143.311 56.1471 142.494 55.915 141.666 55.7288C141.666 55.7288 142.43 55.0207 142.743 54.7148C143.055 54.409 144.651 54.833 144.754 55.4457C144.794 55.7347 144.114 56.4239 144.114 56.4239Z" fill="#F54964"/>
<path d="M128.378 80.2014C127.998 78.8163 127.897 77.3693 128.08 75.9446C128.264 74.5199 128.728 73.146 129.447 71.9031C130.061 70.8932 136.319 64.1977 136.7 63.4321C137.082 62.6664 139.14 57.4904 139.678 56.7674C140.216 56.0445 142.4 54.2648 143.961 54.958C145.179 55.4973 143.694 57.1845 143.06 58.3594C142.679 59.0982 140.633 63.6088 140.633 63.6088C140.633 63.6088 148.341 60.6296 149.118 60.3148C149.896 60 159.681 54.4496 160.659 54.0176C161.637 53.5856 166.767 51.2895 167.485 53.0572C168.527 55.5867 152.418 60.3267 152.418 60.3267L128.378 80.2014Z" fill="url(#paint70_linear_620_1190)"/>
<path d="M146.363 63.9029C146.363 63.9029 151.092 60.7499 155.864 57.7815C158.197 56.3197 163.449 53.5271 167.381 52.8806C167.557 53.1464 167.627 53.4682 167.579 53.7833L146.363 63.9029Z" fill="url(#paint71_linear_620_1190)"/>
<path d="M146.347 67.8969L131.497 71.0609C131.497 71.0609 150.775 61.2819 153.443 59.7247C157.159 57.6364 160.981 55.7449 164.895 54.0582C166.529 53.507 170.163 52.1256 170.9 53.0522C172.045 54.51 169.937 55.1754 169.025 55.52C168.112 55.8646 161.693 58.6462 161.693 58.6462L146.347 67.8969Z" fill="url(#paint72_linear_620_1190)"/>
<path d="M147.015 65.1769C149.887 62.9014 153.013 60.9665 156.329 59.411C159.554 57.9492 165.377 55.7951 167.876 55.9868L147.015 65.1769Z" fill="url(#paint73_linear_620_1190)"/>
<path d="M140.464 67.8941C140.464 67.8941 153.982 60.4796 160.666 58.1618C164.484 56.83 167.587 55.8657 168.117 57.4269C168.499 58.5749 165.323 59.4627 163.949 60.0556C162.292 60.7706 150.205 65.4957 149.255 66.0012L140.464 67.8941Z" fill="url(#paint74_linear_620_1190)"/>
<path d="M160.62 61.3814L162.147 60.7726C161.299 60.5779 160.427 60.511 159.559 60.574C157.571 60.9168 155.615 61.4288 153.713 62.1043C152.915 62.4867 149.079 64.2544 144.578 66.8712L160.62 61.3814Z" fill="url(#paint75_linear_620_1190)"/>
<path d="M127.429 82.2074C127.429 82.2074 128.441 75.2896 129.337 73.6142C132.356 68.0896 139.782 67.1978 141.812 67.0032C144.621 66.5806 147.341 65.6922 149.859 64.3745C150.836 63.9425 160.704 59.4011 162.542 61.8918C163.179 62.7567 162.565 63.1123 160.282 63.8928C157.999 64.6734 156.793 65.3924 154.059 66.5742C152.078 67.5215 150.164 68.6056 148.333 69.8186C146.569 70.7938 139.095 78.3314 138.137 79.9809C137.179 81.6304 136.439 86.0716 136.439 86.0716L127.429 82.2074Z" fill="#F7D4AB"/>
<path d="M128.248 77.5202C128.248 77.5202 128.213 73.6372 130.367 71.3988C133.103 68.5823 136.394 67.6419 141.167 66.9646C144.576 66.3848 147.873 65.2705 150.936 63.6626C152.287 62.9813 159.716 60.1927 162.044 61.4668C160.672 61.35 159.291 61.4624 157.956 61.7995C154.879 62.7596 151.854 63.881 148.894 65.1592C146.434 66.5354 143.744 67.4507 140.957 67.8604C137.922 68.2259 135 69.2369 132.387 70.8257C131.286 71.6078 130.352 72.6032 129.641 73.753C128.93 74.9028 128.457 76.1838 128.248 77.5202V77.5202Z" fill="url(#paint76_linear_620_1190)"/>
<path d="M143.137 58.3205C143.358 57.8349 144.134 56.7554 144.248 56.3582C143.683 56.7392 143.17 57.1918 142.721 57.7048C142.461 58.1596 139.667 64.0824 139.667 64.0824L140.658 63.6077C140.658 63.6077 142.121 60.5132 143.137 58.3205Z" fill="url(#paint77_linear_620_1190)"/>
<path d="M140.919 63.5204C140.919 63.5204 148.467 60.5858 149.161 60.2531C149.856 59.9204 157.152 55.815 158.835 55.0037C155.346 57.2421 151.856 59.84 149.208 60.8688C146.559 61.8977 140.919 63.5204 140.919 63.5204Z" fill="url(#paint78_linear_620_1190)"/>
<path d="M129.978 75.7645C130.65 74.1756 133.933 72.1943 135.536 71.671C137.949 70.8825 146.015 68.3461 141.644 72.1258C141.262 72.4436 134.092 80.1222 131.794 79.6286C129.497 79.135 129.036 77.9721 129.978 75.7645Z" fill="url(#paint79_linear_620_1190)"/>
<path d="M131.589 100.794C131.589 100.794 134.823 81.2202 136.552 79.5975C138.281 77.9748 146.856 70.9507 146.856 70.9507C146.856 70.9507 143.383 74.6768 142.146 75.9241C140.909 77.1714 138.847 79.1804 138.233 80.5807C135.824 86.0636 134.576 100.476 134.576 100.476L131.589 100.794Z" fill="url(#paint80_linear_620_1190)"/>
<path d="M132.459 68.3906C132.459 68.3906 136.423 63.723 136.586 63.4171C136.75 63.1113 138.819 57.8965 139.693 56.7634C139.495 57.8121 137.506 63.723 137.231 64.4152C136.957 65.1074 132.459 68.3906 132.459 68.3906Z" fill="url(#paint81_linear_620_1190)"/>
<path d="M159.548 64.1521C157.012 64.759 154.509 65.4958 152.048 66.3597C150.219 67.7735 148.486 69.3072 146.859 70.9508C150.872 68.2998 155.12 66.024 159.548 64.1521V64.1521Z" fill="url(#paint82_linear_620_1190)"/>
<path d="M159.643 64.1162C159.571 64.0089 160.247 63.5461 160.754 63.2512C161.339 62.8767 161.985 62.6078 162.663 62.4567C163.257 62.418 163.227 63.0843 163.227 63.0843L159.643 64.1162Z" fill="#F54964"/>
<path d="M165.072 59.6048C166.073 58.8435 167.121 58.147 168.21 57.5193C168.63 57.431 168.924 58.1658 168.924 58.1658C167.691 58.7744 166.401 59.2565 165.072 59.6048V59.6048Z" fill="#F54964"/>
<path d="M167.923 55.9672C167.626 55.9672 168.942 55.0297 171.232 54.0048C171.656 53.8221 171.897 54.6166 171.897 54.6166C170.639 55.243 169.302 55.6972 167.923 55.9672V55.9672Z" fill="#F54964"/>
<path d="M128.062 78.4805C128.062 78.4805 126.702 87.9426 126.001 90.9308C125.299 93.9191 123.325 99.7495 123.325 99.7495L120.81 99.1537C120.81 99.1537 126.195 85.0349 128.062 78.4805Z" fill="url(#paint83_linear_620_1190)"/>
<path d="M121.072 98.238C121.072 98.238 127.585 101.714 134.666 100.151C133.179 129.73 133.25 129.554 133.139 131.547C133.187 133.912 132.554 136.24 131.314 138.253C130.074 140.265 128.281 141.876 126.149 142.891C118.946 146.695 117.996 146.526 116.465 145.573C113.937 143.636 112.036 140.995 110.999 137.98C109.962 134.965 109.836 131.71 110.636 128.624C113.311 117.112 121.072 98.238 121.072 98.238Z" fill="#F94A72"/>
<path d="M123.355 100.415C126.079 101.34 128.938 101.802 131.814 101.78C129.494 126.814 124.095 146.297 118.125 145.355C108.123 143.764 123.355 100.415 123.355 100.415Z" fill="url(#paint84_linear_620_1190)"/>
<path d="M42.777 79.2025C44.4615 88.2515 46.9307 91.6062 49.9687 98.822C52.1485 103.986 54.1679 108.356 54.3591 108.865C54.8248 110.078 64.9831 132.02 57.4129 141.846C52.6103 148.086 41.6811 139.76 41.6811 139.76C40.5942 138.121 39.998 136.204 39.963 134.236C39.6955 130.486 37.5929 109.367 37.3402 107.224C37.1718 105.789 37.1193 103.13 36.6565 99.5718C36.062 94.9807 35.737 89.6011 32.9458 81.5898C32.9389 81.6177 41.6316 73.0244 42.777 79.2025Z" fill="#F7D4AB"/>
<path d="M49.4793 97.4346C45.3787 99.1487 40.9263 99.8471 36.4992 99.4704L36.8806 102.481C36.8806 102.481 46.4245 103.446 50.6426 100.342L49.4793 97.4346Z" fill="url(#paint85_linear_620_1190)"/>
<path d="M27.5568 57.0772C28.3647 56.8194 29.1869 56.6085 30.019 56.4456C30.019 56.4456 29.2551 55.7186 28.9697 55.4048C28.6844 55.091 27.0613 55.4773 26.9384 56.0861C26.8849 56.3741 27.5568 57.0772 27.5568 57.0772Z" fill="#F54964"/>
<path d="M42.689 81.2382C43.1027 79.8628 43.2391 78.4186 43.0903 76.9898C42.9414 75.5611 42.5103 74.1763 41.8221 72.9161C41.2345 71.8873 35.1338 65.0419 34.7751 64.2653C34.4164 63.4887 32.4842 58.2661 31.969 57.5272C31.4538 56.7883 29.2937 54.96 27.7281 55.6145C26.4955 56.123 27.9382 57.845 28.5446 59.0387C28.9261 59.8043 30.8355 64.3458 30.8355 64.3458C30.8355 64.3458 23.2009 61.1778 22.437 60.8451C21.673 60.5124 12.038 54.7237 11.0689 54.2609C10.0999 53.7981 5.0376 51.3809 4.26969 53.1129C3.16687 55.6155 19.1573 60.7647 19.1573 60.7647L42.689 81.2382Z" fill="url(#paint86_linear_620_1190)"/>
<path d="M25.1211 64.5115C25.1211 64.5115 20.471 61.2254 15.7644 58.1339C13.4736 56.6035 8.28646 53.6918 4.36962 52.95C4.18598 53.2093 4.10576 53.5281 4.1447 53.8437L25.1211 64.5115Z" fill="url(#paint87_linear_620_1190)"/>
<path d="M25.0408 68.4937L39.8145 72.0211C39.8145 72.0211 20.7851 61.7675 18.1584 60.1607C14.4924 57.9888 10.7197 56.0031 6.85469 54.2111C5.2396 53.6152 1.6329 52.1484 0.872918 53.063C-0.322051 54.4901 1.78152 55.2091 2.68617 55.5766C3.59082 55.944 9.93922 58.8826 9.93922 58.8826L25.0408 68.4937Z" fill="url(#paint88_linear_620_1190)"/>
<path d="M24.4424 65.755C21.6292 63.4107 18.555 61.4002 15.281 59.7637C12.0934 58.2333 6.32961 55.9373 3.82871 56.0525L24.4424 65.755Z" fill="url(#paint89_linear_620_1190)"/>
<path d="M30.9207 68.6369C30.9207 68.6369 17.5907 60.8908 10.9669 58.3942C7.17983 56.9711 4.0953 55.9224 3.53547 57.4726C3.11139 58.6206 6.28013 59.5809 7.63958 60.2046C9.27746 60.9703 21.2489 65.9854 22.1803 66.5137L30.9207 68.6369Z" fill="url(#paint90_linear_620_1190)"/>
<path d="M10.9319 61.6265L9.40504 60.98C10.2576 60.806 11.1312 60.7608 11.9971 60.8459C13.977 61.2383 15.9206 61.7964 17.8075 62.5143C18.5942 62.8967 22.3882 64.7756 26.8242 67.4877L10.9319 61.6265Z" fill="url(#paint91_linear_620_1190)"/>
<path d="M43.6016 83.2581C43.6016 83.2581 42.7613 76.3213 41.8874 74.6182C39.005 69.0211 31.6073 67.9496 29.58 67.7003C26.781 67.2089 24.0832 66.2534 21.5977 64.873C20.6276 64.4142 10.8786 59.6394 8.99993 62.0804C8.34299 62.9255 8.94644 63.2969 11.2105 64.1351C13.4746 64.9733 14.6458 65.7241 17.3637 66.9704C19.3253 67.9579 21.2111 69.0898 23.0057 70.3568C24.7347 71.3857 32.0343 79.096 32.9419 80.7674C33.8496 82.4388 34.4917 86.8888 34.4917 86.8888L43.6016 83.2581Z" fill="#F7D4AB"/>
<path d="M42.9 78.5558C42.9 78.5558 43.0298 74.6728 40.9302 72.3986C38.2549 69.5027 35.002 68.4381 30.2419 67.6318C26.8504 66.9768 23.5816 65.7958 20.5533 64.1311C19.2206 63.4161 11.8724 60.4467 9.48251 61.6633C10.8574 61.579 12.2366 61.7264 13.5629 62.0992C16.6154 63.1314 19.6113 64.3248 22.538 65.6744C24.9634 67.11 27.6293 68.0913 30.4054 68.5702C33.4324 69.002 36.3302 70.0861 38.899 71.7481C39.989 72.5543 40.9053 73.5728 41.5928 74.7426C42.2803 75.9125 42.725 77.2094 42.9 78.5558V78.5558Z" fill="url(#paint92_linear_620_1190)"/>
<path d="M28.4852 58.9979C28.2751 58.5083 27.527 57.409 27.4239 57.0117C27.9776 57.4046 28.4759 57.8706 28.9053 58.3971C29.1421 58.8599 31.7986 64.8522 31.7986 64.8522L30.8256 64.3556C30.8256 64.3556 29.4314 61.2254 28.4852 58.9979Z" fill="url(#paint93_linear_620_1190)"/>
<path d="M30.5728 64.2355C30.5728 64.2355 23.1017 61.1172 22.4151 60.7656C21.7284 60.4141 14.5397 56.1319 12.8711 55.2788C16.3064 57.6017 19.7427 60.287 22.3536 61.3813C24.9645 62.4757 30.5728 64.2355 30.5728 64.2355Z" fill="url(#paint94_linear_620_1190)"/>
<path d="M41.2127 76.7464C40.5786 75.1396 37.3484 73.0809 35.7581 72.5376C33.3612 71.6886 25.3591 68.9526 29.6504 72.8356C30.0319 73.1643 37.0026 81.0197 39.3123 80.5817C41.622 80.1437 42.1055 78.9928 41.2127 76.7464Z" fill="url(#paint95_linear_620_1190)"/>
<path d="M38.769 100.633C38.769 100.633 36.2324 82.1063 34.548 80.4389C32.8635 78.7715 24.4512 71.5398 24.4512 71.5398C24.4512 71.5398 27.833 75.3662 29.0319 76.6135C30.2308 77.8608 32.2502 79.9533 32.8298 81.3654C35.1207 86.9059 36.5901 100.258 36.5901 100.258L38.769 100.633Z" fill="url(#paint96_linear_620_1190)"/>
<path d="M38.9138 69.329C38.9138 69.329 35.0663 64.5691 34.9097 64.2642C34.7532 63.9593 32.8101 58.69 31.9699 57.53C32.1452 58.5817 33.9813 64.5432 34.237 65.2583C34.4926 65.9733 38.9138 69.329 38.9138 69.329Z" fill="url(#paint97_linear_620_1190)"/>
<path d="M11.9478 64.4192C14.4667 65.0895 16.95 65.8877 19.3881 66.8105C21.1793 68.2673 22.8727 69.8408 24.4573 71.5208C20.5129 68.7751 16.3256 66.398 11.9478 64.4192V64.4192Z" fill="url(#paint98_linear_620_1190)"/>
<path d="M11.8407 64.3855C11.9169 64.2862 11.2531 63.8006 10.7507 63.4918C10.176 63.1049 9.53918 62.82 8.8681 62.6496C8.27358 62.6 8.28746 63.2653 8.28746 63.2653L11.8407 64.3855Z" fill="#F54964"/>
<path d="M6.52686 59.7397C5.5445 58.9543 4.51435 58.2309 3.44235 57.5737C3.03015 57.4744 2.71305 58.1855 2.71305 58.1855C3.92609 58.8369 5.20447 59.3578 6.52686 59.7397V59.7397Z" fill="#F54964"/>
<path d="M3.76714 56.0327C4.06439 56.0327 2.90411 55.1389 0.641009 54.0584C0.220889 53.8598 -7.32624e-05 54.6632 -7.32624e-05 54.6632C1.18682 55.2913 2.45452 55.7521 3.76714 56.0327Z" fill="#F54964"/>
<path d="M43.2508 80.9709C43.2508 80.9709 44.4497 88.8988 45.2474 91.8632C46.045 94.8276 47.7711 99.6758 47.7711 99.6758L50.0005 98.5834C50.0005 98.5834 45.3345 87.4598 43.2508 80.9709Z" fill="url(#paint99_linear_620_1190)"/>
<path d="M50.0075 98.5857C45.7836 100.434 41.1098 100.993 36.5706 100.193C36.5706 100.193 38.2659 130.204 38.3719 132.056C38.3531 134.421 39.0155 136.741 40.2797 138.739C41.5439 140.736 43.3562 142.325 45.4991 143.316C52.7443 147.027 53.6995 146.851 55.2185 145.887C56.7374 144.922 62.853 138.95 60.8415 128.868C58.0582 115.057 50.0075 98.5857 50.0075 98.5857Z" fill="#F94A72"/>
<path d="M47.6739 100.675C44.9103 101.769 41.8946 102.058 38.9742 101.509C41.6039 126.516 47.6135 146.656 53.5725 145.65C63.5583 143.951 47.6739 100.675 47.6739 100.675Z" fill="url(#paint100_linear_620_1190)"/>
<defs>
<filter id="filter0_d_620_1190" x="44.0952" y="51.8936" width="18.1572" height="26.8965" filterUnits="userSpaceOnUse" color-interpolation-filters="sRGB">
<feFlood flood-opacity="0" result="BackgroundImageFix"/>
<feColorMatrix in="SourceAlpha" type="matrix" values="0 0 0 0 0 0 0 0 0 0 0 0 0 0 0 0 0 0 127 0" result="hardAlpha"/>
<feOffset dy="4"/>
<feGaussianBlur stdDeviation="2"/>
<feComposite in2="hardAlpha" operator="out"/>
<feColorMatrix type="matrix" values="0 0 0 0 0 0 0 0 0 0 0 0 0 0 0 0 0 0 0.25 0"/>
<feBlend mode="normal" in2="BackgroundImageFix" result="effect1_dropShadow_620_1190"/>
<feBlend mode="normal" in="SourceGraphic" in2="effect1_dropShadow_620_1190" result="shape"/>
</filter>
<filter id="filter1_d_620_1190" x="42.7197" y="84.0588" width="17.781" height="38.0649" filterUnits="userSpaceOnUse" color-interpolation-filters="sRGB">
<feFlood flood-opacity="0" result="BackgroundImageFix"/>
<feColorMatrix in="SourceAlpha" type="matrix" values="0 0 0 0 0 0 0 0 0 0 0 0 0 0 0 0 0 0 127 0" result="hardAlpha"/>
<feOffset dy="4"/>
<feGaussianBlur stdDeviation="2"/>
<feComposite in2="hardAlpha" operator="out"/>
<feColorMatrix type="matrix" values="0 0 0 0 0 0 0 0 0 0 0 0 0 0 0 0 0 0 0.25 0"/>
<feBlend mode="normal" in2="BackgroundImageFix" result="effect1_dropShadow_620_1190"/>
<feBlend mode="normal" in="SourceGraphic" in2="effect1_dropShadow_620_1190" result="shape"/>
</filter>
<filter id="filter2_d_620_1190" x="45.3384" y="54.0166" width="20.3584" height="42.6113" filterUnits="userSpaceOnUse" color-interpolation-filters="sRGB">
<feFlood flood-opacity="0" result="BackgroundImageFix"/>
<feColorMatrix in="SourceAlpha" type="matrix" values="0 0 0 0 0 0 0 0 0 0 0 0 0 0 0 0 0 0 127 0" result="hardAlpha"/>
<feOffset dy="4"/>
<feGaussianBlur stdDeviation="2"/>
<feComposite in2="hardAlpha" operator="out"/>
<feColorMatrix type="matrix" values="0 0 0 0 0 0 0 0 0 0 0 0 0 0 0 0 0 0 0.25 0"/>
<feBlend mode="normal" in2="BackgroundImageFix" result="effect1_dropShadow_620_1190"/>
<feBlend mode="normal" in="SourceGraphic" in2="effect1_dropShadow_620_1190" result="shape"/>
</filter>
<linearGradient id="paint0_linear_620_1190" x1="87.5009" y1="37.9564" x2="85.8928" y2="68.9485" gradientUnits="userSpaceOnUse">
<stop stop-color="#652F23"/>
<stop offset="0.77" stop-color="#492219"/>
</linearGradient>
<linearGradient id="paint1_linear_620_1190" x1="122.158" y1="181.889" x2="71.9456" y2="86.1723" gradientUnits="userSpaceOnUse">
<stop stop-color="#D64053"/>
<stop offset="0.58" stop-color="#ED4768"/>
<stop offset="1" stop-color="#F94A72"/>
</linearGradient>
<linearGradient id="paint2_linear_620_1190" x1="80.6176" y1="126.356" x2="81.2017" y2="93.5372" gradientUnits="userSpaceOnUse">
<stop stop-color="#FF6586"/>
<stop offset="0.52" stop-color="#FB547A"/>
<stop offset="1" stop-color="#F94A72"/>
</linearGradient>
<linearGradient id="paint3_linear_620_1190" x1="46.7673" y1="76.9471" x2="41.4493" y2="79.6073" gradientUnits="userSpaceOnUse">
<stop stop-color="#FF6586"/>
<stop offset="0.52" stop-color="#FB547A"/>
<stop offset="1" stop-color="#F94A72"/>
</linearGradient>
<linearGradient id="paint4_linear_620_1190" x1="30.2982" y1="69.4331" x2="36.0654" y2="94.5101" gradientUnits="userSpaceOnUse">
<stop stop-color="#FF6586"/>
<stop offset="0.52" stop-color="#FB547A"/>
<stop offset="1" stop-color="#F94A72"/>
</linearGradient>
<linearGradient id="paint5_linear_620_1190" x1="111.475" y1="154.432" x2="-9.94104" y2="-2.31317" gradientUnits="userSpaceOnUse">
<stop stop-color="#D64053"/>
<stop offset="0.58" stop-color="#ED4768"/>
<stop offset="1" stop-color="#F94A72"/>
</linearGradient>
<linearGradient id="paint6_linear_620_1190" x1="-102.012" y1="60.7341" x2="-45.4516" y2="107.372" gradientUnits="userSpaceOnUse">
<stop stop-color="#F54964"/>
<stop offset="0.42" stop-color="#E9465A"/>
<stop offset="1" stop-color="#D23F47"/>
</linearGradient>
<linearGradient id="paint7_linear_620_1190" x1="106.834" y1="48.5083" x2="162.354" y2="106.857" gradientUnits="userSpaceOnUse">
<stop stop-color="#D23F47"/>
<stop offset="0.58" stop-color="#E9465A"/>
<stop offset="1" stop-color="#F54964"/>
</linearGradient>
<linearGradient id="paint8_linear_620_1190" x1="-83.9288" y1="160.463" x2="-99.5371" y2="152.936" gradientUnits="userSpaceOnUse">
<stop stop-color="#F94A72"/>
<stop offset="0.42" stop-color="#ED4768"/>
<stop offset="1" stop-color="#D64053"/>
</linearGradient>
<linearGradient id="paint9_linear_620_1190" x1="107.276" y1="37.4269" x2="160.173" y2="67.0529" gradientUnits="userSpaceOnUse">
<stop stop-color="#F94A72"/>
<stop offset="0.4" stop-color="#ED4667"/>
<stop offset="0.83" stop-color="#DB4157"/>
<stop offset="1" stop-color="#D64053"/>
</linearGradient>
<linearGradient id="paint10_linear_620_1190" x1="54.4719" y1="97.3332" x2="54.4719" y2="117.604" gradientUnits="userSpaceOnUse">
<stop stop-color="#D23F47"/>
<stop offset="0.58" stop-color="#E9465A"/>
<stop offset="1" stop-color="#F54964"/>
</linearGradient>
<linearGradient id="paint11_linear_620_1190" x1="93.4819" y1="65.4051" x2="90.9189" y2="86.7399" gradientUnits="userSpaceOnUse">
<stop stop-color="#F0C499"/>
<stop offset="0.52" stop-color="#F1C69C"/>
<stop offset="0.85" stop-color="#F4CEA4"/>
<stop offset="1" stop-color="#F7D4AB"/>
</linearGradient>
<linearGradient id="paint12_linear_620_1190" x1="-1606.33" y1="79.6302" x2="-1598.09" y2="87.5393" gradientUnits="userSpaceOnUse">
<stop stop-color="#F0C499"/>
<stop offset="0.52" stop-color="#F1C69C"/>
<stop offset="0.85" stop-color="#F4CEA4"/>
<stop offset="1" stop-color="#F7D4AB"/>
</linearGradient>
<linearGradient id="paint13_linear_620_1190" x1="83.7503" y1="79.4611" x2="81.8854" y2="71.394" gradientUnits="userSpaceOnUse">
<stop stop-color="#F0C499"/>
<stop offset="0.52" stop-color="#F1C69C"/>
<stop offset="0.85" stop-color="#F4CEA4"/>
<stop offset="1" stop-color="#F7D4AB"/>
</linearGradient>
<linearGradient id="paint14_linear_620_1190" x1="85.0818" y1="80.6112" x2="86.143" y2="72.8597" gradientUnits="userSpaceOnUse">
<stop stop-color="#F0C499"/>
<stop offset="0.52" stop-color="#F1C69C"/>
<stop offset="0.85" stop-color="#F4CEA4"/>
<stop offset="1" stop-color="#F7D4AB"/>
</linearGradient>
<linearGradient id="paint15_linear_620_1190" x1="86.4527" y1="59.8439" x2="84.4519" y2="72.7651" gradientUnits="userSpaceOnUse">
<stop stop-color="#DBA379"/>
<stop offset="0.49" stop-color="#E4B186"/>
<stop offset="1" stop-color="#F0C499"/>
</linearGradient>
<linearGradient id="paint16_linear_620_1190" x1="80.7645" y1="47.3579" x2="59.3828" y2="65.8816" gradientUnits="userSpaceOnUse">
<stop stop-color="#DBA379"/>
<stop offset="0.49" stop-color="#E4B186"/>
<stop offset="1" stop-color="#F0C499"/>
</linearGradient>
<linearGradient id="paint17_linear_620_1190" x1="97.9854" y1="52.4139" x2="81.2912" y2="77.2477" gradientUnits="userSpaceOnUse">
<stop stop-color="#DBA379"/>
<stop offset="0.49" stop-color="#E4B186"/>
<stop offset="1" stop-color="#F0C499"/>
</linearGradient>
<linearGradient id="paint18_linear_620_1190" x1="72.0357" y1="72.135" x2="59.3714" y2="119.322" gradientUnits="userSpaceOnUse">
<stop stop-color="#D64053"/>
<stop offset="0.58" stop-color="#ED4768"/>
<stop offset="1" stop-color="#F94A72"/>
</linearGradient>
<linearGradient id="paint19_linear_620_1190" x1="97.3938" y1="73.5307" x2="85.0969" y2="120.88" gradientUnits="userSpaceOnUse">
<stop stop-color="#D64053"/>
<stop offset="0.58" stop-color="#ED4768"/>
<stop offset="1" stop-color="#F94A72"/>
</linearGradient>
<linearGradient id="paint20_linear_620_1190" x1="84.854" y1="81.8682" x2="84.8053" y2="96.1525" gradientUnits="userSpaceOnUse">
<stop stop-color="#D64053"/>
<stop offset="0.58" stop-color="#ED4768"/>
<stop offset="1" stop-color="#F94A72"/>
</linearGradient>
<linearGradient id="paint21_linear_620_1190" x1="1258.62" y1="97.5302" x2="1254.76" y2="115.675" gradientUnits="userSpaceOnUse">
<stop stop-color="#DBA379"/>
<stop offset="0.49" stop-color="#E4B186"/>
<stop offset="1" stop-color="#F0C499"/>
</linearGradient>
<linearGradient id="paint22_linear_620_1190" x1="665.335" y1="97.5491" x2="661.419" y2="115.68" gradientUnits="userSpaceOnUse">
<stop stop-color="#DBA379"/>
<stop offset="0.49" stop-color="#E4B186"/>
<stop offset="1" stop-color="#F0C499"/>
</linearGradient>
<linearGradient id="paint23_linear_620_1190" x1="85.957" y1="13.7486" x2="86.0546" y2="69.6961" gradientUnits="userSpaceOnUse">
<stop stop-color="#FFD9B3"/>
<stop offset="0.32" stop-color="#FAD6AE"/>
<stop offset="1" stop-color="#F7D4AB"/>
</linearGradient>
<linearGradient id="paint24_linear_620_1190" x1="74.7187" y1="43.0191" x2="76.7362" y2="29.5057" gradientUnits="userSpaceOnUse">
<stop stop-color="#F7D4AB"/>
<stop offset="0.52" stop-color="#F6D2A8"/>
<stop offset="0.85" stop-color="#F3CAA0"/>
<stop offset="1" stop-color="#F0C499"/>
</linearGradient>
<linearGradient id="paint25_linear_620_1190" x1="95.4604" y1="45.3706" x2="97.5826" y2="29.2251" gradientUnits="userSpaceOnUse">
<stop stop-color="#F7D4AB"/>
<stop offset="0.52" stop-color="#F6D2A8"/>
<stop offset="0.85" stop-color="#F3CAA0"/>
<stop offset="1" stop-color="#F0C499"/>
</linearGradient>
<radialGradient id="paint26_radial_620_1190" cx="0" cy="0" r="1" gradientUnits="userSpaceOnUse" gradientTransform="translate(14.7816 72.9022) rotate(180) scale(8.31093 10.5475)">
<stop stop-color="#F9B38E"/>
<stop offset="0.61" stop-color="#F8C69E"/>
<stop offset="1" stop-color="#F7D4AB"/>
</radialGradient>
<radialGradient id="paint27_radial_620_1190" cx="0" cy="0" r="1" gradientUnits="userSpaceOnUse" gradientTransform="translate(567.083 72.8975) scale(8.33324 10.5724)">
<stop stop-color="#F9B38E"/>
<stop offset="0.61" stop-color="#F8C69E"/>
<stop offset="1" stop-color="#F7D4AB"/>
</radialGradient>
<linearGradient id="paint28_linear_620_1190" x1="86.2124" y1="9.01124" x2="86.2464" y2="30.1051" gradientUnits="userSpaceOnUse">
<stop stop-color="#F7D4AB"/>
<stop offset="0.97" stop-color="#F0C59A"/>
<stop offset="1" stop-color="#F0C499"/>
</linearGradient>
<linearGradient id="paint29_linear_620_1190" x1="65.0134" y1="21.7481" x2="89.9924" y2="38.4589" gradientUnits="userSpaceOnUse">
<stop stop-color="#F9B38E"/>
<stop offset="0.5" stop-color="#F7B690"/>
<stop offset="0.9" stop-color="#F2C096"/>
<stop offset="1" stop-color="#F0C499"/>
</linearGradient>
<linearGradient id="paint30_linear_620_1190" x1="-1017.02" y1="19.9683" x2="-989.754" y2="43.9962" gradientUnits="userSpaceOnUse">
<stop stop-color="#F9B38E"/>
<stop offset="0.5" stop-color="#F7B690"/>
<stop offset="0.9" stop-color="#F2C096"/>
<stop offset="1" stop-color="#F0C499"/>
</linearGradient>
<linearGradient id="paint31_linear_620_1190" x1="74.5686" y1="31.9657" x2="66.7557" y2="31.9657" gradientUnits="userSpaceOnUse">
<stop stop-color="#FFD9B3"/>
<stop offset="0.68" stop-color="#FCD7B0"/>
<stop offset="1" stop-color="#F7D4AB"/>
</linearGradient>
<linearGradient id="paint32_linear_620_1190" x1="-0.938831" y1="33.5696" x2="7.57532" y2="40.9756" gradientUnits="userSpaceOnUse">
<stop stop-color="#DBA379"/>
<stop offset="0.49" stop-color="#E4B186"/>
<stop offset="1" stop-color="#F0C499"/>
</linearGradient>
<linearGradient id="paint33_linear_620_1190" x1="9.94253" y1="36.1796" x2="6.50734" y2="36.1796" gradientUnits="userSpaceOnUse">
<stop stop-color="#ECE7E7"/>
<stop offset="0.23" stop-color="#F6F4F4"/>
<stop offset="0.53" stop-color="#FDFCFC"/>
<stop offset="1" stop-color="white"/>
</linearGradient>
<linearGradient id="paint34_linear_620_1190" x1="2.37503" y1="36.0771" x2="-0.355777" y2="36.0771" gradientUnits="userSpaceOnUse">
<stop stop-color="#ECE7E7"/>
<stop offset="0.23" stop-color="#F6F4F4"/>
<stop offset="0.53" stop-color="#FDFCFC"/>
<stop offset="1" stop-color="white"/>
</linearGradient>
<linearGradient id="paint35_linear_620_1190" x1="0.533785" y1="39.1238" x2="5.62607" y2="32.0194" gradientUnits="userSpaceOnUse">
<stop stop-color="#1A4314"/>
<stop stop-color="#5EAC57"/>
<stop offset="0.046875" stop-color="#3F563B"/>
</linearGradient>
<linearGradient id="paint36_linear_620_1190" x1="-6.10609" y1="36.1601" x2="1.11446" y2="30.7035" gradientUnits="userSpaceOnUse">
<stop stop-color="#3F563B"/>
<stop offset="0.046875" stop-color="#427141"/>
<stop offset="0.0885417" stop-color="#325131"/>
</linearGradient>
<radialGradient id="paint37_radial_620_1190" cx="0" cy="0" r="1" gradientUnits="userSpaceOnUse" gradientTransform="translate(76.5234 36.2443) rotate(180) scale(2.34292 2.34938)">
<stop stop-color="#2A3A3B"/>
<stop offset="1" stop-color="#1C2727"/>
</radialGradient>
<linearGradient id="paint38_linear_620_1190" x1="9.94113" y1="35.5423" x2="-2.66245" y2="35.5423" gradientUnits="userSpaceOnUse">
<stop stop-color="#5A2A1F"/>
<stop offset="0.29" stop-color="#4A2319"/>
<stop offset="0.66" stop-color="#3D1D15"/>
<stop offset="1" stop-color="#391B13"/>
</linearGradient>
<linearGradient id="paint39_linear_620_1190" x1="4.47168" y1="32.3325" x2="5.25877" y2="43.4898" gradientUnits="userSpaceOnUse">
<stop stop-color="#DBA379"/>
<stop offset="0.49" stop-color="#E4B186"/>
<stop offset="1" stop-color="#F0C499"/>
</linearGradient>
<linearGradient id="paint40_linear_620_1190" x1="-37.6279" y1="33.6162" x2="-29.0963" y2="41.0164" gradientUnits="userSpaceOnUse">
<stop stop-color="#DBA379"/>
<stop offset="0.49" stop-color="#E4B186"/>
<stop offset="1" stop-color="#F0C499"/>
</linearGradient>
<linearGradient id="paint41_linear_620_1190" x1="-26.7668" y1="36.2219" x2="-30.1951" y2="36.2219" gradientUnits="userSpaceOnUse">
<stop stop-color="white"/>
<stop offset="0.47" stop-color="#FDFCFC"/>
<stop offset="0.77" stop-color="#F6F4F4"/>
<stop offset="1" stop-color="#ECE7E7"/>
</linearGradient>
<linearGradient id="paint42_linear_620_1190" x1="-34.3401" y1="36.1219" x2="-37.0682" y2="36.1219" gradientUnits="userSpaceOnUse">
<stop stop-color="white"/>
<stop offset="0.47" stop-color="#FDFCFC"/>
<stop offset="0.77" stop-color="#F6F4F4"/>
<stop offset="1" stop-color="#ECE7E7"/>
</linearGradient>
<linearGradient id="paint43_linear_620_1190" x1="96.9908" y1="34.5032" x2="95.4987" y2="43.0969" gradientUnits="userSpaceOnUse">
<stop stop-color="#325131"/>
<stop offset="1" stop-color="#B89C8C"/>
</linearGradient>
<radialGradient id="paint44_radial_620_1190" cx="0" cy="0" r="1" gradientUnits="userSpaceOnUse" gradientTransform="translate(418.668 36.2875) scale(2.34444 2.34859)">
<stop stop-color="#2A3A3B"/>
<stop offset="1" stop-color="#1C2727"/>
</radialGradient>
<linearGradient id="paint45_linear_620_1190" x1="-26.762" y1="35.5811" x2="-39.3653" y2="35.5811" gradientUnits="userSpaceOnUse">
<stop stop-color="#5A2A1F"/>
<stop offset="0.29" stop-color="#4A2319"/>
<stop offset="0.66" stop-color="#3D1D15"/>
<stop offset="1" stop-color="#391B13"/>
</linearGradient>
<linearGradient id="paint46_linear_620_1190" x1="-32.2421" y1="32.3729" x2="-31.4562" y2="43.5372" gradientUnits="userSpaceOnUse">
<stop stop-color="#DBA379"/>
<stop offset="0.49" stop-color="#E4B186"/>
<stop offset="1" stop-color="#F0C499"/>
</linearGradient>
<linearGradient id="paint47_linear_620_1190" x1="85.6922" y1="49.9769" x2="85.8219" y2="46.3399" gradientUnits="userSpaceOnUse">
<stop stop-color="#F7D4AB"/>
<stop offset="0.52" stop-color="#F6D2A8"/>
<stop offset="0.85" stop-color="#F3CAA0"/>
<stop offset="1" stop-color="#F0C499"/>
</linearGradient>
<linearGradient id="paint48_linear_620_1190" x1="86.2606" y1="46.0699" x2="86.2611" y2="48.9192" gradientUnits="userSpaceOnUse">
<stop stop-color="#DBA379"/>
<stop offset="0.49" stop-color="#E4B186"/>
<stop offset="1" stop-color="#F0C499"/>
</linearGradient>
<linearGradient id="paint49_linear_620_1190" x1="86.4332" y1="42.2119" x2="86.4178" y2="45.1253" gradientUnits="userSpaceOnUse">
<stop stop-color="#F7D4AB"/>
<stop offset="1" stop-color="#FFD9B3"/>
</linearGradient>
<linearGradient id="paint50_linear_620_1190" x1="80.7229" y1="27.84" x2="68.2767" y2="27.84" gradientUnits="userSpaceOnUse">
<stop stop-color="#673024"/>
<stop offset="0.34" stop-color="#53271C"/>
<stop offset="0.68" stop-color="#462118"/>
<stop offset="1" stop-color="#421F16"/>
</linearGradient>
<linearGradient id="paint51_linear_620_1190" x1="161.559" y1="27.84" x2="149.117" y2="27.84" gradientUnits="userSpaceOnUse">
<stop stop-color="#673024"/>
<stop offset="0.34" stop-color="#53271C"/>
<stop offset="0.68" stop-color="#462118"/>
<stop offset="1" stop-color="#421F16"/>
</linearGradient>
<linearGradient id="paint52_linear_620_1190" x1="85.3236" y1="62.3893" x2="85.5489" y2="76.7878" gradientUnits="userSpaceOnUse">
<stop stop-color="#DBA379"/>
<stop offset="0.49" stop-color="#E4B186"/>
<stop offset="1" stop-color="#F0C499"/>
</linearGradient>
<linearGradient id="paint53_linear_620_1190" x1="85.7929" y1="62.6887" x2="85.7802" y2="68.4783" gradientUnits="userSpaceOnUse">
<stop stop-color="#FFD9B3"/>
<stop offset="0.68" stop-color="#FCD7B0"/>
<stop offset="1" stop-color="#F7D4AB"/>
</linearGradient>
<linearGradient id="paint54_linear_620_1190" x1="93.5068" y1="50.2658" x2="78.8135" y2="50.2658" gradientUnits="userSpaceOnUse">
<stop stop-color="#F8D4AC"/>
<stop offset="0.52" stop-color="#FFD9B3"/>
<stop offset="1" stop-color="#F7D4AB"/>
</linearGradient>
<linearGradient id="paint55_linear_620_1190" x1="81.0582" y1="50.4276" x2="81.7083" y2="63.1441" gradientUnits="userSpaceOnUse">
<stop stop-color="#DBA379"/>
<stop offset="0.49" stop-color="#E4B186"/>
<stop offset="1" stop-color="#F0C499"/>
</linearGradient>
<linearGradient id="paint56_linear_620_1190" x1="100.316" y1="45.9668" x2="102.435" y2="43.2555" gradientUnits="userSpaceOnUse">
<stop stop-color="#DBA379"/>
<stop offset="0.49" stop-color="#E4B186"/>
<stop offset="1" stop-color="#F0C499"/>
</linearGradient>
<linearGradient id="paint57_linear_620_1190" x1="-1509.64" y1="-115.439" x2="-1507.88" y2="-118.14" gradientUnits="userSpaceOnUse">
<stop stop-color="#DBA379"/>
<stop offset="0.49" stop-color="#E4B186"/>
<stop offset="1" stop-color="#F0C499"/>
</linearGradient>
<linearGradient id="paint58_linear_620_1190" x1="65.856" y1="70.3309" x2="65.8836" y2="64.4561" gradientUnits="userSpaceOnUse">
<stop stop-color="#E46980"/>
<stop offset="0.37" stop-color="#E2677E"/>
<stop offset="0.55" stop-color="#DB6076"/>
<stop offset="0.69" stop-color="#D05569"/>
<stop offset="0.81" stop-color="#BF4556"/>
<stop offset="0.92" stop-color="#AA303E"/>
<stop offset="1" stop-color="#951C27"/>
</linearGradient>
<linearGradient id="paint59_linear_620_1190" x1="66.1496" y1="63.7297" x2="66.131" y2="60.6545" gradientUnits="userSpaceOnUse">
<stop stop-color="#E7D7D6"/>
<stop offset="0.14" stop-color="#EFE5E4"/>
<stop offset="0.4" stop-color="#FBF8F8"/>
<stop offset="0.57" stop-color="white"/>
<stop offset="1" stop-color="#E7D1D0"/>
</linearGradient>
<linearGradient id="paint60_linear_620_1190" x1="65.799" y1="70.3453" x2="65.8118" y2="65.7891" gradientUnits="userSpaceOnUse">
<stop stop-color="#E46980"/>
<stop offset="0.37" stop-color="#E2677E"/>
<stop offset="0.55" stop-color="#DB6076"/>
<stop offset="0.69" stop-color="#D05569"/>
<stop offset="0.81" stop-color="#BF4556"/>
<stop offset="0.92" stop-color="#AA303E"/>
<stop offset="1" stop-color="#951C27"/>
</linearGradient>
<linearGradient id="paint61_linear_620_1190" x1="66.0402" y1="66.1313" x2="66.1181" y2="72.1454" gradientUnits="userSpaceOnUse">
<stop stop-color="#F96E7E"/>
<stop offset="0.03" stop-color="#FA7080"/>
<stop offset="0.25" stop-color="#FE7A86"/>
<stop offset="0.53" stop-color="#FF7D88"/>
<stop offset="0.76" stop-color="#FD7985"/>
<stop offset="1" stop-color="#F86D7D"/>
</linearGradient>
<linearGradient id="paint62_linear_620_1190" x1="65.9682" y1="64.3732" x2="65.969" y2="59.7396" gradientUnits="userSpaceOnUse">
<stop stop-color="#E7D7D6"/>
<stop offset="0.05" stop-color="#EADBDA"/>
<stop offset="0.31" stop-color="#F6EEEE"/>
<stop offset="0.48" stop-color="#FAF5F5"/>
<stop offset="1" stop-color="#E7D1D0"/>
</linearGradient>
<linearGradient id="paint63_linear_620_1190" x1="66.1935" y1="59.7574" x2="66.1961" y2="61.6674" gradientUnits="userSpaceOnUse">
<stop stop-color="#F96E7E"/>
<stop offset="0.03" stop-color="#FA7080"/>
<stop offset="0.25" stop-color="#FE7A86"/>
<stop offset="0.53" stop-color="#FF7D88"/>
<stop offset="0.76" stop-color="#FD7985"/>
<stop offset="1" stop-color="#F86D7D"/>
</linearGradient>
<linearGradient id="paint64_linear_620_1190" x1="72.1892" y1="54.4287" x2="16.3192" y2="132.077" gradientUnits="userSpaceOnUse">
<stop stop-color="#391C15"/>
<stop offset="0.31" stop-color="#6B3329"/>
<stop offset="0.66" stop-color="#5E2C23"/>
<stop offset="1" stop-color="#4A2019"/>
</linearGradient>
<linearGradient id="paint65_linear_620_1190" x1="51.7675" y1="53.8509" x2="-2.44359" y2="130.852" gradientUnits="userSpaceOnUse">
<stop stop-color="#70362B"/>
<stop offset="0.31" stop-color="#6B3329"/>
<stop offset="0.66" stop-color="#5E2C23"/>
<stop offset="1" stop-color="#4A2019"/>
</linearGradient>
<linearGradient id="paint66_linear_620_1190" x1="114.698" y1="62.8749" x2="121.535" y2="64.5161" gradientUnits="userSpaceOnUse">
<stop stop-color="#70362B"/>
<stop offset="0.31" stop-color="#6B3329"/>
<stop offset="0.66" stop-color="#5E2C23"/>
<stop offset="1" stop-color="#4A2019"/>
</linearGradient>
<linearGradient id="paint67_linear_620_1190" x1="286.208" y1="426.771" x2="285.943" y2="426.771" gradientUnits="userSpaceOnUse">
<stop stop-color="#F8C39C"/>
<stop offset="0.48" stop-color="#FCD0A9"/>
<stop offset="1" stop-color="#FFD9B3"/>
</linearGradient>
<linearGradient id="paint68_linear_620_1190" x1="287.07" y1="429.568" x2="286.806" y2="429.568" gradientUnits="userSpaceOnUse">
<stop stop-color="#FFD9B3"/>
<stop offset="0.52" stop-color="#FCD0A9"/>
<stop offset="1" stop-color="#F8C39C"/>
</linearGradient>
<linearGradient id="paint69_linear_620_1190" x1="-39.3854" y1="-249.653" x2="-39.6937" y2="-225.481" gradientUnits="userSpaceOnUse">
<stop stop-color="#F7D4AB"/>
<stop offset="0.57" stop-color="#F5CEA5"/>
<stop offset="1" stop-color="#F1C69C"/>
</linearGradient>
<linearGradient id="paint70_linear_620_1190" x1="-173.399" y1="170.342" x2="-178.544" y2="123.265" gradientUnits="userSpaceOnUse">
<stop stop-color="#F0C499"/>
<stop offset="0.71" stop-color="#F5CEA5"/>
<stop offset="1" stop-color="#F7D4AB"/>
</linearGradient>
<linearGradient id="paint71_linear_620_1190" x1="-179.914" y1="132.704" x2="-193.554" y2="95.8459" gradientUnits="userSpaceOnUse">
<stop stop-color="#F0C499"/>
<stop offset="0.71" stop-color="#F5CEA5"/>
<stop offset="1" stop-color="#F7D4AB"/>
</linearGradient>
<linearGradient id="paint72_linear_620_1190" x1="-155.747" y1="124.978" x2="-162.985" y2="58.7771" gradientUnits="userSpaceOnUse">
<stop stop-color="#F0C499"/>
<stop offset="0.71" stop-color="#F5CEA5"/>
<stop offset="1" stop-color="#F7D4AB"/>
</linearGradient>
<linearGradient id="paint73_linear_620_1190" x1="-181.114" y1="134.183" x2="-190.25" y2="99.9946" gradientUnits="userSpaceOnUse">
<stop stop-color="#F0C499"/>
<stop offset="0.71" stop-color="#F5CEA5"/>
<stop offset="1" stop-color="#F7D4AB"/>
</linearGradient>
<linearGradient id="paint74_linear_620_1190" x1="-152.048" y1="126.589" x2="-158.511" y2="69.0854" gradientUnits="userSpaceOnUse">
<stop stop-color="#F0C499"/>
<stop offset="0.71" stop-color="#F5CEA5"/>
<stop offset="1" stop-color="#F7D4AB"/>
</linearGradient>
<linearGradient id="paint75_linear_620_1190" x1="-179.514" y1="137.202" x2="-184.204" y2="110.837" gradientUnits="userSpaceOnUse">
<stop stop-color="#F0C499"/>
<stop offset="0.71" stop-color="#F5CEA5"/>
<stop offset="1" stop-color="#F7D4AB"/>
</linearGradient>
<linearGradient id="paint76_linear_620_1190" x1="-165.811" y1="148.817" x2="-172.722" y2="126.683" gradientUnits="userSpaceOnUse">
<stop stop-color="#F0C499"/>
<stop offset="0.71" stop-color="#F5CEA5"/>
<stop offset="1" stop-color="#F7D4AB"/>
</linearGradient>
<linearGradient id="paint77_linear_620_1190" x1="-172.143" y1="134.064" x2="-184.85" y2="130.813" gradientUnits="userSpaceOnUse">
<stop stop-color="#F0C499"/>
<stop offset="0.71" stop-color="#F5CEA5"/>
<stop offset="1" stop-color="#F7D4AB"/>
</linearGradient>
<linearGradient id="paint78_linear_620_1190" x1="-175.094" y1="134.678" x2="-184.493" y2="104.412" gradientUnits="userSpaceOnUse">
<stop stop-color="#FFD9B3"/>
<stop offset="0.68" stop-color="#FCD7B0"/>
<stop offset="1" stop-color="#F7D4AB"/>
</linearGradient>
<linearGradient id="paint79_linear_620_1190" x1="-197.668" y1="311.583" x2="-198.616" y2="294.265" gradientUnits="userSpaceOnUse">
<stop stop-color="#FFD9B3"/>
<stop offset="0.68" stop-color="#FCD7B0"/>
<stop offset="1" stop-color="#F7D4AB"/>
</linearGradient>
<linearGradient id="paint80_linear_620_1190" x1="-169.676" y1="178.745" x2="-191.434" y2="164.533" gradientUnits="userSpaceOnUse">
<stop stop-color="#F0C499"/>
<stop offset="0.52" stop-color="#F1C69C"/>
<stop offset="0.85" stop-color="#F4CEA4"/>
<stop offset="1" stop-color="#F7D4AB"/>
</linearGradient>
<linearGradient id="paint81_linear_620_1190" x1="-180.978" y1="131.072" x2="-168.565" y2="133.147" gradientUnits="userSpaceOnUse">
<stop stop-color="#FFD9B3"/>
<stop offset="0.68" stop-color="#FCD7B0"/>
<stop offset="1" stop-color="#F7D4AB"/>
</linearGradient>
<linearGradient id="paint82_linear_620_1190" x1="-182.15" y1="139.897" x2="-185.453" y2="131.245" gradientUnits="userSpaceOnUse">
<stop stop-color="#FFD9B3"/>
<stop offset="0.68" stop-color="#FCD7B0"/>
<stop offset="1" stop-color="#F7D4AB"/>
</linearGradient>
<linearGradient id="paint83_linear_620_1190" x1="-161.375" y1="104.11" x2="-175.502" y2="101.79" gradientUnits="userSpaceOnUse">
<stop stop-color="#F0C499"/>
<stop offset="0.52" stop-color="#F1C69C"/>
<stop offset="0.85" stop-color="#F4CEA4"/>
<stop offset="1" stop-color="#F7D4AB"/>
</linearGradient>
<linearGradient id="paint84_linear_620_1190" x1="154.581" y1="-216.286" x2="126.81" y2="-199.273" gradientUnits="userSpaceOnUse">
<stop stop-color="#FF6586"/>
<stop offset="0.52" stop-color="#FB547A"/>
<stop offset="1" stop-color="#F94A72"/>
</linearGradient>
<linearGradient id="paint85_linear_620_1190" x1="7.56176" y1="389.252" x2="7.31797" y2="414.073" gradientUnits="userSpaceOnUse">
<stop stop-color="#F7D4AB"/>
<stop offset="0.57" stop-color="#F5CEA5"/>
<stop offset="1" stop-color="#F1C69C"/>
</linearGradient>
<linearGradient id="paint86_linear_620_1190" x1="31.7022" y1="221.96" x2="26.0337" y2="174.871" gradientUnits="userSpaceOnUse">
<stop stop-color="#F0C499"/>
<stop offset="0.71" stop-color="#F5CEA5"/>
<stop offset="1" stop-color="#F7D4AB"/>
</linearGradient>
<linearGradient id="paint87_linear_620_1190" x1="25.1211" y1="184.313" x2="9.60833" y2="147.094" gradientUnits="userSpaceOnUse">
<stop stop-color="#F0C499"/>
<stop offset="0.71" stop-color="#F5CEA5"/>
<stop offset="1" stop-color="#F7D4AB"/>
</linearGradient>
<linearGradient id="paint88_linear_620_1190" x1="53.0584" y1="160.229" x2="44.8705" y2="93.791" gradientUnits="userSpaceOnUse">
<stop stop-color="#F0C499"/>
<stop offset="0.71" stop-color="#F5CEA5"/>
<stop offset="1" stop-color="#F7D4AB"/>
</linearGradient>
<linearGradient id="paint89_linear_620_1190" x1="23.927" y1="185.788" x2="13.3294" y2="151.008" gradientUnits="userSpaceOnUse">
<stop stop-color="#F0C499"/>
<stop offset="0.71" stop-color="#F5CEA5"/>
<stop offset="1" stop-color="#F7D4AB"/>
</linearGradient>
<linearGradient id="paint90_linear_620_1190" x1="56.754" y1="162.521" x2="49.3246" y2="104.673" gradientUnits="userSpaceOnUse">
<stop stop-color="#F0C499"/>
<stop offset="0.71" stop-color="#F5CEA5"/>
<stop offset="1" stop-color="#F7D4AB"/>
</linearGradient>
<linearGradient id="paint91_linear_620_1190" x1="25.5352" y1="188.82" x2="20.1038" y2="161.977" gradientUnits="userSpaceOnUse">
<stop stop-color="#F0C499"/>
<stop offset="0.71" stop-color="#F5CEA5"/>
<stop offset="1" stop-color="#F7D4AB"/>
</linearGradient>
<linearGradient id="paint92_linear_620_1190" x1="39.3258" y1="200.426" x2="31.4622" y2="178.022" gradientUnits="userSpaceOnUse">
<stop stop-color="#F0C499"/>
<stop offset="0.71" stop-color="#F5CEA5"/>
<stop offset="1" stop-color="#F7D4AB"/>
</linearGradient>
<linearGradient id="paint93_linear_620_1190" x1="32.9491" y1="185.76" x2="20.3016" y2="182.893" gradientUnits="userSpaceOnUse">
<stop stop-color="#F0C499"/>
<stop offset="0.71" stop-color="#F5CEA5"/>
<stop offset="1" stop-color="#F7D4AB"/>
</linearGradient>
<linearGradient id="paint94_linear_620_1190" x1="30.024" y1="186.297" x2="19.2226" y2="155.576" gradientUnits="userSpaceOnUse">
<stop stop-color="#FFD9B3"/>
<stop offset="0.68" stop-color="#FCD7B0"/>
<stop offset="1" stop-color="#F7D4AB"/>
</linearGradient>
<linearGradient id="paint95_linear_620_1190" x1="-5.91418" y1="401.312" x2="-6.93916" y2="383.99" gradientUnits="userSpaceOnUse">
<stop stop-color="#FFD9B3"/>
<stop offset="0.68" stop-color="#FCD7B0"/>
<stop offset="1" stop-color="#F7D4AB"/>
</linearGradient>
<linearGradient id="paint96_linear_620_1190" x1="35.433" y1="228.994" x2="14.4196" y2="216.297" gradientUnits="userSpaceOnUse">
<stop stop-color="#F0C499"/>
<stop offset="0.52" stop-color="#F1C69C"/>
<stop offset="0.85" stop-color="#F4CEA4"/>
<stop offset="1" stop-color="#F7D4AB"/>
</linearGradient>
<linearGradient id="paint97_linear_620_1190" x1="24.1301" y1="182.705" x2="36.5222" y2="184.556" gradientUnits="userSpaceOnUse">
<stop stop-color="#FFD9B3"/>
<stop offset="0.68" stop-color="#FCD7B0"/>
<stop offset="1" stop-color="#F7D4AB"/>
</linearGradient>
<linearGradient id="paint98_linear_620_1190" x1="22.9436" y1="191.516" x2="19.2137" y2="182.8" gradientUnits="userSpaceOnUse">
<stop stop-color="#FFD9B3"/>
<stop offset="0.68" stop-color="#FCD7B0"/>
<stop offset="1" stop-color="#F7D4AB"/>
</linearGradient>
<linearGradient id="paint99_linear_620_1190" x1="52.9299" y1="100.798" x2="40.5845" y2="98.5276" gradientUnits="userSpaceOnUse">
<stop stop-color="#F0C499"/>
<stop offset="0.52" stop-color="#F1C69C"/>
<stop offset="0.85" stop-color="#F4CEA4"/>
<stop offset="1" stop-color="#F7D4AB"/>
</linearGradient>
<linearGradient id="paint100_linear_620_1190" x1="2.057" y1="431.148" x2="-26.5919" y2="450.344" gradientUnits="userSpaceOnUse">
<stop stop-color="#FF6586"/>
<stop offset="0.52" stop-color="#FB547A"/>
<stop offset="1" stop-color="#F94A72"/>
</linearGradient>
</defs>
</svg>
